<svg width="600" height="600" viewBox="0 0 600 600" fill="none" xmlns="http://www.w3.org/2000/svg">
<path d="M67.01 363.68C67.01 363.68 155.74 545.18 161.12 545.18C166.5 545.18 485.13 413.42 494.54 410.73C503.95 408.04 397.74 217.13 389.67 222.51C381.6 227.89 67 363.68 67 363.68H67.01Z" fill="#A27298"/>
<path d="M378.251 219.151C367.621 216.651 357.131 216.571 347.001 218.231L325.821 186.881C253.221 196.961 247.171 287.711 247.171 287.711C138.271 259.481 71.721 350.231 77.771 356.281C83.821 362.331 166.501 535.761 166.501 535.761C196.751 469.211 329.851 475.261 329.851 475.261C356.071 406.691 481.101 400.641 481.101 400.641L378.251 219.141V219.151Z" fill="white"/>
<path d="M105.279 350.9C105.279 350.9 107.869 331.51 120.149 334.09C126.659 335.46 128.549 337.32 131.139 336.68C133.729 336.04 136.309 325.04 142.779 324.4C149.249 323.76 148.599 329.57 153.119 328.28C157.649 326.99 155.709 316 164.759 316.64C173.809 317.28 171.869 321.81 176.399 321.17C180.929 320.52 182.859 308.24 191.919 308.89C200.969 309.54 198.379 316 202.909 315.35C207.439 314.7 212.609 301.13 219.719 302.42C226.829 303.71 222.309 313.41 230.709 312.12C239.109 310.83 238.469 302.42 238.469 302.42" fill="white"/>
<path d="M105.279 351.891C105.279 351.891 105.189 351.891 105.149 351.891C104.609 351.821 104.219 351.321 104.299 350.771C104.359 350.301 105.909 339.171 112.249 334.691C114.619 333.011 117.349 332.481 120.359 333.121C123.249 333.731 125.299 334.451 126.799 334.971C128.689 335.641 129.739 336.001 130.909 335.711C131.469 335.571 132.589 333.601 133.409 332.161C135.409 328.651 138.139 323.861 142.689 323.401C146.549 322.991 148.299 324.771 149.579 326.051C150.679 327.151 151.279 327.761 152.859 327.311C154.179 326.931 154.849 325.171 155.629 323.121C156.899 319.771 158.619 315.201 164.839 315.641C170.269 316.031 172.069 317.781 173.389 319.061C174.329 319.971 174.749 320.381 176.259 320.171C177.609 319.981 178.939 317.991 180.339 315.881C182.839 312.121 185.939 307.481 191.989 307.881C197.659 308.291 199.289 310.971 200.369 312.741C201.199 314.111 201.519 314.531 202.759 314.351C204.239 314.141 206.219 311.661 208.139 309.271C211.409 305.191 215.129 300.561 219.889 301.431C223.779 302.141 224.739 305.061 225.499 307.411C226.369 310.071 226.889 311.691 230.549 311.121C237.919 309.991 237.489 302.781 237.469 302.481C237.429 301.931 237.839 301.461 238.389 301.421C238.939 301.371 239.409 301.791 239.449 302.331C239.449 302.421 240.059 311.671 230.849 313.091C225.519 313.901 224.459 310.651 223.609 308.031C222.889 305.801 222.259 303.881 219.529 303.391C215.929 302.731 212.619 306.871 209.689 310.521C207.329 313.461 205.289 316.001 203.039 316.331C200.439 316.691 199.499 315.151 198.669 313.781C197.649 312.101 196.489 310.201 191.839 309.871C186.949 309.511 184.319 313.491 181.989 316.991C180.259 319.591 178.769 321.831 176.529 322.151C174.049 322.501 172.999 321.481 171.989 320.501C170.829 319.371 169.389 317.971 164.679 317.631C159.929 317.271 158.749 320.471 157.469 323.841C156.579 326.171 155.659 328.581 153.389 329.231C150.679 330.011 149.329 328.651 148.149 327.461C146.939 326.241 145.789 325.101 142.869 325.381C139.349 325.731 137.009 329.841 135.119 333.151C133.749 335.561 132.759 337.291 131.369 337.641C129.619 338.081 128.149 337.561 126.119 336.851C124.599 336.311 122.699 335.651 119.929 335.061C117.449 334.541 115.299 334.941 113.369 336.311C107.739 340.291 106.259 350.921 106.249 351.031C106.179 351.531 105.759 351.891 105.269 351.891H105.279Z" fill="#261D2A"/>
<path d="M117.568 375.47C117.568 375.47 119.508 365.131 133.728 361.251C147.948 357.371 142.778 367.071 151.188 365.131C159.588 363.191 153.128 353.491 164.768 350.261C176.408 347.031 170.588 352.851 178.988 353.491C187.388 354.141 189.978 341.851 198.378 339.271C206.778 336.681 204.838 344.441 211.958 343.151C219.068 341.861 224.888 327.631 230.058 328.931C235.228 330.231 241.048 342.51 246.868 332.16" fill="white"/>
<path d="M117.569 376.461C117.509 376.461 117.449 376.461 117.379 376.441C116.839 376.341 116.489 375.821 116.589 375.281C116.669 374.831 118.809 364.281 133.469 360.281C142.179 357.911 144.299 360.471 146.009 362.521C147.169 363.921 147.929 364.851 150.959 364.151C154.259 363.391 154.819 361.391 155.599 358.611C156.529 355.301 157.679 351.181 164.489 349.291C171.299 347.401 172.739 348.411 174.299 350.301C175.079 351.251 175.899 352.241 179.059 352.481C183.099 352.771 185.669 349.671 188.639 346.061C191.259 342.871 193.969 339.561 198.089 338.301C203.149 336.741 205.089 338.721 206.649 340.301C207.949 341.621 208.979 342.661 211.779 342.151C214.949 341.571 218.109 337.821 220.889 334.511C224.079 330.721 227.089 327.151 230.299 327.941C232.169 328.411 233.919 329.961 235.779 331.611C237.969 333.551 240.249 335.551 242.249 335.221C243.529 335.001 244.789 333.801 245.999 331.651C246.269 331.171 246.869 331.001 247.349 331.271C247.829 331.541 247.999 332.151 247.729 332.621C246.189 335.361 244.509 336.851 242.579 337.171C239.639 337.671 236.999 335.341 234.459 333.091C232.859 331.671 231.209 330.211 229.809 329.861C227.799 329.351 225.059 332.621 222.399 335.781C219.249 339.521 215.999 343.391 212.119 344.101C208.279 344.801 206.589 343.071 205.219 341.691C203.739 340.181 202.569 339.001 198.659 340.191C195.109 341.281 192.599 344.351 190.159 347.311C187.119 351.011 183.989 354.861 178.889 354.451C174.889 354.141 173.699 352.701 172.749 351.551C171.769 350.361 171.059 349.501 165.009 351.191C159.279 352.781 158.409 355.871 157.499 359.131C156.689 362.041 155.839 365.041 151.389 366.071C147.169 367.041 145.729 365.311 144.459 363.781C142.979 361.991 141.449 360.151 133.969 362.191C120.569 365.841 118.599 375.241 118.519 375.641C118.429 376.121 118.009 376.451 117.549 376.451L117.569 376.461Z" fill="#261D2A"/>
<path d="M131.141 408.44C131.141 408.44 133.731 389.05 146.011 391.63C152.521 393 154.411 394.86 157.001 394.22C159.591 393.58 162.171 382.58 168.641 381.94C175.111 381.3 174.461 387.11 178.981 385.82C183.511 384.53 181.571 373.54 190.621 374.18C199.671 374.82 197.731 379.35 202.261 378.71C206.791 378.07 208.721 365.78 217.781 366.43C226.831 367.08 224.241 373.54 228.771 372.89C233.301 372.24 238.471 358.67 245.581 359.96C252.691 361.25 248.171 370.95 256.571 369.66C264.971 368.37 264.331 359.96 264.331 359.96" fill="white"/>
<path d="M131.141 409.431C131.141 409.431 131.051 409.431 131.011 409.431C130.471 409.361 130.081 408.861 130.161 408.311C130.221 407.841 131.771 396.711 138.111 392.231C140.481 390.551 143.211 390.021 146.221 390.661C149.111 391.271 151.161 391.991 152.651 392.511C154.541 393.181 155.591 393.541 156.761 393.251C157.321 393.111 158.441 391.141 159.261 389.701C161.261 386.191 163.991 381.391 168.541 380.941C172.401 380.531 174.151 382.311 175.421 383.591C176.521 384.691 177.121 385.301 178.701 384.851C180.021 384.471 180.691 382.711 181.471 380.661C182.741 377.321 184.471 372.751 190.681 373.181C196.111 373.571 197.911 375.321 199.231 376.601C200.171 377.511 200.591 377.931 202.101 377.711C203.461 377.521 204.781 375.531 206.181 373.421C208.681 369.671 211.771 365.021 217.821 365.421C223.491 365.831 225.121 368.511 226.201 370.281C227.031 371.651 227.351 372.071 228.591 371.891C230.071 371.681 232.051 369.201 233.971 366.811C237.241 362.731 240.941 358.091 245.711 358.971C249.601 359.681 250.561 362.601 251.321 364.951C252.191 367.621 252.721 369.231 256.371 368.661C263.741 367.531 263.311 360.321 263.291 360.021C263.251 359.471 263.661 359.001 264.211 358.961C264.751 358.901 265.231 359.331 265.271 359.871C265.271 359.961 265.881 369.211 256.671 370.631C251.321 371.441 250.281 368.191 249.431 365.571C248.711 363.341 248.081 361.421 245.351 360.931C241.731 360.261 238.441 364.411 235.511 368.061C233.151 371.001 231.111 373.541 228.861 373.871C226.251 374.231 225.321 372.691 224.491 371.321C223.471 369.641 222.311 367.741 217.661 367.411C212.781 367.051 210.141 371.031 207.811 374.531C206.081 377.131 204.591 379.371 202.351 379.691C199.871 380.041 198.821 379.021 197.811 378.041C196.651 376.911 195.211 375.511 190.501 375.181C185.781 374.811 184.571 378.021 183.291 381.391C182.401 383.721 181.481 386.131 179.211 386.781C176.491 387.561 175.151 386.201 173.971 385.011C172.761 383.791 171.611 382.651 168.691 382.931C165.171 383.281 162.821 387.391 160.941 390.701C159.571 393.111 158.581 394.841 157.191 395.191C155.441 395.621 153.971 395.111 151.941 394.401C150.421 393.861 148.521 393.201 145.761 392.611C143.281 392.091 141.131 392.501 139.201 393.861C133.571 397.841 132.091 408.471 132.081 408.581C132.011 409.081 131.591 409.441 131.101 409.441L131.141 409.431Z" fill="#261D2A"/>
<path d="M143.43 433.001C143.43 433.001 145.37 422.661 159.59 418.781C173.81 414.901 168.64 424.601 177.05 422.661C185.45 420.721 178.99 411.021 190.63 407.791C202.27 404.561 196.45 410.381 204.85 411.021C213.25 411.671 215.84 399.381 224.24 396.801C232.64 394.221 230.7 401.971 237.82 400.681C244.94 399.391 250.75 385.161 255.92 386.461C261.09 387.751 266.91 400.041 272.73 389.691" fill="white"/>
<path d="M143.431 434.001C143.371 434.001 143.311 434.001 143.241 433.981C142.701 433.881 142.351 433.361 142.451 432.821C142.531 432.371 144.671 421.821 159.331 417.821C168.041 415.451 170.161 418.011 171.871 420.061C173.031 421.461 173.791 422.381 176.821 421.681C180.121 420.921 180.681 418.921 181.461 416.141C182.391 412.831 183.541 408.711 190.351 406.821C197.161 404.931 198.601 405.941 200.161 407.831C200.941 408.781 201.761 409.771 204.911 410.011C208.981 410.301 211.521 407.201 214.491 403.591C217.111 400.401 219.821 397.101 223.941 395.831C229.001 394.271 230.941 396.241 232.501 397.831C233.801 399.151 234.831 400.201 237.631 399.681C240.801 399.101 243.951 395.351 246.741 392.041C249.931 388.251 252.941 384.691 256.151 385.471C258.021 385.941 259.771 387.491 261.631 389.141C263.821 391.081 266.091 393.091 268.101 392.751C269.381 392.531 270.641 391.341 271.851 389.181C272.121 388.701 272.721 388.531 273.201 388.801C273.681 389.071 273.851 389.681 273.581 390.151C272.041 392.891 270.351 394.381 268.431 394.701C265.491 395.201 262.861 392.871 260.311 390.621C258.711 389.211 257.061 387.741 255.661 387.391C253.661 386.891 250.911 390.151 248.251 393.311C245.101 397.051 241.851 400.921 237.981 401.631C234.141 402.331 232.451 400.601 231.081 399.221C229.591 397.711 228.421 396.531 224.521 397.731C220.971 398.821 218.461 401.891 216.021 404.851C212.981 408.551 209.851 412.411 204.751 411.991C200.751 411.681 199.561 410.251 198.611 409.091C197.631 407.901 196.921 407.041 190.871 408.731C185.141 410.321 184.271 413.411 183.361 416.671C182.551 419.571 181.701 422.581 177.251 423.611C173.031 424.581 171.591 422.851 170.321 421.321C168.841 419.531 167.311 417.691 159.831 419.731C146.431 423.381 144.461 432.781 144.381 433.181C144.291 433.661 143.871 433.991 143.411 433.991L143.431 434.001Z" fill="#261D2A"/>
<path d="M154.42 465.98C154.42 465.98 157.01 446.59 169.29 449.17C175.8 450.54 177.69 452.4 180.28 451.76C182.87 451.12 185.45 440.12 191.92 439.48C198.39 438.84 197.74 444.65 202.26 443.36C206.78 442.07 204.85 431.08 213.9 431.72C222.95 432.36 221.01 436.89 225.54 436.25C230.07 435.61 232 423.32 241.06 423.97C250.11 424.62 247.52 431.08 252.05 430.43C256.58 429.78 261.75 416.21 268.86 417.5C275.97 418.79 271.45 428.49 279.85 427.2C288.25 425.91 287.61 417.5 287.61 417.5" fill="white"/>
<path d="M154.42 466.971C154.42 466.971 154.33 466.971 154.29 466.971C153.75 466.901 153.36 466.401 153.44 465.851C153.5 465.381 155.05 454.251 161.39 449.771C163.76 448.091 166.49 447.561 169.5 448.201C172.39 448.811 174.44 449.531 175.93 450.051C177.82 450.721 178.86 451.081 180.04 450.791C180.6 450.651 181.72 448.681 182.54 447.241C184.54 443.731 187.27 438.931 191.82 438.481C195.68 438.071 197.43 439.851 198.7 441.131C199.8 442.231 200.4 442.841 201.99 442.391C203.31 442.011 203.98 440.241 204.76 438.201C206.03 434.851 207.76 430.281 213.97 430.721C219.4 431.111 221.2 432.861 222.52 434.141C223.46 435.051 223.88 435.461 225.39 435.251C226.74 435.061 228.07 433.071 229.47 430.961C231.97 427.211 235.06 422.541 241.12 422.961C246.79 423.371 248.42 426.051 249.5 427.821C250.33 429.191 250.66 429.611 251.89 429.431C253.37 429.221 255.35 426.741 257.27 424.351C260.54 420.271 264.26 415.641 269.01 416.511C272.9 417.221 273.86 420.141 274.62 422.491C275.49 425.151 276.01 426.771 279.67 426.201C287.04 425.061 286.61 417.861 286.59 417.561C286.55 417.011 286.96 416.541 287.51 416.501C288.06 416.451 288.53 416.871 288.57 417.411C288.57 417.501 289.18 426.751 279.97 428.171C274.63 428.991 273.58 425.731 272.73 423.111C272.01 420.881 271.38 418.961 268.65 418.471C265.04 417.821 261.74 421.951 258.81 425.601C256.45 428.541 254.41 431.081 252.16 431.411C249.58 431.771 248.62 430.231 247.79 428.861C246.77 427.181 245.61 425.281 240.96 424.951C236.08 424.571 233.44 428.561 231.11 432.071C229.38 434.671 227.89 436.911 225.65 437.231C223.17 437.581 222.12 436.561 221.11 435.581C219.95 434.451 218.51 433.051 213.8 432.711C209.07 432.351 207.87 435.551 206.59 438.921C205.7 441.251 204.78 443.661 202.51 444.311C199.8 445.091 198.45 443.731 197.27 442.541C196.06 441.321 194.91 440.171 191.99 440.461C188.47 440.811 186.12 444.921 184.24 448.231C182.87 450.641 181.88 452.371 180.49 452.721C178.74 453.151 177.27 452.641 175.24 451.931C173.72 451.391 171.82 450.731 169.06 450.141C166.58 449.621 164.44 450.031 162.51 451.391C156.89 455.361 155.4 466.001 155.38 466.111C155.31 466.611 154.89 466.971 154.4 466.971H154.42Z" fill="#261D2A"/>
<path d="M166.699 490.541C166.699 490.541 168.639 480.201 182.859 476.321C197.079 472.441 191.909 482.141 200.319 480.201C208.719 478.261 202.259 468.561 213.899 465.331C225.539 462.101 219.719 467.921 228.119 468.561C236.519 469.201 239.109 456.921 247.509 454.341C255.909 451.751 253.969 459.511 261.089 458.221C268.199 456.931 274.019 442.701 279.189 444.001C284.359 445.291 290.179 457.581 295.999 447.231" fill="white"/>
<path d="M166.7 491.531C166.64 491.531 166.58 491.531 166.51 491.511C165.97 491.411 165.62 490.891 165.72 490.351C165.8 489.901 167.94 479.351 182.6 475.351C191.31 472.971 193.43 475.531 195.14 477.591C196.3 478.991 197.07 479.911 200.09 479.221C203.39 478.461 203.95 476.461 204.73 473.681C205.66 470.371 206.81 466.251 213.62 464.361C220.43 462.471 221.87 463.481 223.43 465.371C224.21 466.321 225.03 467.311 228.18 467.551C232.25 467.831 234.8 464.741 237.76 461.131C240.38 457.941 243.09 454.641 247.21 453.371C252.27 451.811 254.21 453.791 255.77 455.371C257.07 456.691 258.1 457.741 260.9 457.221C264.07 456.641 267.22 452.891 270.01 449.581C273.2 445.791 276.21 442.231 279.42 443.011C281.29 443.481 283.04 445.031 284.9 446.681C287.09 448.621 289.34 450.621 291.37 450.291C292.65 450.071 293.91 448.871 295.12 446.721C295.39 446.241 295.99 446.071 296.47 446.341C296.95 446.611 297.12 447.221 296.85 447.691C295.31 450.431 293.63 451.921 291.7 452.241C288.76 452.741 286.13 450.411 283.58 448.161C281.98 446.741 280.33 445.281 278.93 444.931C276.93 444.431 274.18 447.691 271.52 450.851C268.37 454.591 265.12 458.461 261.25 459.171C257.41 459.871 255.71 458.141 254.35 456.761C252.86 455.251 251.69 454.071 247.79 455.261C244.24 456.351 241.73 459.421 239.29 462.381C236.25 466.081 233.13 469.941 228.02 469.521C224.02 469.211 222.83 467.781 221.88 466.621C220.9 465.431 220.19 464.581 214.14 466.261C208.41 467.851 207.54 470.941 206.63 474.201C205.82 477.111 204.97 480.111 200.52 481.141C196.3 482.111 194.86 480.381 193.59 478.851C192.11 477.061 190.57 475.211 183.1 477.261C169.7 480.911 167.73 490.311 167.65 490.711C167.56 491.191 167.14 491.521 166.68 491.521L166.7 491.531Z" fill="#261D2A"/>
<path d="M263.67 281.081C263.67 281.081 266.26 262.981 272.07 264.271C277.88 265.561 282.41 268.15 285 259.74C287.59 251.34 277.89 244.87 286.94 242.28C295.99 239.69 297.28 240.341 297.93 236.461C298.58 232.581 295.99 222.88 302.46 220.3C308.92 217.71 310.22 220.95 314.1 219.01C317.98 217.07 318.63 207.37 325.09 206.73" fill="white"/>
<path d="M263.67 282.071C263.67 282.071 263.58 282.071 263.53 282.071C262.99 281.991 262.61 281.491 262.69 280.951C262.89 279.541 264.79 267.051 269.26 263.961C270.22 263.301 271.24 263.081 272.3 263.311C273.09 263.491 273.87 263.691 274.61 263.881C279.28 265.091 282.11 265.831 284.06 259.461C285.07 256.181 284.01 253.181 283.08 250.521C282.26 248.201 281.49 246.001 282.45 244.151C283.1 242.881 284.49 241.971 286.67 241.341C288.57 240.801 290.13 240.401 291.41 240.071C296.35 238.801 296.56 238.661 296.95 236.321C297.1 235.421 297.05 234.061 297 232.611C296.84 227.961 296.63 221.591 302.08 219.401C305.84 217.891 308.04 218.231 309.8 218.521C311.17 218.731 312.15 218.891 313.64 218.151C314.93 217.511 315.9 215.561 316.94 213.491C318.66 210.071 320.6 206.201 324.97 205.761C325.53 205.701 326 206.101 326.06 206.651C326.12 207.201 325.72 207.681 325.17 207.741C321.88 208.071 320.27 211.281 318.71 214.381C317.52 216.751 316.4 218.981 314.52 219.921C312.46 220.951 310.95 220.711 309.48 220.481C307.8 220.221 306.06 219.951 302.8 221.251C298.64 222.911 298.82 228.261 298.97 232.551C299.03 234.171 299.07 235.571 298.89 236.661C298.27 240.371 296.79 240.751 291.88 242.011C290.61 242.341 289.07 242.731 287.19 243.271C285.56 243.741 284.58 244.331 284.19 245.081C283.63 246.171 284.23 247.891 284.93 249.881C285.91 252.681 287.14 256.151 285.93 260.061C283.41 268.241 278.67 267.011 274.08 265.821C273.36 265.631 272.61 265.441 271.84 265.271C271.33 265.161 270.86 265.271 270.36 265.611C267.18 267.811 265.15 277.641 264.63 281.251C264.56 281.751 264.13 282.101 263.65 282.101L263.67 282.071Z" fill="#261D2A"/>
<path d="M273.371 307.581C273.371 307.581 275.961 292.711 284.361 293.361C292.761 294.011 296.001 288.191 298.581 281.081C301.171 273.971 311.511 275.261 313.451 268.801C315.391 262.341 314.741 255.871 325.731 253.931C336.721 251.991 327.021 236.471 345.121 236.471" fill="white"/>
<path d="M273.371 308.581C273.311 308.581 273.261 308.581 273.201 308.561C272.661 308.471 272.301 307.951 272.391 307.411C272.501 306.771 275.241 291.591 284.441 292.371C291.731 292.901 294.891 288.331 297.651 280.741C299.111 276.731 302.781 275.131 306.011 273.721C309.051 272.401 311.681 271.251 312.501 268.511C312.821 267.441 313.071 266.361 313.321 265.311C314.531 260.081 315.791 254.671 325.571 252.951C329.691 252.221 330.421 249.431 331.351 245.901C332.571 241.251 334.091 235.471 345.131 235.471C345.681 235.471 346.121 235.911 346.121 236.461C346.121 237.011 345.681 237.451 345.131 237.451C335.621 237.451 334.471 241.791 333.271 246.391C332.341 249.931 331.291 253.941 325.911 254.891C317.431 256.391 316.471 260.521 315.251 265.751C315.001 266.841 314.741 267.961 314.401 269.071C313.311 272.691 310.001 274.131 306.801 275.531C303.651 276.901 300.681 278.201 299.511 281.411C297.101 288.051 293.741 295.111 284.281 294.341C276.891 293.861 274.371 307.601 274.341 307.751C274.261 308.231 273.841 308.571 273.361 308.571L273.371 308.581Z" fill="#261D2A"/>
<path d="M291.469 339.26C291.469 339.26 294.059 321.16 299.869 322.45C305.679 323.74 310.209 326.33 312.799 317.92C315.389 309.52 305.689 303.05 314.739 300.46C323.789 297.87 325.079 298.52 325.729 294.64C326.379 290.76 323.789 281.06 330.259 278.48C336.729 275.9 338.019 279.13 341.899 277.19C345.779 275.25 346.429 265.55 352.889 264.91" fill="white"/>
<path d="M291.469 340.26C291.469 340.26 291.379 340.26 291.329 340.26C290.789 340.18 290.409 339.68 290.489 339.14C290.689 337.73 292.589 325.24 297.059 322.15C298.019 321.48 299.039 321.27 300.099 321.5C300.889 321.68 301.659 321.88 302.409 322.07C307.089 323.29 309.909 324.02 311.869 317.65C312.879 314.37 311.819 311.37 310.889 308.71C310.069 306.39 309.299 304.19 310.259 302.34C310.909 301.07 312.299 300.16 314.479 299.53C316.379 298.99 317.939 298.59 319.219 298.26C324.159 296.99 324.369 296.85 324.759 294.51C324.909 293.61 324.859 292.25 324.809 290.8C324.649 286.15 324.439 279.78 329.889 277.59C333.659 276.08 335.849 276.43 337.609 276.71C338.969 276.92 339.959 277.08 341.449 276.33C342.739 275.69 343.719 273.74 344.749 271.67C346.469 268.26 348.409 264.38 352.779 263.95C353.339 263.89 353.809 264.29 353.869 264.84C353.929 265.39 353.529 265.87 352.979 265.93C349.689 266.26 348.079 269.47 346.519 272.57C345.329 274.94 344.209 277.17 342.329 278.11C340.269 279.14 338.759 278.9 337.289 278.67C335.609 278.41 333.869 278.13 330.609 279.44C326.449 281.1 326.629 286.45 326.779 290.74C326.839 292.36 326.879 293.76 326.699 294.85C326.079 298.56 324.599 298.94 319.689 300.2C318.419 300.53 316.879 300.92 314.999 301.46C313.369 301.93 312.379 302.52 311.999 303.27C311.439 304.36 312.039 306.08 312.739 308.07C313.719 310.87 314.939 314.35 313.739 318.25C311.219 326.43 306.469 325.2 301.879 324C301.159 323.81 300.409 323.62 299.639 323.45C299.139 323.33 298.669 323.45 298.159 323.79C294.979 325.99 292.949 335.82 292.429 339.42C292.359 339.92 291.929 340.27 291.449 340.27L291.469 340.26Z" fill="#261D2A"/>
<path d="M297.939 363.18C297.939 363.18 300.53 348.31 308.93 348.96C317.33 349.61 320.569 343.79 323.149 336.68C325.739 329.57 336.079 330.86 338.019 324.4C339.959 317.94 339.309 311.47 350.299 309.53C361.289 307.59 351.589 292.07 369.689 292.07" fill="white"/>
<path d="M297.939 364.18C297.879 364.18 297.829 364.18 297.769 364.16C297.229 364.07 296.869 363.55 296.959 363.01C297.069 362.37 299.829 347.19 309.009 347.97C316.309 348.51 319.459 343.93 322.219 336.34C323.679 332.33 327.349 330.73 330.579 329.32C333.619 328 336.249 326.85 337.069 324.11C337.389 323.04 337.639 321.96 337.889 320.91C339.099 315.68 340.359 310.27 350.139 308.55C354.259 307.82 354.989 305.03 355.919 301.5C357.139 296.85 358.659 291.07 369.699 291.07C370.249 291.07 370.689 291.51 370.689 292.06C370.689 292.61 370.249 293.05 369.699 293.05C360.189 293.05 359.039 297.39 357.839 301.99C356.909 305.53 355.859 309.54 350.479 310.49C341.999 311.99 341.039 316.12 339.819 321.35C339.569 322.44 339.309 323.56 338.969 324.67C337.879 328.29 334.569 329.74 331.369 331.13C328.219 332.5 325.249 333.8 324.079 337.01C321.669 343.65 318.289 350.72 308.849 349.94C301.409 349.46 298.939 363.2 298.909 363.34C298.829 363.82 298.409 364.16 297.929 364.16L297.939 364.18Z" fill="#261D2A"/>
<path d="M313.779 386.971C313.779 386.971 318.449 367.961 324.789 369.941C331.129 371.921 335.899 375.151 339.599 366.461C343.309 357.781 333.179 349.891 343.489 348.071C353.799 346.251 355.169 347.081 356.279 343.021C357.389 338.961 355.479 328.361 362.919 326.281C370.359 324.201 371.469 327.771 375.979 326.111C380.479 324.451 382.169 314.191 389.409 314.171" fill="white"/>
<path d="M313.78 387.971C313.7 387.971 313.62 387.971 313.54 387.941C313.01 387.811 312.68 387.271 312.81 386.741C312.95 386.151 316.39 372.391 321.66 369.421C322.79 368.781 323.94 368.641 325.09 369.001C325.95 369.271 326.79 369.561 327.6 369.851C332.75 371.651 335.86 372.741 338.7 366.091C340.15 362.691 339.28 359.381 338.5 356.451C337.83 353.931 337.2 351.541 338.39 349.691C339.23 348.381 340.8 347.561 343.33 347.121C345.49 346.741 347.26 346.471 348.72 346.261C354.41 345.411 354.65 345.281 355.33 342.791C355.59 341.851 355.67 340.391 355.76 338.841C356.05 333.881 356.44 327.101 362.66 325.361C366.95 324.161 369.33 324.751 371.25 325.221C372.77 325.601 373.87 325.871 375.64 325.221C377.17 324.661 378.45 322.671 379.82 320.571C382.05 317.131 384.59 313.231 389.42 313.221C389.97 313.221 390.41 313.661 390.41 314.211C390.41 314.761 389.97 315.201 389.42 315.211C385.67 315.211 383.54 318.491 381.49 321.661C379.94 324.041 378.48 326.301 376.33 327.091C373.98 327.961 372.42 327.571 370.77 327.161C368.99 326.721 366.98 326.221 363.2 327.281C358.35 328.641 358.02 334.371 357.75 338.971C357.65 340.701 357.56 342.191 357.25 343.331C356.21 347.171 354.54 347.421 349.02 348.251C347.57 348.471 345.82 348.731 343.68 349.111C341.76 349.451 340.58 350.001 340.07 350.801C339.35 351.921 339.85 353.801 340.43 355.981C341.24 359.061 342.25 362.881 340.53 366.911C336.96 375.281 332.09 373.571 326.95 371.771C326.16 371.491 325.35 371.211 324.51 370.951C323.91 370.761 323.3 370.841 322.65 371.211C318.9 373.331 315.68 383.521 314.76 387.271C314.65 387.721 314.24 388.031 313.8 388.031L313.78 387.971Z" fill="#261D2A"/>
<path d="M324.439 412.321C324.439 412.321 327.03 397.451 335.43 398.101C343.83 398.751 347.069 392.931 349.649 385.821C352.239 378.711 362.579 380.001 364.519 373.541C366.459 367.081 365.809 360.611 376.799 358.671C387.789 356.731 378.089 341.211 396.189 341.211" fill="white"/>
<path d="M324.439 413.311C324.379 413.311 324.329 413.311 324.269 413.291C323.729 413.201 323.369 412.681 323.459 412.141C323.569 411.501 326.329 396.341 335.509 397.101C342.789 397.641 345.959 393.061 348.719 385.471C350.179 381.461 353.849 379.861 357.079 378.451C360.119 377.131 362.749 375.981 363.569 373.241C363.889 372.171 364.139 371.091 364.389 370.041C365.599 364.811 366.859 359.401 376.639 357.681C380.759 356.951 381.489 354.161 382.419 350.631C383.639 345.991 385.159 340.211 396.199 340.211C396.749 340.211 397.189 340.651 397.189 341.201C397.189 341.751 396.749 342.191 396.199 342.191C386.689 342.191 385.539 346.531 384.339 351.131C383.409 354.671 382.359 358.681 376.979 359.631C368.499 361.131 367.539 365.261 366.319 370.491C366.069 371.581 365.809 372.701 365.469 373.811C364.379 377.431 361.069 378.881 357.869 380.271C354.719 381.641 351.749 382.941 350.579 386.151C348.169 392.791 344.809 399.851 335.349 399.081C327.919 398.581 325.439 412.341 325.409 412.481C325.329 412.961 324.909 413.301 324.429 413.301L324.439 413.311Z" fill="#261D2A"/>
<path d="M451.32 387.391C451.32 387.391 448.34 382.421 439.4 384.411C430.46 386.401 433.44 390.871 427.98 391.861C422.52 392.851 418.05 385.401 411.59 389.871C405.13 394.341 406.62 399.801 402.15 401.791C397.68 403.781 392.71 398.311 387.25 404.771C381.79 411.231 381.29 413.211 373.84 412.221C366.39 411.231 355.96 415.201 357.45 424.641" fill="white"/>
<path d="M357.44 425.64C356.96 425.64 356.54 425.29 356.46 424.8C355.9 421.26 356.86 418.1 359.25 415.67C363.06 411.77 369.39 410.64 373.97 411.25C379.97 412.06 380.88 410.95 384.7 406.3C385.24 405.64 385.83 404.93 386.49 404.14C390.25 399.7 394 400.38 397.02 400.92C398.8 401.24 400.33 401.52 401.75 400.89C403.52 400.1 404.17 398.68 405.06 396.71C406.1 394.42 407.39 391.58 411.02 389.06C415.31 386.09 418.87 387.82 422 389.34C424 390.31 425.88 391.24 427.8 390.88C429.81 390.52 430.37 389.69 431.21 388.45C432.37 386.75 433.81 384.63 439.18 383.43C448.71 381.32 452.03 386.64 452.17 386.87C452.45 387.34 452.3 387.95 451.83 388.23C451.36 388.52 450.75 388.36 450.47 387.89C450.34 387.69 447.64 383.57 439.61 385.36C435.01 386.38 433.91 387.99 432.85 389.55C431.93 390.9 430.98 392.3 428.15 392.82C425.59 393.28 423.32 392.18 421.12 391.11C418.09 389.64 415.48 388.36 412.14 390.67C408.96 392.87 407.84 395.33 406.86 397.5C405.91 399.6 405 401.58 402.54 402.68C400.56 403.56 398.57 403.2 396.65 402.85C393.75 402.32 391.01 401.83 388 405.39C387.34 406.17 386.76 406.88 386.22 407.53C382.27 412.33 380.79 414.13 373.69 413.19C368.85 412.54 363.49 414.12 360.66 417.03C358.71 419.03 357.95 421.53 358.41 424.47C358.5 425.01 358.13 425.52 357.58 425.61C357.53 425.61 357.48 425.62 357.42 425.62L357.44 425.64Z" fill="#261D2A"/>
<path d="M436.421 364.541C436.421 364.541 429.721 361.061 422.611 365.531C415.501 370.001 412.151 375.461 405.871 375.961C399.591 376.461 395.411 375.461 391.221 381.921" fill="white"/>
<path d="M391.22 382.921C391.03 382.921 390.85 382.871 390.68 382.761C390.22 382.461 390.09 381.851 390.39 381.391C394.19 375.521 398.08 375.351 403 375.141C403.88 375.101 404.81 375.061 405.79 374.981C409.5 374.691 412.13 372.481 415.46 369.691C417.34 368.121 419.47 366.331 422.08 364.691C429.59 359.971 436.58 363.501 436.88 363.661C437.37 363.911 437.56 364.511 437.3 364.991C437.05 365.481 436.45 365.671 435.96 365.421C435.7 365.291 429.66 362.271 423.13 366.371C420.64 367.941 418.65 369.601 416.73 371.211C413.27 374.111 410.28 376.611 405.94 376.951C404.94 377.031 403.98 377.071 403.08 377.111C398.39 377.321 395.29 377.451 392.05 382.461C391.86 382.751 391.54 382.911 391.22 382.911V382.921Z" fill="#261D2A"/>
<path d="M481.97 400.16L379.12 218.66C378.98 218.42 378.75 218.24 378.48 218.18C368.52 215.84 358.09 215.49 347.47 217.15L326.64 186.32C326.43 186.01 326.05 185.84 325.68 185.89C257.66 195.34 247.35 275.69 246.28 286.46C232.68 283.03 219.04 281.29 205.74 281.29C130.16 281.29 83.7397 335.91 77.3397 351.37C76.1797 354.17 76.0897 356.01 77.0697 356.99C81.7597 361.68 137.04 476.27 165.61 536.2C165.77 536.55 166.12 536.77 166.51 536.77C166.9 536.77 167.25 536.54 167.41 536.19C197.31 470.41 329.6 476.27 329.81 476.27C329.81 476.27 329.82 476.27 329.83 476.27C329.83 476.27 329.84 476.27 329.85 476.27C329.9 476.27 329.95 476.27 329.99 476.26C330 476.26 330.01 476.26 330.02 476.25C330.09 476.24 330.15 476.22 330.21 476.19C330.22 476.19 330.23 476.19 330.25 476.19C330.26 476.19 330.27 476.17 330.28 476.17C330.3 476.16 330.32 476.15 330.34 476.14C330.34 476.14 330.36 476.14 330.36 476.13C330.41 476.1 330.46 476.05 330.51 476C330.53 475.98 330.56 475.96 330.58 475.94C330.59 475.92 330.61 475.91 330.62 475.89C330.64 475.86 330.65 475.83 330.67 475.8C330.7 475.75 330.73 475.71 330.75 475.66C330.75 475.66 330.75 475.65 330.76 475.64C356.44 408.47 479.89 401.72 481.13 401.66C481.47 401.64 481.78 401.45 481.95 401.15C482.12 400.85 482.11 400.48 481.95 400.18L481.97 400.16ZM325.34 187.96L346.15 218.77L425.08 350.74C414.71 356.09 324.65 404.53 328.22 469.13L248.17 287.56C248.58 282.57 256.66 198 325.33 187.97L325.34 187.96ZM166.5 533.46C157.05 513.65 84.2997 361.411 78.4697 355.59C78.3597 355.47 78.1596 354.51 79.2496 351.96C85.6896 336.82 131.77 283.29 205.74 283.29C219.1 283.29 232.79 285.07 246.46 288.58L328.31 474.23C313.34 473.8 196.59 472.55 166.5 533.46ZM330.39 471.37C324.18 403.31 425.87 352.54 426.92 352.03C427.17 351.91 427.36 351.69 427.44 351.42C427.52 351.15 427.48 350.87 427.34 350.63L348.62 219.02C358.54 217.57 368.28 217.9 377.6 220.03L479.45 399.77C465.01 400.79 357.58 410.4 330.39 471.38V471.37Z" fill="#261D2A"/>
<path d="M522.809 66.0657C522.809 66.0657 442.79 56.0574 430.785 62.06C418.779 68.0626 420.776 124.083 412.777 132.083C404.777 140.082 392.772 150.09 398.775 152.087C404.777 154.084 508.807 170.095 518.815 156.093C528.823 142.091 536.823 66.0657 522.821 66.0657H522.809Z" fill="white"/>
<path d="M489.782 162.948C455.752 162.948 402.803 154.656 398.412 153.196C396.788 152.659 396.239 151.643 396.076 150.884C395.34 147.603 400 142.826 407.778 135.352C409.214 133.962 410.65 132.596 411.97 131.276C415.217 128.03 416.863 114.67 418.451 101.754C420.694 83.5242 423.018 64.6756 430.281 61.0437C433.026 59.6657 438.877 59 448.149 59C475.231 59 522.493 64.8742 522.96 64.9326H522.983C525.003 64.9326 526.79 66.2755 528.145 68.9148C535.969 84.1315 528.811 144.099 519.76 156.782C516.794 160.939 506.984 162.959 489.794 162.959L489.782 162.948ZM448.137 61.3123C437.195 61.3123 432.944 62.2933 431.297 63.1108C425.143 66.1821 422.807 85.2292 420.74 102.034C418.954 116.562 417.412 129.104 413.593 132.911C412.262 134.243 410.826 135.621 409.377 137.022C404.508 141.705 397.828 148.14 398.33 150.37C398.353 150.464 398.412 150.756 399.136 150.989C403.48 152.437 455.95 160.624 489.77 160.624C509.915 160.624 516.163 157.798 517.856 155.415C526.428 143.422 533.435 84.295 526.066 69.9659C524.653 67.2332 523.263 67.2331 522.796 67.2331C522.177 67.1631 475.056 61.3123 448.126 61.3123H448.137Z" fill="#261D2A"/>
<path d="M472.979 150C472.979 150 436.786 103.798 450.869 89.7386C464.94 75.6788 477.004 105.804 477.004 105.804C477.004 105.804 485.043 83.7114 497.107 91.7439C515.203 103.798 472.979 150 472.979 150Z" fill="#CA7A8C"/>
</svg>
