<svg width="586" height="480" viewBox="0 0 586 480" fill="none" xmlns="http://www.w3.org/2000/svg">
<path d="M583.539 63.215C550.585 31.6054 507.749 10.9635 462.792 3.35858C417.576 -4.24635 370.55 0.927043 328.8 20.2756C288.396 39.0034 254.303 70.5096 230.764 108.172C218.968 127.003 209.811 147.594 203.81 169.011C197.757 190.585 194.602 213.555 196.102 235.956C197.654 259.029 204.586 282.982 221.814 299.382C240.076 316.661 264.857 327.06 289.637 330.215C314.728 333.371 341.164 330.94 364.6 321.162C374.999 316.816 384.983 311.332 393.054 303.417C400.245 296.381 406.195 287.845 410.592 278.791C418.869 261.823 423.681 239.732 413.541 222.453C408.316 213.555 399.314 206.829 390.778 201.294C380.845 194.879 369.929 189.653 358.651 186.239C347.528 182.876 335.525 181.945 323.989 181.221C311.159 180.445 298.329 180.548 285.498 181.479C259.89 183.394 234.489 188.515 210.173 196.845C186.427 204.967 162.94 215.883 142.453 230.472C122.691 244.492 106.136 262.392 92.7368 282.516C62.8862 327.266 50.4183 380.604 44.4171 433.373C42.8651 447.031 41.7269 460.689 40.7957 474.399C40.5888 477.192 43.3307 479.572 45.9691 479.572C48.918 479.572 50.9356 477.192 51.1425 474.399C54.7639 421.785 61.2308 367.723 83.8387 319.455C93.513 298.813 105.877 279.361 121.398 262.65C137.332 245.526 156.266 232.541 177.064 221.987C220.52 199.897 269.978 189.24 318.66 191.309C329.835 191.775 341.475 192.447 352.339 195.241C362.686 197.931 372.567 202.432 381.724 207.864C389.691 212.623 398.848 218.78 403.815 226.436C408.212 233.162 409.299 240.974 408.729 249.096C407.384 266.893 397.607 285.103 384.57 297.261C377.12 304.245 367.394 309.211 357.771 312.833C346.493 317.075 334.594 319.661 322.644 320.644C299.001 322.61 274.841 319.403 253.475 308.694C243.18 303.572 233.247 296.95 225.539 288.362C218.606 280.602 213.898 271.083 210.898 261.15C204.69 240.508 205.103 218.056 208.363 196.896C211.57 176.099 217.882 155.716 226.987 136.678C245.042 98.8082 273.444 65.8017 308.831 43.1421C345.252 19.81 388.088 8.8941 431.234 10.4979C474.225 12.1016 516.699 26.0181 551.981 50.6436C560.569 56.6448 568.64 63.3185 576.193 70.5613C581.056 75.1139 588.351 67.8194 583.539 63.215Z" fill="#565ADD"/>
<path d="M4.52922 451.325C5.20177 451.532 5.82273 451.791 6.49527 452.049C6.0814 451.894 5.66758 451.687 5.2537 451.532C9.54764 453.394 13.376 456.188 17.1526 458.878C21.1361 461.672 25.0679 464.517 28.9997 467.414C31.2242 469.07 33.4487 470.777 35.6733 472.484C35.3112 472.226 35.0008 471.967 34.6386 471.657C37.2253 473.622 39.7085 475.744 42.347 477.658C45.5545 480.038 50.0038 480.4 53.3665 478.072C55.7463 476.416 57.6604 474.14 59.7815 472.122C61.6957 470.26 63.6615 468.449 65.6791 466.742C67.9555 464.776 70.2834 462.862 72.6115 461.051C72.2493 461.31 71.9389 461.568 71.5768 461.879C77.9918 456.912 84.7692 452.515 91.9085 448.635C93.9261 447.548 95.9955 446.462 98.1166 445.427C99.2547 444.91 100.186 443.513 100.496 442.323C100.858 441.082 100.703 439.426 99.9788 438.34C99.2545 437.253 98.2199 436.27 96.8748 435.96C95.478 435.65 94.1847 435.857 92.8914 436.477C79.544 442.996 67.1795 451.429 56.2119 461.361C54.7116 462.707 53.263 464.103 51.8145 465.5C50.4177 466.897 49.0724 468.449 47.5204 469.691C47.8825 469.432 48.1929 469.173 48.5551 468.863C48.1412 469.173 47.7273 469.432 47.2099 469.691C47.6238 469.535 48.0379 469.329 48.4518 469.173C48.0896 469.329 47.7274 469.432 47.3653 469.484C47.8309 469.432 48.2964 469.38 48.762 469.277C48.4516 469.329 48.0895 469.329 47.7791 469.277C48.2447 469.329 48.7104 469.38 49.176 469.484C48.8139 469.432 48.5035 469.329 48.1931 469.225C48.607 469.38 49.0208 469.587 49.4347 469.742C48.7104 469.432 48.0894 469.018 47.4686 468.553C47.8307 468.811 48.1412 469.07 48.5033 469.38C38.3117 461.465 28.172 453.498 17.4112 446.41C14.3072 444.341 11.0478 442.582 7.47817 441.392C6.23655 440.978 4.58095 441.289 3.49454 441.909C2.40812 442.53 1.37364 443.772 1.11497 445.013C0.287218 447.807 1.78731 450.394 4.52922 451.325Z" fill="#565ADD"/>
</svg>
