<svg width="24" height="23" viewBox="0 0 24 23" fill="none" xmlns="http://www.w3.org/2000/svg">
<path d="M11.4998 7.72997C11.4998 7.72997 12.0498 0.939966 7.72983 0.819966C3.40983 0.699966 6.76983 10.28 8.28983 7.63997C8.94983 6.49997 2.79981 4.19997 1.48981 7.04997C0.179814 9.89997 10.6898 14.38 11.4998 7.73997V7.72997Z" fill="white"/>
<path d="M7.51923 11.6898C5.09923 11.6898 2.29923 10.3798 1.26923 8.76982C0.729232 7.92982 0.849252 7.24982 1.03925 6.83982C1.52925 5.76982 2.64924 5.17982 4.17924 5.17982C4.54924 5.17982 4.93924 5.20982 5.33924 5.27982C5.01924 3.91982 4.96926 2.28982 5.69926 1.25982C6.13926 0.639823 6.81925 0.319824 7.65925 0.319824C8.84925 0.349824 9.75924 0.769824 10.4592 1.54982C12.3192 3.61982 12.0192 7.60983 11.9992 7.76982C11.6992 10.2698 10.0592 11.6898 7.51923 11.6898ZM4.16926 6.16982C3.37926 6.16982 2.34925 6.35982 1.93925 7.24982C1.80925 7.52982 1.86923 7.84982 2.10923 8.22982C2.84923 9.38982 5.25923 10.6898 7.51923 10.6898C8.93923 10.6898 10.6993 10.1698 11.0093 7.66982C11.0093 7.64982 11.2892 3.95982 9.70924 2.20982C9.18924 1.62982 8.53924 1.33982 7.71924 1.31982C7.13924 1.31982 6.76925 1.48982 6.50925 1.83982C5.99925 2.54982 5.97926 4.04983 6.44926 5.53983C7.42926 5.84983 8.48923 6.39982 8.76923 7.08982C8.87923 7.35982 8.85925 7.63983 8.72925 7.87983C8.38925 8.46983 7.96924 8.58982 7.67924 8.58982C6.65924 8.58982 5.95926 7.10983 5.66926 6.35983C5.15926 6.22983 4.64924 6.16982 4.17924 6.16982H4.16926ZM6.97925 6.82983C7.27925 7.35983 7.55926 7.59982 7.66926 7.59982C7.67926 7.59982 7.74925 7.55982 7.84925 7.38982C7.80925 7.33982 7.51924 7.09983 6.96924 6.82983H6.97925Z" fill="#261D2A"/>
<path d="M15.3501 8.9897C15.3501 8.9897 21.7701 6.72969 22.9901 10.8697C24.2101 15.0097 14.0901 14.2097 16.2601 12.0697C17.2001 11.1497 20.9801 16.4997 18.5601 18.4997C16.1401 20.4997 9.13007 11.4697 15.3501 8.9897Z" fill="white"/>
<path d="M17.7297 19.2899C15.6997 19.2899 12.9796 16.2799 12.4396 13.4299C11.9996 11.1399 12.9697 9.39988 15.1597 8.52988C15.2497 8.49988 17.0296 7.87988 18.9396 7.87988C21.3496 7.87988 22.9196 8.86988 23.4696 10.7399C23.7096 11.5399 23.5997 12.2799 23.1597 12.8699C22.4997 13.7499 21.0596 14.2899 19.2996 14.3399C20.0296 15.9399 20.2297 17.7899 18.8897 18.8899C18.5697 19.1499 18.1796 19.2899 17.7396 19.2899H17.7297ZM18.9396 8.87988C17.1996 8.87988 15.5297 9.45988 15.5097 9.46988C13.3497 10.3299 13.1797 11.9999 13.4197 13.2399C13.9697 16.1099 17.1396 19.0199 18.2396 18.1199C19.2596 17.2799 18.8496 15.5799 18.1496 14.2899C17.3096 14.1999 15.8497 13.9199 15.5097 13.0099C15.4197 12.7599 15.3496 12.2599 15.8996 11.7199C16.0696 11.5599 16.2796 11.4699 16.5196 11.4699C17.2896 11.4699 18.1396 12.3899 18.7396 13.3299C18.8496 13.3299 18.9597 13.3299 19.0697 13.3299C20.5997 13.3299 21.8597 12.9199 22.3497 12.2599C22.5997 11.9199 22.6497 11.5099 22.5097 11.0099C22.0897 9.58988 20.8896 8.86988 18.9396 8.86988V8.87988ZM16.5196 12.4699C16.4696 12.5699 16.4397 12.6499 16.4497 12.6699C16.4897 12.7899 16.7896 12.9899 17.3596 13.1399C16.9596 12.6799 16.6296 12.4799 16.5196 12.4699Z" fill="#261D2A"/>
<path d="M9.33917 12.4498C9.33917 12.4498 5.41917 12.3298 4.27917 15.4298C3.13917 18.5298 3.36916 22.1698 5.73916 22.4598C8.10916 22.7498 11.6492 21.2098 12.1492 17.8698C12.6492 14.5298 10.4992 12.3398 9.33917 12.4398V12.4498Z" fill="#DEBC1E"/>
<path d="M6.0293 13.3301C6.0293 13.3301 11.1193 16.6201 12.2193 16.5601L6.0293 13.3301Z" fill="white"/>
<path d="M12.1988 17.0598C10.9788 17.0598 6.96879 14.5298 5.74879 13.7498C5.51879 13.5998 5.4488 13.2898 5.5988 13.0598C5.7488 12.8298 6.0588 12.7598 6.2888 12.9098C8.6688 14.4498 11.6488 16.0898 12.1788 16.0598C12.4488 16.0598 12.6888 16.2598 12.7088 16.5298C12.7188 16.8098 12.5088 17.0398 12.2388 17.0598C12.2288 17.0598 12.2088 17.0598 12.1988 17.0598Z" fill="#261D2A"/>
<path d="M4.28906 15.7397C4.28906 15.7397 10.3491 19.3997 11.7491 19.3097L4.28906 15.7397Z" fill="white"/>
<path d="M11.7087 19.8198C10.1487 19.8198 5.04868 16.7898 4.02868 16.1698C3.78868 16.0298 3.71866 15.7198 3.85866 15.4798C3.99866 15.2398 4.30866 15.1698 4.54866 15.3098C7.00867 16.7998 10.8787 18.8798 11.7187 18.8098C11.9887 18.7898 12.2287 18.9998 12.2487 19.2798C12.2687 19.5598 12.0587 19.7898 11.7787 19.8098C11.7587 19.8098 11.7387 19.8098 11.7087 19.8098V19.8198Z" fill="#261D2A"/>
<path d="M13.0801 7.26006C13.0801 7.26006 15.3901 3.95006 12.8301 0.560059L13.0801 7.26006Z" fill="white"/>
<path d="M13.0797 7.75995C12.9797 7.75995 12.8797 7.72995 12.7997 7.66995C12.5697 7.50995 12.5198 7.19995 12.6698 6.96995C12.7498 6.84996 14.7297 3.90995 12.4297 0.849952C12.2597 0.629952 12.3097 0.319955 12.5297 0.149955C12.7497 -0.0200446 13.0698 0.0299539 13.2298 0.249954C15.9698 3.88995 13.5097 7.49995 13.4897 7.53995C13.3897 7.67995 13.2397 7.74995 13.0797 7.74995V7.75995Z" fill="#261D2A"/>
<path d="M4.13867 18.4502C4.13867 18.4502 8.34866 21.4702 10.0287 21.2802L4.13867 18.4502Z" fill="white"/>
<path d="M9.87906 21.7902C7.98906 21.7902 4.27907 19.1702 3.84907 18.8602C3.62907 18.7002 3.56907 18.3902 3.72907 18.1602C3.88907 17.9302 4.19905 17.8802 4.42905 18.0502C5.99905 19.1702 8.87906 20.9002 9.96906 20.7902C10.2191 20.7602 10.489 20.9502 10.519 21.2302C10.549 21.5002 10.349 21.7502 10.079 21.7802C10.019 21.7802 9.94906 21.7902 9.87906 21.7902Z" fill="#261D2A"/>
<path d="M19.8792 4.57985C19.8792 4.57985 16.1992 3.66985 13.9492 8.08985L19.8792 4.57985Z" fill="white"/>
<path d="M13.9499 8.58972C13.8699 8.58972 13.7999 8.56973 13.7199 8.53973C13.4699 8.41973 13.3799 8.10972 13.4999 7.86972C15.8899 3.14972 19.9499 4.08972 19.9899 4.09972C20.2599 4.16972 20.4199 4.43972 20.3599 4.70972C20.2899 4.97972 20.0299 5.13973 19.7599 5.07973C19.6099 5.03973 16.4199 4.34973 14.3999 8.32973C14.3099 8.49973 14.1399 8.59972 13.9499 8.59972V8.58972Z" fill="#261D2A"/>
</svg>
