<svg width="66" height="112" viewBox="0 0 66 112" fill="none" xmlns="http://www.w3.org/2000/svg">
<path d="M36.4188 111.49C34.7488 111.49 33.3388 110.2 33.2088 108.51C30.5388 73.6398 28.9788 38.2398 28.5588 3.28975C28.5388 1.50975 29.9688 0.0497604 31.7488 0.0297604C33.5588 -0.000239596 34.9888 1.42976 35.0088 3.21976C35.4188 38.0298 36.9788 73.2898 39.6388 108.02C39.7788 109.8 38.4488 111.34 36.6688 111.48C36.5888 111.48 36.4988 111.48 36.4188 111.48V111.49Z" fill="#383434"/>
<path d="M3.23941 66.7401C1.50941 66.7401 0.0794369 65.36 0.0194369 63.62C-0.0405631 61.84 1.35943 60.35 3.13943 60.3L62.0894 58.42C63.8394 58.33 65.3594 59.76 65.4094 61.54C65.4694 63.32 64.0694 64.81 62.2894 64.86L3.33944 66.7401C3.33944 66.7401 3.26941 66.7401 3.23941 66.7401Z" fill="#383434"/>
<path d="M50.9302 80.1095C50.1602 80.1095 49.3802 79.8295 48.7702 79.2695L12.7502 46.6195C11.4302 45.4195 11.3302 43.3895 12.5302 42.0695C13.7302 40.7495 15.7702 40.6495 17.0802 41.8495L53.1002 74.4995C54.4202 75.6995 54.5202 77.7295 53.3202 79.0495C52.6802 79.7495 51.8102 80.1095 50.9302 80.1095Z" fill="#383434"/>
<path d="M15.0602 84.6C14.2202 84.6 13.3802 84.2699 12.7502 83.6199C11.5102 82.3399 11.5402 80.2999 12.8202 79.0599L49.7202 43.2199C51.0002 41.9799 53.0402 42.0099 54.2802 43.2899C55.5202 44.5699 55.4902 46.61 54.2102 47.85L17.3102 83.6899C16.6802 84.2999 15.8702 84.6 15.0602 84.6Z" fill="#383434"/>
</svg>
