<svg width="200" height="200" viewBox="0 0 200 200" fill="none" xmlns="http://www.w3.org/2000/svg">
<path d="M92.9653 116.981H82.7743C82.3558 117.219 82.4963 117.494 82.4615 117.723C82.8038 118.241 83.3899 117.801 83.8162 118.078C84.1133 118.323 83.9017 118.677 83.9631 118.982H81.75C79.7477 117.248 77.3322 118.308 75.118 117.913L74.7634 116.979H72.1523C72.0131 116.602 71.9066 116.313 71.7991 116.022L70.114 115.93C69.9869 115.57 69.8846 115.28 69.7567 114.918H68.2121C67.9415 113.949 66.7196 113.904 66.7073 112.962H63.9542C64.6111 111.658 62.656 112.127 62.8018 110.973H61.4407C58.5452 108.074 55.8572 105.384 52.9588 102.483V101.269C51.6581 100.624 51.1321 99.2816 49.9565 98.7236C49.8827 98.166 50.1204 97.5756 49.7976 97.0509C49.5539 96.9873 49.3283 96.9283 49.102 96.8695C48.6856 96.3084 49.2431 95.5615 48.7645 95.0243L47.9841 94.8505V91.5456C47.7373 90.7381 47.2231 91.175 46.954 90.6077V88.2966C46.6809 87.748 45.937 88.2475 45.9577 87.5697C45.8238 86.7326 46.7311 87.1692 47.0137 86.5548V80.1286C47.3559 79.8751 47.7681 80.0653 48.0431 79.5215V77.0569C48.3575 76.9748 48.5831 76.9159 48.9854 76.8108V73.0483C49.3912 72.9594 49.6187 72.9096 49.927 72.8421V70.5315C50.1737 69.7249 50.6906 70.1681 50.8798 69.7568C51.1397 68.8671 50.7168 67.8523 51.1211 66.9395C51.7841 67.0381 52.381 66.7562 52.9873 67.204V73.8223C53.6984 73.8938 53.9809 74.2982 54.1156 74.9104H56.773C57.174 73.8086 58.169 73.3134 58.9516 72.6241C59.0613 72.0725 58.7126 71.4597 59.1787 70.9748C59.4259 70.9215 59.7037 71.0623 59.9623 70.6439V68.941C61.2097 69.3758 60.8295 67.5415 62.0229 67.8206V66.0506C63.095 66.0718 62.9788 64.6391 63.9384 64.7318C64.0589 64.1025 63.7345 63.4976 64.1581 62.9871C65.2173 63.2619 64.8869 61.587 65.8755 61.7827C66.1873 61.2103 65.6277 60.465 66.2131 59.9599C66.4791 59.9332 66.7484 60.0227 66.9977 59.5956V57.1054C67.3761 56.9728 67.6663 56.8712 68.028 56.7444V55.0422C69.0959 55.057 68.9922 53.6446 69.8281 53.7116C70.1701 53.1068 69.6834 52.4801 70.1554 52.0029L70.942 51.8379V48.505C71.188 47.7026 71.7155 48.1714 71.9099 47.6934V45.1147C71.57 44.9904 71.2813 44.8849 70.9178 44.752V42.0947C70.5395 41.9626 70.2493 41.8613 69.8877 41.735V40.0632C68.6108 39.6246 68.2578 38.1938 67.0605 37.795C66.7215 37.2193 67.2698 36.4743 66.8634 36.0778C66.1603 35.776 65.5546 36.1602 65.03 35.7652C64.904 35.4918 65.0475 35.0992 64.6105 34.9254H62.181C61.9838 34.0855 60.9209 33.8993 60.7809 32.9376H56.1486C56.0093 32.5607 55.9026 32.2721 55.8257 32.0638C55.1968 31.6941 54.4402 32.3177 53.9506 31.6283C53.9638 31.3753 53.9777 31.126 53.591 30.877H47.0349C46.9607 30.1598 46.7848 29.5238 47.2348 28.8481H53.8614C53.9437 28.5329 54.0026 28.3072 54.0742 28.0332C54.9814 27.7108 56.006 28.1853 56.8955 27.7782C56.9561 27.4985 57.0055 27.2708 57.0724 26.9628H60.3866C61.1919 26.7162 60.7454 26.1978 61.1978 25.9931C61.747 25.9661 62.3887 25.7427 62.9534 26.1726C62.9776 26.4492 62.8812 26.7195 63.2514 26.9366C64.9789 26.9366 66.8052 26.9422 68.6311 26.9222C68.7352 26.921 68.8371 26.7114 68.9595 26.5776C68.9556 26.3721 68.9368 26.1209 69.109 26.0119H73.3421C73.4208 26.3133 73.4797 26.5389 73.5846 26.941H81.3471C81.4521 27.3431 81.5111 27.5688 81.5931 27.8827H85.265C85.3943 28.2453 85.4977 28.535 85.6325 28.9131H88.7655C88.9085 29.281 89.0202 29.568 89.1661 29.9435H91.7765C91.9134 30.3211 92.0181 30.6103 92.1214 30.8955L93.8391 30.9915C93.8406 32.0287 95.2162 31.9794 95.2266 32.995C96.2571 32.6868 97.0806 33.2203 97.9306 33.6542C97.9599 34.0505 97.9891 34.4443 98.0179 34.8329C98.7926 34.8327 98.9493 35.363 99.1696 35.9501H100.478C102.752 38.2167 104.814 40.2717 107.005 42.4552C107.065 42.7858 106.758 43.3872 106.967 43.6561C108.645 44.7407 109.396 46.4132 111.03 47.223V49.8499C112.118 49.8053 111.956 51.3042 113.075 51.1288V53.8772L113.913 54.0597V61.264C113.769 61.3282 113.63 61.3942 113.487 61.4529C113.345 61.5115 113.2 61.5629 112.977 61.6472C112.945 63.065 113.01 64.5262 112.942 65.9322C112.459 65.9767 112.189 65.8771 111.938 66.3063V69.7973L110.994 70.1305C111.003 70.7438 110.83 71.3189 111.116 71.8696C111.381 72.032 111.784 71.8643 111.97 72.2267C112.002 72.4476 111.867 72.725 112.183 72.9058H114.808C114.932 72.5624 115.036 72.273 115.134 72.0006L116.817 71.9097C117.412 70.6474 118.69 70.0893 119.28 68.9829H120.764C121.166 70.0915 122.2 70.5491 122.788 71.0916C123.179 71.7986 122.701 72.4235 123.189 72.9263C124.089 72.7086 123.803 73.6817 124.218 73.9542C124.774 74.0345 125.364 73.7984 125.73 74.0176C126.425 74.9749 127.036 75.7381 127.895 76.1618V78.8222C127.556 79.0381 127.151 78.8654 126.88 79.4432V83.6949C125.876 84.5486 125.015 85.2403 124.755 85.8485C124.57 86.5413 125.079 86.5068 124.753 86.7434C123.84 87.604 122.927 88.4647 121.958 89.3776C121.869 89.8306 122.205 90.4383 121.919 90.7654C120.596 91.3904 120.206 92.7755 119.013 93.1695C118.981 93.7391 118.95 94.2999 118.922 94.8158C117.659 95.4065 117.103 96.688 116.113 97.2156C115.752 97.8238 116.259 98.4555 115.654 99.0364H114.383C112.677 100.764 111.168 102.292 109.536 103.946L108.145 104.025C107.701 104.667 108.29 105.42 107.658 106.044H106.15C105.232 107.613 103.599 108.398 102.723 109.989H100.959C101.353 111.218 99.5596 110.867 99.8239 112.05H97.056C97.0615 113.112 95.6733 113.024 95.7325 114.001H94.1753C94.0566 114.712 93.6398 115.1 92.9652 115.23C92.9653 115.814 92.9653 116.398 92.9653 116.981V116.981ZM78.8738 83.3679V78.0128H75.1186C74.9896 78.6311 74.6969 79.0252 74.0165 79.0996C73.7659 79.6748 74.2688 80.411 73.73 80.9491C72.67 80.6613 73.059 82.4189 72.1647 82.1917C72.68 83.5737 70.9839 83.913 70.7522 84.9245L69.0125 85.0217C68.9796 85.6565 68.9506 86.2171 68.9219 86.772C68.0559 86.9445 67.8555 87.9879 66.9588 88.1718C66.9588 89.9856 66.9644 91.8115 66.9455 93.6372C66.9443 93.7492 66.7497 93.8592 66.6451 93.9705C66.4002 93.9685 66.1467 93.9413 65.8989 94.3367V97.8056C65.557 98.06 65.1448 97.8693 65.0466 98.0628V101.776C66.0301 101.998 66.0716 103.201 66.9379 103.226C67.0633 103.856 66.7166 104.467 67.2484 104.901C68.2821 105.918 69.5204 106.718 70.3959 108.103H73.9112C74.0097 108.457 73.8435 108.741 74.1841 108.926H82.7952C82.9192 108.586 83.0244 108.297 83.1141 108.05C83.7445 107.791 84.4739 108.288 84.9666 107.681C84.9519 107.394 84.9591 107.151 85.3368 106.904H88.8757C88.8651 105.839 90.2625 105.934 90.1945 104.954H93.7954C93.9028 104.657 94.0076 104.368 94.1764 103.902H97.053V101.329C98.9116 99.5027 100.584 97.8594 102.492 95.9855H103.761C104.171 94.8102 105.19 94.3384 105.963 93.6399C106.073 93.0879 105.726 92.4762 106.194 91.9799C107.256 92.2625 106.875 90.5167 107.93 90.7806C108.095 88.5087 107.793 86.2153 108.096 83.9634C108.526 83.9654 108.78 83.9952 108.896 83.809V77.0906C108.533 76.9664 108.242 76.867 107.882 76.7438V73.0578C107.569 72.976 107.343 72.9171 107.116 72.8584C106.7 72.2973 107.256 71.551 106.77 71.002C106.474 70.9309 106.097 71.041 105.888 70.3341C105.74 70.0972 106.267 69.4605 105.775 69.0097C105.501 68.9533 105.273 68.9065 105.101 68.871C104.736 68.2229 105.29 67.4783 104.722 66.9603C104.465 66.9323 104.192 67.0432 104.003 66.7183C103.977 66.2079 103.948 65.6469 103.916 65.0333C103.272 64.7744 102.542 65.2411 101.997 64.7416C102.287 63.6783 100.563 64.0443 100.812 62.9408H98.9254C99.4241 61.6587 97.5209 62.0901 97.7447 60.9716C97.1765 60.8729 96.5871 61.1042 96.0417 60.7975C95.9085 60.5238 96.0535 60.1306 95.6797 59.9516C95.1404 59.8729 94.5448 60.1482 94.0261 59.7753C93.9252 59.4811 94.0507 59.0967 93.5724 58.9308H91.1348C91.0271 58.634 90.9222 58.3449 90.7852 57.9674H88.1758C88.0227 57.5952 87.9055 57.3104 87.7786 57.0018H80.1311C80.007 57.3415 79.9014 57.6304 79.8001 57.9078C79.198 57.9421 78.6375 57.9739 78.0838 58.0055C78.048 58.7355 77.5829 58.9572 77.0064 59.1245V61.5879C77.925 62.2857 78.6538 62.9306 79.1096 63.8547C79.6824 64.1935 80.4271 63.6448 80.9329 64.1601C81.0131 64.4311 80.8441 64.7162 81.3048 64.9688H82.7968C82.9346 65.6235 83.2255 66.0193 83.9072 66.0928C84.1575 66.668 83.6553 67.4042 84.1934 67.9424C85.2542 67.6534 84.8638 69.4129 85.9252 69.1426C85.9548 69.7077 85.9842 70.2683 86.0131 70.8194C87.259 70.9293 87.0133 72.4258 87.8622 72.6334V84.8962L87.0474 85.0661C86.7548 85.6735 87.2673 86.4115 86.6006 86.8108C84.8565 88.5649 83.1125 90.319 81.3353 92.1064C81.0273 91.412 80.7366 90.9003 80.0499 90.8061C79.7708 89.8799 80.2098 88.8628 79.8014 87.9795C79.4557 87.944 79.1835 88.0507 78.9324 87.619V85.1293C78.5546 84.9955 78.2648 84.8928 77.9875 84.7945C78.0079 84.35 77.8284 83.9357 78.1088 83.5676L78.8738 83.3679V83.3679Z" fill="#F4BC5E"/>
<path d="M92.9621 116.981C92.9621 116.398 92.9621 115.814 92.9619 115.23C93.6366 115.1 94.0534 114.712 94.1721 114.001H95.7292C95.67 113.024 97.0582 113.112 97.0527 112.05H99.8206C99.5564 110.867 101.35 111.218 100.956 109.989H102.719C103.596 108.398 105.229 107.613 106.146 106.044H107.655C108.287 105.42 107.697 104.667 108.142 104.025L109.532 103.946C111.165 102.292 112.674 100.764 114.379 99.0363H115.651C116.255 98.4554 115.748 97.8237 116.109 97.2156C117.1 96.6879 117.656 95.4064 118.918 94.8158C118.947 94.2998 118.978 93.739 119.009 93.1694C120.202 92.7754 120.593 91.3903 121.916 90.7653C122.202 90.4382 121.866 89.8305 121.955 89.3775C122.924 88.4646 123.837 87.6039 124.75 86.7433C125.076 86.5067 124.567 86.5412 124.751 85.8484C125.012 85.2402 125.872 84.5485 126.877 83.6947V79.4431C127.148 78.8653 127.553 79.038 127.892 78.822V76.1617C127.032 75.738 126.422 74.9748 125.726 74.0175C125.361 73.7983 124.771 74.0344 124.214 73.9541C123.8 73.6816 124.086 72.7085 123.185 72.9262C122.698 72.4234 123.176 71.7985 122.785 71.0915C122.197 70.549 121.163 70.0914 120.761 68.9828H119.277C118.687 70.0891 117.409 70.6473 116.814 71.9096L115.13 72.0005C115.032 72.2729 114.928 72.5623 114.805 72.9057H112.18C111.864 72.7249 111.998 72.4475 111.966 72.2266C111.781 71.8642 111.378 72.0319 111.113 71.8695C110.827 71.3188 110.999 70.7437 110.991 70.1304L111.934 69.7972V66.3062C112.185 65.877 112.456 65.9765 112.938 65.9321C113.006 64.5261 112.942 63.0649 112.974 61.6471C113.196 61.5628 113.342 61.5114 113.484 61.4527C113.627 61.3941 113.766 61.3281 113.91 61.2639V54.0596L113.071 53.8771V51.1287C111.953 51.3041 112.115 49.8052 111.027 49.8498V47.2229C109.392 46.4131 108.642 44.7406 106.963 43.656C106.755 43.3871 107.062 42.7857 107.001 42.4551C104.811 40.2716 102.749 38.2166 100.475 35.95H99.1664C98.9461 35.3629 98.7893 34.8326 98.0146 34.8328C97.9858 34.4442 97.9567 34.0504 97.9274 33.6541C97.0774 33.2202 96.2539 32.6867 95.2233 32.9949C95.213 31.9793 93.8373 32.0286 93.8358 30.9914L92.1181 30.8954C92.0148 30.6102 91.9101 30.321 91.7732 29.9434H89.1628C89.0168 29.5679 88.9053 29.2809 88.7622 28.913H85.6292C85.4944 28.5349 85.391 28.2452 85.2617 27.8826H81.5899C81.5079 27.5687 81.4489 27.343 81.3438 26.9409H73.5813C73.4764 26.5388 73.4175 26.3132 73.3388 26.0118H69.1057C68.9335 26.1208 68.9523 26.372 68.9562 26.5775C68.8339 26.7113 68.7319 26.9209 68.6278 26.9221C66.8019 26.9421 64.9757 26.9365 63.2482 26.9365C62.878 26.7194 62.9743 26.4491 62.9501 26.1725C62.3854 25.7426 61.7437 25.966 61.1944 25.993C60.7421 26.1977 61.1886 26.7161 60.3833 26.9627H57.0691C57.0022 27.2707 56.9529 27.4984 56.8922 27.7781C56.0028 28.1852 54.9781 27.7107 54.0709 28.0331C53.9993 28.3071 53.9403 28.5328 53.858 28.848H47.2315C46.7815 29.5237 46.9574 30.1597 47.0316 30.8769H53.5877C53.9744 31.1259 53.9605 31.3752 53.9473 31.6282C54.4369 32.3176 55.1935 31.694 55.8223 32.0637C55.8993 32.272 56.0061 32.5606 56.1454 32.9375H60.7776C60.9176 33.8992 61.9805 34.0854 62.1777 34.9253H64.6072C65.0441 35.0991 64.9007 35.4917 65.0268 35.7651C65.5513 36.1601 66.157 35.7759 66.8601 36.0777C67.2665 36.4742 66.7183 37.2192 67.0573 37.7949C68.2545 38.1937 68.6075 39.6245 69.8844 40.0631V41.7349C70.246 41.8612 70.5362 41.9625 70.9146 42.0946V44.7519C71.2781 44.8848 71.5667 44.9903 71.9067 45.1146V47.6933C71.7122 48.1713 71.1847 47.7025 70.9388 48.5049V51.8378L70.1521 52.0028C69.6801 52.48 70.1668 53.1067 69.8248 53.7115C68.9889 53.6445 69.0927 55.0569 68.0247 55.0421V56.7443C67.663 56.8711 67.3729 56.9727 66.9945 57.1053V59.5954C66.7452 60.0226 66.4758 59.9331 66.2099 59.9598C65.6245 60.4649 66.184 61.2102 65.8722 61.7826C64.8836 61.5869 65.214 63.2618 64.1548 62.987C63.7312 63.4975 64.0556 64.1024 63.9351 64.7317C62.9755 64.639 63.0918 66.0717 62.0197 66.0505V67.8205C60.8263 67.5415 61.2064 69.3757 59.959 68.9409V70.6438C59.7004 71.0622 59.4226 70.9214 59.1754 70.9747C58.7093 71.4596 59.058 72.0724 58.9483 72.624C58.1657 73.3133 57.1707 73.8084 56.7697 74.9103H54.1123C53.9776 74.2981 53.6951 73.8936 52.9841 73.8222V67.2039C52.3777 66.7561 51.7808 67.0379 51.1178 66.9394C50.7135 67.8522 51.1364 68.867 50.8765 69.7567C50.6873 70.168 50.1705 69.7248 49.9238 70.5314V72.842C49.6155 72.9095 49.388 72.9593 48.9821 73.0482V76.8107C48.5798 76.9157 48.3543 76.9747 48.0398 77.0569V79.5214C47.7648 80.0652 47.3527 79.875 47.0104 80.1285V86.5547C46.7278 87.1691 45.8205 86.7325 45.9544 87.5696C45.9337 88.2474 46.6776 87.7479 46.9508 88.2965V90.6076C47.2198 91.1749 47.734 90.738 47.9809 91.5455V94.8504L48.7612 95.0242C49.2399 95.5614 48.6822 96.3083 49.0987 96.8694C49.325 96.9282 49.5506 96.9872 49.7943 97.0508C50.1171 97.5755 49.8795 98.1659 49.9532 98.7235C51.1289 99.2815 51.6549 100.624 52.9556 101.269V102.483C55.854 105.384 58.5419 108.074 61.4374 110.973H62.7985C62.6527 112.127 64.6078 111.657 63.9509 112.962H66.704C66.7163 113.904 67.9383 113.949 68.2088 114.918H69.7534C69.8813 115.28 69.9836 115.57 70.1107 115.93L71.7958 116.022C71.9033 116.313 72.0099 116.602 72.149 116.979H74.7601L75.1148 117.913C77.329 118.308 79.7444 117.248 81.7468 118.982H87.4607C87.525 119.289 87.3032 119.651 87.8588 120.086H90.9706C90.9555 120.428 90.9483 120.592 90.9406 120.755C90.4012 121.375 89.4597 120.537 88.9555 121.291C88.97 121.549 88.9815 121.797 88.7936 121.918H77.1002C76.9768 121.563 76.876 121.274 76.7518 120.916H72.1135C71.8728 120.576 72.057 120.167 71.6887 119.983H69.9564V118.174C69.245 117.743 68.5233 118.281 68.0078 117.793C67.9565 117.537 67.9117 117.313 67.8395 116.953H64.1008C63.8958 116.54 64.0406 116.157 63.6744 115.981H62.2185C61.8516 115.794 62.0431 115.381 61.7873 115.039H60.1546C60.0264 114.677 59.9239 114.387 59.797 114.029L58.1702 113.943C57.8017 113.669 58.1401 112.895 57.3267 112.957C56.7395 113.001 57.1343 112.241 56.7267 112.015L55.0095 111.924C54.9746 111.305 54.943 110.745 54.9104 110.167C54.3978 109.765 53.796 110.075 53.1618 109.958C53.2982 108.969 51.8146 109.118 51.8491 108.124C50.8232 108.368 51.1655 106.677 50.1425 106.917C50.0118 106.046 48.8905 105.904 48.7592 105.033C47.7272 105.286 48.1087 103.539 46.9644 103.854V102.129C45.8603 102.38 46.2277 100.653 45.1568 100.946C44.7202 100.44 45.0526 99.8328 44.9304 99.2062C43.9926 99.2686 44.0854 97.8739 43.0221 97.8829V96.1801C42.6608 96.0541 42.3707 95.9529 41.9926 95.8211V93.163C41.6297 93.0309 41.341 92.9258 41.0002 92.8016V90.2182C41.1887 89.7397 41.7188 90.2151 41.898 89.6312V87.2138C41.6513 86.7807 41.1529 87.1797 41.015 86.7278V84.0984C41.3062 84.0232 41.5319 83.9648 41.9331 83.8611V77.0978C42.3343 76.9931 42.5599 76.9343 42.8732 76.8525V73.177C44.059 73.3773 43.6855 71.5526 44.9321 71.9812V68.296C45.185 67.8531 45.4624 67.9888 45.7163 67.9517C46.2636 67.4266 45.715 66.6821 46.0861 66.0409C46.2659 66.0036 46.4937 65.9564 46.7685 65.8994C47.1853 65.4301 46.847 64.8218 46.9546 64.2768C47.0959 63.8833 47.461 63.9675 47.7465 63.9243C48.1964 63.3436 47.7925 62.6263 47.9817 62.0793C48.3342 61.9873 48.5598 61.9285 48.786 61.8697C49.1546 61.3432 48.7992 60.7407 49.0484 60.1049C49.2344 60.0404 49.5248 59.9398 49.9029 59.8088V57.3119C50.1514 56.9024 50.4125 56.9589 50.8078 56.9466C51.1694 55.7159 50.7796 54.3934 50.9855 53.3113C52.2051 52.1584 53.4366 51.2332 54.3199 49.9495C54.9228 49.8741 55.0097 50.2348 54.9573 50.7188C55.4984 51.2576 56.2444 50.7021 56.9045 51.1115C56.9317 51.6173 56.9618 52.1777 56.9946 52.7862L58.0208 53.1556V62.8694C59.2338 63.4049 58.7164 61.5171 59.7361 61.9362C60.1913 61.4337 59.8498 60.8244 59.975 60.1929C60.8913 60.2344 60.8143 58.8695 61.8732 58.8715V56.2042C62.8531 56.0927 62.9183 54.8653 63.9101 54.8068C63.9364 54.2535 63.963 53.6927 63.9897 53.1291C64.3013 53.006 64.5874 52.8929 64.9623 52.7448V51.2849C65.2382 50.7519 65.7447 51.1706 65.9296 50.5654V46.2085C65.8215 45.8627 65.4423 45.9774 65.1455 45.8966C64.7458 45.3812 65.0392 44.7823 64.955 44.2284C63.7221 43.4039 62.8266 42.2451 61.851 41.1642C61.3283 40.7103 60.6168 41.0853 60.0733 40.9197C59.9768 40.5496 59.9179 40.3239 59.8362 40.0104H57.1594L56.8034 38.9944L55.1054 38.8982C55.0058 38.6183 54.9027 38.3287 54.7682 37.9512H51.1595C51.0091 37.5773 50.8942 37.2917 50.7456 36.9222H46.1258C45.9899 36.545 45.8857 36.2557 45.7553 35.8935H40.088C40.0059 35.5804 39.9468 35.3548 39.8629 35.0349H37.4348C36.852 34.7648 37.0219 34.361 36.8501 34.0838C36.3214 33.7899 35.7416 33.9869 35.1271 33.9523C35.0304 34.2297 34.9292 34.5199 34.8052 34.8753H30.1439C29.7327 33.7832 28.5801 33.3183 27.9597 32.5665C27.8985 31.6864 28.6187 32.1268 28.9023 31.7024C28.9258 31.2477 28.9549 30.6867 28.9812 30.1786C29.1682 29.8463 29.4451 29.9713 29.6856 29.9279C30.0347 29.7595 29.8873 29.3654 30.0647 29.0099H32.7377C32.8636 28.6487 32.9647 28.3585 33.0965 27.9805H36.7545C36.8864 27.6176 36.9913 27.3286 37.1284 26.9514H40.6036C41.0674 26.7 40.8993 26.415 41.0137 26.0107H44.8213C44.9029 25.6176 44.9503 25.3897 45.0058 25.1222C45.5166 24.6235 46.2678 25.2062 46.8361 24.8016C46.8928 24.5796 46.9504 24.3537 47.053 23.9516H50.8152C50.92 23.5498 50.9788 23.3242 51.0603 23.0115H58.7412L59.0907 22.0024H83.7497C83.9343 22.7901 84.9964 22.9766 85.1369 23.937H88.7681C88.9077 24.3133 89.0147 24.6017 89.1499 24.9661H92.8424C92.9111 25.2747 92.9617 25.5021 93.0159 25.746C93.553 26.2247 94.2993 25.6675 94.8603 26.0832C94.919 26.3094 94.9779 26.535 95.0597 26.8486H97.5272C98.0661 27.1237 97.8742 27.5364 98.131 27.8783H99.7125C100.197 29.2277 101.735 29.592 102.166 30.9095H103.512C104.047 31.066 103.938 31.4425 104.01 31.7523C104.521 32.1506 105.123 31.8424 105.665 31.9419C106.055 32.099 105.91 32.4921 106.046 32.7827C106.568 33.1063 107.158 32.8686 107.721 32.9412C108.288 33.471 107.762 34.2115 108.197 34.6578C109.372 35.8345 110.547 37.0112 111.933 38.3989C111.945 38.6166 111.977 39.1771 112.008 39.7349C112.238 40.1165 113.054 39.7336 112.984 40.5502C112.929 41.1892 113.703 40.7407 113.983 41.2903V42.7687C115.265 43.1987 115.62 44.6265 116.808 45.0352C117.164 45.563 116.823 46.1641 117.058 46.7937C117.257 46.8632 117.547 46.9645 117.925 47.0963V50.7548C118.288 50.8867 118.576 50.9918 118.954 51.1291V55.6055C119.205 56.0692 119.49 55.901 119.894 56.0155V59.7073C121.637 60.5349 122.295 62.3128 123.918 63.1044C123.948 63.6274 123.979 64.1879 124.012 64.7485C124.998 65.1367 125.495 66.0136 126.202 66.8972H127.71C128.174 67.9347 129.003 68.4787 129.934 69.2264C130.169 69.5731 129.824 70.1746 130.063 70.8059C130.259 70.8741 130.549 70.9751 130.92 71.1042C130.95 71.6321 130.981 72.1927 131.015 72.7974L131.957 73.1394V74.5425C132.21 75.1887 132.741 74.7128 132.921 75.2989V78.7979C132.724 78.8641 132.575 78.9057 132.432 78.9644C132.29 79.0231 132.155 79.0987 131.929 79.2099V83.8289L131.068 84.0459V86.4598C130.8 87.0602 130.399 86.8978 130.118 87.0599C129.817 87.5837 130.05 88.1733 129.959 88.729C129.093 88.8656 128.988 90.0381 128.012 90.1177C127.987 90.6699 127.963 91.2306 127.94 91.7485C127.624 92.1019 126.875 91.8014 126.95 92.6134C127.007 93.229 125.908 92.6881 125.979 93.4031C126.062 94.2273 125.164 93.7516 124.978 94.224V95.6903C123.202 96.9368 121.922 98.7205 120.234 100.05C119.69 100.497 120.182 101.125 119.807 101.772C117.947 103.067 116.683 105.222 114.865 106.917H113.171C113.407 108.133 111.421 107.641 112.038 108.977H110.186C109.769 109.593 110.112 110.194 109.874 110.828C109.458 111.22 108.847 110.874 108.221 110.998C108.216 111.884 106.914 111.849 106.892 112.818C106.363 113.146 105.773 112.908 105.215 112.979C105.324 114.026 103.691 113.792 103.922 114.925C103.275 114.959 102.715 114.989 102.162 115.018C101.776 116.251 100.36 116.615 99.7593 117.982H94.2719C93.8733 117.823 94.0165 117.431 93.8909 117.155C93.6334 116.823 93.2701 117.046 92.962 116.981L92.9621 116.981Z" fill="#D54A3D"/>
<path d="M73.9682 169.005H72.2341C71.8664 169.191 72.0538 169.601 71.8053 169.944H70.2317C69.4249 171.676 67.5083 172.317 66.7349 173.989H65.329C64.8909 174.164 64.9908 174.536 64.9227 174.821C64.3786 175.194 63.7856 174.931 63.2482 175.006C62.8688 175.186 63.0413 175.591 62.8197 175.938H61.28C60.6585 176.563 61.1596 177.298 60.8737 177.955C60.2909 177.988 59.7309 178.019 59.1265 178.053C59.0269 178.328 58.9223 178.617 58.7859 178.993H57.3016C56.8584 179.246 56.9968 179.524 56.9586 179.778C56.4333 180.322 55.6904 179.776 55.0485 180.146C55.0115 180.325 54.9645 180.553 54.9101 180.816C54.4474 181.299 53.8165 180.791 53.208 181.154C53.2462 181.95 51.8792 181.871 51.8824 182.843C51.3575 183.223 50.7544 182.854 50.1129 183.117C50.0537 183.29 49.9541 183.58 49.8246 183.957H47.1603C47.0324 184.318 46.9298 184.607 46.8065 184.955H41.1558C40.8792 184.797 40.9866 184.524 40.9492 184.257C40.4436 183.687 39.7006 184.241 39.1263 183.927C38.8552 183.76 38.9961 183.483 38.9458 183.24C38.4178 182.694 37.6737 183.244 37.0508 182.895C37.0062 182.684 36.9582 182.456 36.9024 182.192C36.4173 181.788 35.8132 182.112 35.1865 181.992C35.2666 181.042 33.8505 181.148 33.8663 180.168C33.3386 179.816 32.7387 180.155 32.2974 179.991C31.9405 179.572 31.6271 179.204 31.3137 178.836C30.6938 178.414 31.1434 177.689 30.9102 177.138C30.5852 177.054 30.3599 176.995 30.0459 176.913V173.099C30.1408 172.907 30.5493 173.09 30.8927 172.85V170.252C31.8133 170.054 31.9716 168.955 32.9486 168.842V167.199C34.3821 166.826 34.5693 165.077 35.9526 164.872V163.276C36.7632 162.706 37.5247 162.098 38.3065 160.927C38.5475 160.711 39.293 161.269 39.9204 160.809C39.9429 160.3 39.9677 159.739 39.992 159.19C40.555 158.824 41.1462 159.074 41.7024 159C42.6201 157.488 44.1986 156.554 45.3203 155.024C45.7037 155.006 46.2654 154.98 46.7747 154.957C47.5563 153.333 49.323 152.667 50.1144 151.047C50.6365 151.018 51.1965 150.986 51.8011 150.953C51.9007 150.677 52.0054 150.389 52.1419 150.012H53.7053C54.6096 148.442 56.2046 147.628 57.1455 146.089C57.5775 145.836 58.1664 146.069 58.7847 145.976C58.875 145.713 58.9749 145.423 59.1069 145.04C59.6301 145.014 60.1898 144.986 60.7529 144.958C61.185 143.793 62.5227 143.367 63.2088 142.002C63.4791 141.752 64.0888 142.096 64.6397 141.986C64.9226 141.477 65.4142 141.162 65.7953 140.775C66.1667 140.398 66.2681 139.846 66.9665 139.991H67.7145C67.9561 139.1 69.054 138.884 69.277 137.997C69.8388 137.886 70.4463 138.226 70.9119 137.806C70.9685 137.531 71.0154 137.304 71.0776 137.001H72.7661C73.1896 135.61 74.7462 135.266 75.2285 133.921H76.8147C77.0504 133.577 76.87 133.17 77.233 133.023C77.7716 132.822 78.3762 133.207 78.8986 132.811C79.023 132.537 78.8813 132.146 79.2703 131.99C79.8117 131.892 80.4107 132.195 80.9212 131.803C80.9986 131.495 80.8879 131.119 81.3996 130.961H82.7662C82.9492 130.102 83.9973 129.907 84.1657 128.969H85.7893C86.3139 127.656 87.6615 127.142 88.2764 125.894H90.8993C90.9264 124.856 92.2196 124.885 92.2306 123.958H95.5924C96.193 123.773 95.7806 123.27 96.1257 123.066C96.7069 122.779 97.4448 123.305 97.9741 122.734V121.982H99.7233C99.7668 121.047 101.084 121.049 101.108 120.031C101.663 120.002 102.224 119.972 102.812 119.941C102.922 119.646 103.029 119.358 103.169 118.982H104.861C104.924 118.679 104.97 118.451 105.029 118.167C105.482 117.737 106.093 118.084 106.578 117.988C107.469 117.042 108.327 116.13 109.353 115.04H111.734C111.944 114.125 113.02 113.949 113.148 112.981H114.825C114.683 111.948 116.255 112.206 116.016 111.171C116.528 110.759 117.131 111.075 117.77 110.955C117.638 109.975 119.112 110.12 119.076 109.039H121.735C121.943 108.122 123.024 107.951 123.148 106.98H125.779C125.925 106.605 126.037 106.318 126.15 106.029H131.878C131.935 106.302 131.984 106.53 132.038 106.785C132.617 107.26 133.255 106.793 133.825 107.011C133.93 106.61 133.989 106.385 134.072 106.067H137.51C138.081 105.796 137.907 105.39 138.126 105.052H140.784C141.208 105.91 141.969 106.522 142.989 107.265V109.093C143.854 108.176 144.283 109.357 144.99 108.83V111.786C145.366 111.924 145.655 112.03 145.926 112.13V116.875L145.179 117.029C144.698 117.571 145.254 118.317 144.838 118.879C144.612 118.937 144.387 118.996 144.143 119.06C143.819 119.584 144.056 120.174 143.985 120.732C143.048 121.285 142.263 121.991 141.745 122.975H140.291C139.299 124.202 138.322 125.395 136.999 126.258C136.885 126.332 136.984 126.734 136.984 126.984C136.345 127.075 135.674 126.811 135.072 127.106C134.999 127.385 134.941 127.61 134.882 127.837C134.321 128.252 133.577 127.699 133.028 128.183C132.954 128.477 133.065 128.854 132.544 129.013H131.232C130.308 130.595 128.588 131.409 127.738 132.981C127.182 133.062 126.592 132.828 126.481 132.894C125.84 133.955 124.808 134.134 124.71 135.012H122.357C120.843 136.826 118.996 138.157 117.705 139.99C117.151 140.071 116.556 139.794 116.038 140.17C115.939 140.464 116.063 140.848 115.585 141.013H114.19C113.998 141.863 112.949 142.058 112.788 143.005H111.161C111.023 143.382 110.917 143.67 110.815 143.949C110.215 143.983 109.655 144.015 109.098 144.046C109.114 145.098 107.696 145.015 107.712 145.92C107.168 146.168 106.559 145.763 106.04 146.178C105.93 146.456 106.063 146.843 105.607 147.012H104.21C103.426 148.679 101.521 149.331 100.709 151.059H98.0708C98.1133 152.143 96.6231 151.987 96.7708 152.976C96.1286 153.095 95.527 152.783 95.0129 153.189C95.2724 154.237 93.6334 153.932 93.8275 154.998H92.3905C91.3721 156.088 90.5122 157.009 89.5704 158.017C89.1678 158.072 88.5785 157.836 88.0535 158.155C87.9902 158.398 87.9315 158.623 87.8729 158.85C87.3124 159.267 86.5682 158.717 86.0184 159.196C85.9404 159.489 86.0541 159.867 85.5422 160.027H84.1741C83.9913 160.888 82.9462 161.087 82.7807 161.968C82.2279 161.994 81.6676 162.02 81.0565 162.048C80.7817 162.688 81.2382 163.415 80.7761 163.963C80.1989 163.994 79.6387 164.024 79.1133 164.052L78.7918 164.981C78.1752 165.081 77.5862 164.849 77.1805 165.274C76.4649 165.744 75.969 166.413 75.4429 167.037C74.9239 167.653 73.8411 167.903 73.9682 169.005ZM129.112 122.982C129.732 122.982 130.233 122.982 130.733 122.982C131.266 121.785 132.695 121.33 133.179 119.978H134.792C134.931 119.601 135.037 119.312 135.143 119.022L136.824 118.93C137.384 117.662 138.685 117.117 139.281 115.984C139.835 115.879 140.439 116.2 140.916 115.809V112.113C140.556 111.988 140.266 111.888 140.087 111.826C139.827 111.187 140.194 110.583 139.792 110.023H131.143C131.029 110.957 129.939 111.124 129.734 112.043H128.134C127.902 112.39 128.08 112.797 127.712 112.94C127.175 113.153 126.565 112.746 126.044 113.161C125.935 113.439 126.068 113.827 125.23 114.136C125.141 114.186 124.516 113.705 124.034 114.174C123.982 114.424 123.933 114.652 123.874 114.933C123.285 114.96 122.722 114.986 122.168 115.012C122.005 115.898 120.96 116.098 120.777 116.938C120.218 116.969 119.657 117.001 119.128 117.032C118.999 117.398 118.898 117.688 118.771 118.05H117.124C116.904 118.399 117.075 118.804 116.495 119.075H114.018C114.275 120.19 112.586 119.849 112.838 120.893C112.254 121.201 111.514 120.681 110.985 121.208C110.942 121.462 111.087 121.741 110.643 121.996H109.158C109.02 122.374 108.915 122.663 108.815 122.938C108.211 122.973 107.65 123.004 107.091 123.036C107.13 124.11 105.639 123.967 105.765 125.08H103.01C103.276 126.202 101.586 125.86 101.847 126.972H99.1855C99.0327 127.346 98.9161 127.631 98.7848 127.952C98.2374 127.977 97.676 128.002 97.1559 128.025C96.6035 129.302 95.2948 129.847 94.6949 130.985C94.1408 131.069 93.543 130.782 93.0021 131.19C92.9622 131.479 93.0441 131.843 92.5664 132.012H91.1778C90.9923 132.872 89.9484 133.072 89.7826 133.953C89.2293 133.98 88.6685 134.006 88.1357 134.031C88.0082 134.388 87.9045 134.677 87.807 134.95C87.1972 134.981 86.6365 135.009 86.1128 135.036C85.9807 135.419 85.8805 135.71 85.7561 136.071H83.073C82.9911 136.385 82.9322 136.611 82.8421 136.956C82.2933 137.153 81.5729 136.734 81.0144 137.185C80.9497 137.565 81.0243 138.025 80.3932 137.997C79.7369 137.969 80.153 138.689 79.8122 138.898C78.8873 139.198 77.8641 138.718 77.1149 139.102C76.7931 139.801 77.2019 140.411 76.7612 140.956C76.2223 140.983 75.6617 141.011 75.1289 141.038C75.0016 141.395 74.8984 141.685 74.7693 142.048H73.104C72.9741 142.427 72.8745 142.717 72.7843 142.98C72.163 143.065 71.5728 142.827 71.0427 143.152C71.085 144.169 69.6627 144.044 69.7358 144.969C69.088 145.098 68.4769 144.752 68.0206 145.179C67.9624 145.462 67.9156 145.69 67.8749 145.887C67.2295 146.214 66.4822 145.648 65.9681 146.258C65.8859 146.82 66.1621 147.416 65.7722 147.957C65.2155 147.986 64.6549 148.016 64.1224 148.044C63.9953 148.403 63.8926 148.692 63.7642 149.055H62.0636C62.1089 150.144 60.6073 149.98 60.7662 150.974C60.1192 151.094 59.5165 150.78 59.021 151.175C58.9645 151.434 58.915 151.662 58.8717 151.86C58.2584 152.245 57.5116 151.687 57.0176 152.178C56.9578 152.47 56.9112 152.698 56.8491 153.001H55.1554C54.6502 154.336 53.2621 154.822 52.7051 156.001H51.2075C51.1123 156.901 49.8747 156.959 49.823 157.893C49.2506 158.244 48.5044 157.69 47.9671 158.229C48.0219 158.802 47.8018 159.387 48.1308 159.943C48.7536 159.965 49.3972 160.2 49.9585 159.76C49.979 159.481 49.8923 159.213 50.1462 159.063H53.8357C53.8855 159.766 54.3246 160.014 54.8694 160.157C55.1974 160.731 54.6455 161.476 55.2142 162.006H56.7225C56.8449 162.694 57.2394 163.104 57.9312 163.218C57.9578 163.779 57.9844 164.34 58.0092 164.862C58.3972 164.996 58.6879 165.096 58.857 165.154C59.1252 165.797 58.7507 166.402 59.154 166.951C59.4143 167.046 59.7976 166.923 59.8634 167.073V170.958C59.2017 170.996 58.6411 171.028 58.1119 171.058C57.9836 171.426 57.8822 171.716 57.7853 171.993C57.1707 171.961 56.5911 172.156 56.0651 171.865C55.7311 171.273 56.2848 170.528 55.718 170.01C55.4608 169.981 55.1875 170.093 54.9986 169.767C54.9722 169.256 54.9432 168.696 54.9144 168.141C53.9028 168.108 53.8887 166.811 52.964 166.754C52.8919 166.196 53.1301 165.606 52.9099 165.251C51.9339 164.555 51.194 163.921 50.7618 163.084H47.0695C46.9892 163.391 46.9303 163.617 46.8253 164.019H43.0617C42.9602 164.422 42.9032 164.648 42.8243 164.961H40.1947C39.7597 166.124 38.7365 166.593 37.9649 167.297C37.8601 167.853 38.1782 168.456 37.7635 168.969C36.7155 168.711 37.0122 170.338 36.0445 170.173C35.729 170.746 36.2866 171.491 35.7032 172.004C35.4429 172.025 35.1736 171.933 35.0205 172.193V175.86C35.3724 175.984 35.6624 176.086 36.0243 176.214V177.863C36.6873 178.244 37.4321 177.693 37.9546 178.248C37.9884 178.503 37.8618 178.779 38.3022 179.032H40.7883L41.1133 179.94H47.8277C47.9521 179.58 48.0523 179.289 48.1769 178.928H50.8597C50.9417 178.614 51.0006 178.388 51.0592 178.161C51.6196 177.741 52.3651 178.293 52.6927 178.008C53.7341 176.32 55.4322 175.592 56.2401 173.952H57.8281C57.9582 173.573 58.0579 173.282 58.1482 173.019C58.7693 172.935 59.3595 173.172 59.7802 172.745C61.0935 171.676 62.0768 170.328 63.3516 169.033L64.7842 168.957C65.2372 168.323 64.6545 167.571 65.2653 166.944H66.8683C66.8239 165.856 68.3224 166.018 68.1666 165.026C68.8129 164.905 69.4156 165.219 69.9105 164.824C69.967 164.565 70.0166 164.337 70.0596 164.139C70.6737 163.755 71.4204 164.312 71.9523 163.784C72.0462 163.208 71.8126 162.618 72.111 162.101C72.7063 161.771 73.4514 162.328 73.7705 161.968C74.1531 161.183 73.7239 160.568 74.175 160.04C74.7233 160.01 75.2838 159.979 75.84 159.948C75.8487 158.917 77.2063 158.952 77.227 158.001C77.7836 157.925 78.376 158.179 78.9219 157.818C78.9984 157.533 78.8927 157.157 79.3276 156.981H80.6533C81.6947 155.466 83.3437 154.588 84.2717 152.929H85.8459C86.2991 151.663 87.7035 151.289 88.1243 150.076C88.6934 149.777 89.4322 150.294 89.9622 149.772C90.0078 149.518 89.8641 149.239 90.3016 148.984H91.8138C91.9154 147.996 93.0414 147.856 93.2239 146.922H94.381C95.5825 145.883 96.6099 145.2 97.1209 144.093C97.6966 143.755 98.4416 144.304 98.9689 143.763C99.0088 143.509 98.8653 143.231 99.3124 142.976H100.822C100.907 141.978 102.071 141.866 102.213 141.004C102.769 140.912 103.358 141.145 103.886 140.842C103.949 140.601 104.008 140.375 104.1 140.022C104.647 139.833 105.364 140.235 105.923 139.805C105.675 138.768 107.364 139.109 107.107 138H108.791C108.947 137.049 109.998 136.854 110.189 136.027C110.75 135.997 111.31 135.967 111.796 135.942C111.912 134.916 113.254 134.953 113.23 134.084C113.8 133.798 114.417 134.238 114.953 133.767C114.987 133.491 114.908 133.129 115.392 132.961H116.644C117.723 131.44 119.343 130.536 120.231 128.989C120.783 128.912 121.373 129.148 121.898 128.83C121.962 128.587 122.021 128.361 122.079 128.134C122.64 127.716 123.386 128.271 123.935 127.788C123.679 126.748 125.34 127.069 125.122 125.986H126.793C127.162 124.656 128.704 124.394 129.112 122.982V122.982Z" fill="#181818"/>
<path d="M73.9693 169.007C73.8422 167.905 74.925 167.654 75.444 167.038C75.9701 166.414 76.4659 165.745 77.1816 165.276C77.5873 164.85 78.1762 165.082 78.7928 164.983L79.1144 164.054C79.6397 164.025 80.1999 163.995 80.7771 163.964C81.2392 163.416 80.7827 162.689 81.0576 162.05C81.6687 162.021 82.229 161.995 82.7817 161.969C82.9472 161.088 83.9923 160.89 84.1751 160.028H85.5432C86.0552 159.869 85.9415 159.49 86.0194 159.197C86.5692 158.718 87.3135 159.269 87.8739 158.851C87.9325 158.625 87.9913 158.399 88.0546 158.156C88.5795 157.838 89.1689 158.073 89.5715 158.019C90.5132 157.01 91.3732 156.089 92.3916 154.999H93.8285C93.6344 153.933 95.2735 154.239 95.0139 153.191C95.5281 152.785 96.1296 153.096 96.7719 152.977C96.6241 151.989 98.1144 152.145 98.0718 151.06H100.71C101.522 149.332 103.427 148.68 104.211 147.014H105.608C106.064 146.844 105.931 146.457 106.041 146.179C106.56 145.764 107.169 146.17 107.713 145.921C107.697 145.016 109.115 145.1 109.099 144.048C109.656 144.016 110.216 143.984 110.816 143.95C110.918 143.672 111.024 143.383 111.162 143.006H112.789C112.95 142.06 113.999 141.865 114.191 141.014H115.586C116.064 140.849 115.94 140.466 116.039 140.171C116.557 139.795 117.152 140.073 117.706 139.991C118.997 138.159 120.844 136.828 122.358 135.014H124.711C124.809 134.135 125.841 133.957 126.482 132.895C126.594 132.829 127.183 133.063 127.739 132.982C128.589 131.41 130.309 130.596 131.233 129.014H132.545C133.066 128.856 132.955 128.479 133.029 128.184C133.578 127.7 134.322 128.254 134.883 127.838C134.942 127.612 135.001 127.386 135.073 127.107C135.675 126.812 136.346 127.076 136.985 126.986V130.772C136.311 131.242 135.591 130.715 135.009 131.204C135.019 131.4 135.031 131.622 135.05 131.988H136.985C136.92 132.296 137.144 132.659 136.701 133.002H131.165C131.028 133.38 130.922 133.668 130.832 133.915C130.203 134.176 129.473 133.678 128.894 134.39C129.126 135.09 130.263 135.103 130.251 135.912C130.795 136.171 131.407 135.751 131.927 136.183C132.026 136.459 131.898 136.845 132.617 137.099H139.913L140.097 137.971H147.428C148.227 138.216 147.77 138.738 148.338 138.982C148.759 138.763 149.439 139.336 149.986 138.729C150.005 138.473 149.917 138.205 150.279 137.991C151.013 137.991 151.84 137.958 152.664 138.001C153.445 138.041 154.273 137.78 155.206 138.293C153.622 139.863 152.15 141.321 150.456 143H149.151C149.069 143.791 148.515 144.041 147.963 144.328V146.613C147.778 147.216 147.274 146.801 147.036 147.252V154.816C148.139 155.217 148.633 156.213 149.299 156.969H151.061C149.994 155.549 152.499 156.43 151.97 155.231C151.778 154.806 151.117 155.22 151.001 154.721C150.885 154.133 151.223 153.525 150.806 153.055C150.532 152.998 150.304 152.951 149.93 152.873C150.141 152.064 149.75 151.252 150.179 150.527C150.472 150.451 150.755 150.61 151.006 150.15V148.155C151.673 148.033 152.043 147.717 152.123 147.11C152.693 146.735 153.445 147.322 153.979 146.764C153.708 145.714 155.433 146.08 155.18 145.034C155.743 145.004 156.303 144.973 156.829 144.945C157.387 143.676 158.688 143.131 159.341 141.889H161.918C161.991 141.555 162.04 141.328 162.094 141.081C162.704 140.779 163.442 141.297 163.939 140.806C163.997 140.521 164.044 140.293 164.078 140.129H166.848C167.175 140.809 166.751 141.422 167.187 141.94C167.467 142.032 167.85 141.908 167.97 142.261V144.825C167.673 144.933 167.384 145.038 167.074 145.151C166.771 145.721 167.294 146.461 166.785 146.969C166.513 147.045 166.228 146.878 165.977 147.342V148.817C165.599 148.954 165.31 149.059 165.035 149.159C165.001 149.764 164.97 150.324 164.94 150.852C164.569 150.981 164.279 151.082 164.084 151.15C163.844 151.782 164.19 152.383 163.955 152.729C163.023 153.477 162.194 154.022 161.731 155.059H160.158C159.902 155.401 160.093 155.813 159.726 156H158.24C157.969 156.871 156.923 157.127 156.673 157.993C156.109 158.105 155.498 157.759 155.043 158.187C154.985 158.47 154.938 158.698 154.884 158.957H149.168C149.042 158.627 148.933 158.34 148.827 158.059H147.195C146.827 158.346 147.201 159.022 146.531 159.001C145.705 159.115 146.205 158.175 145.503 157.916H138.086C138.004 157.603 137.946 157.378 137.841 156.976H133.073C132.984 156.573 132.934 156.345 132.865 156.036H127.165C127.036 155.674 126.932 155.385 126.809 155.042C125.219 154.894 123.577 155.133 122.006 154.905C121.951 154.508 122.081 154.232 121.642 153.98H114.155C114.019 153.603 113.915 153.314 113.825 153.066H111.117C110.993 153.424 110.892 153.714 110.822 153.917H107.585C107.505 153.61 107.446 153.384 107.342 152.983H101.897C102.128 152.13 101.85 151.869 101.133 152.055C101.038 152.318 100.933 152.607 100.826 152.9C100.253 153.235 99.5086 152.688 98.9754 153.234V153.999H97.232C97.2501 154.975 95.8378 154.897 95.8549 155.948C95.2991 155.979 94.7402 156.01 94.1819 156.04C93.9967 156.87 92.9398 157.057 92.7918 158.006H91.0852C91.0239 158.306 90.9776 158.534 90.9217 158.808C90.4742 159.301 89.839 158.773 89.1914 159.179C88.6086 160.039 87.6986 160.9 86.7691 161.749C86.3526 162.155 85.7659 161.927 85.2115 162.014C85.1193 162.908 83.8815 162.962 83.8319 163.956C83.2795 163.984 82.7206 164.012 82.134 164.042C82.0247 164.338 81.9185 164.625 81.7803 165H80.1619C79.8188 166.338 78.2678 166.586 77.8727 167.85C77.3658 168.29 76.6232 167.734 76.0655 168.16C76.0073 168.385 75.9491 168.61 75.8774 168.887C75.2756 169.176 74.607 168.918 73.9693 169.007Z" fill="#DCC59A"/>
<path d="M98.9728 153.998V153.233C99.506 152.687 100.25 153.234 100.823 152.899C100.93 152.605 101.035 152.316 101.131 152.054C101.848 151.867 102.126 152.129 101.895 152.981H107.339C107.444 153.383 107.503 153.608 107.583 153.916H110.819C110.89 153.713 110.99 153.422 111.114 153.065H113.823C113.912 153.313 114.017 153.602 114.153 153.978H121.639C122.079 154.23 121.948 154.507 122.003 154.904C123.574 155.132 125.216 154.892 126.806 155.04C126.929 155.384 127.033 155.673 127.163 156.035H132.863C132.931 156.344 132.981 156.571 133.071 156.975H137.838C137.943 157.376 138.002 157.602 138.083 157.914H145.501C146.203 158.173 145.702 159.114 146.528 159C147.199 159.021 146.824 158.345 147.193 158.057H148.824C148.931 158.338 149.04 158.626 149.165 158.956H154.882C154.935 158.697 154.982 158.469 155.04 158.186C155.495 157.758 156.106 158.104 156.671 157.992C156.92 157.126 157.967 156.869 158.238 155.999H159.724C160.091 155.812 159.899 155.399 160.155 155.057H161.728C162.192 154.02 163.021 153.476 163.952 152.727C164.187 152.382 163.841 151.78 164.081 151.149C164.276 151.081 164.566 150.98 164.938 150.851C164.967 150.323 164.999 149.762 165.033 149.157C165.307 149.057 165.596 148.953 165.974 148.815V147.34C166.226 146.876 166.511 147.044 166.782 146.967C167.292 146.46 166.769 145.72 167.072 145.15C167.381 145.037 167.67 144.932 167.967 144.824V142.259C167.848 141.907 167.465 142.03 167.184 141.938C166.748 141.42 167.172 140.807 166.845 140.128H164.075C164.041 140.291 163.995 140.519 163.936 140.805C163.44 141.295 162.701 140.778 162.091 141.079C162.038 141.326 161.988 141.554 161.916 141.887H159.339C158.686 143.13 157.384 143.675 156.827 144.943C156.301 144.972 155.74 145.002 155.177 145.033C155.43 146.078 153.706 145.712 153.976 146.762C153.442 147.321 152.69 146.734 152.121 147.108C152.041 147.715 151.671 148.031 151.004 148.154V150.148C150.752 150.609 150.469 150.45 150.176 150.526C149.748 151.25 150.138 152.063 149.928 152.872C150.301 152.949 150.529 152.997 150.804 153.054C151.22 153.523 150.882 154.131 150.998 154.72C151.114 155.218 151.776 154.805 151.968 155.229C152.497 156.429 149.991 155.547 151.058 156.968H149.297C148.631 156.211 148.137 155.216 147.033 154.814V147.25C147.271 146.8 147.776 147.215 147.96 146.611V144.327C148.512 144.039 149.067 143.79 149.148 142.999H150.454C152.148 141.32 153.62 139.861 155.203 138.292C154.271 137.779 153.442 138.039 152.662 137.999C151.838 137.957 151.01 137.99 150.276 137.99C149.915 138.203 150.002 138.472 149.983 138.727C149.436 139.334 148.756 138.762 148.335 138.981C147.767 138.737 148.224 138.214 147.426 137.969H140.094L139.911 137.097H132.615C131.896 136.843 132.023 136.458 131.925 136.182C131.405 135.75 130.793 136.169 130.249 135.911C130.261 135.102 129.123 135.088 128.891 134.388C129.471 133.676 130.2 134.174 130.83 133.914C130.92 133.667 131.025 133.378 131.163 133.001H136.698C137.141 132.657 136.917 132.295 136.982 131.987C138.982 131.987 140.983 132.021 142.982 131.977C144.772 131.938 146.458 132.76 148.279 132.507C149.3 132.364 150.4 132.734 150.989 131.955C152.069 132.043 152.452 132.826 153.178 133.017H166.871C166.939 133.325 166.989 133.553 167.045 133.805C167.585 134.251 168.311 133.801 168.861 134.033C168.946 134.361 169.005 134.587 169.069 134.831C169.593 135.155 170.184 134.917 170.741 134.989C171.17 135.248 170.856 136.248 171.783 136.014C172.221 136.523 171.888 137.13 172.011 137.759C172.954 137.688 172.854 139.093 173.921 139.08V140.783L174.94 141.139C174.97 141.668 175.002 142.229 175.036 142.83C175.315 142.932 175.604 143.038 175.942 143.162V144.768C175.747 145.101 175.468 144.957 175.216 145.004C174.682 145.532 175.233 146.278 174.886 146.852C174.299 146.954 173.941 147.282 173.846 147.949C173.297 147.976 172.736 148.003 172.237 148.027C171.897 148.223 172.018 148.498 171.991 148.72C171.809 149.086 171.411 148.93 171.058 149.124V150.79C170.696 150.917 170.406 151.019 170.042 151.146C170.012 151.677 169.981 152.238 169.949 152.796C169.105 152.977 168.904 154.021 168.024 154.188C167.998 154.741 167.971 155.302 167.946 155.819C167.153 156.292 164.381 159.064 163.935 159.806C163.386 160.288 162.638 159.725 162.081 160.159C162.022 160.384 161.963 160.61 161.9 160.851C161.373 161.157 160.783 160.923 160.227 161.013C160.092 161.88 158.917 161.984 158.838 162.961C158.286 162.986 157.725 163.01 157.294 163.029C156.762 163.24 157.23 163.767 156.453 164.015H151.168C151.031 164.393 150.925 164.682 150.831 164.938H141.112C141.04 164.649 140.983 164.423 140.883 164.02H137.119C137.014 163.617 136.955 163.392 136.873 163.078H132.233C132.077 162.127 130.913 162.015 130.828 161.017H126.317C125.871 160.763 126.013 160.485 125.948 160.062C125.024 160.042 124.054 160.013 123.085 160.003C122.085 159.993 121.085 160.001 120.085 160.001H117.318C116.79 159.705 117.192 159.205 116.38 158.957H114.115C114.035 158.644 113.977 158.418 113.874 158.016H106.11C106.005 157.614 105.947 157.388 105.865 157.074H103.184C103.059 156.713 102.958 156.422 102.829 156.05C102.301 156.021 101.741 155.989 101.19 155.958C100.916 155.794 100.986 155.53 100.97 155.264C100.467 154.662 99.7218 155.225 99.1099 154.898C98.814 154.669 99.0378 154.306 98.9728 153.998Z" fill="#191918"/>
<path d="M97.9697 121.981V122.733C97.4404 123.305 96.7025 122.779 96.1213 123.065C95.7762 123.269 96.1886 123.772 95.5881 123.957H92.2262C92.2152 124.884 90.922 124.855 90.8949 125.893H88.2721C87.6571 127.142 86.3095 127.655 85.7849 128.968H84.1613C83.9929 129.906 82.9449 130.101 82.7618 130.96H81.3952C80.8835 131.118 80.9943 131.494 80.9168 131.802C80.4063 132.194 79.8073 131.891 79.2659 131.989C78.8769 132.146 79.0186 132.536 78.8943 132.81C78.3718 133.206 77.7672 132.821 77.2286 133.022C76.8656 133.17 77.0461 133.576 76.8103 133.92H75.2242C74.7418 135.265 73.1853 135.609 72.7617 137H71.0732C71.011 137.303 70.9642 137.53 70.9075 137.806C70.4419 138.225 69.8345 137.885 69.2726 137.996C69.0497 138.883 67.9518 139.099 67.7101 139.99H66.9621C66.9024 139.637 67.1625 139.028 66.6152 139.025C65.8707 139.02 65.991 138.494 65.8763 137.989H63.9613C64.0248 137.682 63.8062 137.323 64.1305 137.065C64.7076 136.764 65.4504 137.339 65.8705 136.829V134.034H62.1344C62.0128 134.368 61.9082 134.655 61.8077 134.931H60.1187C59.9965 134.587 59.8943 134.299 59.7981 134.028L58.4272 133.955C57.8555 133.395 57.5109 133.058 57.0078 132.565V130.16C57.3079 130.041 57.5927 129.929 57.8776 129.817C58.137 128.893 57.7316 127.889 58.1379 126.932C58.3854 127.154 58.5584 127.309 58.7381 127.47C58.9483 126.875 59.6492 127.156 60.0315 126.631V125.231C60.8926 124.489 61.7889 124.021 62.1658 123.021L63.8073 122.931C63.9333 122.572 64.0344 122.283 64.1596 121.926H65.8559C65.799 120.842 67.3219 121.009 67.167 119.98H71.6952C72.0635 120.165 71.8793 120.573 72.12 120.914H76.7582C76.8825 121.271 76.9832 121.561 77.1067 121.916H88.8001C88.9881 121.794 88.9765 121.546 88.962 121.289C89.4662 120.534 90.4077 121.373 90.947 120.753C90.9548 120.589 90.962 120.426 90.9771 120.084H87.8653C87.3097 119.648 87.5315 119.287 87.4672 118.979H91.6598C92.4967 120.407 93.752 121.117 95.3636 121.027C95.4535 121.382 95.51 121.605 95.6052 121.981H97.9697V121.981Z" fill="#DCC69B"/>
<path d="M111.65 23.9581H110.315C109.573 23.1758 109.152 22.1085 107.955 21.7262V20.4293C105.891 18.3517 104.041 16.4886 102.014 14.448V11.1226C102.575 10.7187 103.177 11.0854 103.819 10.8232L104.1 10H107.816C107.991 10.1115 107.976 10.361 107.966 10.79H111.745C111.91 11.2475 112.015 11.5357 112.149 11.9065H118.633C119.063 12.1494 118.942 12.425 118.988 12.6918C119.493 13.2501 120.234 12.7019 120.808 13.0142C120.617 13.999 122.28 13.6749 122.01 14.7163C122.509 15.2018 123.132 14.7233 123.849 15.1215C124.387 15.6898 124.809 16.7555 125.94 17.1285C125.967 17.6783 125.995 18.2378 126.024 18.825C126.306 18.8848 126.533 18.9329 126.794 18.9881C127.25 19.5162 126.784 20.243 127.029 20.7971C127.338 20.8776 127.563 20.9363 127.882 21.0196V24.8259C127.593 24.9007 127.368 24.9592 127.058 25.0398V27.6404C126.031 28.2364 125.25 28.9417 124.737 29.9292H120.25C120.198 29.8874 120.102 29.849 120.08 29.785C120.005 29.5653 119.957 29.3368 119.894 29.0937C119.37 28.7717 118.782 29.0071 118.239 28.938C117.878 28.7485 118.048 28.3461 117.832 28.0008H115.253C114.425 26.3952 112.829 25.5851 111.65 23.9581V23.9581Z" fill="#D5493D"/>
<path d="M31.4176 77.9616C30.8533 77.9616 30.0222 77.9616 29.1911 77.9626C29.1149 78.9863 27.6073 78.8752 27.8867 80.4354C26.7113 79.3219 26.1067 78.3311 24.9921 77.8038C24.965 77.2904 24.9356 76.7306 24.9062 76.1707C24.0808 75.9814 23.8927 74.9236 22.94 74.7776V72.1488C22.5659 72.0099 22.278 71.903 22 71.7997V68.5617L22.838 68.3826V66.5601C23.0944 65.8678 23.4802 65.9987 23.7728 65.8869C24.1309 65.3678 23.8663 64.7748 23.95 64.183C24.9589 64.2875 24.8117 62.7874 25.8066 62.8432C26.0541 62.4936 25.5409 62.5291 25.745 61.8011C26.3268 60.5292 28.1877 59.6568 29.164 58.0002H34.8847V59.5254C35.1589 60.1604 36.0727 59.7094 35.9434 60.5444C35.9688 61.2243 35.2336 60.7406 34.9943 61.1863V64.7709C36.0067 65.0432 36.3181 66.0054 37.0148 66.4403C36.7995 67.0256 36.4346 66.9403 36.0439 67.0028V73.6016C34.3274 74.7859 33.1731 76.3652 31.4176 77.9616Z" fill="#D5493D"/>
<path d="M69.9619 119.98H67.166C67.321 121.009 65.7981 120.842 65.855 121.926H64.1587C64.0334 122.283 63.9323 122.572 63.8064 122.931L62.1648 123.021C61.788 124.021 60.8916 124.489 60.0306 125.231V126.631C59.6482 127.156 58.9473 126.875 58.7372 127.47C58.5574 127.309 58.3845 127.154 58.137 126.932C57.7307 127.889 58.1361 128.893 57.8766 129.817C57.5918 129.929 57.307 130.041 57.0069 130.16V132.565C57.5099 133.058 57.8545 133.395 58.4262 133.955L59.7971 134.028C59.8933 134.299 59.9956 134.587 60.1178 134.931H61.8068C61.9072 134.655 62.0118 134.368 62.1334 134.034H65.8695V136.829C65.4494 137.339 64.7066 136.764 64.1296 137.065C63.8053 137.323 64.0238 137.682 63.9604 137.989H57.4301C56.3158 136.873 55.2945 135.849 54.2732 134.826C53.7918 134.607 54.0034 134.17 53.9648 133.78C53.9322 133.451 53.9579 133.117 53.9579 132.799C53.7987 132.412 53.4278 132.512 53.1681 132.448C52.7815 132.079 53.0455 131.638 52.9594 131.264C53.1337 130.892 53.5328 131.056 53.8767 130.852V127.406C54.1453 126.883 54.5536 127.069 54.8935 126.823V125.187L55.9089 124.834C55.9374 124.308 55.9676 123.749 55.9864 123.402C57.4828 121.943 58.8657 120.595 60.4928 119.008C60.651 119 61.2099 118.971 61.7549 118.943C62.0305 118.504 62.0288 117.819 62.8322 117.905C63.1284 117.283 62.8726 116.615 62.9601 115.978H63.6799C64.0461 116.155 63.9014 116.538 64.1064 116.95H67.8451C67.9173 117.311 67.9621 117.534 68.0134 117.79C68.5289 118.278 69.2505 117.74 69.9619 118.172V119.98V119.98Z" fill="#23211F"/>
<path d="M78.8809 83.3661C78.567 83.448 78.3414 83.5069 78.1147 83.5656C77.8354 83.9339 78.015 84.3482 77.9946 84.7927C78.2719 84.891 78.5617 84.9937 78.9395 85.1275V87.6172C79.1906 88.0489 79.4628 87.9422 79.8085 87.9777C80.2169 88.861 79.7779 89.8781 80.0566 90.8048C80.7437 90.8985 81.0344 91.4102 81.3424 92.1046C83.1196 90.3172 84.8636 88.5631 86.6077 86.809C87.2744 86.4097 86.7619 85.6717 87.0545 85.0643L87.8693 84.8944V72.6316C87.0204 72.424 87.2661 70.9274 86.0201 70.8176C85.9913 70.2665 85.9619 69.7059 85.9323 69.1408C84.8709 69.4111 85.2613 67.6516 84.2005 67.9406C83.6624 67.4024 84.1647 66.6662 83.9144 66.091C83.2327 66.0175 82.9417 65.6217 82.8039 64.967H81.3119C80.8512 64.7144 81.0202 64.4293 80.9401 64.1583C80.4343 63.643 79.6895 64.1917 79.1166 63.8529C78.6608 62.9288 77.9321 62.2839 77.0134 61.5861V59.1227C77.59 58.9554 78.055 58.7337 78.0909 58.0037C78.6446 57.9721 79.2051 57.9403 79.8072 57.906C79.9085 57.6286 80.0141 57.3397 80.1381 57H87.7857C87.9126 57.3086 88.0297 57.5934 88.1828 57.9656H90.7923C90.9293 58.3431 91.0342 58.6322 91.1419 58.929H93.5794C94.0578 59.0949 93.9322 59.4793 94.0331 59.7735C94.5519 60.1464 95.1475 59.8711 95.6868 59.9498C96.0607 60.1288 95.9155 60.522 96.0487 60.7957C96.5942 61.1024 97.1835 60.8711 97.7517 60.9698C97.528 62.0883 99.4312 61.6569 98.9325 62.939H100.819C100.57 64.0425 102.294 63.6765 102.004 64.7398C102.55 65.2393 103.279 64.7726 103.923 65.0315C103.955 65.6451 103.984 66.2061 104.01 66.7165C104.199 67.0414 104.472 66.9305 104.729 66.9585C105.297 67.4765 104.743 68.2211 105.108 68.8692C105.28 68.9047 105.508 68.9515 105.782 69.0079C106.274 69.4587 105.747 70.0954 105.895 70.3323C106.104 71.0392 106.481 70.9291 106.777 71.0002C107.263 71.5492 106.707 72.2955 107.124 72.8565C107.35 72.9153 107.576 72.9742 107.889 73.056V76.742C108.25 76.8652 108.54 76.9646 108.903 77.0888V83.8072C108.787 83.9934 108.533 83.9636 108.103 83.9616C107.801 86.2135 108.102 88.5069 107.938 90.7788C106.882 90.5149 107.263 92.2607 106.202 91.9781C105.733 92.4745 106.08 93.0861 105.97 93.6381C105.197 94.3366 104.178 94.8084 103.768 95.9837H102.499C100.591 97.8576 98.9187 99.5009 97.0601 101.327V103.901H94.1834C94.0146 104.367 93.9098 104.656 93.8024 104.952H90.2016C90.2695 105.932 88.8721 105.837 88.8828 106.902H85.3439C84.9661 107.149 84.959 107.392 84.9737 107.679C84.4809 108.287 83.7516 107.789 83.1212 108.048C83.0314 108.295 82.9262 108.584 82.8023 108.924H74.1912C73.8506 108.74 74.0167 108.455 73.9183 108.101H70.403C69.5275 106.716 68.2892 105.916 67.2555 104.899C66.7237 104.466 67.0704 103.854 66.945 103.224C66.0787 103.199 66.0372 101.996 65.0537 101.774V98.061C65.1519 97.8675 65.5641 98.0582 65.9061 97.8038V94.3349C66.1539 93.9396 66.4073 93.9667 66.6523 93.9685C66.7569 93.8574 66.9514 93.7474 66.9525 93.6354C66.9715 91.8097 66.9659 89.9838 66.9659 88.17C67.8626 87.9861 68.0629 86.9427 68.929 86.7703C68.9577 86.2153 68.9867 85.6547 69.0195 85.0199C69.6383 84.9853 70.1988 84.954 70.7597 84.9222C70.9909 83.9112 72.6871 83.5719 72.1717 82.1899C73.0661 82.4171 72.6771 80.6595 73.737 80.9473C74.2759 80.4092 73.7729 79.673 74.0235 79.0978C74.704 79.0234 74.9967 78.6293 75.1257 78.011H78.8809V83.3661V83.3661Z" fill="#D5483D"/>
<path d="M129.108 122.982C128.7 124.394 127.158 124.656 126.789 125.986H125.119C125.336 127.069 123.675 126.748 123.931 127.788C123.382 128.271 122.636 127.716 122.076 128.135C122.017 128.361 121.958 128.587 121.894 128.83C121.369 129.148 120.779 128.912 120.227 128.99C119.339 130.537 117.719 131.44 116.64 132.961H115.388C114.904 133.129 114.983 133.491 114.949 133.767C114.413 134.238 113.796 133.798 113.226 134.084C113.251 134.953 111.908 134.916 111.792 135.942C111.306 135.968 110.746 135.997 110.185 136.027C109.994 136.854 108.943 137.049 108.787 138H107.103C107.36 139.109 105.671 138.768 105.919 139.805C105.36 140.235 104.643 139.833 104.096 140.022C104.004 140.375 103.945 140.601 103.882 140.842C103.354 141.145 102.765 140.912 102.209 141.004C102.067 141.866 100.903 141.978 100.818 142.977H99.3085C98.8615 143.231 99.0049 143.51 98.965 143.763C98.4377 144.304 97.6928 143.755 97.1173 144.094C96.606 145.2 95.5786 145.883 94.3772 146.922H93.22C93.0375 147.856 91.9115 147.996 91.8099 148.984H90.2977C89.8603 149.24 90.0039 149.518 89.9584 149.772C89.4284 150.294 88.6895 149.777 88.1204 150.076C87.6996 151.289 86.2952 151.663 85.842 152.929H84.2678C83.3398 154.588 81.6909 155.466 80.6495 156.981H79.3237C78.8888 157.157 78.9945 157.533 78.918 157.818C78.3722 158.179 77.7797 157.925 77.223 158C77.2025 158.952 75.8448 158.917 75.8361 159.949C75.28 159.979 74.7194 160.01 74.1712 160.04C73.7201 160.568 74.1493 161.183 73.7666 161.968C73.4475 162.328 72.7025 161.771 72.1072 162.101C71.8088 162.618 72.0424 163.208 71.9484 163.784C71.4165 164.312 70.6698 163.755 70.0557 164.139C70.0127 164.337 69.9632 164.565 69.9067 164.824C69.4117 165.22 68.809 164.905 68.1627 165.026C68.3186 166.018 66.8201 165.856 66.8644 166.944H65.2614C64.6506 167.572 65.2333 168.323 64.7804 168.957L63.3477 169.033C62.073 170.328 61.0896 171.676 59.7763 172.745C59.3557 173.172 58.7655 172.935 58.1443 173.019C58.054 173.282 57.9543 173.573 57.8243 173.952H56.2362C55.4283 175.592 53.7302 176.32 52.6888 178.008C52.3612 178.293 51.6157 177.742 51.0555 178.162C50.9968 178.389 50.9378 178.614 50.8559 178.928H48.173C48.0485 179.289 47.9483 179.58 47.8238 179.941H41.1094L40.7845 179.032H38.2983C37.8579 178.779 37.9846 178.503 37.9507 178.248C37.4283 177.693 36.6834 178.244 36.0205 177.863V176.214C35.6585 176.086 35.3685 175.984 35.0166 175.861V172.194C35.1697 171.933 35.439 172.025 35.6994 172.004C36.2828 171.491 35.7251 170.746 36.0407 170.173C37.0083 170.338 36.7116 168.711 37.7597 168.969C38.1743 168.456 37.8562 167.853 37.9611 167.297C38.7327 166.593 39.7558 166.125 40.1908 164.961H42.8205C42.8993 164.648 42.9563 164.422 43.0579 164.019H46.8214C46.9264 163.617 46.9854 163.391 47.0656 163.084H50.7579C51.1901 163.921 51.9301 164.555 52.906 165.251C53.1263 165.606 52.8881 166.196 52.9597 166.754C53.8848 166.811 53.8989 168.108 54.9105 168.141C54.9393 168.696 54.9683 169.257 54.9947 169.767C55.1836 170.093 55.4569 169.981 55.7142 170.01C56.281 170.528 55.7273 171.273 56.0613 171.865C56.5873 172.156 57.1669 171.961 57.7815 171.993C57.8783 171.716 57.9797 171.426 58.1081 171.058C58.6372 171.028 59.1979 170.996 59.8595 170.959V167.073C59.7938 166.923 59.4104 167.046 59.1501 166.951C58.7468 166.402 59.1213 165.798 58.8531 165.154C58.6841 165.096 58.3933 164.996 58.0053 164.862C57.9806 164.34 57.9539 163.779 57.9271 163.218C57.2355 163.104 56.8411 162.694 56.7187 162.006H55.2103C54.6416 161.476 55.1936 160.731 54.866 160.156C54.3207 160.014 53.8816 159.766 53.8319 159.063H50.1424C49.8884 159.213 49.9751 159.481 49.9547 159.76C49.3933 160.2 48.7498 159.965 48.1269 159.943C47.798 159.387 48.018 158.802 47.9632 158.229C48.5006 157.69 49.2467 158.244 49.8192 157.893C49.8709 156.959 51.1084 156.902 51.2036 156.001C51.7027 156.001 52.2019 156.001 52.7015 156C53.2583 154.822 54.6464 154.336 55.1515 153.001H56.8452C56.9073 152.698 56.9539 152.47 57.0138 152.178C57.5077 151.687 58.2545 152.245 58.8679 151.86C58.9111 151.662 58.9607 151.434 59.0171 151.175C59.5126 150.78 60.1153 151.094 60.7623 150.974C60.6035 149.98 62.1051 150.144 62.0598 149.055H63.7603C63.8887 148.692 63.9914 148.403 64.1185 148.044C64.6511 148.016 65.2116 147.986 65.7683 147.957C66.1582 147.416 65.882 146.82 65.9642 146.258C66.4783 145.648 67.2256 146.215 67.871 145.887C67.9117 145.69 67.9586 145.462 68.0168 145.179C68.473 144.752 69.0842 145.098 69.7319 144.969C69.6588 144.044 71.0811 144.17 71.0388 143.152C71.5689 142.827 72.1592 143.065 72.7805 142.98C72.8706 142.717 72.9702 142.427 73.1002 142.048H74.7653C74.8945 141.685 74.9977 141.395 75.125 141.038C75.6579 141.011 76.2184 140.983 76.7573 140.956C77.198 140.411 76.7893 139.801 77.111 139.102C77.8603 138.718 78.8834 139.198 79.8089 138.898C80.1492 138.689 79.733 137.969 80.3893 137.997C81.0205 138.025 80.9459 137.565 81.0105 137.185C81.569 136.734 82.2894 137.153 82.8382 136.956C82.9283 136.611 82.9872 136.385 83.0691 136.071H85.7522C85.8767 135.71 85.9768 135.419 86.1089 135.036C86.6327 135.009 87.1933 134.981 87.8031 134.95C87.9006 134.678 88.0042 134.388 88.1318 134.032C88.6646 134.006 89.2254 133.98 89.7788 133.954C89.9445 133.072 90.9884 132.872 91.1739 132.012H92.5625C93.0402 131.844 92.9583 131.479 92.9982 131.19C93.5392 130.782 94.1369 131.069 94.6911 130.986C95.291 129.847 96.5997 129.302 97.152 128.025C97.6722 128.002 98.2335 127.977 98.781 127.952C98.9123 127.631 99.0289 127.346 99.1817 126.972H101.843C101.582 125.86 103.272 126.202 103.006 125.08H105.761C105.635 123.967 107.126 124.11 107.087 123.036C107.646 123.004 108.207 122.973 108.811 122.938C108.911 122.663 109.016 122.374 109.154 121.996H110.639C111.083 121.741 110.938 121.462 110.981 121.208C111.51 120.681 112.25 121.201 112.834 120.893C112.582 119.849 114.271 120.19 114.014 119.075H116.491C117.072 118.804 116.9 118.399 117.12 118.05H118.767C118.894 117.688 118.996 117.398 119.124 117.032C119.653 117.001 120.214 116.969 120.773 116.938C120.956 116.098 122.001 115.898 122.164 115.012C122.719 114.986 123.281 114.961 123.87 114.933C123.93 114.652 123.978 114.424 124.03 114.174C124.512 113.705 125.137 114.186 125.226 114.136C126.064 113.827 125.931 113.439 126.041 113.161C126.561 112.746 127.171 113.153 127.708 112.94C128.076 112.797 127.898 112.39 128.13 112.043H129.73C129.935 111.124 131.025 110.957 131.14 110.023H139.788C140.191 110.583 139.823 111.187 140.083 111.826C140.262 111.888 140.552 111.988 140.912 112.113V115.81C140.435 116.2 139.831 115.879 139.277 115.984C138.681 117.117 137.38 117.662 136.82 118.93L135.139 119.022C135.033 119.312 134.927 119.601 134.788 119.978H133.175C132.691 121.33 131.262 121.785 130.729 122.982C130.229 122.982 129.728 122.982 129.108 122.982V122.982Z" fill="#DCC59A"/>
</svg>
