<svg width="160" height="253" viewBox="0 0 160 253" fill="none" xmlns="http://www.w3.org/2000/svg">
<path d="M156.021 88.0098C151.101 74.7098 145.241 65.4298 137.571 58.8098C128.101 50.6398 115.121 46.1298 98.9908 45.3898C96.3608 40.0098 90.4209 32.7198 77.3409 30.4298C83.0209 19.4298 92.8008 10.7098 104.201 6.70982C105.881 6.11982 106.761 4.27977 106.171 2.59977C105.581 0.91977 103.741 0.0297891 102.061 0.619789C88.3208 5.44979 76.6609 16.2898 70.4609 29.8398C60.7709 30.0298 51.4108 35.1298 46.1308 43.2598C43.6708 47.0398 42.1308 51.4298 41.6308 56.0598C35.4108 58.9598 29.7308 62.4398 24.7408 66.4498C6.97082 80.7298 -2.06918 102.62 1.71082 122.2C3.49082 131.42 7.96082 138.66 14.3008 142.59C17.6308 144.64 21.5508 145.89 26.4808 146.46C34.2808 177.38 42.0808 208.29 49.8608 239.21C50.4808 241.67 51.2508 244.73 53.2908 247.24C56.9108 251.68 62.7308 252.53 67.9408 252.78C70.5308 252.91 73.2108 252.97 75.9208 252.97C76.9408 252.97 77.9708 252.96 78.9908 252.94H79.0608C85.1108 252.84 91.6608 252.44 99.0708 251.71C105.731 251.07 112.231 250.25 119.401 249.32L121.211 249.09C128.651 248.14 136.331 246.72 141.241 240.96C145.721 235.7 146.271 228.77 146.461 222.13C147.331 191.51 145.771 160.62 141.841 130.28C150.001 126.64 155.631 121.2 158.161 114.44C161.561 105.33 158.801 95.5298 156.021 88.0098ZM47.9208 58.3398C48.0208 56.2398 48.3708 54.1798 48.9808 52.2298C49.5808 50.2798 50.4408 48.4398 51.5308 46.7698C55.9208 40.0298 64.2808 35.8298 72.4408 36.3198C72.6408 36.3198 72.8308 36.3398 73.0608 36.3598C83.5008 37.3398 90.8908 42.0698 93.8508 49.6898C95.2508 53.2798 95.6208 57.3398 94.9108 61.4398C92.9908 72.6898 82.5208 82.1098 71.5808 82.4298C63.2308 82.6798 54.8608 77.9498 50.7708 70.6598C48.7208 66.9998 47.7308 62.7398 47.9208 58.3398ZM68.2408 246.34C64.4508 246.16 60.3108 245.64 58.2908 243.16C57.1508 241.77 56.6008 239.58 56.1208 237.64C48.4908 207.36 40.8608 177.1 33.2308 146.82C33.3208 146.82 33.4008 146.83 33.5008 146.83H34.5108C40.5008 146.83 46.7908 146.45 53.6308 145.67C59.6508 179.31 66.8008 213.19 74.9108 246.5C72.6508 246.49 70.4108 246.44 68.2408 246.34ZM81.5309 246.43C73.3309 212.88 66.1108 178.73 60.0308 144.83C67.1908 143.82 74.2608 142.56 81.3808 141.19C85.0108 176.02 89.6008 211.11 95.0408 245.61C90.1908 246.03 85.7209 246.3 81.5309 246.43ZM101.471 244.99C95.9908 210.29 91.3808 175 87.7408 139.97C98.4808 137.89 106.571 136.91 113.671 136.11C113.211 171.76 113.881 207.79 115.651 243.3C110.731 243.93 106.101 244.5 101.471 244.99ZM140.011 221.95C139.861 227.44 139.451 233.11 136.331 236.78C133.211 240.45 127.871 241.66 122.061 242.47C120.311 206.98 119.651 170.99 120.121 135.37C123.281 134.99 126.401 134.58 129.501 134.02C131.601 133.64 133.641 133.14 135.631 132.55C139.381 162.1 140.861 192.15 140.011 221.95ZM152.121 112.18C149.461 119.27 142.531 123.2 137.171 125.25C134.411 126.3 131.441 127.12 128.361 127.67C124.521 128.37 120.591 128.83 116.571 129.29L114.741 129.5C107.391 130.32 98.2508 131.35 86.1708 133.7L83.6108 134.2C74.2908 136.01 65.1508 137.72 55.8508 138.9C47.7108 139.95 40.4308 140.43 33.5408 140.38C31.8908 140.37 30.5308 140.32 29.2708 140.24C24.2908 139.9 20.6108 138.9 17.7008 137.1C11.2308 133.1 8.87084 125.28 8.04084 120.98C4.71084 103.71 12.8508 84.2798 28.7808 71.4798C32.6408 68.3698 36.9708 65.5998 41.6908 63.1998C42.1508 66.9598 43.3208 70.5698 45.1508 73.8198C50.3808 83.1398 61.0809 89.1998 71.7709 88.8798C85.8609 88.4598 98.8209 76.8898 101.271 62.5298C101.891 58.9498 101.861 55.3698 101.191 51.9698C114.681 52.9598 125.481 56.8998 133.361 63.6898C140.171 69.5698 145.451 78.0098 149.981 90.2398C152.371 96.7198 154.771 105.06 152.121 112.18Z" fill="#383434"/>
<path d="M94.9114 61.44C92.9914 72.69 82.5214 82.1099 71.5814 82.4299C63.2314 82.6799 54.8614 77.9499 50.7714 70.6599C48.7214 66.9999 47.7314 62.74 47.9214 58.34C48.0214 56.24 48.3714 54.1799 48.9814 52.2299C49.5814 50.2799 50.4414 48.44 51.5314 46.77C55.9214 40.03 64.2814 35.83 72.4414 36.32C72.6414 36.32 72.8314 36.3399 73.0614 36.3599C83.5014 37.3399 90.8914 42.07 93.8514 49.69C95.2514 53.28 95.6214 57.34 94.9114 61.44Z" fill="#E76A70"/>
<path d="M152.121 112.18C149.461 119.27 142.531 123.2 137.171 125.25C134.411 126.3 131.441 127.12 128.361 127.67C124.521 128.37 120.591 128.83 116.571 129.29L114.741 129.5C107.391 130.32 98.2514 131.35 86.1714 133.7L83.6114 134.2C74.2914 136.01 65.1514 137.72 55.8514 138.9C47.7114 139.95 40.4314 140.43 33.5414 140.38C31.8914 140.37 30.5314 140.32 29.2714 140.24C24.2914 139.9 20.6114 138.9 17.7014 137.1C11.2314 133.1 8.87144 125.28 8.04144 120.98C4.71144 103.71 12.8514 84.2797 28.7814 71.4797C32.6414 68.3697 36.9714 65.5998 41.6914 63.1998C42.1514 66.9598 43.3214 70.5698 45.1514 73.8198C50.3814 83.1398 61.0814 89.1998 71.7714 88.8798C85.8614 88.4598 98.8214 76.8898 101.271 62.5298C101.891 58.9498 101.861 55.3697 101.191 51.9697C114.681 52.9597 125.481 56.8998 133.361 63.6898C140.171 69.5698 145.451 78.0097 149.981 90.2397C152.371 96.7197 154.771 105.06 152.121 112.18Z" fill="#C0D300"/>
<path d="M140.012 221.95C139.862 227.44 139.452 233.11 136.332 236.78C133.212 240.45 127.872 241.66 122.062 242.47C120.312 206.98 119.652 170.99 120.122 135.37C123.282 134.99 126.402 134.58 129.502 134.02C131.602 133.64 133.642 133.14 135.632 132.55C139.382 162.1 140.862 192.15 140.012 221.95Z" fill="#D3D3D1"/>
<path d="M115.65 243.299C110.73 243.929 106.1 244.499 101.47 244.989C95.9902 210.289 91.3802 174.999 87.7402 139.969C98.4802 137.889 106.57 136.909 113.67 136.109C113.21 171.759 113.88 207.789 115.65 243.299Z" fill="#D3D3D1"/>
<path d="M95.0412 245.609C90.1912 246.029 85.7213 246.299 81.5313 246.429C73.3313 212.879 66.1112 178.729 60.0312 144.829C67.1912 143.819 74.2613 142.559 81.3813 141.189C85.0113 176.019 89.6012 211.109 95.0412 245.609Z" fill="#D3D3D1"/>
<path d="M74.9104 246.5C72.6504 246.49 70.4104 246.44 68.2404 246.34C64.4504 246.16 60.3105 245.64 58.2905 243.16C57.1505 241.77 56.6005 239.58 56.1205 237.64C48.4905 207.36 40.8605 177.1 33.2305 146.82C33.3205 146.82 33.4005 146.83 33.5005 146.83H34.5105C40.5005 146.83 46.7905 146.45 53.6305 145.67C59.6505 179.31 66.8004 213.19 74.9104 246.5Z" fill="#D3D3D1"/>
</svg>
