<svg width="76" height="51" viewBox="0 0 76 51" fill="none" xmlns="http://www.w3.org/2000/svg">
<path d="M22.6878 27.6933C22.5778 27.6933 22.4578 27.6933 22.3478 27.6933C19.6078 27.5933 17.6478 25.9833 16.5578 24.7733C15.3778 26.0433 13.6578 26.8233 11.6478 26.9933C11.4378 27.0133 11.2278 27.0233 11.0378 27.0233C8.7778 27.0233 7.44781 25.9833 6.73781 25.1033C5.85781 24.0233 5.4178 22.6033 5.5178 21.1933C5.3478 21.2133 5.1878 21.2233 5.0278 21.2233C3.5878 21.2233 1.66781 20.5133 0.737805 17.1433C-0.362195 13.1733 -0.232195 10.3033 1.1278 8.36334C2.6678 6.15334 5.50781 5.69332 7.49781 5.53332C8.55781 5.45332 9.5078 5.47334 10.3578 5.58334C10.4078 4.34334 10.7078 2.56332 11.8978 1.34332C13.4378 -0.236678 15.9978 -0.426666 19.4578 0.793334C21.2078 1.41333 22.6378 2.23334 23.7078 3.23334C25.5978 1.97334 28.3378 1.17334 30.8278 1.17334C31.4378 1.17334 32.0178 1.22332 32.5578 1.31332C35.9878 1.91332 37.7778 5.30332 38.3378 8.24332C38.9078 8.11332 39.4978 8.04333 40.0678 8.04333C42.5378 8.04333 44.5178 9.33334 45.4978 11.5833C46.7278 14.4233 46.4478 17.5533 44.7278 20.1733C42.9578 22.8633 40.0278 24.4733 36.8778 24.4733C36.1578 24.4733 35.4278 24.3833 34.6978 24.2233C33.3078 23.8933 32.1078 23.4033 31.1178 22.7433C29.7778 25.2433 26.5478 27.7033 22.7178 27.7033L22.6878 27.6933ZM17.1878 23.9733C18.1378 25.0633 19.9078 26.5933 22.3878 26.6833C26.0478 26.8333 29.1178 24.4533 30.2878 22.1133C28.8078 20.8133 28.3178 19.3033 28.6278 18.4133C28.9378 17.5133 29.9878 17.3933 30.9678 18.3333C31.8078 19.1333 31.9878 20.3833 31.5078 21.7933C32.4178 22.4333 33.5678 22.9133 34.9078 23.2333C35.5578 23.3833 36.2078 23.4633 36.8578 23.4633C39.6678 23.4633 42.2878 22.0233 43.8778 19.6133C45.4078 17.2833 45.6578 14.4933 44.5678 11.9733C43.4578 9.41333 41.2678 9.03332 40.0578 9.03332C39.5378 9.03332 38.9978 9.10334 38.4778 9.23334C38.6578 11.0033 38.3978 12.5233 37.7578 13.2533C37.1778 13.9233 36.2978 13.9533 35.4278 13.2833C34.6978 12.7133 34.3778 11.9933 34.5078 11.2333C34.6978 10.1633 35.8078 9.13333 37.3678 8.54333C36.8878 5.90333 35.3378 2.82331 32.3678 2.30331C31.8878 2.22331 31.3678 2.17334 30.8178 2.17334C28.5778 2.17334 26.1278 2.86332 24.3978 3.96332C25.9478 5.82332 26.1278 7.88332 25.5778 9.18332C25.2178 10.0333 24.5578 10.5433 23.8178 10.5433C23.2878 10.5433 22.5078 10.2833 21.7778 9.06332C20.7078 7.25332 21.1078 5.38332 22.8878 3.84332C21.9278 2.98332 20.6578 2.27334 19.1078 1.73334C16.0778 0.663336 13.8478 0.763334 12.5978 2.04333C11.5778 3.08333 11.3578 4.70331 11.3378 5.77331C12.6478 6.10331 13.4678 6.70333 13.6478 7.47333C13.7578 7.93333 13.6878 8.63332 12.7278 9.37332C11.8678 10.0433 11.1578 10.0633 10.7178 9.55331C10.1478 8.88331 10.3178 7.40332 10.3878 6.96332C10.3878 6.89332 10.3678 6.76332 10.3578 6.59332C9.5478 6.47332 8.60781 6.44331 7.56781 6.52331C4.71781 6.75331 2.9278 7.51332 1.9378 8.93332C0.777804 10.5933 0.697804 13.2633 1.6978 16.8733C2.3078 19.0933 3.4378 20.2133 5.0278 20.2133C5.2378 20.2133 5.4678 20.1933 5.6978 20.1533C6.1178 18.5933 7.1878 17.4333 8.6878 16.9233C9.9778 16.4833 10.4978 16.9533 10.5578 17.4333C10.6878 18.5133 8.57781 20.3433 6.55781 20.9733C6.38781 22.2233 6.7378 23.5133 7.5278 24.4633C8.1078 25.1733 9.18781 26.0133 11.0578 26.0133C11.2278 26.0133 11.4078 26.0133 11.5878 25.9933C13.3878 25.8433 14.9178 25.1333 15.9378 23.9933C14.5678 22.1533 13.9478 20.1133 14.4578 19.0433C14.7378 18.4633 15.2678 18.1933 16.0378 18.3333C16.9078 18.4933 17.5678 19.0433 17.8978 19.8933C18.3578 21.0833 18.0878 22.6533 17.2078 23.9833L17.1878 23.9733ZM15.6578 19.2933C15.4678 19.2933 15.3878 19.3633 15.3378 19.4733C15.0878 19.9933 15.3878 21.4933 16.5278 23.1333C17.0778 22.1533 17.2478 21.0533 16.9378 20.2533C16.7978 19.8933 16.4978 19.4433 15.8378 19.3233C15.7678 19.3133 15.7078 19.3033 15.6578 19.3033V19.2933ZM29.6278 18.6633C29.6278 18.6633 29.5378 18.7533 29.5378 18.9433C29.5178 19.4833 29.8778 20.3033 30.6678 21.0933C30.8778 20.2333 30.7478 19.5133 30.2678 19.0533C29.8778 18.6733 29.6678 18.6533 29.6278 18.6533V18.6633ZM9.4678 17.7433C9.3478 17.7633 9.19781 17.7933 8.99781 17.8633C8.03781 18.1833 7.2978 18.8633 6.8878 19.7733C8.1778 19.2033 9.1778 18.2333 9.4678 17.7433ZM37.4978 9.56332C36.3978 10.0333 35.5978 10.7433 35.4878 11.4033C35.4178 11.7933 35.5978 12.1433 36.0378 12.4833C36.2778 12.6733 36.4978 12.7733 36.6678 12.7733C36.7478 12.7733 36.8678 12.7533 37.0078 12.5933C37.3678 12.1833 37.6378 11.1033 37.5078 9.55331L37.4978 9.56332ZM23.5878 4.55331C22.5078 5.46331 21.6178 6.83333 22.6378 8.54333C23.3378 9.72333 24.2278 9.80332 24.6578 8.78332C25.0878 7.76332 24.9078 6.09333 23.5878 4.54333V4.55331ZM11.3778 6.80331V6.88333C11.3778 6.93333 11.3778 6.98332 11.3778 7.03332C11.2378 7.90332 11.3178 8.78332 11.4878 8.90332C11.5278 8.90332 11.7078 8.88333 12.1078 8.57333C12.3478 8.38333 12.7478 8.01332 12.6678 7.68332C12.6078 7.42332 12.2278 7.06331 11.3678 6.80331H11.3778Z" fill="#261C2A"/>
<path d="M54.9545 50.4H54.5045C51.9445 50.35 50.1445 49.04 49.5045 46.78C48.1545 46.61 46.7345 45.99 45.3745 44.97C43.2145 43.36 42.4845 40.91 43.3645 38.25C44.2745 35.53 46.6845 33.39 48.8545 33.39C49.1645 33.39 49.4745 33.43 49.7645 33.51C49.7645 32.47 49.9145 30.69 50.9745 29.49C52.1545 28.14 54.0945 27.88 56.6945 28.75C57.6945 29.09 58.5745 29.52 59.3045 30.05C60.5445 28.74 62.1245 28 63.7045 28C64.7745 28 65.8245 28.33 66.8345 28.97C69.2145 30.5 70.6645 32.86 70.7845 35.35C72.1845 35.39 73.4645 36.02 74.5945 37.23C76.1245 38.87 76.4145 41.07 75.3945 43.42C73.8445 47 69.6045 50.15 66.3245 50.15C65.2945 50.15 64.4145 49.86 63.6945 49.28C63.3545 49 63.0345 48.71 62.7645 48.39C61.0445 49.69 58.3545 50.38 54.9545 50.38V50.4ZM50.5645 46.82C51.0145 48.08 52.0645 49.35 54.5145 49.4H54.9545C58.8745 49.4 61.0245 48.48 62.1745 47.61C61.0745 45.83 61.1545 43.89 61.7745 42.68C62.1245 41.98 62.6445 41.59 63.1845 41.59C63.5445 41.59 64.2145 41.78 64.5945 43.02C65.1245 44.76 64.7345 46.45 63.5245 47.75C63.7645 48.03 64.0345 48.29 64.3345 48.53C64.8745 48.96 65.5445 49.18 66.3445 49.18C69.2245 49.18 73.1145 46.26 74.5045 43.05C75.1045 41.66 75.4945 39.64 73.8945 37.94C72.9545 36.94 71.9145 36.41 70.7845 36.38C70.5445 38.77 69.0545 40.58 67.0245 40.84C66.8845 40.86 66.7645 40.87 66.6445 40.87C65.6445 40.87 65.2645 40.26 65.2345 39.69C65.1745 38.28 67.2145 35.91 69.8145 35.46C69.7245 33.28 68.4345 31.21 66.3245 29.85C64.2445 28.51 61.8545 28.91 60.1045 30.72C61.8045 32.34 62.1245 34.33 61.6445 35.67C61.3145 36.6 60.6045 37.17 59.7945 37.18C59.3045 37.18 58.8045 36.97 58.3445 36.58C56.8245 35.29 57.3145 32.76 58.6845 30.86C58.0445 30.41 57.2745 30.03 56.3945 29.74C54.2145 29.01 52.6545 29.15 51.7445 30.19C50.4945 31.62 50.8245 34.24 50.8245 34.27C50.8545 34.46 50.7645 34.65 50.6045 34.75C50.4445 34.85 50.2345 34.86 50.0745 34.75C49.7145 34.53 49.3145 34.42 48.8845 34.42C47.1445 34.42 45.1045 36.29 44.3445 38.59C43.9945 39.64 43.4545 42.29 45.9945 44.2C47.1045 45.03 48.2445 45.57 49.3245 45.77C49.1045 43.83 49.6945 41.94 50.4845 40.97C50.9245 40.43 51.4345 40.14 51.9545 40.14C52.3245 40.14 52.8645 40.28 53.4045 40.97C54.3745 42.21 54.5945 43.61 54.0045 44.81C53.4245 45.99 52.1345 46.76 50.5845 46.85L50.5645 46.82ZM63.1745 42.58C63.0845 42.58 62.8645 42.73 62.6545 43.13C62.2045 44.01 62.1345 45.51 62.9145 46.9C63.7745 45.89 64.0245 44.63 63.6245 43.3C63.4645 42.77 63.2645 42.58 63.1745 42.58ZM51.9345 41.11C51.7245 41.11 51.4745 41.27 51.2445 41.57C50.5745 42.4 50.0845 44.17 50.3345 45.84C51.6045 45.82 52.6545 45.25 53.0945 44.35C53.5045 43.51 53.3245 42.49 52.6045 41.56C52.4445 41.36 52.2045 41.11 51.9445 41.11H51.9345ZM69.7545 36.47C67.6545 36.94 66.1945 38.86 66.2245 39.64C66.2245 39.73 66.2245 39.87 66.6345 39.86C66.7145 39.86 66.7945 39.86 66.8845 39.84C68.3845 39.65 69.5145 38.29 69.7545 36.47ZM59.4445 31.47C58.2645 33.12 58.0345 34.98 58.9745 35.79C59.6845 36.4 60.3745 36.17 60.6845 35.31C61.0445 34.3 60.7745 32.77 59.4345 31.47H59.4445Z" fill="#261D2A"/>
</svg>
