<svg width="156" height="289" viewBox="0 0 156 289" fill="none" xmlns="http://www.w3.org/2000/svg">
<path d="M110.163 93.6339C86.2732 72.3638 72.3132 44.3039 64.9032 2.66387C64.6032 0.943867 62.9933 -0.216138 61.2633 0.0338619C59.5433 0.283862 58.3332 1.86386 58.5332 3.59386C60.8432 23.6839 56.5533 44.3839 46.4233 61.8839C36.3033 79.3939 20.5033 93.4439 1.94327 101.454C0.713273 101.984 -0.0567293 103.224 0.00327069 104.564C0.0632707 105.894 0.943232 107.064 2.21323 107.474C21.4032 113.774 34.2932 129.184 41.7332 141.004C51.3733 156.314 57.3932 173.844 63.2232 190.804C63.6732 192.124 64.9232 192.974 66.2732 192.974C66.5332 192.974 66.7933 192.944 67.0633 192.874C68.6833 192.464 69.7232 190.874 69.4532 189.224C63.7432 154.764 80.3133 117.564 109.753 98.7639C110.603 98.2139 111.143 97.3039 111.223 96.3039C111.313 95.2939 110.913 94.3039 110.163 93.6339ZM62.1532 168.604C58.0632 157.914 53.3633 147.374 47.1933 137.564C40.1233 126.334 28.4132 112.064 11.2832 104.134C28.1632 95.2838 42.4533 81.6339 52.0133 65.1139C58.3633 54.1239 62.5732 41.9439 64.4532 29.4139C72.5432 57.2939 85.0333 78.7639 102.823 95.6539C79.3633 112.244 64.2832 139.994 62.1532 168.604Z" fill="#383434"/>
<path d="M102.823 95.6541C79.3632 112.244 64.2832 139.994 62.1532 168.604C58.0632 157.914 53.3632 147.374 47.1932 137.564C40.1232 126.334 28.4132 112.064 11.2832 104.134C28.1632 95.284 42.4532 81.6341 52.0132 65.1141C58.3632 54.1241 62.5732 41.9441 64.4532 29.4141C72.5432 57.2941 85.0332 78.7641 102.823 95.6541Z" fill="#E76A70"/>
<path d="M154.432 223.773C137.442 210.513 127.522 193.003 122.242 167.003C121.902 165.303 120.272 164.173 118.552 164.463C116.842 164.753 115.662 166.343 115.892 168.063C117.512 180.423 114.492 193.173 107.372 203.973C100.202 214.843 88.9724 223.593 75.7724 228.593C74.4724 229.083 73.6325 230.353 73.6925 231.733C73.7425 233.123 74.6824 234.323 76.0224 234.703C89.6224 238.623 98.7524 248.193 104.022 255.523C110.872 265.073 115.182 276.083 119.352 286.723C119.852 287.983 121.062 288.773 122.352 288.773C122.652 288.773 122.952 288.733 123.242 288.643C124.842 288.183 125.832 286.583 125.522 284.953C121.512 263.723 133.232 240.773 154.022 229.123C154.962 228.603 155.572 227.633 155.662 226.563C155.742 225.483 155.282 224.443 154.432 223.773ZM118.882 268.723C116.202 262.893 113.132 257.163 109.252 251.773C104.422 245.033 96.6425 236.603 85.4425 231.373C96.7025 225.703 106.232 217.423 112.752 207.523C116.812 201.373 119.672 194.653 121.272 187.703C126.972 203.473 135.342 215.923 146.892 225.923C131.522 236.023 121.342 251.963 118.882 268.723Z" fill="#383434"/>
<path d="M146.893 225.923C131.523 236.023 121.343 251.963 118.883 268.723C116.203 262.893 113.133 257.163 109.253 251.773C104.423 245.033 96.6434 236.603 85.4434 231.373C96.7034 225.703 106.233 217.423 112.753 207.523C116.813 201.373 119.673 194.653 121.273 187.703C126.973 203.473 135.343 215.923 146.893 225.923Z" fill="#FBD274"/>
</svg>
