<svg width="147" height="134" viewBox="0 0 147 134" fill="none" xmlns="http://www.w3.org/2000/svg">
<path d="M57.2109 92.1799L58.1309 102.43C58.1309 102.43 104.241 99.1399 106.981 98.9199C109.721 98.6999 106.621 87.3799 106.621 87.3799L57.2209 92.1799H57.2109Z" fill="white"/>
<path d="M58.1304 102.93C57.8704 102.93 57.6604 102.73 57.6304 102.47L56.7104 92.2197C56.6904 91.9497 56.8904 91.6997 57.1604 91.6797L106.56 86.8797C106.8 86.8597 107.03 87.0097 107.09 87.2497C107.35 88.1997 109.59 96.6197 108.05 98.7997C107.79 99.1697 107.43 99.3797 107 99.4197C104.29 99.6297 58.6104 102.9 58.1504 102.93C58.1404 102.93 58.1304 102.93 58.1104 102.93H58.1304ZM57.7604 92.6297L58.5904 101.9C63.5604 101.55 104.39 98.6297 106.94 98.4197C107.03 98.4197 107.14 98.3797 107.25 98.2197C108.17 96.9197 107.16 91.3797 106.25 87.9097L57.7604 92.6197V92.6297Z" fill="#261D2A"/>
<path d="M66.9521 101.33C66.7021 101.33 66.4921 101.15 66.4621 100.9L65.2221 92.1798C65.1821 91.9098 65.3721 91.6498 65.6421 91.6098C65.9121 91.5698 66.1721 91.7598 66.2121 92.0298L67.4521 100.75C67.4921 101.02 67.3021 101.28 67.0321 101.32C67.0121 101.32 66.9821 101.32 66.9621 101.32L66.9521 101.33Z" fill="#261D2A"/>
<path d="M16.9207 30.0698C16.9207 30.0698 1.39071 35.6998 0.64071 40.1698C-0.10929 44.6398 5.38071 72.2998 5.38071 72.2998L20.3807 73.8698" fill="white"/>
<path d="M20.3713 74.38C20.3713 74.38 20.3313 74.38 20.3213 74.38L5.32129 72.81C5.10129 72.79 4.92129 72.62 4.88129 72.41C4.65129 71.28 -0.61871 44.6 0.14129 40.1C0.92129 35.48 15.1313 30.2 16.7513 29.61C17.0113 29.52 17.3013 29.65 17.3913 29.91C17.4813 30.17 17.3513 30.46 17.0913 30.55C12.8513 32.09 1.70129 36.83 1.13129 40.26C0.451292 44.31 5.15129 68.59 5.79129 71.85L20.4213 73.38C20.6913 73.41 20.8913 73.65 20.8613 73.93C20.8313 74.19 20.6213 74.38 20.3613 74.38H20.3713Z" fill="#261D2A"/>
<path d="M29.3804 9.15967C29.3804 9.15967 14.9404 14.7097 13.6004 18.6697C12.2604 22.6297 19.9604 85.3897 22.9604 88.4597C25.9604 91.5297 37.5404 91.7197 37.5404 91.7197" fill="white"/>
<path d="M37.541 92.2097C37.061 92.2097 25.711 91.9797 22.611 88.7997C20.521 86.6597 17.151 61.5897 16.171 53.9597C14.111 37.9697 12.411 20.6597 13.141 18.5097C14.521 14.4397 27.711 9.26973 29.211 8.69973C29.471 8.59973 29.761 8.72973 29.861 8.98973C29.961 9.24973 29.831 9.53973 29.571 9.63973C25.611 11.1597 15.121 15.7697 14.081 18.8397C12.531 23.4097 20.821 85.5597 23.321 88.1197C26.141 91.0097 37.441 91.2297 37.551 91.2297C37.831 91.2297 38.051 91.4597 38.041 91.7397C38.041 92.0097 37.811 92.2297 37.541 92.2297V92.2097Z" fill="#261D2A"/>
<path d="M29.3824 9.15977C29.3824 9.15977 129.182 -1.46024 130.872 1.34976C132.562 4.15976 143.502 87.0398 138.952 85.1898C134.402 83.3398 33.7924 98.8298 34.3224 90.4998C34.6524 85.3298 22.3724 13.3898 29.3824 9.15977Z" fill="white"/>
<path d="M46.022 93.4799C37.042 93.4799 35.0121 92.4199 34.2621 91.6299C33.9421 91.2899 33.7921 90.8899 33.8221 90.4699C33.9021 89.1399 33.062 82.7399 31.992 74.6499C27.802 42.9499 24.1221 11.7499 29.1221 8.73988C29.1821 8.69988 29.2521 8.67988 29.3321 8.66988C30.1121 8.58988 107.452 0.379883 126.592 0.379883C130.542 0.379883 131.082 0.719882 131.302 1.08988C133.392 4.55988 142.892 79.8999 139.922 85.1699C139.662 85.6299 139.332 85.7199 139.102 85.7299C138.982 85.6999 138.882 85.7099 138.772 85.6599C138.702 85.6299 138.392 85.5399 137.272 85.5399C132.982 85.5399 121.292 86.8299 107.752 88.3199C86.8621 90.6199 60.862 93.4799 46.022 93.4799ZM29.562 9.64988C24.852 13.0099 30.342 54.5099 32.992 74.5199C34.112 82.9899 34.9221 89.0999 34.8321 90.5399C34.8321 90.6399 34.8321 90.7799 35.0021 90.9599C35.6621 91.6599 38.102 92.4899 46.032 92.4899C60.812 92.4899 86.782 89.6299 107.652 87.3299C121.212 85.8399 132.932 84.5499 137.272 84.5499C138.362 84.5499 138.812 84.6299 139.052 84.7099C139.992 83.4799 139.882 71.9699 136.542 43.1899C134.112 22.2299 131.162 2.80988 130.452 1.61988C130.452 1.64988 129.872 1.38988 126.592 1.38988C107.852 1.38988 33.0321 9.28988 29.5521 9.65988L29.562 9.64988Z" fill="#261D2A"/>
<path d="M41.4808 16.0197C41.4808 16.0197 120.071 8.58975 121.381 10.7497C122.691 12.9097 131.101 76.7097 127.601 75.2897C124.101 73.8697 47.7308 86.4497 45.5608 80.3997C43.3908 74.3497 36.0908 19.2697 41.4908 16.0197H41.4808Z" fill="#212438"/>
<path d="M83.5324 44.45C72.6424 46.35 71.9924 60.22 72.4924 67.88L78.5124 67.29C78.5124 67.29 77.4324 50.03 86.0524 50.83C94.6724 51.63 96.5224 65.64 96.5224 65.64L103.952 65.29C102.142 57.62 96.8024 42.14 83.5424 44.46L83.5324 44.45Z" fill="#DEBB1F"/>
<path d="M81.7316 30.1099C112.902 26.4799 118.482 54.5199 119.482 64.5399L124.562 64.2999C124.562 64.2999 118.872 20.9099 83.7217 22.6599C48.5817 24.3999 52.3116 69.8799 52.3116 69.8799L57.9017 69.3299C57.0217 58.5799 57.5016 32.9399 81.7316 30.1199V30.1099Z" fill="#CA7A8C"/>
<path d="M81.7326 30.1102C57.5026 32.9302 57.0226 58.5702 57.9026 69.3202L65.2626 68.5902C64.3826 57.3402 65.5826 35.2802 88.6126 36.3902C103.713 37.1102 109.943 55.7602 112.103 64.8902L119.473 64.5402C118.473 54.5202 112.893 26.4802 81.7226 30.1102H81.7326Z" fill="#A27298"/>
<path d="M88.6323 36.39C65.6023 35.28 64.4022 57.34 65.2822 68.59L72.5022 67.88C72.0022 60.21 72.6522 46.35 83.5422 44.45C96.8022 42.13 102.142 57.61 103.952 65.28L112.122 64.89C109.962 55.76 103.732 37.12 88.6323 36.39Z" fill="#D38120"/>
<path d="M57.9115 69.8198C57.6515 69.8198 57.4315 69.6198 57.4115 69.3598C57.3915 69.1498 56.0315 48.0198 66.9615 36.3798C71.8115 31.2198 78.3315 28.6198 86.3915 28.7098C117.851 28.9798 119.721 63.5498 119.741 63.8998C119.751 64.1798 119.541 64.4098 119.261 64.4198C118.991 64.4398 118.751 64.2198 118.741 63.9398C118.721 63.5998 116.891 29.9698 86.3815 29.6998C86.2815 29.6998 86.1715 29.6998 86.0715 29.6998C78.4615 29.6998 72.2715 32.1698 67.6915 37.0598C57.0515 48.3798 58.4015 69.0698 58.4115 69.2798C58.4315 69.5598 58.2215 69.7898 57.9515 69.8098C57.9415 69.8098 57.9315 69.8098 57.9115 69.8098V69.8198Z" fill="#261D2A"/>
<path d="M65.272 69.1C65.012 69.1 64.802 68.9 64.772 68.64C64.712 67.98 63.412 52.37 71.482 42.83C75.002 38.66 79.802 36.32 85.732 35.86C105.792 34.31 112.532 64.48 112.592 64.79C112.652 65.06 112.482 65.33 112.212 65.38C111.942 65.44 111.672 65.27 111.622 65C111.562 64.7 105.012 35.36 85.812 36.86C80.152 37.3 75.592 39.53 72.252 43.48C64.452 52.7 65.752 68.4 65.772 68.56C65.792 68.83 65.592 69.08 65.322 69.1C65.302 69.1 65.292 69.1 65.282 69.1H65.272Z" fill="#261D2A"/>
<path d="M72.4916 68.3797C72.2316 68.3797 72.0116 68.1797 71.9916 67.9197C71.9516 67.3797 71.1016 54.4997 77.0316 47.6897C79.1616 45.2497 81.9116 43.8897 85.2216 43.6697C99.9016 42.7197 104.402 64.9597 104.442 65.1797C104.492 65.4497 104.322 65.7097 104.042 65.7697C103.772 65.8197 103.512 65.6497 103.452 65.3697C103.442 65.3197 102.352 59.8497 99.5416 54.5797C95.8316 47.6197 91.0216 44.2797 85.2816 44.6697C82.2516 44.8697 79.7316 46.1097 77.7816 48.3397C72.1316 54.8297 72.9816 67.7097 72.9916 67.8397C73.0116 68.1197 72.8016 68.3497 72.5316 68.3697C72.5216 68.3697 72.5116 68.3697 72.4916 68.3697V68.3797Z" fill="#261D2A"/>
<path d="M35.2503 104.67L22.8203 107.75C22.8203 107.75 23.9203 133.55 26.6603 133.34C29.4003 133.13 36.4003 133.23 36.4003 133.23" fill="white"/>
<path d="M26.6305 133.84C26.4405 133.84 26.1905 133.78 25.9305 133.55C23.4005 131.31 22.4305 110.17 22.3305 107.77C22.3205 107.53 22.4805 107.32 22.7105 107.26L35.1405 104.18C35.4105 104.11 35.6805 104.28 35.7505 104.54C35.8205 104.81 35.6505 105.08 35.3905 105.15L23.3605 108.14C23.8705 119.72 25.2705 132.35 26.6605 132.84C29.3705 132.62 36.1405 132.72 36.4305 132.72C36.7105 132.72 36.9305 132.95 36.9205 133.23C36.9205 133.51 36.6705 133.68 36.4105 133.72C36.3405 133.72 29.4005 133.62 26.7205 133.83C26.7005 133.83 26.6705 133.83 26.6505 133.83L26.6305 133.84Z" fill="#261D2A"/>
<path d="M35.2522 104.67C35.2522 104.67 142.362 93.4802 143.582 95.0302C144.802 96.5802 144.812 124.68 144.812 124.68C144.812 124.68 37.0722 134.82 36.3922 133.22C35.7122 131.62 35.2422 104.66 35.2422 104.66L35.2522 104.67Z" fill="white"/>
<path d="M38.182 133.9C36.422 133.9 36.092 133.79 35.942 133.42C35.252 131.78 34.802 107.44 34.752 104.67C34.752 104.41 34.942 104.19 35.202 104.16C36.142 104.06 129.012 94.3701 142.062 94.3701C143.482 94.3701 143.792 94.4701 143.982 94.7101C145.252 96.3201 145.322 119.95 145.322 124.67C145.322 124.93 145.122 125.14 144.872 125.17C143.942 125.26 52.122 133.89 38.192 133.89L38.182 133.9ZM36.812 132.84C36.992 132.86 37.382 132.89 38.182 132.89C51.572 132.89 137.272 124.88 144.322 124.22C144.312 113.74 144.012 97.3001 143.242 95.4201C143.102 95.4001 142.772 95.3701 142.072 95.3701C129.542 95.3701 42.8819 104.37 35.7719 105.11C35.9519 115.12 36.382 130.69 36.822 132.84H36.812Z" fill="#261D2A"/>
<path d="M136.911 115.25L100.261 118.51L100.111 123.61L137.861 120.28L136.911 115.25Z" fill="white"/>
<path d="M100.111 124.11C99.9813 124.11 99.8613 124.06 99.7713 123.97C99.6713 123.87 99.6113 123.73 99.6113 123.59L99.7613 118.48C99.7613 118.23 99.9613 118.02 100.221 118L136.881 114.75C137.131 114.72 137.371 114.9 137.421 115.16L138.371 120.18C138.401 120.32 138.371 120.46 138.281 120.57C138.201 120.68 138.071 120.75 137.931 120.77L100.181 124.11C100.181 124.11 100.151 124.11 100.141 124.11H100.111ZM100.741 118.96L100.621 123.06L137.261 119.82L136.501 115.79L100.741 118.96Z" fill="#261D2A"/>
<path d="M135.751 99.9199L126.381 101.02L126.641 106.1L136.291 104.97L135.751 99.9199Z" fill="white"/>
<path d="M126.641 106.6C126.521 106.6 126.411 106.56 126.321 106.48C126.211 106.39 126.151 106.26 126.141 106.12L125.881 101.04C125.871 100.78 126.061 100.55 126.321 100.52L135.681 99.4201C135.811 99.4001 135.951 99.4401 136.051 99.5301C136.151 99.6101 136.221 99.7301 136.241 99.8701L136.781 104.92C136.811 105.19 136.611 105.44 136.341 105.47L126.691 106.59C126.691 106.59 126.651 106.59 126.631 106.59L126.641 106.6ZM126.911 101.46L127.121 105.54L135.741 104.54L135.311 100.48L126.911 101.47V101.46Z" fill="#261D2A"/>
<path d="M120.051 101.18L110.691 102.33L111.001 108.04L120.641 106.87L120.051 101.18Z" fill="white"/>
<path d="M111.002 108.54C110.882 108.54 110.772 108.5 110.682 108.42C110.572 108.33 110.512 108.2 110.502 108.06L110.192 102.35C110.182 102.09 110.372 101.86 110.632 101.83L119.992 100.68C120.132 100.66 120.262 100.7 120.362 100.78C120.462 100.86 120.532 100.99 120.552 101.12L121.142 106.81C121.172 107.08 120.972 107.33 120.702 107.36L111.062 108.53C111.062 108.53 111.022 108.53 111.002 108.53V108.54ZM111.222 102.77L111.472 107.48L120.092 106.43L119.602 101.74L111.212 102.77H111.222Z" fill="#261D2A"/>
<path d="M55.631 106.99L50.791 107.44L52.401 128.82L57.761 128.03L55.631 106.99Z" fill="white"/>
<path d="M52.4004 129.32C52.2904 129.32 52.1804 129.28 52.0904 129.21C51.9804 129.12 51.9104 129 51.9004 128.86L50.2904 107.48C50.2704 107.21 50.4704 106.97 50.7404 106.94L55.5804 106.49C55.8604 106.46 56.1004 106.66 56.1204 106.94L58.2604 127.97C58.2904 128.24 58.1004 128.48 57.8404 128.51L52.4804 129.3C52.4804 129.3 52.4304 129.3 52.4104 129.3L52.4004 129.32ZM51.3204 107.89L52.8604 128.24L57.2204 127.6L55.1804 107.53L51.3204 107.89Z" fill="#261D2A"/>
<path d="M46.9416 107.68L42.1016 108.12L43.7116 129.5L49.0716 128.71L46.9416 107.68Z" fill="white"/>
<path d="M43.711 130C43.601 130 43.491 129.96 43.401 129.89C43.291 129.8 43.221 129.68 43.211 129.54L41.601 108.16C41.581 107.89 41.781 107.65 42.051 107.62L46.891 107.17C47.171 107.14 47.411 107.34 47.431 107.62L49.571 128.65C49.601 128.92 49.411 129.16 49.151 129.19L43.791 129.98C43.791 129.98 43.741 129.98 43.721 129.98L43.711 130ZM42.631 108.58L44.171 128.93L48.531 128.29L46.491 108.22L42.631 108.58Z" fill="#261D2A"/>
<path d="M63.1606 132.09C62.9106 132.09 62.6906 131.9 62.6606 131.64L59.5206 102.89C59.4906 102.62 59.6906 102.37 59.9606 102.34C60.2306 102.31 60.4806 102.51 60.5106 102.78L63.6506 131.53C63.6806 131.8 63.4806 132.05 63.2106 132.08C63.1906 132.08 63.1706 132.08 63.1606 132.08V132.09Z" fill="#261D2A"/>
<path d="M61.9112 118.34C61.6612 118.34 61.4412 118.15 61.4112 117.89C61.3812 117.62 61.5812 117.37 61.8612 117.34L145.641 108.59C145.921 108.56 146.161 108.76 146.191 109.04C146.221 109.31 146.021 109.56 145.741 109.59L61.9612 118.34C61.9612 118.34 61.9212 118.34 61.9112 118.34Z" fill="#261D2A"/>
<path d="M13.4613 53.46C13.3113 53.46 13.1613 53.39 13.0713 53.27C11.9313 51.82 12.3413 49.28 12.3613 49.17C12.4113 48.9 12.6613 48.71 12.9413 48.76C13.2113 48.81 13.4013 49.06 13.3513 49.34C13.3513 49.36 12.9913 51.55 13.8613 52.66C14.0313 52.88 13.9913 53.19 13.7713 53.36C13.6813 53.43 13.5713 53.47 13.4613 53.47V53.46Z" fill="#261D2A"/>
<path d="M12.9613 47.79C12.8113 47.79 12.6613 47.72 12.5713 47.6C11.4313 46.15 11.8413 43.61 11.8613 43.5C11.9113 43.23 12.1713 43.05 12.4413 43.09C12.7113 43.14 12.9013 43.39 12.8513 43.67C12.8513 43.69 12.4913 45.88 13.3613 46.99C13.5313 47.21 13.4913 47.52 13.2713 47.69C13.1813 47.76 13.0713 47.8 12.9613 47.8V47.79Z" fill="#261D2A"/>
<path d="M10.4613 50.6299C10.3113 50.6299 10.1613 50.5599 10.0713 50.4399C8.93134 48.9899 9.34135 46.4499 9.36135 46.3399C9.41135 46.0699 9.66134 45.8799 9.94134 45.9299C10.2113 45.9799 10.4013 46.2299 10.3513 46.5099C10.3513 46.5299 9.99135 48.7199 10.8613 49.8299C11.0313 50.0499 10.9913 50.3599 10.7713 50.5299C10.6813 50.5999 10.5713 50.6399 10.4613 50.6399V50.6299Z" fill="#261D2A"/>
<path d="M10.4613 56.2998C10.3113 56.2998 10.1613 56.2298 10.0713 56.1098C8.93134 54.6598 9.34135 52.1198 9.36135 52.0098C9.41135 51.7398 9.67134 51.5498 9.94134 51.5998C10.2113 51.6498 10.4013 51.8998 10.3513 52.1798C10.3513 52.1998 9.99135 54.3898 10.8613 55.4998C11.0313 55.7198 10.9913 56.0298 10.7713 56.1998C10.6813 56.2698 10.5713 56.3098 10.4613 56.3098V56.2998Z" fill="#261D2A"/>
<path d="M13.9613 59.1299C13.8113 59.1299 13.6613 59.0599 13.5713 58.9399C12.4313 57.4899 12.8413 54.9499 12.8613 54.8399C12.9113 54.5699 13.1613 54.3799 13.4413 54.4299C13.7113 54.4799 13.9013 54.7299 13.8513 55.0099C13.8513 55.0299 13.4913 57.2199 14.3613 58.3299C14.5313 58.5499 14.4913 58.8599 14.2713 59.0299C14.1813 59.0999 14.0713 59.1399 13.9613 59.1399V59.1299Z" fill="#261D2A"/>
<path d="M12.9613 62.8398C12.8113 62.8398 12.6613 62.7698 12.5713 62.6498C11.4313 61.1998 11.8413 58.6598 11.8613 58.5498C11.9113 58.2798 12.1613 58.0898 12.4413 58.1398C12.7113 58.1898 12.9013 58.4398 12.8513 58.7198C12.8513 58.7398 12.4913 60.9298 13.3613 62.0398C13.5313 62.2598 13.4913 62.5698 13.2713 62.7398C13.1813 62.8098 13.0713 62.8498 12.9613 62.8498V62.8398Z" fill="#261D2A"/>
</svg>
