<svg width="139" height="142" viewBox="0 0 139 142" fill="none" xmlns="http://www.w3.org/2000/svg">
<path d="M52.4075 54.9843C52.1775 54.9843 51.9775 54.8343 51.9175 54.6043C51.8775 54.4343 47.9775 37.7342 61.1075 33.6542C65.4475 32.3042 69.0975 32.7843 71.7775 33.9743C71.8075 33.8543 71.8275 33.7343 71.8675 33.6043C73.2675 28.0643 79.2875 22.1242 86.0375 22.1242C90.6275 22.1242 94.2475 24.5142 96.6475 27.3742C96.7875 27.1042 96.9375 26.8343 97.1075 26.5743C99.2675 23.0943 102.748 21.5143 106.908 22.1343C113.838 23.1443 115.898 16.3343 116.358 14.2243C117.478 9.14425 116.168 2.97425 112.438 1.87425C112.168 1.79425 112.018 1.51425 112.098 1.25425C112.178 0.994252 112.458 0.834256 112.718 0.914256C117.118 2.20426 118.538 8.94424 117.328 14.4342C116.268 19.2342 112.938 24.0442 106.748 23.1242C101.948 22.4142 99.3175 24.8943 97.9475 27.1043C97.7175 27.4743 97.5075 27.8543 97.3275 28.2543C98.8775 30.3643 99.7775 32.6143 99.9475 34.2943C100.138 36.1943 99.4575 37.4543 98.0775 37.7243C97.2475 37.8843 96.4975 37.5643 95.9775 36.8143C94.8775 35.2343 94.8075 31.6943 96.1575 28.4143C93.9175 25.5943 90.4275 23.1343 86.0275 23.1343C79.1775 23.1343 73.9675 29.3643 72.8275 33.8543C72.7875 34.0343 72.7375 34.2242 72.6975 34.4342C74.3375 35.3342 75.5375 36.5043 76.2175 37.5843C76.8875 38.6543 76.9875 39.5643 76.4975 40.0843C76.1475 40.4543 75.4075 40.7242 73.8275 39.8742C72.1575 38.9742 71.3775 37.2343 71.5975 34.9843C69.0975 33.8043 65.6075 33.2843 61.3775 34.6043C49.1375 38.4043 52.8275 54.2043 52.8675 54.3643C52.9375 54.6343 52.7675 54.9043 52.4975 54.9643C52.4575 54.9643 52.4175 54.9743 52.3775 54.9743L52.4075 54.9843ZM72.5875 35.5143C72.5375 36.7943 72.8775 38.2243 74.3175 39.0043C75.3275 39.5443 75.7375 39.4642 75.7775 39.4042C75.8375 39.3342 75.8575 38.8943 75.3775 38.1143C74.8175 37.2243 73.8675 36.2843 72.5775 35.5043L72.5875 35.5143ZM96.8675 29.3742C95.9075 32.1042 95.9375 35.0043 96.7975 36.2443C97.1875 36.8043 97.6075 36.7943 97.8775 36.7443C98.9975 36.5243 99.0275 35.1743 98.9575 34.3943C98.8175 33.0143 98.0975 31.1743 96.8775 29.3843L96.8675 29.3742Z" fill="#261D2A"/>
<path d="M32.4576 141.264C32.1776 141.264 31.8876 141.264 31.5976 141.254C22.0476 141.024 16.2876 136.614 13.1476 132.954C9.73758 128.994 8.61758 125.134 8.56758 124.964C8.48758 124.694 8.64758 124.424 8.90758 124.344C9.17758 124.274 9.44757 124.424 9.52757 124.684C9.56757 124.834 14.0776 139.824 31.6176 140.244C48.5976 140.664 55.7776 128.514 56.7676 117.984C57.1676 113.724 87.1776 103.134 91.8176 103.524C93.4276 103.654 95.1176 104.534 97.2576 105.644C102.558 108.394 109.808 112.154 122.608 108.414C128.808 106.604 133.148 103.184 135.518 98.2642C138.928 91.1742 137.548 82.2942 135.118 76.3442C135.018 76.0842 135.138 75.7942 135.388 75.6942C135.638 75.5842 135.938 75.7142 136.038 75.9642C138.558 82.1142 139.978 91.3142 136.418 98.6942C133.918 103.884 129.368 107.474 122.888 109.364C109.708 113.224 101.938 109.194 96.7976 106.524C94.7576 105.464 93.1476 104.634 91.7376 104.514C86.3076 104.084 58.0276 115.334 57.7676 118.074C56.9576 126.754 50.6876 141.244 32.4576 141.244V141.264Z" fill="#261D2A"/>
<path d="M19.2282 69.3843C19.2282 69.3843 70.5481 37.6743 105.938 43.4343C127.408 46.9243 147.378 82.5143 133.808 97.8543C120.238 113.194 99.0781 104.494 93.5481 100.504C89.6881 97.7243 54.6181 113.624 52.8481 115.984C51.0781 118.344 54.4682 135.454 28.5182 137.224C2.56815 138.994 -14.3918 88.8543 19.2282 69.3843Z" fill="#A27298"/>
<path d="M109.038 95.6244C120.52 95.6244 129.828 86.3164 129.828 74.8344C129.828 63.3524 120.52 54.0444 109.038 54.0444C97.556 54.0444 88.248 63.3524 88.248 74.8344C88.248 86.3164 97.556 95.6244 109.038 95.6244Z" fill="#CA7A8C"/>
<path d="M27.3072 120.844C37.6294 120.844 45.9972 112.477 45.9972 102.154C45.9972 91.8321 37.6294 83.4644 27.3072 83.4644C16.985 83.4644 8.61719 91.8321 8.61719 102.154C8.61719 112.477 16.985 120.844 27.3072 120.844Z" fill="#CA7A8C"/>
<path d="M16.5881 91.2641C16.5881 91.2641 23.1281 88.2341 24.1481 87.7241C25.1681 87.2141 28.2481 94.8541 27.9081 95.8741C27.5681 96.8941 26.1981 100.304 25.6881 100.304C25.1781 100.304 21.5981 99.2841 20.7381 98.5941C19.8781 97.9041 16.5781 91.2541 16.5781 91.2541L16.5881 91.2641Z" fill="#FDFFFF"/>
<path d="M37.1581 92.6042C37.1581 92.6042 40.2781 97.7243 40.8181 98.7343C41.3581 99.7443 33.7781 104.024 32.7481 103.704C31.7181 103.384 28.2781 102.104 28.2581 101.594C28.2381 101.084 29.1781 97.4742 29.8481 96.6042C30.5181 95.7342 37.1581 92.5942 37.1581 92.5942V92.6042Z" fill="#FDFFFF"/>
<path d="M36.7786 112.704C36.7786 112.704 30.5086 115.764 29.4386 116.174C28.3686 116.584 25.4686 108.824 25.8986 107.834C26.3286 106.844 28.0086 103.574 28.5186 103.624C29.0286 103.674 32.4986 105.024 33.2886 105.784C34.0786 106.544 36.7786 112.714 36.7786 112.714V112.704Z" fill="#FDFFFF"/>
<path d="M15.3386 111.264C15.3386 111.264 10.7086 103.464 11.8486 103.424C12.0786 103.424 18.4086 99.7343 19.3586 100.254C20.3086 100.774 24.8186 102.674 24.7286 103.174C24.6386 103.674 22.9886 107.014 22.1586 107.734C21.3286 108.454 15.3386 111.254 15.3386 111.254V111.264Z" fill="#FDFFFF"/>
<path d="M70.3918 96.9768L70.0877 96.1404C69.6952 95.0607 68.5018 94.5037 67.4222 94.8963L60.5427 97.3975C59.4631 97.79 58.9061 98.9834 59.2986 100.063L59.6027 100.899C59.9952 101.979 61.1887 102.536 62.2683 102.144L69.1477 99.6423C70.2273 99.2498 70.7843 98.0564 70.3918 96.9768Z" fill="#FDFFFF"/>
<path d="M83.1555 92.1911L82.8513 91.3547C82.4588 90.2751 81.2654 89.7181 80.1858 90.1106L73.3064 92.6118C72.2268 93.0043 71.6698 94.1977 72.0623 95.2773L72.3664 96.1138C72.7589 97.1934 73.9523 97.7504 75.0319 97.3579L81.9113 94.8567C82.991 94.4642 83.548 93.2708 83.1555 92.1911Z" fill="#FDFFFF"/>
<path d="M76.7384 50.5641C76.5084 50.5641 76.2984 50.4041 76.2484 50.1741C76.1884 49.9041 76.3584 49.6341 76.6284 49.5741C76.7784 49.5441 91.8284 46.2441 101.068 46.2441C101.348 46.2441 101.568 46.4641 101.568 46.7441C101.568 47.0241 101.348 47.2441 101.068 47.2441C91.9384 47.2441 76.9984 50.5141 76.8484 50.5541C76.8084 50.5541 76.7784 50.5641 76.7384 50.5641Z" fill="#261D2A"/>
<path d="M110.588 48.3441C110.488 48.3441 110.378 48.3141 110.288 48.2441C109.768 47.8541 107.178 47.6841 105.498 47.6841C105.218 47.6841 104.998 47.4641 104.998 47.1841C104.998 46.9041 105.218 46.6841 105.498 46.6841C106.228 46.6841 109.918 46.7241 110.888 47.4441C111.108 47.6141 111.158 47.9241 110.988 48.1441C110.888 48.2741 110.738 48.3441 110.588 48.3441Z" fill="#261D2A"/>
<path d="M8.01809 87.5742C7.96809 87.5742 7.90808 87.5742 7.85808 87.5442C7.59808 87.4542 7.45808 87.1742 7.53808 86.9142C10.5181 77.9842 21.7481 71.8442 22.2281 71.5942C22.4681 71.4642 22.7781 71.5542 22.9081 71.7942C23.0381 72.0342 22.9481 72.3442 22.7081 72.4742C22.5981 72.5342 11.3481 78.6842 8.48808 87.2342C8.41808 87.4442 8.22809 87.5742 8.01809 87.5742Z" fill="#261D2A"/>
<path d="M19.3579 91.8643C19.1679 91.8643 18.9779 91.7543 18.8979 91.5643C18.7879 91.3143 18.8979 91.0143 19.1579 90.9043C19.1879 90.8943 22.3779 89.4743 23.5679 88.6543C23.7979 88.4943 24.1079 88.5543 24.2679 88.7843C24.4279 89.0143 24.3679 89.3243 24.1379 89.4843C22.8679 90.3643 19.6879 91.7643 19.5579 91.8243C19.4879 91.8543 19.4279 91.8643 19.3579 91.8643Z" fill="#261D2A"/>
<path d="M31.7987 97.414C31.6787 97.414 31.5587 97.374 31.4587 97.284C31.2587 97.094 31.2387 96.784 31.4287 96.574C32.4287 95.474 35.4787 94.194 35.8187 94.054C36.0787 93.944 36.3687 94.074 36.4687 94.324C36.5687 94.584 36.4487 94.874 36.1987 94.974C35.3187 95.334 32.8887 96.444 32.1687 97.244C32.0687 97.354 31.9387 97.404 31.7987 97.404V97.414Z" fill="#261D2A"/>
<path d="M14.3873 104.204C14.1973 104.204 14.0273 104.104 13.9373 103.924C13.8173 103.674 13.9173 103.374 14.1673 103.254C14.8073 102.944 18.0173 101.394 18.8173 101.294C19.0873 101.254 19.3373 101.454 19.3773 101.724C19.4073 101.994 19.2173 102.244 18.9473 102.284C18.4773 102.344 16.1273 103.414 14.6073 104.154C14.5373 104.184 14.4573 104.204 14.3873 104.204Z" fill="#261D2A"/>
<path d="M34.5779 111.294C34.3579 111.294 34.1579 111.154 34.0979 110.934C33.9879 110.564 32.8379 108.774 31.7779 107.254C31.6179 107.024 31.6779 106.714 31.8979 106.554C32.1279 106.394 32.4379 106.454 32.5979 106.674C32.9779 107.214 34.8579 109.934 35.0579 110.654C35.1379 110.924 34.9779 111.194 34.7179 111.274C34.6679 111.284 34.6279 111.294 34.5779 111.294Z" fill="#261D2A"/>
<path d="M27.0272 133.594C22.5872 133.594 20.3272 131.284 20.1872 131.144C19.9972 130.944 20.0072 130.634 20.2072 130.434C20.4072 130.244 20.7272 130.254 20.9172 130.444C21.0872 130.624 25.2372 134.774 33.6272 130.994C33.8772 130.874 34.1772 130.994 34.2872 131.244C34.3972 131.494 34.2872 131.794 34.0372 131.904C31.2972 133.144 28.9572 133.574 27.0372 133.574L27.0272 133.594Z" fill="#261D2A"/>
<path d="M17.3473 130.434C15.3373 130.434 14.4873 128.894 14.3173 128.024C14.2673 127.754 14.4373 127.494 14.7073 127.434C14.9773 127.374 15.2373 127.554 15.2973 127.824C15.3373 128.004 15.7373 129.584 17.6373 129.414C17.9273 129.404 18.1573 129.594 18.1773 129.864C18.1973 130.134 17.9973 130.384 17.7273 130.404C17.5973 130.414 17.4673 130.424 17.3473 130.424V130.434Z" fill="#261D2A"/>
<path d="M64.7378 97.5042C64.5578 97.5042 64.3878 97.4142 64.2978 97.2442C64.1678 97.0042 64.2579 96.6942 64.4979 96.5642C65.4779 96.0242 67.0778 95.6242 67.1378 95.6042C67.4078 95.5342 67.6779 95.7042 67.7479 95.9642C67.8179 96.2342 67.6478 96.5042 67.3878 96.5742C67.3678 96.5742 65.8478 96.9642 64.9878 97.4342C64.9078 97.4742 64.8279 97.4942 64.7479 97.4942L64.7378 97.5042Z" fill="#261D2A"/>
<path d="M77.4488 92.9143C77.2688 92.9143 77.0988 92.8243 77.0088 92.6543C76.8788 92.4143 76.9688 92.1043 77.2088 91.9743C78.1888 91.4343 79.7888 91.0343 79.8488 91.0143C80.1188 90.9443 80.3888 91.1143 80.4588 91.3743C80.5288 91.6443 80.3588 91.9144 80.0988 91.9844C80.0788 91.9844 78.5588 92.3743 77.6988 92.8443C77.6188 92.8843 77.5388 92.9043 77.4588 92.9043L77.4488 92.9143Z" fill="#261D2A"/>
<path d="M104.679 70.9342C108.241 70.9342 111.129 68.0464 111.129 64.4842C111.129 60.922 108.241 58.0342 104.679 58.0342C101.116 58.0342 98.2285 60.922 98.2285 64.4842C98.2285 68.0464 101.116 70.9342 104.679 70.9342Z" fill="#FEFFFF"/>
<path d="M98.7078 84.5943C102.27 84.5943 105.158 81.7066 105.158 78.1443C105.158 74.5821 102.27 71.6943 98.7078 71.6943C95.1456 71.6943 92.2578 74.5821 92.2578 78.1443C92.2578 81.7066 95.1456 84.5943 98.7078 84.5943Z" fill="#FEFFFF"/>
<path d="M119.419 77.0641C122.981 77.0641 125.869 74.1763 125.869 70.6141C125.869 67.0518 122.981 64.1641 119.419 64.1641C115.857 64.1641 112.969 67.0518 112.969 70.6141C112.969 74.1763 115.857 77.0641 119.419 77.0641Z" fill="#FEFFFF"/>
<path d="M112.727 91.6944C116.29 91.6944 119.177 88.8067 119.177 85.2444C119.177 81.6822 116.29 78.7944 112.727 78.7944C109.165 78.7944 106.277 81.6822 106.277 85.2444C106.277 88.8067 109.165 91.6944 112.727 91.6944Z" fill="#FEFFFF"/>
<path d="M104.948 69.0644C107.45 69.0644 109.478 67.0362 109.478 64.5344C109.478 62.0325 107.45 60.0044 104.948 60.0044C102.446 60.0044 100.418 62.0325 100.418 64.5344C100.418 67.0362 102.446 69.0644 104.948 69.0644Z" fill="#A27298"/>
<path d="M107.459 63.3642C107.329 63.3642 107.189 63.3142 107.089 63.2042C104.999 60.9542 103.169 62.4742 102.969 62.6542C102.759 62.8342 102.449 62.8242 102.259 62.6142C102.069 62.4142 102.089 62.0942 102.289 61.9142C102.319 61.8842 104.999 59.4942 107.819 62.5242C108.009 62.7242 107.999 63.0442 107.789 63.2342C107.689 63.3242 107.569 63.3642 107.449 63.3642H107.459Z" fill="#261D2A"/>
<path d="M98.8288 82.204C101.331 82.204 103.359 80.1759 103.359 77.674C103.359 75.1722 101.331 73.144 98.8288 73.144C96.327 73.144 94.2988 75.1722 94.2988 77.674C94.2988 80.1759 96.327 82.204 98.8288 82.204Z" fill="#76AEA6"/>
<path d="M112.749 89.7641C115.251 89.7641 117.279 87.736 117.279 85.2341C117.279 82.7323 115.251 80.7041 112.749 80.7041C110.247 80.7041 108.219 82.7323 108.219 85.2341C108.219 87.736 110.247 89.7641 112.749 89.7641Z" fill="#D9B923"/>
<path d="M119.298 75.1044C121.799 75.1044 123.828 73.0763 123.828 70.5744C123.828 68.0726 121.799 66.0444 119.298 66.0444C116.796 66.0444 114.768 68.0726 114.768 70.5744C114.768 73.0763 116.796 75.1044 119.298 75.1044Z" fill="#BE5A44"/>
<path d="M101.469 77.144C101.339 77.144 101.199 77.094 101.099 76.984C99.0086 74.734 97.1786 76.254 96.9786 76.434C96.7686 76.614 96.4586 76.604 96.2686 76.394C96.0786 76.194 96.0986 75.874 96.2986 75.694C96.3286 75.664 99.0086 73.274 101.829 76.304C102.019 76.504 102.009 76.824 101.799 77.014C101.699 77.104 101.579 77.144 101.459 77.144H101.469Z" fill="#261D2A"/>
<path d="M115.219 84.7041C115.089 84.7041 114.949 84.6541 114.849 84.5441C112.759 82.2941 110.929 83.8141 110.729 83.9941C110.519 84.1741 110.209 84.1641 110.019 83.9541C109.829 83.7541 109.849 83.4341 110.049 83.2541C110.079 83.2241 112.759 80.8341 115.579 83.8641C115.769 84.0641 115.759 84.3841 115.549 84.5741C115.449 84.6641 115.329 84.7041 115.209 84.7041H115.219Z" fill="#261D2A"/>
<path d="M122.027 70.0845C121.897 70.0845 121.757 70.0345 121.657 69.9245C119.507 67.6145 117.617 69.3044 117.537 69.3744C117.337 69.5644 117.017 69.5444 116.827 69.3444C116.637 69.1444 116.657 68.8244 116.857 68.6344C116.887 68.6044 119.577 66.2145 122.387 69.2445C122.577 69.4445 122.567 69.7645 122.357 69.9545C122.257 70.0445 122.137 70.0845 122.017 70.0845H122.027Z" fill="#261D2A"/>
<path d="M32.5977 62.3644C32.5977 62.3644 45.1777 86.1144 46.5177 87.1144C47.8577 88.1144 75.3477 74.6144 76.0177 72.6144C76.6877 70.6144 64.7677 48.4844 64.7677 48.4844C64.7677 48.4844 35.9377 58.6944 32.6077 62.3644H32.5977Z" fill="#CA7A8C"/>
<path d="M36.9883 62.8343C36.9883 62.8343 41.2783 73.6443 43.5083 74.2043C45.7383 74.7643 68.1083 64.7043 68.2983 63.5843C68.4883 62.4643 62.1483 51.8442 62.1483 51.8442L36.9883 62.8343Z" fill="#FDFFFF"/>
<path d="M39.2275 67.0643C39.0275 67.0643 38.8475 66.9443 38.7675 66.7543C38.6675 66.4943 38.7875 66.2043 39.0475 66.1043L65.3275 55.4843C65.5875 55.3843 65.8775 55.5043 65.9775 55.7643C66.0775 56.0243 65.9575 56.3143 65.6975 56.4143L39.4175 67.0343C39.3575 67.0543 39.2975 67.0743 39.2275 67.0743V67.0643Z" fill="#261D2A"/>
<path d="M41.4679 71.3441C41.2679 71.3441 41.0879 71.2241 41.0079 71.0341C40.9079 70.7741 41.0279 70.4841 41.2779 70.3841L66.4379 60.1341C66.6879 60.0241 66.9879 60.1541 67.0879 60.4041C67.1879 60.6641 67.0679 60.9541 66.8179 61.0541L41.6579 71.3041C41.5979 71.3341 41.5279 71.3441 41.4679 71.3441Z" fill="#261D2A"/>
<path d="M59.0773 107.354C59.0273 107.354 58.9173 107.344 58.8673 107.324C57.9473 107.014 55.5873 101.844 53.7773 97.5642C53.6673 97.3142 53.7873 97.0142 54.0373 96.9042C56.6973 95.7742 80.0773 85.8442 82.7073 85.8442C82.9173 85.8442 83.0773 85.8943 83.1973 85.9943C84.2473 86.8343 87.2473 94.0443 87.8373 95.4843C87.9373 95.7343 87.8173 96.0342 87.5673 96.1342C83.0873 98.0142 60.6473 107.364 59.0673 107.364L59.0773 107.354ZM54.8973 97.6342C56.5773 101.564 58.5473 105.684 59.1773 106.344C61.0073 106.004 76.3473 99.7442 86.7273 95.4042C85.1373 91.5842 83.2773 87.5642 82.6473 86.8542C80.5073 87.0042 65.1273 93.2842 54.8873 97.6342H54.8973Z" fill="#261D2A"/>
</svg>
