<svg width="194" height="195" viewBox="0 0 194 195" fill="none" xmlns="http://www.w3.org/2000/svg">
<path d="M132.305 31.5302C135.744 33.4455 139.05 35.6154 142.169 38.0494C145.281 40.4846 148.23 43.1785 150.86 46.1653C156.1 52.0721 160.354 58.7426 163.675 65.8173C167.204 73.3223 169.63 81.3469 171.017 89.5234C171.461 92.256 171.787 95.0125 171.958 97.7874C172.11 100.564 172.12 103.354 171.967 106.146C171.808 108.938 171.447 111.727 170.917 114.492C170.77 115.181 170.654 115.876 170.48 116.561L169.966 118.616L169.359 120.652C169.168 121.334 168.9 121.994 168.673 122.667C168.552 123 168.442 123.338 168.312 123.668L167.907 124.656C167.637 125.314 167.371 125.983 167.077 126.596L166.215 128.474C165.918 129.096 165.604 129.711 165.299 130.329L164.838 131.255L164.349 132.168C164.02 132.775 163.7 133.387 163.362 133.99C162.667 135.185 161.989 136.39 161.24 137.554C160.524 138.739 159.73 139.876 158.961 141.028C158.149 142.151 157.355 143.289 156.491 144.376C154.793 146.572 152.986 148.69 151.049 150.688C149.116 152.689 147.09 154.607 144.942 156.385C142.795 158.162 140.55 159.825 138.218 161.357C133.553 164.422 128.515 166.913 123.277 168.834C118.029 170.732 112.571 172.024 107.045 172.722C101.515 173.4 95.9213 173.474 90.3815 172.98C76.7396 171.724 63.453 166.976 52.0807 159.29C46.3958 155.449 41.1884 150.881 36.6431 145.717L35.7921 144.748L34.9588 143.733C34.3945 143.063 33.8673 142.362 33.3427 141.66C32.2884 140.259 31.3211 138.794 30.3905 137.307C28.5588 134.315 27.0041 131.158 25.7205 127.902C23.1362 121.388 21.7478 114.469 21.3061 107.557C20.8953 100.635 21.4454 93.7042 22.8029 86.9687C25.5447 73.4976 31.3878 60.76 39.757 49.8996C44.8186 43.3529 51.1174 37.6544 58.0247 33.2842C61.3444 31.2039 64.3268 29.9087 66.8515 29.1372C68.1095 28.7392 69.272 28.5069 70.3016 28.3323C71.3488 28.1987 72.2617 28.1137 73.0818 28.1445C75.4624 28.2197 75.6813 29.1032 74.2187 30.4173C74.0357 30.5822 73.8253 30.7515 73.5906 30.9311C73.3585 31.1181 73.1009 31.3121 72.8184 31.5124C72.5359 31.7128 72.2283 31.9192 71.8964 32.1317C71.5697 32.357 71.2189 32.5889 70.8443 32.8266C69.3484 33.7824 67.5007 34.8994 65.3835 36.2687C60.0095 39.6995 54.5663 44.1134 49.9795 48.9217C44.6799 54.4336 40.219 60.8042 36.7354 67.6714C33.2407 74.5339 30.7149 81.9052 29.3305 89.4647C28.6266 93.2425 28.2415 97.0694 28.1384 100.891C28.0674 104.713 28.2815 108.533 28.8735 112.282C30.0301 119.78 32.6226 127.005 36.6371 133.294C37.7538 135.022 38.9801 136.698 40.2956 138.307C41.6128 139.891 43.0853 141.469 44.5569 142.977C47.5463 145.975 50.7102 148.743 53.9197 151.24C56.4762 153.243 59.1826 155.068 62.0071 156.699C64.8345 158.326 67.7824 159.752 70.814 160.975C76.8773 163.424 83.2847 165.051 89.7885 165.766C102.794 167.245 116.164 165.074 127.909 159.432C136.658 155.271 144.435 149.034 150.625 141.44C152.161 139.532 153.636 137.568 154.996 135.52C156.343 133.464 157.645 131.373 158.805 129.195L159.25 128.385L159.672 127.561L160.513 125.911L161.303 124.235L161.699 123.397L162.05 122.57C162.274 122.015 162.536 121.477 162.731 120.909L163.35 119.22C163.71 118.073 164.09 116.933 164.374 115.759C164.671 114.726 164.864 113.663 165.101 112.611L165.378 111.014L165.516 110.215L165.618 109.409C165.934 107.266 166.055 105.09 166.14 102.914C166.228 98.5565 165.938 94.1667 165.212 89.8329C164.882 87.6608 164.394 85.5134 163.886 83.3722C163.325 81.2442 162.738 79.1187 162.01 77.0379C160.608 72.8584 158.838 68.8025 156.774 64.9089C152.625 57.1479 147.25 49.9707 140.548 44.3857C133.839 38.7531 125.94 34.5102 117.613 31.6162C110.954 29.3224 104.225 27.8677 97.6768 27.1735C91.1252 26.481 84.7508 26.5535 78.711 27.3612C78.0189 27.4633 77.4032 27.5056 76.8835 27.5562C76.3633 27.605 75.9264 27.6168 75.5755 27.5952C74.8739 27.5519 74.5161 27.3752 74.5315 27.0913C74.5467 26.8076 74.9361 26.4161 75.7261 25.9458C76.1211 25.7111 76.614 25.4479 77.2199 25.2152C77.8249 24.9806 78.5262 24.7008 79.3429 24.4772C81.6476 23.7982 84.029 23.3064 86.4481 22.9084C88.8706 22.5463 91.3331 22.3155 93.8141 22.2173C98.7743 22.055 103.799 22.4116 108.72 23.2795C116.831 24.6671 124.824 27.6609 132.189 31.5903C132.226 31.5689 132.262 31.5496 132.305 31.5302Z" fill="black"/>
<path d="M51.4329 80.0841C52.6364 79.4753 53.8482 78.8794 55.0394 78.2514C55.6695 77.9165 56.3099 77.5906 56.864 77.1479C58.3301 75.9754 59.8498 74.6806 61.6521 73.5016C63.4423 72.3331 65.5888 71.2542 68.0926 70.8408C69.6235 70.605 71.2062 70.5802 72.705 70.8232C74.2035 71.0596 75.6154 71.4984 76.9196 72.0451C78.2309 72.5894 79.4153 73.2572 80.5331 73.9588C81.6505 74.6623 82.6937 75.4124 83.6781 76.1773C84.2775 76.6369 84.6966 77.3203 85.0796 77.9879C85.4512 78.6306 85.1979 79.62 84.6441 80.717C83.8308 82.3137 82.3354 83.5015 81.3514 83.2606C80.728 83.1156 80.2447 82.7236 79.8512 82.2833C78.9433 81.2695 77.9302 80.4171 76.834 79.7873C75.7416 79.1583 74.5611 78.7563 73.4192 78.6713C72.781 78.6109 72.158 78.7519 71.6832 78.4066C70.9077 77.8712 70.0157 77.78 69.1681 77.8689C68.3146 77.9645 67.4628 78.2756 66.5002 78.5192C65.0509 78.8909 63.6887 79.844 62.1923 80.7118C59.4153 82.3514 56.6395 83.9903 53.8635 85.6293C52.7531 86.2887 51.446 86.5376 49.7364 85.9768C48.9476 85.7151 48.05 84.3752 48.3135 83.7467C48.6847 82.8544 49.194 82.0905 49.7733 81.4343C50.2485 80.8932 50.9109 80.5869 51.4904 80.1772C51.471 80.1459 51.4531 80.1168 51.4329 80.0841Z" fill="black"/>
<path d="M138.002 82.9915C137.047 81.9862 136.055 81.002 134.998 80.0882C134.438 79.6044 133.866 79.1192 133.214 78.7771C131.477 77.8577 129.672 77.0934 127.849 76.4291C126.036 75.762 124.348 75.3176 123.012 75.2784C122.601 75.2654 122.224 75.2897 121.874 75.3484C121.721 75.3853 121.623 75.4244 121.485 75.446C121.319 75.5193 121.159 75.5691 120.982 75.6381C120.245 75.9499 119.351 76.5029 118.478 77.1429C116.713 78.4281 114.949 80.0671 113.285 81.8012C112.785 82.3282 112.087 82.6859 111.401 83.0514C110.741 83.3965 109.758 83.1474 108.654 82.595C107.045 81.7952 105.884 80.2669 106.268 79.1417C106.508 78.4348 107.015 77.8682 107.577 77.4143C108.871 76.3674 110.092 75.2708 111.298 74.115C112.509 72.96 113.687 71.7445 115.031 70.4753C115.421 70.1313 115.773 69.743 116.237 69.428C116.461 69.268 116.693 69.1201 116.932 68.9951C117.191 68.8759 117.465 68.7825 117.742 68.7232C118.166 68.6211 118.657 68.5376 119.122 68.4444L119.47 68.3735C119.59 68.3517 119.725 68.3375 119.852 68.3193L120.619 68.2177C121.587 68.1204 122.483 68.1215 123.373 68.1788C125.14 68.302 126.761 68.697 128.148 69.356C129.129 69.8283 130.112 70.3018 131.096 70.7755C132.048 71.2397 132.991 71.7221 133.889 72.2813C137.095 74.2673 140.027 76.6199 142.711 79.1748C143.781 80.1942 144.466 81.547 144.335 83.4239C144.275 84.2874 143.122 85.4147 142.437 85.2629C141.465 85.0422 140.585 84.6982 139.789 84.2775C139.135 83.9349 138.65 83.3628 138.074 82.9096C138.05 82.9371 138.028 82.9627 138.002 82.9915Z" fill="black"/>
<path d="M132.319 120.296C130.321 122.979 128.054 125.461 125.55 127.686C124.876 128.266 124.193 128.836 123.506 129.399L122.455 130.223L121.939 130.645L121.407 131.049C119.56 132.542 117.528 133.829 115.397 134.943C113.266 136.062 111 136.96 108.678 137.596C104.031 138.884 99.1656 139.24 94.4156 138.753C91.4908 138.444 88.6069 137.829 85.81 136.941C83.0063 136.05 80.3156 134.884 77.756 133.51C72.6246 130.762 68.0568 127.159 64.0289 123.123C62.8024 121.911 61.8314 120.439 60.929 118.996C60.075 117.599 60.1367 116.205 60.6812 114.969C61.0764 114.069 61.7913 113.516 62.6065 113.348C63.4286 113.175 64.3242 113.405 65.1725 114.05C65.7045 114.463 66.2048 114.939 66.6887 115.435C67.1619 115.941 67.6234 116.463 68.0527 116.991C70.0312 119.423 72.318 121.578 74.8068 123.425C77.3159 125.237 80.0289 126.752 82.8928 127.775C84.4703 128.367 86.157 128.732 87.5824 129.478C89.8819 130.664 92.4249 131.326 94.9835 131.656C97.5496 131.995 100.128 131.969 102.685 131.872C104.587 131.793 106.486 131.494 108.313 130.969C110.147 130.456 111.902 129.741 113.627 128.932C116.679 127.438 119.552 125.456 122.08 123.024C123.368 121.835 124.538 120.507 125.671 119.142C126.211 118.438 126.779 117.752 127.279 117.011C127.534 116.645 127.8 116.286 128.047 115.913L128.772 114.783C130.296 112.358 131.91 110.167 134.15 108.356C135.19 107.528 136.683 108.123 136.506 109.568C136.275 111.61 135.686 113.671 134.89 115.64C134.55 116.444 134.156 117.234 133.68 117.984L132.977 119.115C132.73 119.485 132.483 119.854 132.237 120.223C132.264 120.247 132.289 120.27 132.319 120.296Z" fill="black"/>
</svg>
