<svg width="182" height="330" viewBox="0 0 182 330" fill="none" xmlns="http://www.w3.org/2000/svg">
<path d="M124.401 180.84C135.951 180.84 147.051 175.66 154.611 169.71C166.511 160.34 173.811 147.91 181.461 133.82C182.101 132.65 181.951 131.22 181.101 130.21C180.251 129.19 178.861 128.8 177.601 129.23C152.741 137.61 129.871 150.84 111.111 167.65C113.111 143.65 115.401 119.68 117.981 95.8401C118.851 95.8201 119.721 95.7702 120.571 95.6602C127.171 94.8202 132.711 90.9201 135.231 85.9601C140.011 89.5201 146.471 91.3002 152.611 90.4302C161.041 89.2602 168.371 83.2001 170.451 75.7001C172.101 69.7401 170.381 63.2102 166.201 58.4302C169.911 56.1502 172.901 52.7902 174.731 48.7502C177.011 43.6802 177.131 38.0802 175.051 33.3702C171.061 24.3302 159.431 18.7902 144.911 18.7902H144.901C144.501 15.3202 143.011 11.9202 140.551 8.93022C136.731 4.28022 131.161 1.34015 125.261 0.860153C115.701 0.0801529 106.231 5.9902 102.881 14.0302C94.5607 10.0702 83.1707 11.3801 76.7107 17.6901C72.9807 21.3301 71.0107 26.4801 71.2807 31.8301C71.4707 35.5001 72.7007 38.9802 74.7707 41.8702C71.1907 43.9202 68.2807 47.1201 66.5907 50.9801C64.4407 55.9001 64.5807 61.2102 66.9507 65.5602C69.3207 69.9102 73.9107 73.2202 79.5307 74.6502C83.0907 75.5502 86.7707 75.6102 90.1407 74.8902C90.4507 80.0002 93.9307 85.2202 98.5007 88.7902C102.551 91.9502 107.051 94.1102 111.571 95.1502C109.991 109.7 108.531 124.3 107.171 138.92C97.8907 119.46 81.1507 102.89 60.5007 93.2201C59.3207 92.6701 57.9207 92.8802 56.9607 93.7602C56.0007 94.6302 55.6507 96.0001 56.0907 97.2301C60.4107 109.25 64.8707 121.68 72.9407 132.62C81.4907 144.2 93.3207 152.19 105.741 154.88C102.141 195.96 99.3807 237.15 97.5307 277.96L92.5007 281.7L95.8307 252.99C95.9807 251.69 95.3307 250.43 94.1907 249.79C93.0407 249.16 91.6207 249.29 90.6107 250.11L54.5707 279.18L56.7807 250.28C56.8907 248.88 56.0707 247.56 54.7507 247.04C53.4407 246.52 51.9407 246.92 51.0607 248.01C38.0907 264.08 21.1607 277.95 2.10067 288.14C0.530674 288.98 -0.0692816 290.94 0.770718 292.51C1.61072 294.08 3.57071 294.67 5.14071 293.83C21.9307 284.85 37.1407 273.12 49.6007 259.57L47.5707 286.13C47.4707 287.42 48.1507 288.63 49.2907 289.23C50.4207 289.83 51.8107 289.7 52.8107 288.89L88.5207 260.08L85.2307 288.36C85.0807 289.64 85.7107 290.89 86.8207 291.53C87.9407 292.17 89.3307 292.09 90.3607 291.32L133.541 259.23L128.011 289.37C127.781 290.64 128.331 291.93 129.411 292.64C130.481 293.36 131.881 293.36 132.961 292.64L172.101 266.82C168.461 286.74 168.341 306.93 171.761 326.95C172.031 328.52 173.391 329.63 174.931 329.63C175.121 329.63 175.301 329.62 175.481 329.59C177.241 329.29 178.421 327.62 178.121 325.87C174.401 304.1 175.031 282.13 179.971 260.56C180.261 259.28 179.751 257.94 178.671 257.19C177.581 256.44 176.151 256.43 175.051 257.15L135.721 283.1L141.351 252.34C141.591 251.04 141.011 249.72 139.891 249.02C138.761 248.32 137.321 248.38 136.261 249.17L104.231 272.98C105.721 241.44 107.741 209.69 110.281 177.95C114.921 179.97 119.701 180.84 124.401 180.84ZM171.631 138.24C165.701 148.59 159.471 157.67 150.621 164.64C141.271 172.01 127.171 176.91 114.961 172.85C131.131 158.26 150.511 146.43 171.631 138.24ZM102.471 83.7001C98.1907 80.3701 94.9707 74.9401 97.4307 71.4401C98.3207 70.1801 98.1807 68.4601 97.1107 67.3501C96.4907 66.7001 95.6407 66.3602 94.7907 66.3602C94.1807 66.3602 93.5807 66.5302 93.0407 66.8802C89.8807 68.9202 85.4207 69.4902 81.1207 68.4002C77.2307 67.4102 74.1307 65.2501 72.6107 62.4701C71.2007 59.8901 71.1607 56.6401 72.5007 53.5701C74.1007 49.9101 77.3207 47.1501 81.1107 46.2001C82.3007 45.9001 83.2107 44.9502 83.4707 43.7502C83.7307 42.5502 83.2807 41.3002 82.3207 40.5402C79.5807 38.3802 77.9107 35.0802 77.7207 31.5002C77.5407 28.0002 78.8107 24.6502 81.2107 22.3102C86.5407 17.1002 97.0407 16.7501 102.831 21.5701C103.741 22.3301 105.011 22.5301 106.121 22.0701C107.231 21.6201 107.991 20.5802 108.101 19.3902C108.741 12.5202 116.821 6.65021 124.741 7.29021C128.841 7.62021 132.901 9.77019 135.571 13.0202C137.791 15.7102 138.821 18.8102 138.491 21.7402C138.391 22.6902 138.701 23.6301 139.361 24.3201C140.011 25.0101 140.931 25.3801 141.881 25.3201C154.841 24.5701 166.051 28.9501 169.161 35.9801C170.521 39.0501 170.411 42.6501 168.851 46.0901C167.031 50.1101 163.591 53.1802 159.411 54.5002C158.221 54.8702 157.361 55.8902 157.191 57.1302C157.011 58.3602 157.561 59.5802 158.601 60.2602C163.291 63.3702 165.611 69.0101 164.231 73.9801C162.851 78.9902 157.581 83.2302 151.711 84.0502C145.771 84.8702 139.201 82.2302 136.091 77.7402C135.271 76.5602 133.751 76.0602 132.391 76.5302C131.021 77.0102 130.141 78.3302 130.221 79.7702C130.471 84.0902 125.581 88.5202 119.761 89.2702C114.201 89.9602 107.901 87.9401 102.471 83.7001ZM78.1307 128.79C72.2907 120.89 68.4007 111.9 65.0007 102.85C82.9907 113.28 97.0207 129.44 103.951 147.76C94.2107 144.82 85.0107 138.12 78.1307 128.79Z" fill="#383434"/>
<path d="M171.631 138.24C165.701 148.59 159.471 157.67 150.621 164.64C141.271 172.01 127.171 176.91 114.961 172.85C131.131 158.26 150.511 146.43 171.631 138.24Z" fill="#67CEC4"/>
<path d="M103.95 147.76C94.21 144.82 85.01 138.12 78.13 128.79C72.29 120.89 68.4 111.9 65 102.85C82.99 113.28 97.02 129.44 103.95 147.76Z" fill="#67CEC4"/>
<path d="M169.16 35.98C166.05 28.95 154.84 24.57 141.88 25.32C140.93 25.38 140.01 25.01 139.36 24.32C138.7 23.63 138.39 22.69 138.49 21.74C138.82 18.81 137.79 15.71 135.57 13.02C132.9 9.77003 128.84 7.62005 124.74 7.29005C116.82 6.65005 108.74 12.52 108.1 19.39C107.99 20.58 107.23 21.62 106.12 22.07C105.01 22.53 103.74 22.33 102.83 21.57C97.0405 16.75 86.5405 17.1001 81.2105 22.3101C78.8105 24.6501 77.5404 28 77.7204 31.5C77.9104 35.08 79.5805 38.3801 82.3205 40.5401C83.2805 41.3 83.7304 42.55 83.4704 43.75C83.2104 44.95 82.3004 45.9 81.1104 46.2C77.3204 47.15 74.1005 49.91 72.5005 53.57C71.1605 56.64 71.2004 59.89 72.6104 62.47C74.1304 65.25 77.2305 67.41 81.1205 68.4C85.4205 69.49 89.8804 68.92 93.0404 66.88C93.5804 66.53 94.1804 66.36 94.7904 66.36C95.6404 66.36 96.4904 66.7 97.1104 67.35C98.1804 68.46 98.3205 70.18 97.4305 71.44C94.9705 74.94 98.1904 80.37 102.47 83.7C107.9 87.94 114.2 89.96 119.76 89.27C125.58 88.52 130.47 84.09 130.22 79.77C130.14 78.33 131.02 77.01 132.39 76.53C133.75 76.06 135.27 76.56 136.09 77.74C139.2 82.23 145.77 84.8701 151.71 84.0501C157.58 83.2301 162.85 78.99 164.23 73.98C165.61 69.01 163.29 63.37 158.6 60.26C157.56 59.58 157.01 58.36 157.19 57.13C157.36 55.89 158.22 54.87 159.41 54.5C163.59 53.18 167.03 50.11 168.85 46.09C170.41 42.65 170.52 39.05 169.16 35.98ZM136.29 63.02C132.69 66.55 127.42 68.51 122.18 68.51C120.05 68.51 117.93 68.19 115.92 67.51C108.72 65.09 103.69 58.31 103.96 51.4C104.24 44.41 110.02 37.9201 117.42 36.3001C123.28 35.0201 129.78 36.7301 133.98 40.6801C138.3 44.7501 140.52 49.0001 140.57 53.3101C140.6 56.8801 139.13 60.24 136.29 63.02Z" fill="#F8AC00"/>
<path d="M133.981 40.6805C129.781 36.7305 123.282 35.0205 117.422 36.3005C110.022 37.9205 104.242 44.4104 103.962 51.4004C103.692 58.3104 108.722 65.0904 115.922 67.5104C117.932 68.1904 120.052 68.5104 122.182 68.5104C127.422 68.5104 132.691 66.5504 136.291 63.0204C139.131 60.2404 140.602 56.8805 140.572 53.3105C140.522 49.0005 138.301 44.7505 133.981 40.6805ZM131.782 58.4205C128.432 61.7105 122.631 62.9604 117.981 61.4004C113.501 59.9004 110.251 55.7004 110.411 51.6504C110.571 47.5704 114.251 43.5904 118.791 42.6004C119.631 42.4204 120.492 42.3304 121.362 42.3304C124.412 42.3304 127.502 43.4304 129.562 45.3704C132.522 48.1604 134.092 50.9204 134.122 53.3804C134.142 55.1804 133.352 56.8805 131.782 58.4205Z" fill="#383434"/>
<path d="M134.12 53.3801C134.14 55.1801 133.35 56.8802 131.78 58.4202C128.43 61.7102 122.63 62.9601 117.98 61.4001C113.5 59.9001 110.25 55.7001 110.41 51.6501C110.57 47.5701 114.25 43.5901 118.79 42.6001C119.63 42.4201 120.49 42.3301 121.36 42.3301C124.41 42.3301 127.5 43.4301 129.56 45.3701C132.52 48.1601 134.09 50.9201 134.12 53.3801Z" fill="#F15E0E"/>
</svg>
