<svg width="205" height="141" viewBox="0 0 205 141" fill="none" xmlns="http://www.w3.org/2000/svg">
<path d="M203.781 88C202.651 80.25 197.201 73.78 190.511 72.25C182.611 70.45 175.101 75.35 171.161 81.01C170.521 81.93 169.941 82.88 169.421 83.85C169.111 82.43 168.721 81.03 168.251 79.64C165.591 71.81 160.391 65.74 153.981 62.97C142.571 58.04 127.501 64.61 121.741 77.02C117.001 87.23 118.021 100.51 124.461 112.55C130.091 123.06 138.581 131.29 146.781 139.25C147.311 139.77 148.001 140.09 148.741 140.15C150.381 140.3 151.991 140.37 153.581 140.37C173.871 140.37 190.671 128.51 200.151 107.23C203.451 99.82 204.611 93.71 203.781 88ZM194.271 104.6C190.051 114.06 177.391 135.64 150.441 133.82C142.851 126.45 135.121 118.79 130.151 109.5C124.651 99.24 123.701 88.12 127.591 79.74C131.451 71.42 142.461 65.01 151.421 68.89C156.171 70.94 160.071 75.61 162.141 81.71C164.021 87.22 164.361 93.14 164.301 100.32C164.301 101.97 165.521 103.37 167.171 103.55C168.811 103.73 170.321 102.64 170.671 101.03C171.921 95.2901 173.201 89.36 176.451 84.69C179.071 80.94 184.131 77.4101 189.071 78.5401C193.221 79.4801 196.651 83.7501 197.401 88.9201C198.041 93.3801 197.051 98.36 194.271 104.6Z" fill="#383434"/>
<path d="M194.271 104.601C190.051 114.061 177.391 135.641 150.441 133.821C142.851 126.451 135.121 118.791 130.151 109.501C124.651 99.2406 123.701 88.1206 127.591 79.7406C131.451 71.4206 142.461 65.0106 151.421 68.8906C156.171 70.9406 160.071 75.6105 162.141 81.7105C164.021 87.2205 164.361 93.1405 164.301 100.321C164.301 101.971 165.521 103.371 167.171 103.551C168.811 103.731 170.321 102.641 170.671 101.031C171.921 95.2906 173.201 89.3605 176.451 84.6905C179.071 80.9405 184.131 77.4106 189.071 78.5406C193.221 79.4806 196.651 83.7506 197.401 88.9206C198.041 93.3806 197.051 98.3606 194.271 104.601Z" fill="#63CFC4"/>
<path d="M64.93 6.04029C58.16 5.53029 51.07 8.78028 46.39 14.5303C45.84 15.2103 45.33 15.9102 44.87 16.6202C42.63 11.8002 39.5 7.75024 35.67 4.86024C26.67 -1.91976 13.59 -1.50972 6.49996 5.78028C0.639964 11.8103 -0.990036 21.6903 1.99996 32.9003C6.61996 50.1603 18.9399 65.1603 34.9799 73.0303C35.4199 73.2503 35.91 73.3602 36.4 73.3602C36.6 73.3602 36.81 73.3403 37.02 73.3003C38.34 73.0403 39.6899 72.7903 41.0699 72.5403C50.2699 70.8403 60.6999 68.9103 69.7099 63.5503C81.1699 56.7203 88.5 44.6503 88.38 32.8003C88.24 19.2403 77.5 6.99029 64.93 6.04029ZM66.41 58.0103C58.39 62.7803 48.57 64.6002 39.9 66.2002C38.87 66.3902 37.86 66.5703 36.87 66.7603C22.95 59.5803 12.2799 46.3802 8.22994 31.2402C7.09994 26.9902 5.10996 16.4603 11.12 10.2803C13.69 7.63028 17.2799 6.48023 20.9399 6.48023C24.8499 6.48023 28.85 7.79026 31.78 10.0103C36.69 13.7003 40.1499 19.9302 41.5899 27.4502C41.6099 29.0102 41.83 30.5602 42.27 32.0802C42.73 33.6702 44.3299 34.6502 45.9599 34.3502C47.5899 34.0502 48.7299 32.5503 48.5799 30.9003C48.4599 29.5403 48.28 28.2203 48.05 26.9203C48.14 24.0903 49.29 21.1802 51.39 18.6002C54.76 14.4602 59.7799 12.1102 64.4499 12.4702C73.6499 13.1602 81.82 22.7002 81.93 32.8702C82.03 42.4602 75.93 52.3303 66.41 58.0103Z" fill="#383434"/>
<path d="M81.9298 32.8705C82.0298 42.4605 75.9298 52.3305 66.4098 58.0105C58.3898 62.7805 48.5698 64.6004 39.8998 66.2004C38.8698 66.3904 37.8598 66.5705 36.8698 66.7605C22.9498 59.5805 12.2798 46.3805 8.22975 31.2405C7.09975 26.9905 5.10977 16.4605 11.1198 10.2805C13.6898 7.63052 17.2797 6.48047 20.9397 6.48047C24.8497 6.48047 28.8498 7.7905 31.7798 10.0105C36.6898 13.7005 40.1497 19.9304 41.5897 27.4504C41.6097 29.0104 41.8298 30.5604 42.2698 32.0804C42.7298 33.6704 44.3297 34.6505 45.9597 34.3505C47.5897 34.0505 48.7297 32.5505 48.5797 30.9005C48.4597 29.5405 48.2798 28.2205 48.0498 26.9205C48.1398 24.0905 49.2898 21.1805 51.3898 18.6005C54.7598 14.4605 59.7797 12.1105 64.4497 12.4705C73.6497 13.1605 81.8198 22.7005 81.9298 32.8705Z" fill="#63CFC4"/>
</svg>
