<svg width="141" height="556" viewBox="0 0 141 556" fill="none" xmlns="http://www.w3.org/2000/svg">
<path d="M84.1397 353.63L85.2298 342.63C85.4098 340.86 84.1099 339.28 82.3399 339.1C80.5599 338.93 78.9899 340.22 78.8099 341.99L77.7198 352.99C77.5398 354.76 78.8399 356.34 80.6099 356.52C80.7199 356.53 80.8297 356.54 80.9297 356.54C82.5697 356.54 83.9697 355.3 84.1297 353.63H84.1397Z" fill="#383434"/>
<path d="M70.0599 429.99L68.9698 440.99C68.7898 442.76 70.0899 444.34 71.8599 444.52C71.9699 444.53 72.0797 444.54 72.1797 444.54C73.8197 444.54 75.2197 443.3 75.3797 441.63L76.4698 430.63C76.6498 428.86 75.3499 427.28 73.5799 427.1C71.8099 426.93 70.2299 428.22 70.0499 429.99H70.0599Z" fill="#383434"/>
<path d="M79.7608 397.63L80.8509 386.63C81.0309 384.86 79.7307 383.28 77.9607 383.1C76.1907 382.92 74.6107 384.22 74.4307 385.99L73.3409 396.99C73.1609 398.76 74.4608 400.34 76.2308 400.52C76.3408 400.53 76.4508 400.54 76.5508 400.54C78.1908 400.54 79.5908 399.3 79.7508 397.63H79.7608Z" fill="#383434"/>
<path d="M77.5696 419.63L78.6595 408.63C78.8395 406.86 77.5396 405.28 75.7696 405.1C73.9896 404.93 72.4196 406.22 72.2396 407.99L71.1495 418.99C70.9695 420.76 72.2696 422.34 74.0396 422.52C74.1496 422.53 74.2597 422.54 74.3597 422.54C75.9997 422.54 77.3996 421.3 77.5596 419.63H77.5696Z" fill="#383434"/>
<path d="M95.1002 195.89C93.3002 195.8 91.8001 197.15 91.7001 198.93C91.6201 200.29 91.5301 201.65 91.4201 203C91.2301 205.31 90.9801 207.55 90.6901 209.67C90.4501 211.43 91.6801 213.06 93.4401 213.3C93.5901 213.32 93.74 213.33 93.88 213.33C95.47 213.33 96.8502 212.16 97.0702 210.55C97.3802 208.32 97.6402 205.96 97.8402 203.54C97.9602 202.12 98.06 200.71 98.14 199.29C98.24 197.51 96.8802 195.99 95.1002 195.89Z" fill="#383434"/>
<path d="M86.3294 331.63L87.4192 320.63C87.5992 318.86 86.2993 317.28 84.5293 317.1C82.7593 316.93 81.1793 318.22 80.9993 319.99L79.9092 330.99C79.7292 332.76 81.0294 334.34 82.7994 334.52C82.9094 334.53 83.0194 334.54 83.1194 334.54C84.7594 334.54 86.1594 333.3 86.3194 331.63H86.3294Z" fill="#383434"/>
<path d="M97.7892 176.74C97.6392 174.97 96.0892 173.65 94.2992 173.8C92.5292 173.95 91.2093 175.52 91.3593 177.29C91.6693 180.87 91.8491 184.51 91.9091 188.1C91.9391 189.86 93.3791 191.27 95.1291 191.27C95.1491 191.27 95.1691 191.27 95.1791 191.27C96.9591 191.24 98.3793 189.78 98.3493 188C98.2893 184.26 98.0992 180.47 97.7792 176.74H97.7892Z" fill="#383434"/>
<path d="M85.0295 231.13C84.0995 229.91 82.4095 229.49 80.9995 230.21C79.4095 231.02 78.7896 232.96 79.5996 234.55C80.2196 235.76 80.7896 237 81.3096 238.27C80.9096 238.5 80.5395 238.82 80.2595 239.23C78.3095 242.02 75.9994 244.57 73.3994 246.81C72.0494 247.97 71.8996 250.01 73.0596 251.36C73.6996 252.1 74.5995 252.48 75.5095 252.48C76.2495 252.48 76.9996 252.22 77.6096 251.7C79.8796 249.75 81.9596 247.58 83.8196 245.25C84.5796 246.33 85.9596 246.87 87.2996 246.5C89.0196 246.03 90.0296 244.26 89.5596 242.54C88.7796 239.67 87.7696 236.87 86.5696 234.18C86.6996 234.26 86.8295 234.33 86.9695 234.39C88.5995 235.1 90.4995 234.35 91.2095 232.71C92.6695 229.35 93.9094 225.67 94.9194 221.77C95.3594 220.05 94.3296 218.29 92.5996 217.84C90.8696 217.4 89.1194 218.43 88.6694 220.16C87.7494 223.73 86.6095 227.08 85.2895 230.14C85.1495 230.46 85.0695 230.8 85.0395 231.13H85.0295Z" fill="#383434"/>
<path d="M94.289 154.48C93.889 152.74 92.1589 151.66 90.4289 152.06C88.6889 152.46 87.609 154.19 88.009 155.92C88.809 159.42 89.4991 163 90.0591 166.55C90.3091 168.14 91.679 169.27 93.239 169.27C93.409 169.27 93.579 169.26 93.739 169.23C95.499 168.95 96.6989 167.3 96.4189 165.54C95.8389 161.84 95.119 158.11 94.279 154.47L94.289 154.48Z" fill="#383434"/>
<path d="M81.9502 375.63L83.0403 364.63C83.2203 362.86 81.9202 361.28 80.1502 361.1C78.3802 360.92 76.8004 362.22 76.6204 363.99L75.5303 374.99C75.3503 376.76 76.6502 378.34 78.4202 378.52C78.5302 378.53 78.6403 378.54 78.7403 378.54C80.3803 378.54 81.7802 377.3 81.9402 375.63H81.9502Z" fill="#383434"/>
<path d="M58.8899 208.91C55.0099 207.99 50.7898 207.87 46.6298 208.57C44.8698 208.87 43.69 210.53 43.99 212.28C44.29 214.04 45.9399 215.22 47.7099 214.92C51.0099 214.36 54.3599 214.45 57.3999 215.17C57.6499 215.23 57.8999 215.26 58.1499 215.26C59.6099 215.26 60.93 214.26 61.28 212.78C61.69 211.05 60.6199 209.31 58.8899 208.9V208.91Z" fill="#383434"/>
<path d="M88.5206 309.63L89.6106 298.63C89.7906 296.86 88.4905 295.28 86.7205 295.1C84.9505 294.92 83.3705 296.22 83.1905 297.99L82.1006 308.99C81.9206 310.76 83.2205 312.34 84.9905 312.52C85.1005 312.53 85.2106 312.54 85.3106 312.54C86.9506 312.54 88.3506 311.3 88.5106 309.63H88.5206Z" fill="#383434"/>
<path d="M32.5295 250.46C31.4095 251.84 31.6195 253.87 33.0095 254.99C36.2395 257.61 39.9996 259.58 43.8596 260.69C44.1596 260.78 44.4595 260.82 44.7495 260.82C46.1495 260.82 47.4396 259.9 47.8496 258.49C48.3396 256.78 47.3594 254.99 45.6494 254.5C42.5994 253.62 39.6396 252.06 37.0696 249.98C35.6896 248.86 33.6595 249.07 32.5395 250.46H32.5295Z" fill="#383434"/>
<path d="M22.2795 233.3C22.2795 233.54 22.2695 233.78 22.2695 234.02C22.2695 237.94 23.2495 241.81 25.1895 245.52C25.7595 246.62 26.8896 247.25 28.0496 247.25C28.5496 247.25 29.0596 247.13 29.5396 246.88C31.1196 246.06 31.7294 244.11 30.9094 242.53C29.4594 239.75 28.7295 236.89 28.7295 234.02C28.7295 233.84 28.7295 233.67 28.7295 233.49C28.7795 231.71 27.3796 230.22 25.6096 230.17C23.8496 230.13 22.3396 231.52 22.2896 233.3H22.2795Z" fill="#383434"/>
<path d="M35.1901 212.76C31.4801 214.98 28.3601 217.91 26.1601 221.24C25.1801 222.73 25.5902 224.73 27.0702 225.71C27.6202 226.07 28.2302 226.25 28.8502 226.25C29.9002 226.25 30.9202 225.74 31.5402 224.8C33.2102 222.27 35.6202 220.02 38.5102 218.3C40.0402 217.39 40.5403 215.41 39.6203 213.88C38.7103 212.35 36.7201 211.86 35.2001 212.77L35.1901 212.76Z" fill="#383434"/>
<path d="M90.71 287.63C91.06 284.1 91.43 280.33 91.7 276.54C91.83 274.76 90.5 273.22 88.72 273.09C86.95 272.97 85.4001 274.29 85.2701 276.07C85.0001 279.79 84.6401 283.51 84.2901 287C84.1101 288.77 85.41 290.35 87.18 290.53C87.29 290.54 87.4001 290.55 87.5001 290.55C89.1401 290.55 90.54 289.31 90.7 287.64L90.71 287.63Z" fill="#383434"/>
<path d="M92.1796 264.639C92.1796 260.789 91.9995 257.279 91.6395 253.889C91.4495 252.119 89.8597 250.839 88.0897 251.029C86.3197 251.219 85.0396 252.809 85.2296 254.579C85.5696 257.739 85.7296 261.029 85.7296 264.639V265.249C85.7296 267.029 87.1596 268.479 88.9396 268.489H88.9496C90.7196 268.489 92.1696 267.059 92.1696 265.279V264.639H92.1796Z" fill="#383434"/>
<path d="M55.3195 255.18C53.5495 255.39 52.2894 257 52.4994 258.77C52.6994 260.41 54.0894 261.61 55.6994 261.61C55.8294 261.61 55.9595 261.61 56.0895 261.59C59.9795 261.12 63.8693 259.98 67.6393 258.2C69.2493 257.44 69.9394 255.52 69.1794 253.91C68.4194 252.3 66.4993 251.61 64.8893 252.37C61.7493 253.86 58.5295 254.81 55.3295 255.19L55.3195 255.18Z" fill="#383434"/>
<path d="M69.9706 213.82C68.4906 212.84 66.4906 213.24 65.5006 214.73C64.5206 216.21 64.9205 218.21 66.4105 219.2C69.1205 221 71.6505 223.27 73.9205 225.96C74.5605 226.71 75.4705 227.1 76.3805 227.1C77.1205 227.1 77.8606 226.85 78.4606 226.34C79.8206 225.19 79.9907 223.16 78.8407 221.8C76.1707 218.64 73.1906 215.96 69.9706 213.83V213.82Z" fill="#383434"/>
<path d="M98.0794 431.34C87.6994 433.74 78.8093 440.74 72.7993 449.6C72.3893 449.34 71.9092 449.15 71.3892 449.1C69.8792 448.95 68.5494 449.86 68.0594 451.21C61.1894 440.44 48.1792 433.75 35.4092 434.81C21.3992 435.97 8.61918 446.38 4.62918 459.85C-1.09082 479.18 10.6193 499.5 25.0393 513.59C39.4593 527.67 57.1592 538.67 68.6992 555.19C96.9492 542.42 117.599 517.63 130.099 489.19C136.559 474.5 140.529 456.4 131.429 443.19C124.319 432.87 110.289 428.51 98.0894 431.34H98.0794Z" fill="#E76A70"/>
<path d="M126.98 0.299805C100.33 26.3498 78.88 57.6998 64.25 91.9798C47.66 65.3998 25.8499 42.0798 0.419922 23.7698C11.1999 64.4898 14.5899 107.15 10.3899 149.07C34.5399 145.49 58.6901 141.91 82.8301 138.34C83.6701 140.7 84.48 143.07 85.21 145.47C85.63 146.86 86.91 147.76 88.29 147.76C88.6 147.76 88.92 147.71 89.23 147.62C90.93 147.1 91.8899 145.3 91.3799 143.6C90.7499 141.52 90.0601 139.45 89.3401 137.39C106.46 134.85 123.58 132.32 140.7 129.78C141.98 82.6598 137.31 40.7698 126.98 0.319824V0.299805Z" fill="#383434"/>
</svg>
