<svg width="226" height="256" viewBox="0 0 226 256" fill="none" xmlns="http://www.w3.org/2000/svg">
<path d="M37.4549 118.46C37.4549 118.46 29.7949 102.03 26.9749 104.37C26.0749 105.11 22.5749 110.89 22.5749 110.89C22.5749 110.89 13.8349 105.15 12.3749 106.5C10.9149 107.85 21.2649 121.08 23.3449 120.34C25.4249 119.6 28.4849 114.68 28.4849 114.68C28.4849 114.68 36.6049 121.04 37.4649 118.46H37.4549Z" fill="#DCBB20"/>
<path d="M177.084 27.84C177.084 27.84 191.104 16.35 188.134 14.2C187.194 13.52 180.724 11.55 180.724 11.55C180.724 11.55 184.124 1.65998 182.454 0.579977C180.784 -0.500023 170.524 12.8 171.764 14.64C173.004 16.48 178.524 18.22 178.524 18.22C178.524 18.22 174.374 27.66 177.084 27.85V27.84Z" fill="#DCBB20"/>
<path d="M199.945 188.69C199.945 188.69 218.065 189.16 217.225 185.59C216.955 184.46 213.355 178.74 213.355 178.74C213.355 178.74 222.395 173.48 221.835 171.56C221.275 169.64 204.815 173.01 204.555 175.21C204.295 177.41 207.335 182.34 207.335 182.34C207.335 182.34 198.025 186.77 199.955 188.69H199.945Z" fill="#DCBB20"/>
<path d="M109.534 89.8499H109.524C107.614 89.8499 106.074 88.2799 106.084 86.3799C106.084 84.4799 107.644 82.9399 109.544 82.9399C110.484 82.9399 111.354 83.3099 112.004 83.9599C112.654 84.6199 113.014 85.4899 113.004 86.4099C113.004 88.3099 111.444 89.8499 109.544 89.8499H109.534ZM109.544 83.9299C108.184 83.9299 107.084 85.0299 107.074 86.3799C107.074 87.7399 108.164 88.8399 109.524 88.8499V89.3499L109.534 88.8499C110.884 88.8499 111.984 87.7499 111.994 86.3999C111.994 85.7399 111.744 85.1299 111.284 84.6599C110.824 84.1899 110.204 83.9399 109.554 83.9299H109.544Z" fill="#261D2A"/>
<path d="M72.8153 168.11H72.8053C70.8953 168.11 69.3553 166.54 69.3653 164.64C69.3653 162.74 70.9253 161.2 72.8253 161.2C73.7653 161.2 74.6353 161.57 75.2853 162.22C75.9353 162.88 76.2953 163.75 76.2853 164.67C76.2853 166.57 74.7253 168.11 72.8253 168.11H72.8153ZM72.8253 162.19C71.4653 162.19 70.3653 163.29 70.3553 164.64C70.3553 166 71.4453 167.1 72.8053 167.11V167.61L72.8153 167.11C74.1653 167.11 75.2653 166.01 75.2753 164.66C75.2753 164 75.0253 163.39 74.5653 162.92C74.1053 162.45 73.4853 162.2 72.8353 162.19H72.8253Z" fill="#261D2A"/>
<path d="M221.815 222.11H221.805C219.895 222.11 218.355 220.54 218.365 218.64C218.365 216.74 219.925 215.2 221.825 215.2C222.765 215.2 223.635 215.57 224.285 216.22C224.935 216.88 225.295 217.75 225.285 218.67C225.285 220.57 223.725 222.11 221.825 222.11H221.815ZM221.825 216.19C220.465 216.19 219.365 217.29 219.355 218.64C219.355 220 220.445 221.1 221.805 221.11V221.61L221.815 221.11C223.165 221.11 224.265 220.01 224.275 218.66C224.275 218 224.025 217.39 223.565 216.92C223.105 216.45 222.485 216.2 221.835 216.19H221.825Z" fill="#261D2A"/>
<path d="M25.534 74.8499H25.524C23.614 74.8499 22.074 73.2799 22.084 71.3799C22.084 69.4799 23.644 67.9399 25.544 67.9399C26.484 67.9399 27.354 68.3099 28.004 68.9599C28.654 69.6199 29.014 70.4899 29.004 71.4099C29.004 73.3099 27.444 74.8499 25.544 74.8499H25.534ZM25.544 68.9299C24.184 68.9299 23.084 70.0299 23.074 71.3799C23.074 72.7399 24.164 73.8399 25.524 73.8499V74.3499L25.534 73.8499C26.884 73.8499 27.984 72.7499 27.994 71.3999C27.994 70.7399 27.744 70.1299 27.284 69.6599C26.824 69.1899 26.204 68.9399 25.554 68.9299H25.544Z" fill="#261D2A"/>
<path d="M125.264 112.31C125.134 112.31 125.004 112.27 124.884 112.19C124.284 111.8 122.684 109.97 121.644 108.74C119.334 109.62 117.794 110.05 116.954 110.05C116.284 110.05 116.024 109.76 115.924 109.52C115.864 109.37 115.874 109.2 115.964 109.07C115.974 109.05 117.134 107.17 118.584 104.96C115.394 100.86 115.544 100.53 115.694 100.21C115.774 100.04 116.004 99.9 116.194 99.89C116.714 99.89 119.504 100.55 121.294 100.99C123.644 97.73 124.304 97.45 124.734 97.45C124.964 97.45 125.174 97.56 125.294 97.75C125.674 98.32 125.934 100.45 126.094 102.26C130.744 103.59 130.774 103.93 130.814 104.33C130.834 104.52 130.744 104.77 130.464 104.91C130.444 104.91 128.674 105.77 126.354 106.79C126.454 111.38 125.964 111.89 125.774 112.08C125.634 112.22 125.464 112.3 125.274 112.3L125.264 112.31ZM122.624 108.37C123.894 109.86 124.704 110.73 125.134 111.12C125.254 110.61 125.374 109.44 125.344 107.24C124.364 107.66 123.454 108.04 122.624 108.37ZM119.224 105.8C118.324 107.17 117.564 108.38 117.144 109.05C117.694 109 118.794 108.75 120.964 107.94C120.384 107.24 119.794 106.51 119.234 105.8H119.224ZM119.804 104.92C120.494 105.8 121.224 106.7 121.944 107.56C122.954 107.16 124.084 106.69 125.314 106.16C125.284 105.15 125.224 104.08 125.144 103.05C124.024 102.74 122.844 102.43 121.704 102.14C121.134 102.95 120.494 103.88 119.804 104.92ZM126.164 103.34C126.224 104.13 126.264 104.94 126.294 105.72C127.564 105.16 128.634 104.66 129.294 104.36C128.784 104.16 127.854 103.83 126.164 103.34ZM116.944 101.03C117.294 101.59 117.974 102.56 119.154 104.09C119.694 103.29 120.194 102.55 120.664 101.88C118.944 101.46 117.694 101.17 116.954 101.03H116.944ZM122.324 101.27C123.234 101.5 124.154 101.75 125.044 101.99C124.874 100.17 124.684 99.08 124.544 98.59C124.274 98.82 123.634 99.47 122.324 101.27Z" fill="#261D2A"/>
<path d="M210.875 125.88C210.595 125.88 210.375 125.65 210.375 125.38L210.425 116.96C210.425 116.68 210.655 116.46 210.925 116.46C211.205 116.46 211.425 116.69 211.425 116.96L211.375 125.38C211.375 125.66 211.145 125.88 210.875 125.88Z" fill="#261D2A"/>
<path d="M207.485 124.04C207.325 124.04 207.175 123.97 207.075 123.83C206.915 123.6 206.975 123.29 207.195 123.13L214.145 118.29C214.365 118.13 214.685 118.19 214.845 118.41C215.005 118.64 214.945 118.95 214.725 119.11L207.775 123.95C207.685 124.01 207.585 124.04 207.485 124.04Z" fill="#261D2A"/>
<path d="M213.584 124.39C213.454 124.39 213.324 124.34 213.224 124.23L207.974 118.68C207.784 118.48 207.794 118.16 207.994 117.97C208.194 117.78 208.514 117.79 208.704 117.99L213.954 123.54C214.144 123.74 214.134 124.06 213.934 124.25C213.834 124.34 213.714 124.39 213.594 124.39H213.584Z" fill="#261D2A"/>
<path d="M206.535 121.58C206.265 121.58 206.035 121.36 206.035 121.08C206.035 120.8 206.255 120.58 206.535 120.58L214.625 120.5C214.905 120.5 215.125 120.72 215.125 121C215.125 121.28 214.905 121.5 214.625 121.5L206.535 121.58Z" fill="#261D2A"/>
<path d="M64.875 184.54C64.595 184.54 64.375 184.31 64.375 184.04L64.425 175.62C64.425 175.34 64.655 175.12 64.925 175.12C65.205 175.12 65.425 175.35 65.425 175.62L65.375 184.04C65.375 184.32 65.145 184.54 64.875 184.54Z" fill="#261D2A"/>
<path d="M61.4848 182.71C61.3248 182.71 61.1748 182.64 61.0748 182.5C60.9148 182.27 60.9748 181.96 61.1948 181.8L68.1448 176.96C68.3648 176.8 68.6848 176.86 68.8448 177.08C69.0048 177.31 68.9448 177.62 68.7248 177.78L61.7748 182.62C61.6848 182.68 61.5848 182.71 61.4848 182.71Z" fill="#261D2A"/>
<path d="M67.5844 183.06C67.4544 183.06 67.3243 183.01 67.2243 182.9L61.9743 177.35C61.7843 177.15 61.7944 176.83 61.9944 176.64C62.1944 176.45 62.5144 176.46 62.7044 176.66L67.9544 182.21C68.1444 182.41 68.1344 182.73 67.9344 182.92C67.8344 183.01 67.7144 183.06 67.5944 183.06H67.5844Z" fill="#261D2A"/>
<path d="M60.5352 180.25C60.2652 180.25 60.0352 180.03 60.0352 179.75C60.0352 179.47 60.2552 179.25 60.5352 179.25L68.6252 179.17C68.9052 179.17 69.1252 179.39 69.1252 179.67C69.1252 179.95 68.9052 180.17 68.6252 180.17L60.5352 180.25Z" fill="#261D2A"/>
<path d="M14.2554 16.78C14.2554 16.78 28.7554 5.21003 36.3654 4.10003C43.9754 2.99003 50.7954 23.13 52.3454 23.56C53.8954 23.99 59.3354 24.52 58.2054 25.79C57.0754 27.06 32.1954 43.99 27.4654 43.58C22.7354 43.17 7.96538 21.55 14.2454 16.78H14.2554Z" fill="#A27298"/>
<path d="M24.666 32.8201C26.1848 32.8201 27.416 31.5889 27.416 30.0701C27.416 28.5513 26.1848 27.3201 24.666 27.3201C23.1472 27.3201 21.916 28.5513 21.916 30.0701C21.916 31.5889 23.1472 32.8201 24.666 32.8201Z" fill="#FCFDFF"/>
<path d="M33.4453 27.05C34.9641 27.05 36.1953 25.8188 36.1953 24.3C36.1953 22.7813 34.9641 21.55 33.4453 21.55C31.9265 21.55 30.6953 22.7813 30.6953 24.3C30.6953 25.8188 31.9265 27.05 33.4453 27.05Z" fill="#FCFDFF"/>
<path d="M41.1562 21.9401C42.675 21.9401 43.9062 20.7088 43.9062 19.1901C43.9062 17.6713 42.675 16.4401 41.1562 16.4401C39.6375 16.4401 38.4062 17.6713 38.4062 19.1901C38.4062 20.7088 39.6375 21.9401 41.1562 21.9401Z" fill="#FCFDFF"/>
<path d="M217.225 206.3C216.855 206.3 216.505 206.3 215.535 202.42C212.245 201.79 211.965 201.41 211.865 201.27C211.775 201.15 211.735 200.92 211.775 200.77C211.835 200.56 211.975 200.07 215.725 198.56C217.075 195.04 217.535 195.04 217.835 195.04C217.995 195.04 218.215 195.15 218.305 195.28C218.545 195.6 218.765 196.45 219.095 197.79C219.195 198.21 219.325 198.72 219.395 198.95C219.595 199.04 220.025 199.19 220.395 199.32C222.325 200.01 222.825 200.25 222.915 200.71C222.945 200.88 222.865 201.14 222.725 201.25C222.335 201.6 220.465 202.29 219.485 202.64C217.895 206.26 217.555 206.28 217.255 206.29C217.255 206.29 217.235 206.29 217.225 206.29V206.3ZM213.135 200.84C213.795 201.03 214.995 201.3 216.035 201.5C216.225 201.54 216.385 201.68 216.425 201.87C216.695 202.95 217.045 204.19 217.295 204.89C217.655 204.23 218.215 203.07 218.655 202.05C218.715 201.92 218.815 201.82 218.945 201.78C219.835 201.47 220.845 201.08 221.475 200.8C221.035 200.61 220.435 200.4 220.055 200.26C218.945 199.86 218.745 199.78 218.595 199.59C218.475 199.42 218.395 199.15 218.115 198.03C218.015 197.61 217.855 196.97 217.715 196.49C217.385 197.11 216.925 198.18 216.575 199.12C216.525 199.25 216.425 199.36 216.295 199.41C215.135 199.87 213.815 200.46 213.125 200.85L213.135 200.84Z" fill="#261D2A"/>
<path d="M33.8952 61.64C33.5252 61.64 33.1752 61.64 32.2052 57.76C28.9152 57.13 28.6252 56.74 28.5352 56.61C28.4452 56.49 28.4052 56.26 28.4452 56.11C28.5052 55.9 28.6452 55.41 32.3952 53.9C33.7452 50.38 34.2052 50.38 34.5052 50.38C34.6652 50.38 34.8852 50.49 34.9752 50.62C35.2152 50.94 35.4352 51.79 35.7652 53.13C35.8652 53.55 35.9952 54.06 36.0652 54.29C36.2652 54.38 36.6952 54.53 37.0552 54.66C38.9852 55.35 39.4852 55.59 39.5752 56.05C39.6052 56.22 39.5252 56.48 39.3952 56.59C39.0052 56.94 37.1352 57.64 36.1552 57.98C34.5652 61.6 34.2252 61.62 33.9252 61.63C33.9252 61.63 33.9052 61.63 33.8952 61.63V61.64ZM29.8052 56.18C30.4652 56.37 31.6652 56.64 32.7052 56.84C32.8952 56.88 33.0552 57.02 33.0952 57.21C33.3652 58.29 33.7152 59.53 33.9652 60.23C34.3252 59.57 34.8852 58.41 35.3252 57.39C35.3852 57.26 35.4852 57.16 35.6152 57.12C36.5052 56.81 37.5152 56.42 38.1452 56.14C37.7052 55.95 37.1052 55.74 36.7152 55.6C35.6152 55.2 35.4052 55.12 35.2652 54.93C35.1452 54.76 35.0652 54.49 34.7852 53.37C34.6852 52.95 34.5252 52.31 34.3852 51.83C34.0552 52.46 33.5952 53.52 33.2452 54.46C33.1952 54.59 33.0952 54.7 32.9652 54.75C31.8052 55.21 30.4852 55.8 29.7952 56.19L29.8052 56.18Z" fill="#261D2A"/>
<path d="M79.035 19.06C77.395 19.06 64.825 4.05 63.425 1.81C63.095 1.29 62.955 0.940001 63.105 0.630001C63.125 0.590001 63.145 0.56 63.175 0.53C63.205 0.49 63.235 0.46 63.275 0.43C63.455 0.29 63.825 0 68.615 0C71.495 0 86.415 0.31 87.685 1.76C87.815 1.91 87.875 2.1 87.855 2.29C87.625 3.93 83.795 6.21 83.025 6.66C82.905 6.73 82.765 6.75 82.625 6.7C77.215 5.01 69.485 2.68 65.755 1.73C68.935 3.54 75.585 6.97 80.085 9.23C80.245 9.31 80.355 9.48 80.365 9.66C80.615 18.75 79.515 18.97 79.155 19.05C79.125 19.05 79.035 19.05 79.035 19.06ZM65.105 2.49C68.205 6.64 77.135 16.72 78.935 17.96C79.315 17.03 79.465 13.31 79.385 9.99C71.235 5.89 67.155 3.7 65.105 2.49ZM66.945 1.01C71.925 2.33 80.795 5.08 82.725 5.68C84.315 4.74 86.435 3.21 86.815 2.34C85.385 1.67 76.385 0.99 68.625 0.99C67.985 0.99 67.425 0.99 66.945 1V1.01Z" fill="#261D2A"/>
<path d="M83.2051 14.88C82.1651 14.88 80.1751 13.47 79.5651 13.02C79.3451 12.86 79.2951 12.54 79.4551 12.32C79.6251 12.1 79.9351 12.05 80.1551 12.22C81.3351 13.09 82.6351 13.82 83.0951 13.88C83.2151 13.13 82.7951 9.53999 82.2851 6.49999C82.2451 6.22999 82.4251 5.96999 82.6951 5.91999C82.9751 5.86999 83.2251 6.05999 83.2751 6.32999C83.8351 9.68999 84.3951 13.85 83.8851 14.55C83.7951 14.67 83.6351 14.82 83.3451 14.87C83.2951 14.87 83.2451 14.88 83.1951 14.88H83.2051Z" fill="#261D2A"/>
<path d="M53.4255 255.44C53.2455 255.44 35.2955 255.28 34.5755 253.9C34.4055 253.57 33.8855 252.57 41.1055 247.05C41.2555 246.94 41.4455 246.92 41.6155 246.99C46.1955 249.06 53.0555 252.08 56.4655 253.41C53.3555 251.09 46.5655 246.47 41.9855 243.42C41.8655 243.34 41.7955 243.22 41.7655 243.08C41.6255 242.21 40.9855 237.79 42.1155 236.58C42.2355 236.45 42.4155 236.37 42.6055 236.37C44.6455 236.37 57.5655 251.59 58.9155 254.2C58.9555 254.25 58.9855 254.31 59.0055 254.37C59.0155 254.41 59.0255 254.45 59.0255 254.49V254.51C59.0255 254.54 59.0255 254.58 59.0255 254.61C59.0255 254.61 59.0255 254.61 59.0255 254.62C59.0255 254.67 59.0055 254.71 58.9855 254.76C58.8255 255.11 58.6855 255.42 53.4255 255.42V255.44ZM35.5655 253.4C37.2555 253.89 46.5655 254.45 53.4255 254.45C54.6455 254.45 55.5655 254.43 56.2455 254.4C52.1855 252.85 43.9655 249.16 41.4755 248.04C38.8455 250.07 36.0455 252.52 35.5555 253.41L35.5655 253.4ZM42.7255 242.72C47.7655 246.08 53.4455 249.93 56.5955 252.29C53.0555 247.63 44.2555 238.32 42.7455 237.45C42.3155 238.31 42.4555 240.9 42.7355 242.72H42.7255Z" fill="#261D2A"/>
<path d="M39.135 249.81C39.135 249.81 39.055 249.81 39.015 249.79C38.245 249.59 35.695 248.87 35.195 248.01C35.045 247.76 35.065 247.53 35.105 247.39C35.335 246.56 38.915 244.38 41.885 242.7C42.125 242.56 42.425 242.65 42.565 242.89C42.705 243.13 42.615 243.44 42.375 243.57C39.725 245.07 36.725 246.96 36.135 247.6C36.495 247.92 37.865 248.47 39.265 248.83C39.535 248.9 39.695 249.17 39.625 249.44C39.565 249.66 39.365 249.81 39.145 249.81H39.135Z" fill="#261D2A"/>
<path d="M145.775 47.82C145.775 47.82 129.075 77.47 121.775 79.15C117.445 80.15 99.1054 73.48 105.105 60.15C111.105 46.82 95.7754 40.82 85.1054 44.82C74.4354 48.82 56.4354 73.49 58.4354 84.82C60.4354 96.15 69.1054 94.82 79.7654 94.15C90.4254 93.48 95.7654 100.82 95.0954 104.82C94.4254 108.82 79.4254 134.15 71.4254 138.15C66.0354 140.85 49.7554 134.48 46.4254 111.48C45.1754 102.87 36.6954 88.38 40.0954 72.81C45.7654 46.81 70.0954 22.14 103.765 26.14C111.255 27.03 121.885 28.46 128.265 28.64C140.665 28.98 151.765 37.81 145.765 47.81L145.775 47.82Z" fill="#BF5A44"/>
<path d="M57.7762 132.16C57.6562 132.16 57.5361 132.12 57.4461 132.03C57.2361 131.85 57.2262 131.53 57.4062 131.32C66.7062 120.99 84.3962 100.23 84.7762 95.6101C84.7962 95.3301 85.0462 95.1301 85.3162 95.1501C85.5862 95.1701 85.7962 95.4101 85.7762 95.6901C85.2662 101.79 59.2561 130.75 58.1461 131.98C58.0461 132.09 57.9062 132.15 57.7762 132.15V132.16Z" fill="#261D2A"/>
<path d="M107.775 71.66C107.675 71.66 107.575 71.63 107.485 71.57C107.255 71.41 107.205 71.1 107.365 70.87C107.585 70.56 129.395 39.32 132.845 33.4C132.985 33.16 133.295 33.08 133.525 33.22C133.765 33.36 133.845 33.67 133.705 33.9C130.235 39.85 108.405 71.12 108.185 71.43C108.085 71.57 107.935 71.64 107.775 71.64V71.66Z" fill="#261D2A"/>
<path d="M125.775 69.16C125.685 69.16 125.585 69.13 125.505 69.08C125.275 68.93 125.205 68.62 125.355 68.39C125.445 68.26 133.905 55.32 137.855 49.39C138.005 49.16 138.315 49.1 138.545 49.25C138.775 49.4 138.835 49.71 138.685 49.94C134.735 55.87 126.275 68.81 126.185 68.94C126.085 69.09 125.925 69.17 125.765 69.17L125.775 69.16Z" fill="#FCFDFF"/>
<path d="M32.3852 220.03C32.3852 220.03 32.3053 220.03 32.2553 220.03C31.4053 219.99 30.8652 219.51 30.7752 218.71C30.4052 215.36 34.8552 210.91 38.5752 209.9C39.8552 209.55 40.9452 209.67 41.7352 210.21C42.2452 207.57 40.6853 205.52 37.0953 204.11C36.8153 204 36.5352 203.9 36.2652 203.8C33.8152 205.97 30.7352 207.92 27.9752 209.1C25.4952 210.16 24.3753 209.2 24.0053 208.74C23.2053 207.72 23.3752 206.08 24.4252 204.66C26.1252 202.37 30.0252 200.75 36.0152 202.67C37.8752 200.93 39.2053 199.15 39.6253 197.67C39.8753 196.78 39.7852 196.03 39.3652 195.44C39.0052 194.94 38.4852 194.38 37.8552 193.82C34.6652 196.05 30.7452 197.07 28.3252 196.18C27.1052 195.73 25.2053 194.39 26.2853 190.52C26.5853 189.43 27.3452 188.74 28.4652 188.55C30.9852 188.1 35.1253 190.26 37.9053 192.55C39.3453 191.42 40.5853 190.02 41.3153 188.45C41.6253 187.78 41.5953 186.75 41.3153 185.59C37.2653 185.84 32.7452 184.21 30.9652 182.13C29.9752 180.98 29.9652 179.76 30.9252 178.8C32.9052 176.82 35.2852 176.64 37.6352 178.29C39.6052 179.67 41.2652 182.18 42.0552 184.54C43.3252 184.37 44.5152 183.97 45.4852 183.25C46.9052 182.22 46.6952 180.28 46.2652 178.84C45.9952 177.91 45.5552 176.94 45.0252 175.99C41.4252 176.59 38.0152 175.96 36.0852 174.44C34.4652 173.16 34.0153 171.4 34.8153 169.46C35.2753 168.35 36.1353 167.76 37.2853 167.83C39.6953 167.96 43.2752 171.21 45.5152 174.87C47.5752 174.44 49.6652 173.59 51.4852 172.26C53.1252 171.06 53.8053 169.52 53.5053 167.69C53.3253 166.57 52.8052 165.44 52.0752 164.4C48.3652 165.41 44.0152 164.44 42.3252 162.66C41.3352 161.62 41.3752 160.37 42.4252 159.31C43.2952 158.44 44.7153 158.26 46.4053 158.8C48.4353 159.46 50.7752 161.15 52.4252 163.23C53.3552 162.91 54.2152 162.44 54.9452 161.79C56.5552 160.34 56.3853 157.73 55.2853 155.14C54.2153 155.46 52.9852 155.53 51.6352 155.34C47.9352 154.81 44.3453 152.4 43.7853 150.08C43.5253 148.98 43.9552 147.98 44.9852 147.26C47.6452 145.4 51.3653 147.74 53.8753 150.9C54.6153 151.83 55.2653 152.84 55.7853 153.87C56.5653 153.49 57.2952 152.87 57.8352 151.92C58.9552 149.97 58.5153 147.32 57.2553 144.72C54.3253 145.03 50.4452 143.81 47.8352 142.16C44.7752 140.22 43.6552 137.89 44.8352 135.91C45.8252 134.26 47.8653 134.18 50.4353 135.68C53.1453 137.27 56.0352 140.32 57.7952 143.61C58.7052 143.41 59.4253 143.02 59.8453 142.39C60.7253 141.06 58.9652 139.62 55.9552 137.39C53.1652 135.33 50.0053 132.99 49.8753 130.07C49.8053 128.45 50.6353 126.89 52.4353 125.3C52.6353 125.12 52.9552 125.13 53.1452 125.34C53.3252 125.55 53.3052 125.86 53.1052 126.05C51.5552 127.43 50.8252 128.73 50.8852 130.03C50.9952 132.48 53.9552 134.66 56.5552 136.59C59.4352 138.72 62.1652 140.74 60.6852 142.95C60.1452 143.77 59.2952 144.28 58.2652 144.54C59.5552 147.33 59.9652 150.21 58.7052 152.42C58.0952 153.48 57.2552 154.28 56.2052 154.79C57.4552 157.75 57.5752 160.77 55.6052 162.55C54.8552 163.23 53.9753 163.73 53.0353 164.1C53.7653 165.2 54.2952 166.38 54.4852 167.55C54.8452 169.75 54.0053 171.67 52.0653 173.09C50.2053 174.45 48.1153 175.34 46.0353 175.82C46.5353 176.75 46.9452 177.69 47.2052 178.59C47.9452 181.1 47.5452 183 46.0552 184.09C44.9952 184.86 43.7052 185.31 42.3052 185.52C42.6152 186.83 42.6153 188.04 42.2153 188.9C41.4353 190.57 40.1652 192.05 38.6652 193.25C39.2852 193.82 39.7952 194.38 40.1652 194.9C40.7752 195.75 40.9052 196.79 40.5752 197.98C40.1152 199.62 38.8152 201.4 37.0752 203.08C37.1952 203.13 37.3252 203.17 37.4452 203.22C42.6352 205.26 43.1552 208.35 42.6752 210.58C42.6352 210.76 42.5953 210.94 42.5353 211.12C42.6053 211.23 42.6652 211.36 42.7252 211.48C44.5952 215.68 55.2252 217.17 55.3352 217.19C55.6052 217.23 55.8052 217.48 55.7652 217.75C55.7252 218.02 55.4652 218.21 55.2052 218.18C54.7552 218.12 44.6152 216.69 42.0552 212.35C40.1152 216.34 34.9452 220.06 32.3852 220.06V220.03ZM39.9653 210.7C39.6253 210.7 39.2552 210.76 38.8352 210.87C35.6152 211.74 31.4552 215.8 31.7752 218.6C31.7952 218.81 31.8552 219.01 32.3052 219.03C34.3752 219.14 39.9053 215.35 41.4353 211.26C41.0753 210.88 40.5853 210.7 39.9653 210.7ZM31.0353 202.82C28.1753 202.82 26.2352 203.9 25.2252 205.26C24.4652 206.28 24.2753 207.49 24.7853 208.13C25.2553 208.73 26.2752 208.75 27.5752 208.19C30.2852 207.03 32.9852 205.3 35.1452 203.45C33.6152 203.01 32.2453 202.82 31.0353 202.82ZM29.2152 189.49C29.0152 189.49 28.8252 189.51 28.6452 189.54C27.8952 189.67 27.4553 190.07 27.2553 190.8C26.8053 192.43 26.6852 194.52 28.6752 195.26C30.7552 196.03 34.1953 195.12 37.0653 193.17C34.6953 191.28 31.3752 189.5 29.2052 189.5L29.2152 189.49ZM34.4752 178.19C33.5752 178.19 32.6052 178.54 31.6352 179.52C31.2652 179.89 30.8752 180.49 31.7252 181.49C33.1452 183.15 37.2652 184.77 41.0252 184.64C40.2952 182.6 38.8553 180.38 37.0653 179.12C36.3553 178.62 35.4652 178.2 34.4752 178.2V178.19ZM37.1152 168.83C36.4652 168.83 36.0252 169.16 35.7352 169.85C34.9452 171.75 35.8252 172.97 36.6952 173.66C38.3552 174.97 41.3152 175.5 44.4552 175.06C42.3852 171.81 39.2652 168.95 37.2252 168.84C37.1852 168.84 37.1552 168.84 37.1152 168.84V168.83ZM44.6052 159.49C44.0652 159.49 43.5252 159.62 43.1352 160.01C42.4552 160.69 42.4252 161.31 43.0552 161.96C44.3252 163.3 48.0853 164.24 51.4053 163.51C49.9153 161.74 47.8852 160.32 46.1052 159.74C45.7152 159.62 45.1652 159.48 44.6152 159.48L44.6052 159.49ZM47.1452 147.58C46.5752 147.58 46.0453 147.73 45.5653 148.07C44.8553 148.57 44.5952 149.15 44.7652 149.84C45.2152 151.74 48.5652 153.88 51.7752 154.34C52.5852 154.46 53.7253 154.51 54.8453 154.21C54.3653 153.27 53.7652 152.34 53.1052 151.51C51.3952 149.35 49.0953 147.58 47.1553 147.58H47.1452ZM47.2153 135.6C46.6053 135.6 46.0652 135.82 45.7052 136.41C44.4552 138.5 47.1553 140.53 48.3753 141.3C50.8753 142.88 54.2352 143.87 56.7452 143.74C55.0752 140.78 52.4353 138 49.9353 136.54C49.2153 136.12 48.1452 135.6 47.2052 135.6H47.2153Z" fill="#261D2A"/>
<path d="M53.1159 56.49C53.1159 56.49 53.0259 56.49 52.9859 56.47C52.7159 56.4 52.5559 56.13 52.6359 55.86C56.6659 40.75 71.3559 37.04 71.5059 37C71.7759 36.93 72.0459 37.1 72.1059 37.37C72.1759 37.64 72.0059 37.91 71.7359 37.97C71.5959 38 57.4759 41.59 53.6059 56.11C53.5459 56.33 53.3459 56.48 53.1259 56.48L53.1159 56.49Z" fill="#FCFDFF"/>
<path d="M75.6162 35.8199C75.4162 35.8199 75.2262 35.6999 75.1562 35.5099C75.0562 35.2499 75.1762 34.96 75.4362 34.86C77.1362 34.18 81.6962 33.5199 81.8862 33.4999C82.1562 33.4599 82.4162 33.6499 82.4562 33.9199C82.4962 34.1899 82.3062 34.4499 82.0362 34.4899C81.9862 34.4899 77.4062 35.16 75.8162 35.79C75.7562 35.81 75.6962 35.8299 75.6262 35.8299L75.6162 35.8199Z" fill="#FCFDFF"/>
<path d="M79.9458 122.49C79.8258 122.49 79.7158 122.45 79.6158 122.37C79.4058 122.19 79.3858 121.87 79.5658 121.66C83.4858 117.08 88.7958 107.83 88.8458 107.74C88.9858 107.5 89.2958 107.42 89.5258 107.55C89.7658 107.69 89.8458 107.99 89.7158 108.23C89.6658 108.32 84.3158 117.66 80.3258 122.31C80.2258 122.43 80.0858 122.48 79.9458 122.48V122.49Z" fill="#FCFDFF"/>
<path d="M72.6148 130.16C72.4448 130.16 72.2748 130.07 72.1848 129.92C72.0448 129.68 72.1148 129.38 72.3548 129.23C73.2448 128.7 75.6548 127.04 76.1448 125.81C76.2448 125.55 76.5348 125.43 76.7948 125.53C77.0548 125.63 77.1748 125.92 77.0748 126.18C76.3648 127.95 73.2248 129.88 72.8648 130.09C72.7848 130.14 72.6948 130.16 72.6048 130.16H72.6148Z" fill="#FCFDFF"/>
<path d="M141.275 46.16C141.175 46.16 141.075 46.13 140.985 46.07C140.755 45.91 140.705 45.6 140.865 45.37C140.885 45.34 143.085 42.16 142.775 39.72C142.745 39.45 142.935 39.2 143.205 39.16C143.455 39.13 143.725 39.32 143.765 39.59C144.115 42.42 141.775 45.8 141.675 45.94C141.575 46.08 141.425 46.15 141.265 46.15L141.275 46.16Z" fill="#FCFDFF"/>
<path d="M114.115 31.66C113.935 31.66 113.765 31.56 113.675 31.39C113.265 30.61 111.475 30.6 110.875 30.65C110.625 30.68 110.355 30.48 110.335 30.2C110.305 29.93 110.515 29.68 110.785 29.66C111.085 29.63 113.775 29.42 114.565 30.92C114.695 31.16 114.605 31.47 114.355 31.6C114.275 31.64 114.205 31.66 114.125 31.66H114.115Z" fill="#261D2A"/>
<path d="M116.525 34.16C116.345 34.16 116.175 34.06 116.085 33.89C115.675 33.11 113.885 33.1 113.285 33.15C113.025 33.18 112.765 32.98 112.745 32.7C112.715 32.43 112.925 32.18 113.195 32.16C113.495 32.13 116.185 31.92 116.975 33.42C117.105 33.66 117.015 33.97 116.765 34.1C116.685 34.14 116.615 34.16 116.535 34.16H116.525Z" fill="#261D2A"/>
<path d="M100.125 28.72C99.985 28.72 99.845 28.66 99.745 28.54C99.245 27.95 97.605 28.3 96.895 28.56C96.635 28.66 96.345 28.52 96.255 28.26C96.165 28 96.295 27.71 96.555 27.62C96.845 27.51 99.435 26.61 100.515 27.89C100.695 28.1 100.665 28.42 100.455 28.59C100.365 28.67 100.245 28.71 100.135 28.71L100.125 28.72Z" fill="#261D2A"/>
<path d="M106.484 29.3C106.334 29.3 106.194 29.23 106.094 29.11C105.614 28.5 103.964 28.77 103.234 29C102.974 29.09 102.694 28.94 102.604 28.68C102.524 28.42 102.664 28.14 102.934 28.05C103.224 27.96 105.834 27.17 106.874 28.49C107.044 28.71 107.004 29.02 106.794 29.19C106.704 29.26 106.594 29.3 106.484 29.3Z" fill="#261D2A"/>
<path d="M103.846 32.05C103.696 32.05 103.556 31.98 103.456 31.86C102.976 31.25 101.326 31.52 100.606 31.75C100.346 31.83 100.066 31.69 99.9755 31.43C99.8955 31.17 100.036 30.89 100.306 30.8C100.596 30.71 103.216 29.92 104.246 31.24C104.416 31.46 104.376 31.77 104.166 31.94C104.076 32.01 103.966 32.05 103.856 32.05H103.846Z" fill="#261D2A"/>
<path d="M110.595 33.66C110.415 33.66 110.245 33.56 110.155 33.39C109.745 32.61 107.955 32.6 107.355 32.65C107.105 32.68 106.835 32.48 106.815 32.2C106.785 31.93 106.995 31.68 107.265 31.66C107.565 31.63 110.255 31.42 111.045 32.92C111.175 33.16 111.085 33.47 110.835 33.6C110.755 33.64 110.685 33.66 110.605 33.66H110.595Z" fill="#261D2A"/>
<path d="M43.4853 89.0401C43.3253 89.0401 43.1753 88.9701 43.0753 88.8301C42.8953 88.5801 41.3853 86.3501 42.2953 84.9201C42.4453 84.6901 42.7553 84.6201 42.9853 84.7701C43.2153 84.9201 43.2853 85.2301 43.1353 85.4601C42.6653 86.2001 43.5453 87.7701 43.8853 88.2601C44.0453 88.4901 43.9853 88.8001 43.7653 88.9601C43.6753 89.0201 43.5753 89.0501 43.4753 89.0501L43.4853 89.0401Z" fill="#261D2A"/>
<path d="M44.456 85.71C44.296 85.71 44.146 85.64 44.046 85.5C43.866 85.25 42.356 83.02 43.266 81.59C43.416 81.36 43.726 81.29 43.956 81.44C44.186 81.59 44.256 81.9 44.106 82.13C43.636 82.87 44.516 84.44 44.856 84.93C45.016 85.16 44.956 85.47 44.736 85.63C44.646 85.69 44.546 85.72 44.446 85.72L44.456 85.71Z" fill="#261D2A"/>
<path d="M48.6961 102.31C48.5861 102.31 48.4662 102.27 48.3762 102.19C48.1362 101.99 46.0762 100.19 46.6462 98.6199C46.7362 98.3599 47.0262 98.2299 47.2862 98.3199C47.5462 98.4099 47.6762 98.6999 47.5862 98.9599C47.3262 99.6899 48.4362 100.94 49.0262 101.43C49.2362 101.61 49.2662 101.92 49.0862 102.13C48.9862 102.25 48.8461 102.31 48.7061 102.31H48.6961Z" fill="#261D2A"/>
<path d="M45.9059 96.57C45.7859 96.57 45.6659 96.53 45.5659 96.44C45.3359 96.23 43.3559 94.35 43.9959 92.8C44.0959 92.54 44.3859 92.42 44.6459 92.52C44.9059 92.62 45.0259 92.92 44.9159 93.17C44.5959 93.95 45.7959 95.29 46.2359 95.7C46.4359 95.89 46.4559 96.2 46.2659 96.41C46.1659 96.52 46.0359 96.57 45.8959 96.57H45.9059Z" fill="#261D2A"/>
<path d="M49.5954 97.49C49.4754 97.49 49.3554 97.45 49.2554 97.36C49.0254 97.15 47.0454 95.27 47.6854 93.72C47.7854 93.46 48.0753 93.34 48.3353 93.44C48.5953 93.54 48.7153 93.84 48.6053 94.09C48.3153 94.81 49.3653 96.11 49.9253 96.62C50.1253 96.81 50.1453 97.12 49.9553 97.33C49.8553 97.44 49.7253 97.49 49.5853 97.49H49.5954Z" fill="#261D2A"/>
<path d="M46.9658 91.1C46.8058 91.1 46.6558 91.03 46.5558 90.89C46.3758 90.64 44.8658 88.41 45.7758 86.98C45.9258 86.75 46.2358 86.68 46.4658 86.83C46.6958 86.98 46.7658 87.29 46.6158 87.52C46.1458 88.26 47.0258 89.83 47.3658 90.32C47.5258 90.55 47.4658 90.86 47.2458 91.02C47.1558 91.08 47.0558 91.11 46.9558 91.11L46.9658 91.1Z" fill="#261D2A"/>
<path d="M91.115 129.64C91.115 129.64 113.115 126.86 114.445 129.64C115.775 132.42 111.115 144.27 121.775 145.66C132.435 147.05 150.605 147.13 151.275 143.66C151.945 140.19 147.775 127.85 153.775 127.16C159.775 126.47 176.605 125.38 177.275 128.16C177.945 130.94 180.965 172.99 188.445 188.69C196.445 205.49 207.775 205.16 209.115 206.82C214.045 212.99 212.445 238.71 209.785 240.79C207.125 242.87 61.785 241.24 57.785 239.15C53.785 237.06 53.785 212.96 56.455 209.48C59.125 206 80.455 196.32 87.125 175.48C93.795 154.64 85.125 130.32 91.125 129.63L91.115 129.64Z" fill="#BF5A44"/>
<path d="M63.1152 214.66C62.8352 214.66 62.6152 214.44 62.6152 214.16C62.6152 213.88 62.8352 213.66 63.1152 213.66C64.2552 213.66 177.395 213.62 204.385 210.33C204.655 210.29 204.905 210.49 204.945 210.77C204.975 211.04 204.785 211.29 204.505 211.33C177.455 214.63 64.2552 214.67 63.1152 214.67V214.66Z" fill="#261D2A"/>
<path d="M134.775 208.82C150.792 208.82 163.775 195.836 163.775 179.82C163.775 163.804 150.792 150.82 134.775 150.82C118.759 150.82 105.775 163.804 105.775 179.82C105.775 195.836 118.759 208.82 134.775 208.82Z" fill="#FEFFFF"/>
<path d="M134.445 193.49C142.547 193.49 149.115 186.922 149.115 178.82C149.115 170.718 142.547 164.15 134.445 164.15C126.343 164.15 119.775 170.718 119.775 178.82C119.775 186.922 126.343 193.49 134.445 193.49Z" fill="#BF5A44"/>
<path d="M135.444 190.74C129.084 190.74 123.904 185.56 123.904 179.2C123.904 172.84 129.084 167.66 135.444 167.66C141.804 167.66 146.984 172.84 146.984 179.2C146.984 185.56 141.804 190.74 135.444 190.74ZM135.444 168.66C129.634 168.66 124.904 173.39 124.904 179.2C124.904 185.01 129.634 189.74 135.444 189.74C141.254 189.74 145.984 185.01 145.984 179.2C145.984 173.39 141.254 168.66 135.444 168.66Z" fill="#261D2A"/>
<path d="M161.025 199.16C160.925 199.16 160.815 199.13 160.735 199.07L148.235 190.07C148.115 189.98 148.035 189.84 148.025 189.69C148.025 189.54 148.075 189.39 148.185 189.29L151.185 186.54C151.345 186.39 151.585 186.37 151.775 186.48L164.275 193.73C164.395 193.8 164.485 193.92 164.515 194.05C164.545 194.18 164.515 194.33 164.445 194.44L161.445 198.94C161.365 199.05 161.255 199.13 161.115 199.15C161.085 199.15 161.055 199.15 161.025 199.15V199.16ZM149.315 189.61L160.895 197.95L163.315 194.32L151.595 187.52L149.315 189.61Z" fill="#261D2A"/>
<path d="M137.525 206.82C134.035 206.82 131.195 203.98 131.195 200.49C131.195 197 134.035 194.16 137.525 194.16C141.015 194.16 143.855 197 143.855 200.49C143.855 203.98 141.015 206.82 137.525 206.82ZM137.525 195.16C134.585 195.16 132.195 197.55 132.195 200.49C132.195 203.43 134.585 205.82 137.525 205.82C140.465 205.82 142.855 203.43 142.855 200.49C142.855 197.55 140.465 195.16 137.525 195.16Z" fill="#261D2A"/>
<path d="M123.525 203.82C120.035 203.82 117.195 200.98 117.195 197.49C117.195 194 120.035 191.16 123.525 191.16C127.015 191.16 129.855 194 129.855 197.49C129.855 200.98 127.015 203.82 123.525 203.82ZM123.525 192.16C120.585 192.16 118.195 194.55 118.195 197.49C118.195 200.43 120.585 202.82 123.525 202.82C126.465 202.82 128.855 200.43 128.855 197.49C128.855 194.55 126.465 192.16 123.525 192.16Z" fill="#261D2A"/>
<path d="M113.775 193.57C110.285 193.57 107.445 190.73 107.445 187.24C107.445 183.75 110.285 180.91 113.775 180.91C117.265 180.91 120.105 183.75 120.105 187.24C120.105 190.73 117.265 193.57 113.775 193.57ZM113.775 181.91C110.835 181.91 108.445 184.3 108.445 187.24C108.445 190.18 110.835 192.57 113.775 192.57C116.715 192.57 119.105 190.18 119.105 187.24C119.105 184.3 116.715 181.91 113.775 181.91Z" fill="#261D2A"/>
<path d="M114.025 178.07C110.535 178.07 107.695 175.23 107.695 171.74C107.695 168.25 110.535 165.41 114.025 165.41C117.515 165.41 120.355 168.25 120.355 171.74C120.355 175.23 117.515 178.07 114.025 178.07ZM114.025 166.41C111.085 166.41 108.695 168.8 108.695 171.74C108.695 174.68 111.085 177.07 114.025 177.07C116.965 177.07 119.355 174.68 119.355 171.74C119.355 168.8 116.965 166.41 114.025 166.41Z" fill="#261D2A"/>
<path d="M123.775 166.32C120.285 166.32 117.445 163.48 117.445 159.99C117.445 156.5 120.285 153.66 123.775 153.66C127.265 153.66 130.105 156.5 130.105 159.99C130.105 163.48 127.265 166.32 123.775 166.32ZM123.775 154.66C120.835 154.66 118.445 157.05 118.445 159.99C118.445 162.93 120.835 165.32 123.775 165.32C126.715 165.32 129.105 162.93 129.105 159.99C129.105 157.05 126.715 154.66 123.775 154.66Z" fill="#261D2A"/>
<path d="M139.025 164.57C135.535 164.57 132.695 161.73 132.695 158.24C132.695 154.75 135.535 151.91 139.025 151.91C142.515 151.91 145.355 154.75 145.355 158.24C145.355 161.73 142.515 164.57 139.025 164.57ZM139.025 152.91C136.085 152.91 133.695 155.3 133.695 158.24C133.695 161.18 136.085 163.57 139.025 163.57C141.965 163.57 144.355 161.18 144.355 158.24C144.355 155.3 141.965 152.91 139.025 152.91Z" fill="#261D2A"/>
<path d="M152.025 171.82C148.535 171.82 145.695 168.98 145.695 165.49C145.695 162 148.535 159.16 152.025 159.16C155.515 159.16 158.355 162 158.355 165.49C158.355 168.98 155.515 171.82 152.025 171.82ZM152.025 160.16C149.085 160.16 146.695 162.55 146.695 165.49C146.695 168.43 149.085 170.82 152.025 170.82C154.965 170.82 157.355 168.43 157.355 165.49C157.355 162.55 154.965 160.16 152.025 160.16Z" fill="#261D2A"/>
<path d="M155.775 130.41C155.515 130.41 155.305 130.21 155.275 129.95C155.255 129.68 155.455 129.43 155.725 129.41C156.315 129.36 170.115 128.16 172.935 129.19C173.195 129.28 173.325 129.57 173.235 129.83C173.145 130.09 172.855 130.22 172.595 130.13C170.425 129.34 159.745 130.06 155.805 130.41C155.795 130.41 155.775 130.41 155.765 130.41H155.775Z" fill="#261D2A"/>
<path d="M94.0245 133.66C93.7745 133.66 93.5545 133.47 93.5245 133.21C93.4945 132.94 93.6944 132.69 93.9744 132.66C94.4644 132.61 106.084 131.41 108.624 131.92C108.894 131.97 109.074 132.24 109.014 132.51C108.964 132.78 108.684 132.96 108.424 132.9C106.024 132.42 94.1945 133.64 94.0745 133.66C94.0545 133.66 94.0345 133.66 94.0245 133.66Z" fill="#261D2A"/>
<path d="M181.775 183.41C181.615 183.41 181.455 183.33 181.355 183.18C176.085 175.15 175.545 151.42 175.525 150.42C175.525 150.14 175.735 149.92 176.015 149.91C176.275 149.9 176.515 150.12 176.525 150.4C176.525 150.64 177.085 174.85 182.195 182.64C182.345 182.87 182.285 183.18 182.055 183.33C181.975 183.39 181.875 183.41 181.785 183.41H181.775Z" fill="#FCFDFF"/>
<path d="M186.445 197.32C186.265 197.32 186.095 197.22 186.005 197.06L181.335 188.39C181.205 188.15 181.295 187.84 181.535 187.71C181.775 187.58 182.085 187.67 182.215 187.91L186.885 196.58C187.015 196.82 186.925 197.13 186.685 197.26C186.605 197.3 186.525 197.32 186.445 197.32Z" fill="#FCFDFF"/>
<path d="M127.006 220.49C102.696 220.49 76.9258 219.4 75.0858 219.32C74.8058 219.31 74.5958 219.07 74.6058 218.8C74.6158 218.53 74.8458 218.29 75.1258 218.32C75.8958 218.35 152.546 221.6 167.626 217.01C167.896 216.93 168.166 217.08 168.246 217.34C168.326 217.6 168.176 217.88 167.916 217.96C161.506 219.91 144.636 220.48 126.996 220.48L127.006 220.49Z" fill="#FCFDFF"/>
<path d="M181.265 217.62C177.405 217.62 173.955 217.34 173.735 217.32C173.465 217.3 173.255 217.06 173.275 216.78C173.295 216.5 173.565 216.3 173.815 216.32C173.895 216.32 181.825 216.97 187.045 216.32C187.295 216.29 187.565 216.48 187.605 216.75C187.635 217.02 187.445 217.27 187.175 217.31C185.365 217.54 183.255 217.61 181.265 217.61V217.62Z" fill="#FCFDFF"/>
<path d="M192.274 234.16C192.124 234.16 191.984 234.1 191.884 233.97C191.344 233.28 189.574 233.59 188.994 233.76C188.734 233.83 188.454 233.68 188.374 233.42C188.294 233.15 188.454 232.88 188.714 232.8C189.004 232.72 191.614 232.02 192.664 233.35C192.834 233.57 192.794 233.88 192.584 234.05C192.494 234.12 192.384 234.16 192.274 234.16Z" fill="#261D2A"/>
<path d="M195.104 236.17C194.954 236.17 194.814 236.11 194.714 235.98C194.174 235.29 192.404 235.6 191.824 235.77C191.554 235.84 191.284 235.69 191.204 235.43C191.124 235.16 191.284 234.89 191.544 234.81C191.834 234.73 194.444 234.03 195.494 235.36C195.664 235.58 195.624 235.89 195.414 236.06C195.324 236.13 195.214 236.17 195.104 236.17Z" fill="#261D2A"/>
<path d="M171.855 236.54C171.665 236.54 171.485 236.43 171.395 236.25C171.275 236 171.395 235.7 171.645 235.59C171.925 235.46 174.395 234.38 175.635 235.53C175.835 235.72 175.845 236.03 175.665 236.24C175.475 236.44 175.165 236.45 174.955 236.27C174.315 235.67 172.615 236.25 172.065 236.5C171.995 236.53 171.925 236.55 171.855 236.55V236.54Z" fill="#261D2A"/>
<path d="M174.614 234.32C174.444 234.32 174.275 234.23 174.185 234.08C174.045 233.84 174.124 233.54 174.354 233.39C174.624 233.23 177.004 231.88 178.294 232.93C178.504 233.1 178.544 233.42 178.364 233.63C178.194 233.84 177.874 233.88 177.664 233.7C177.064 233.21 175.514 233.85 174.864 234.24C174.784 234.29 174.694 234.31 174.614 234.31V234.32Z" fill="#261D2A"/>
<path d="M180.955 233.58C180.775 233.58 180.605 233.48 180.515 233.32C180.385 233.08 180.475 232.77 180.715 232.64C180.985 232.49 183.415 231.25 184.675 232.35C184.885 232.53 184.905 232.85 184.725 233.06C184.545 233.27 184.225 233.29 184.015 233.11C183.385 232.55 181.725 233.24 181.185 233.53C181.115 233.57 181.025 233.59 180.955 233.59V233.58Z" fill="#261D2A"/>
<path d="M178.865 236.76C178.685 236.76 178.515 236.66 178.425 236.5C178.295 236.26 178.385 235.95 178.625 235.82C178.895 235.67 181.325 234.43 182.585 235.53C182.795 235.71 182.815 236.03 182.635 236.24C182.455 236.45 182.135 236.47 181.925 236.29C181.295 235.73 179.635 236.42 179.095 236.71C179.025 236.75 178.935 236.77 178.865 236.77V236.76Z" fill="#261D2A"/>
<path d="M189.184 236.77C189.034 236.77 188.894 236.71 188.794 236.58C188.254 235.89 186.484 236.21 185.904 236.37C185.634 236.44 185.364 236.29 185.284 236.03C185.204 235.76 185.364 235.49 185.624 235.41C185.914 235.33 188.524 234.63 189.574 235.96C189.744 236.18 189.704 236.49 189.494 236.66C189.404 236.73 189.294 236.77 189.184 236.77Z" fill="#261D2A"/>
<path d="M87.7742 233.66C87.6242 233.66 87.4842 233.6 87.3842 233.47C86.8442 232.78 85.0742 233.09 84.4942 233.26C84.2342 233.33 83.9542 233.18 83.8742 232.92C83.7942 232.65 83.9542 232.38 84.2142 232.3C84.5042 232.22 87.1142 231.52 88.1642 232.85C88.3342 233.07 88.2942 233.38 88.0842 233.55C87.9942 233.62 87.8842 233.66 87.7742 233.66Z" fill="#261D2A"/>
<path d="M90.6043 235.67C90.4543 235.67 90.3143 235.61 90.2143 235.48C89.6743 234.79 87.9043 235.1 87.3243 235.27C87.0543 235.34 86.7843 235.19 86.7043 234.93C86.6243 234.66 86.7843 234.39 87.0443 234.31C87.3343 234.23 89.9443 233.53 90.9943 234.86C91.1643 235.08 91.1243 235.39 90.9143 235.56C90.8243 235.63 90.7143 235.67 90.6043 235.67Z" fill="#261D2A"/>
<path d="M67.3545 236.04C67.1645 236.04 66.9845 235.93 66.8945 235.75C66.7745 235.5 66.8945 235.2 67.1445 235.09C67.4245 234.96 69.8945 233.88 71.1345 235.03C71.3345 235.22 71.3445 235.53 71.1645 235.74C70.9745 235.94 70.6645 235.95 70.4545 235.77C69.8145 235.17 68.1146 235.75 67.5646 236C67.4946 236.03 67.4245 236.05 67.3545 236.05V236.04Z" fill="#261D2A"/>
<path d="M70.1145 233.82C69.9445 233.82 69.7745 233.73 69.6845 233.58C69.5445 233.34 69.6245 233.04 69.8545 232.89C70.1245 232.73 72.4945 231.38 73.7945 232.43C74.0045 232.6 74.0445 232.92 73.8645 233.13C73.6945 233.34 73.3745 233.38 73.1645 233.2C72.5645 232.71 71.0145 233.35 70.3645 233.74C70.2845 233.79 70.1945 233.81 70.1145 233.81V233.82Z" fill="#261D2A"/>
<path d="M76.4546 233.08C76.2746 233.08 76.1046 232.98 76.0146 232.82C75.8846 232.58 75.9746 232.27 76.2146 232.14C76.4846 231.99 78.9146 230.75 80.1746 231.85C80.3846 232.03 80.4046 232.35 80.2246 232.56C80.0446 232.77 79.7246 232.79 79.5146 232.61C78.8846 232.05 77.2246 232.74 76.6846 233.03C76.6146 233.07 76.5246 233.09 76.4546 233.09V233.08Z" fill="#261D2A"/>
<path d="M74.3648 236.26C74.1848 236.26 74.0148 236.16 73.9248 236C73.7948 235.76 73.8848 235.45 74.1248 235.32C74.3948 235.17 76.8248 233.92 78.0848 235.03C78.2948 235.21 78.3148 235.53 78.1348 235.74C77.9548 235.95 77.6348 235.97 77.4248 235.79C76.7948 235.23 75.1348 235.92 74.5948 236.21C74.5248 236.25 74.4348 236.27 74.3648 236.27V236.26Z" fill="#261D2A"/>
<path d="M84.6844 236.27C84.5344 236.27 84.3944 236.21 84.2944 236.08C83.7544 235.39 81.9844 235.71 81.4044 235.87C81.1344 235.94 80.8644 235.79 80.7844 235.53C80.7044 235.26 80.8644 234.99 81.1244 234.91C81.4144 234.83 84.0244 234.13 85.0744 235.46C85.2444 235.68 85.2044 235.99 84.9944 236.16C84.9044 236.23 84.7944 236.27 84.6844 236.27Z" fill="#261D2A"/>
<path d="M82.5254 191.66C82.3954 191.66 82.2654 191.61 82.1754 191.51C81.9754 191.32 81.9754 191 82.1754 190.8C82.1854 190.79 83.3554 189.61 83.8154 188.47C83.9154 188.21 84.2054 188.09 84.4654 188.19C84.7254 188.29 84.8454 188.58 84.7454 188.84C84.2154 190.17 82.9354 191.45 82.8854 191.51C82.7854 191.61 82.6554 191.66 82.5354 191.66H82.5254Z" fill="#261D2A"/>
<path d="M87.3363 188.33C87.2463 188.33 87.1563 188.31 87.0763 188.26C86.8463 188.11 86.7663 187.81 86.9163 187.57C86.9163 187.56 87.7963 186.13 87.9763 184.92C88.0163 184.65 88.2763 184.46 88.5463 184.5C88.8163 184.54 89.0063 184.8 88.9663 185.07C88.7563 186.49 87.8063 188.03 87.7663 188.09C87.6763 188.24 87.5063 188.33 87.3463 188.33H87.3363Z" fill="#261D2A"/>
<path d="M85.8363 185.33C85.7463 185.33 85.6563 185.31 85.5763 185.26C85.3463 185.11 85.2663 184.81 85.4163 184.57C85.4163 184.56 86.2963 183.13 86.4763 181.92C86.5163 181.65 86.7763 181.46 87.0463 181.5C87.3163 181.54 87.5063 181.8 87.4663 182.07C87.2563 183.49 86.3063 185.03 86.2663 185.09C86.1763 185.24 86.0063 185.33 85.8463 185.33H85.8363Z" fill="#261D2A"/>
<path d="M74.9954 199.66C74.8254 199.66 74.6554 199.57 74.5654 199.42C74.4254 199.18 74.5053 198.88 74.7353 198.73C74.7453 198.73 76.1753 197.86 76.8953 196.87C77.0553 196.65 77.3754 196.6 77.5954 196.76C77.8154 196.92 77.8653 197.24 77.7053 197.46C76.8653 198.62 75.3154 199.55 75.2454 199.59C75.1654 199.64 75.0754 199.66 74.9954 199.66Z" fill="#261D2A"/>
<path d="M80.4147 199.06C80.2347 199.06 80.0547 198.96 79.9647 198.78C79.8447 198.53 79.9447 198.23 80.1947 198.11C80.2147 198.11 81.7047 197.36 82.5047 196.43C82.6847 196.22 83.0047 196.2 83.2147 196.38C83.4247 196.56 83.4447 196.88 83.2647 197.09C82.3347 198.18 80.7147 198.98 80.6447 199.01C80.5747 199.04 80.4947 199.06 80.4247 199.06H80.4147Z" fill="#261D2A"/>
<path d="M79.0055 196.17C78.8355 196.17 78.6755 196.08 78.5755 195.93C78.4355 195.69 78.5055 195.39 78.7455 195.24C78.7555 195.24 80.1755 194.36 80.8955 193.36C81.0555 193.13 81.3655 193.08 81.5955 193.24C81.8255 193.4 81.8755 193.71 81.7155 193.94C80.8855 195.11 79.3355 196.05 79.2755 196.09C79.1955 196.14 79.1055 196.16 79.0155 196.16L79.0055 196.17Z" fill="#261D2A"/>
<path d="M84.6347 194.3C84.4847 194.3 84.3447 194.23 84.2447 194.11C84.0747 193.89 84.1147 193.58 84.3247 193.41C84.3347 193.4 85.6447 192.36 86.2247 191.29C86.3547 191.05 86.6647 190.96 86.9047 191.09C87.1447 191.22 87.2347 191.53 87.1047 191.77C86.4247 193.03 85.0047 194.15 84.9447 194.2C84.8547 194.27 84.7447 194.31 84.6347 194.31V194.3Z" fill="#261D2A"/>
<path d="M216.785 63.9099C216.785 63.9099 181.475 40.8 167.995 48.5C154.515 56.2 152.585 82.5199 141.035 80.5999C129.485 78.6699 121.885 83.94 129.585 87.79C137.285 91.64 171.955 124.38 193.135 118.6C214.315 112.82 232.195 73.5399 216.785 63.9099Z" fill="#76AEA6"/>
<path d="M156.475 83.3542L154.952 86.9851L154.025 86.596L157.401 78.5483L158.328 78.9374L157.089 81.8924L157.167 81.9254C157.439 81.673 157.756 81.5144 158.115 81.4498C158.479 81.3836 158.898 81.4499 159.372 81.6489C159.783 81.8214 160.109 82.055 160.349 82.3498C160.59 82.6419 160.725 82.9926 160.753 83.402C160.785 83.8099 160.693 84.2732 160.475 84.7919L158.866 88.6271L157.939 88.238L159.521 84.4657C159.722 83.9863 159.753 83.5634 159.614 83.197C159.479 82.8291 159.193 82.5534 158.755 82.3698C158.451 82.2423 158.152 82.1922 157.857 82.2194C157.565 82.2478 157.298 82.356 157.056 82.544C156.816 82.7331 156.623 83.0031 156.475 83.3542ZM163.04 90.5263C162.459 90.2823 162.011 89.9435 161.697 89.5098C161.387 89.0746 161.215 88.5774 161.181 88.0181C161.152 87.4572 161.266 86.8677 161.526 86.2494C161.785 85.6312 162.127 85.1336 162.55 84.7565C162.976 84.378 163.448 84.1416 163.965 84.0474C164.486 83.9516 165.019 84.018 165.564 84.2466C165.878 84.3785 166.167 84.5612 166.429 84.7945C166.692 85.0279 166.899 85.3152 167.052 85.6565C167.206 85.9952 167.276 86.3884 167.264 86.8361C167.252 87.2839 167.128 87.7894 166.891 88.3526L166.727 88.7456L162.074 86.7936L162.41 85.992L166.12 87.5483C166.263 87.2077 166.322 86.8752 166.298 86.5509C166.276 86.2276 166.174 85.9365 165.99 85.6775C165.808 85.4197 165.55 85.2204 165.214 85.0797C164.845 84.9247 164.487 84.8823 164.14 84.9525C163.797 85.0212 163.493 85.1707 163.227 85.401C162.961 85.6313 162.758 85.9129 162.618 86.2456L162.394 86.78C162.203 87.2358 162.119 87.6552 162.143 88.0381C162.171 88.4195 162.292 88.7521 162.506 89.0358C162.721 89.3169 163.015 89.5361 163.39 89.6933C163.633 89.7955 163.868 89.8537 164.093 89.8681C164.322 89.8809 164.537 89.8481 164.74 89.7697C164.943 89.6886 165.128 89.5598 165.294 89.3832L166.085 90.0106C165.863 90.2749 165.592 90.4756 165.273 90.6127C164.955 90.7472 164.605 90.81 164.224 90.801C163.843 90.7893 163.449 90.6978 163.04 90.5263ZM171.307 84.3823L167.93 92.43L167.003 92.0409L170.379 83.9932L171.307 84.3823ZM173.933 85.484L170.556 93.5317L169.629 93.1426L173.005 85.0949L173.933 85.484ZM174.654 95.3988C174.109 95.1702 173.686 94.8399 173.383 94.408C173.083 93.9772 172.916 93.4803 172.881 92.9173C172.849 92.3553 172.963 91.7626 173.225 91.1391C173.489 90.5104 173.833 90.0094 174.257 89.6361C174.685 89.2639 175.157 89.0338 175.675 88.9459C176.195 88.8591 176.727 88.93 177.272 89.1586C177.817 89.3873 178.239 89.717 178.539 90.1478C178.842 90.5797 179.009 91.0779 179.04 91.6424C179.074 92.2081 178.959 92.8053 178.695 93.434C178.433 94.0575 178.089 94.554 177.663 94.9236C177.24 95.2943 176.768 95.523 176.248 95.6098C175.73 95.6977 175.199 95.6274 174.654 95.3988ZM175.004 94.5657C175.418 94.7394 175.803 94.7761 176.159 94.676C176.515 94.576 176.83 94.3799 177.103 94.088C177.377 93.796 177.598 93.4484 177.767 93.0449C177.937 92.6415 178.03 92.2386 178.048 91.8364C178.066 91.4341 177.986 91.0695 177.809 90.7426C177.632 90.4156 177.336 90.1654 176.923 89.9917C176.509 89.8181 176.123 89.7826 175.766 89.8853C175.408 89.988 175.092 90.1866 174.818 90.4812C174.543 90.7758 174.321 91.1248 174.152 91.5282C173.983 91.9316 173.89 92.3332 173.873 92.7328C173.857 93.1325 173.937 93.4945 174.115 93.8188C174.294 94.1431 174.59 94.392 175.004 94.5657Z" fill="#FEFFFF"/>
<path d="M211.015 70.4C210.865 70.4 210.715 70.33 210.615 70.2C205.625 63.55 187.065 56.74 186.875 56.67C186.615 56.58 186.485 56.29 186.575 56.03C186.665 55.77 186.955 55.64 187.215 55.73C187.985 56.01 206.245 62.71 211.415 69.6C211.585 69.82 211.535 70.13 211.315 70.3C211.225 70.37 211.115 70.4 211.015 70.4Z" fill="#261D2A"/>
<path d="M216.145 80.46C216.145 80.46 216.045 80.46 216.005 80.44C215.745 80.36 215.585 80.08 215.675 79.82C216.365 77.51 216.365 75.69 215.665 74.55C215.075 73.58 214.185 73.41 214.145 73.4C213.875 73.35 213.695 73.09 213.745 72.82C213.795 72.55 214.045 72.36 214.315 72.41C214.365 72.41 215.665 72.65 216.505 74C217.385 75.42 217.435 77.47 216.635 80.11C216.575 80.33 216.375 80.47 216.155 80.47L216.145 80.46Z" fill="#261D2A"/>
<path d="M29.3653 244.16C29.0053 244.16 28.4453 244.15 27.7453 244.1C27.4653 244.08 27.2653 243.84 27.2853 243.57C27.3053 243.29 27.5253 243.09 27.8153 243.11C28.9753 243.19 29.7553 243.16 29.7653 243.16C30.0353 243.17 30.2753 243.36 30.2853 243.64C30.2953 243.92 30.0853 244.15 29.8053 244.16C29.8053 244.16 29.6453 244.16 29.3753 244.16H29.3653ZM25.7853 243.88C25.7853 243.88 25.7353 243.88 25.7053 243.88C25.0053 243.77 24.3353 243.64 23.6953 243.48C23.4253 243.41 23.2653 243.14 23.3253 242.88C23.3953 242.61 23.6553 242.44 23.9253 242.51C24.5353 242.66 25.1753 242.79 25.8453 242.89C26.1153 242.93 26.3053 243.19 26.2653 243.46C26.2253 243.71 26.0153 243.88 25.7753 243.88H25.7853ZM21.9053 242.92C21.8453 242.92 21.7953 242.92 21.7353 242.89C21.0653 242.65 20.4253 242.37 19.8453 242.06C19.6053 241.93 19.5053 241.63 19.6353 241.39C19.7653 241.14 20.0653 241.05 20.3053 241.18C20.8453 241.47 21.4453 241.73 22.0753 241.96C22.3353 242.05 22.4653 242.34 22.3753 242.6C22.3053 242.8 22.1053 242.93 21.9053 242.93V242.92ZM18.3853 241.05C18.2753 241.05 18.1753 241.02 18.0853 240.95C17.5153 240.51 17.0053 240.03 16.5553 239.51C16.3753 239.3 16.4053 238.98 16.6153 238.81C16.8253 238.63 17.1453 238.66 17.3253 238.87C17.7253 239.34 18.1853 239.77 18.6953 240.17C18.9153 240.34 18.9553 240.65 18.7853 240.87C18.6853 241 18.5353 241.07 18.3853 241.07V241.05ZM15.8353 238.02C15.6553 238.02 15.4753 237.92 15.3853 237.75C15.1553 237.29 14.9553 236.81 14.7953 236.31C14.7453 236.14 14.6853 235.96 14.6453 235.79C14.5753 235.52 14.7253 235.25 14.9953 235.18C15.2653 235.11 15.5353 235.26 15.6053 235.53C15.6453 235.69 15.6953 235.85 15.7453 236.02C15.8853 236.46 16.0653 236.9 16.2653 237.3C16.3953 237.55 16.2953 237.85 16.0453 237.97C15.9753 238.01 15.8953 238.02 15.8153 238.02H15.8353ZM14.7153 234.2C14.4753 234.2 14.2553 234.02 14.2253 233.77C14.1253 233.08 14.0653 232.39 14.0653 231.71C14.0653 231.43 14.2853 231.21 14.5553 231.2C14.7953 231.2 15.0553 231.42 15.0653 231.69C15.0653 232.32 15.1253 232.97 15.2153 233.62C15.2553 233.89 15.0653 234.15 14.7953 234.19C14.7753 234.19 14.7453 234.19 14.7253 234.19L14.7153 234.2ZM14.6653 230.21C14.6653 230.21 14.6253 230.21 14.5953 230.21C14.3253 230.17 14.1253 229.92 14.1653 229.65C14.1853 229.53 14.1953 229.4 14.2153 229.28C14.1553 229.31 14.0853 229.33 14.0153 229.34C13.3253 229.39 12.6353 229.39 11.9453 229.34C11.6653 229.32 11.4653 229.08 11.4853 228.81C11.5053 228.53 11.7553 228.32 12.0253 228.35C12.6653 228.4 13.3153 228.39 13.9553 228.35C14.0953 228.33 14.2653 228.41 14.3753 228.52C14.4453 228.21 14.5253 227.91 14.6053 227.62C14.6853 227.36 14.9653 227.21 15.2253 227.29C15.4853 227.37 15.6353 227.65 15.5553 227.91C15.3753 228.5 15.2453 229.13 15.1553 229.78C15.1253 230.03 14.9053 230.22 14.6553 230.22L14.6653 230.21ZM15.9653 229.06C15.7353 229.06 15.5253 228.9 15.4753 228.66C15.4153 228.39 15.5953 228.12 15.8653 228.07C16.5053 227.94 17.1353 227.76 17.7253 227.55C17.9853 227.46 18.2753 227.59 18.3653 227.85C18.4553 228.11 18.3253 228.4 18.0653 228.49C17.4353 228.72 16.7653 228.91 16.0753 229.05C16.0353 229.05 16.0053 229.06 15.9753 229.06H15.9653ZM10.0253 229.03C10.0253 229.03 9.94533 229.03 9.90533 229.01C9.19533 228.83 8.53533 228.58 7.93533 228.27C7.68533 228.14 7.59533 227.84 7.71533 227.6C7.84533 227.35 8.14531 227.26 8.38531 227.38C8.92531 227.66 9.51532 227.88 10.1453 228.04C10.4153 228.11 10.5753 228.38 10.5053 228.65C10.4453 228.88 10.2453 229.03 10.0253 229.03ZM19.6953 227.66C19.5253 227.66 19.3653 227.58 19.2653 227.42C19.1253 227.18 19.1953 226.88 19.4353 226.73C20.0553 226.35 20.4953 225.94 20.6953 225.57C20.8253 225.33 21.1353 225.23 21.3753 225.36C21.6153 225.49 21.7153 225.79 21.5853 226.04C21.2953 226.58 20.7553 227.1 19.9653 227.59C19.8853 227.64 19.7953 227.66 19.7053 227.66H19.6953ZM6.51532 227.19C6.39532 227.19 6.27532 227.15 6.17532 227.06C5.66532 226.58 5.21534 226.03 4.84534 225.42C4.70534 225.19 4.76533 224.88 4.99533 224.73C5.21533 224.58 5.51531 224.63 5.66531 224.85C6.01531 225.43 6.40534 225.91 6.84534 226.32C7.04534 226.51 7.05534 226.82 6.87534 227.03C6.77534 227.14 6.64534 227.19 6.50534 227.19H6.51532ZM15.8453 226.41C15.7653 226.41 15.6853 226.39 15.6053 226.35C15.3653 226.22 15.2753 225.91 15.4053 225.67C15.7853 224.98 16.2253 224.4 16.7053 223.96C16.9053 223.77 17.2253 223.79 17.4153 223.99C17.6053 224.19 17.5853 224.51 17.3853 224.7C16.9753 225.07 16.6053 225.56 16.2853 226.16C16.1953 226.33 16.0253 226.42 15.8453 226.42V226.41ZM20.6653 224.56C20.5553 224.56 20.4453 224.52 20.3553 224.45C19.9253 224.11 19.4753 223.99 19.0253 223.94C18.9653 223.94 18.9153 223.94 18.8553 223.94C18.5853 223.96 18.3353 223.77 18.3053 223.49C18.2753 223.22 18.4753 222.97 18.7553 222.94C18.8453 222.94 18.9553 222.93 19.0353 222.93C19.7153 222.93 20.3653 223.17 20.9753 223.65C21.1953 223.82 21.2253 224.14 21.0553 224.35C20.9553 224.47 20.8053 224.54 20.6653 224.54V224.56ZM4.32532 223.87C4.13532 223.87 3.95534 223.76 3.87534 223.58C3.57534 222.94 3.32533 222.3 3.11533 221.67C3.02533 221.41 3.17533 221.12 3.43533 221.04C3.69533 220.95 3.97534 221.1 4.06534 221.36C4.26534 221.95 4.50534 222.56 4.78534 223.16C4.90534 223.41 4.78532 223.71 4.54532 223.82C4.47532 223.85 4.40533 223.87 4.33533 223.87H4.32532ZM3.08533 220.08C2.84533 220.08 2.63534 219.91 2.59534 219.67C2.46534 218.98 2.39534 218.28 2.37534 217.61C2.37534 217.33 2.58532 217.1 2.85532 217.09C3.17532 217.08 3.36534 217.3 3.37534 217.57C3.39534 218.2 3.46533 218.84 3.58533 219.48C3.63533 219.75 3.45533 220.01 3.18533 220.06C3.15533 220.06 3.12534 220.06 3.09534 220.06L3.08533 220.08ZM2.96533 216.1C2.96533 216.1 2.92532 216.1 2.89532 216.1C2.62532 216.06 2.42533 215.81 2.46533 215.54C2.55533 214.86 2.70533 214.17 2.90533 213.51C2.98533 213.25 3.26533 213.09 3.52533 213.18C3.78533 213.26 3.93532 213.54 3.85532 213.8C3.66532 214.41 3.53532 215.04 3.45532 215.67C3.42532 215.92 3.20532 216.11 2.95532 216.11L2.96533 216.1ZM4.12534 212.29C4.05534 212.29 3.97533 212.27 3.90533 212.24C3.65533 212.12 3.55532 211.82 3.67532 211.57C3.97532 210.95 4.33532 210.35 4.73532 209.78C4.78532 209.71 4.84531 209.66 4.91531 209.62C4.32531 209.35 3.81531 208.98 3.38531 208.54C3.19531 208.34 3.20533 208.02 3.40533 207.83C3.60533 207.64 3.92533 207.65 4.11533 207.85C4.51533 208.27 5.00534 208.59 5.59534 208.82C5.85534 208.92 5.97534 209.21 5.87534 209.47C5.81534 209.62 5.69533 209.72 5.55533 209.76C5.68533 209.93 5.69533 210.17 5.55533 210.35C5.18533 210.88 4.85532 211.43 4.57532 212C4.48532 212.18 4.31534 212.28 4.12534 212.28V212.29ZM7.93533 210.24C7.72533 210.24 7.51533 210.24 7.30533 210.22C7.02533 210.2 6.82534 209.96 6.84534 209.69C6.86534 209.41 7.10534 209.21 7.37534 209.23C7.98534 209.27 8.61532 209.25 9.26532 209.15C9.52532 209.11 9.79533 209.3 9.83533 209.57C9.87533 209.84 9.68531 210.1 9.41531 210.14C8.91531 210.21 8.42531 210.25 7.94531 210.25L7.93533 210.24ZM11.2753 209.67C11.0653 209.67 10.8753 209.54 10.8053 209.33C10.7153 209.07 10.8553 208.78 11.1253 208.7C11.7653 208.49 12.3553 208.22 12.8453 207.92C13.0853 207.78 13.3853 207.85 13.5353 208.09C13.6753 208.33 13.6053 208.63 13.3653 208.78C12.8153 209.11 12.1453 209.41 11.4453 209.65C11.3953 209.67 11.3353 209.68 11.2853 209.68L11.2753 209.67ZM6.41531 209.03C6.29531 209.03 6.16534 208.98 6.06534 208.89C5.86534 208.7 5.85533 208.38 6.05533 208.18C6.54533 207.68 7.06533 207.21 7.61533 206.8C7.83533 206.63 8.14534 206.68 8.31534 206.9C8.48534 207.12 8.43533 207.43 8.21533 207.6C7.71533 207.98 7.22533 208.41 6.77533 208.87C6.67533 208.97 6.54531 209.02 6.41531 209.02V209.03ZM14.4953 207.46C14.4353 207.46 14.3753 207.46 14.3253 207.43C14.0653 207.33 13.9353 207.05 14.0353 206.79C14.0553 206.73 14.0653 206.68 14.0653 206.63C14.0653 206.41 13.7853 206.22 13.5553 206.11C13.4753 206.07 13.3953 206.04 13.3053 206.01C13.0453 205.92 12.9053 205.64 12.9853 205.38C13.0753 205.12 13.3453 204.97 13.6153 205.06C13.7453 205.1 13.8753 205.16 13.9953 205.22C14.8653 205.66 15.0553 206.23 15.0553 206.64C15.0553 206.81 15.0253 206.98 14.9653 207.15C14.8953 207.35 14.6953 207.48 14.4953 207.48V207.46ZM2.71533 207C2.51533 207 2.32533 206.88 2.24533 206.68C2.00533 206.06 1.79534 205.41 1.59534 204.75C1.51534 204.49 1.66532 204.21 1.92532 204.13C2.18532 204.05 2.46532 204.2 2.54532 204.46C2.73532 205.09 2.94532 205.72 3.17532 206.32C3.27532 206.58 3.14531 206.87 2.88531 206.96C2.82531 206.98 2.76532 206.99 2.70532 206.99L2.71533 207ZM9.60532 206.65C9.42532 206.65 9.24533 206.55 9.15533 206.37C9.03533 206.12 9.13534 205.82 9.37534 205.7C10.0553 205.36 10.7353 205.12 11.3753 204.99C11.6453 204.94 11.9053 205.11 11.9653 205.38C12.0153 205.65 11.8453 205.91 11.5753 205.97C11.0153 206.08 10.4253 206.29 9.81534 206.6C9.74534 206.64 9.66534 206.65 9.59534 206.65H9.60532ZM1.56534 203.17C1.33534 203.17 1.13532 203.01 1.07532 202.78C0.925317 202.11 0.795313 201.44 0.695312 200.78C0.655313 200.51 0.845326 200.25 1.11533 200.21C1.38533 200.17 1.64533 200.36 1.68533 200.63C1.77533 201.26 1.90532 201.91 2.04532 202.56C2.10532 202.83 1.93531 203.1 1.66531 203.16C1.62531 203.16 1.59533 203.17 1.55533 203.17H1.56534ZM0.985321 199.22C0.725321 199.22 0.505321 199.02 0.485321 198.75C0.455321 198.31 0.445312 197.86 0.445312 197.41C0.445312 197.17 0.445322 196.93 0.455322 196.7C0.465322 196.42 0.695311 196.2 0.975311 196.22C1.25531 196.23 1.46532 196.46 1.45532 196.74C1.45532 196.96 1.44531 197.19 1.44531 197.41C1.44531 197.84 1.46532 198.26 1.48532 198.68C1.50532 198.96 1.29532 199.19 1.01532 199.21C1.00532 199.21 0.995321 199.21 0.985321 199.21V199.22ZM1.13531 195.23C1.13531 195.23 1.08533 195.23 1.05533 195.23C0.785328 195.19 0.595315 194.93 0.635315 194.66C0.745315 193.97 0.895327 193.29 1.08533 192.64C1.16533 192.38 1.44532 192.23 1.70532 192.3C1.96532 192.38 2.12534 192.66 2.03534 192.92C1.85534 193.52 1.71533 194.15 1.61533 194.8C1.57533 195.05 1.36534 195.22 1.12534 195.22L1.13531 195.23ZM2.30533 191.42C2.23533 191.42 2.15533 191.4 2.08533 191.37C1.83533 191.25 1.73532 190.95 1.85532 190.7C2.16532 190.07 2.52532 189.47 2.92532 188.91C3.08532 188.69 3.39534 188.64 3.62534 188.8C3.84534 188.96 3.89532 189.27 3.73532 189.5C3.36532 190.01 3.03534 190.56 2.75534 191.14C2.66534 191.32 2.49533 191.42 2.30533 191.42ZM4.63531 188.2C4.50531 188.2 4.37533 188.15 4.27533 188.05C4.08533 187.85 4.08534 187.54 4.28534 187.34C4.77534 186.87 5.31532 186.43 5.89532 186.02C6.12532 185.86 6.43534 185.92 6.59534 186.15C6.75534 186.38 6.69533 186.69 6.46533 186.85C5.92533 187.22 5.43532 187.63 4.98532 188.06C4.88532 188.15 4.76531 188.2 4.63531 188.2ZM7.89532 185.92C7.71532 185.92 7.53531 185.82 7.44531 185.64C7.32531 185.39 7.42531 185.09 7.66531 184.97C8.25531 184.67 8.89533 184.4 9.55533 184.17C9.81533 184.08 10.1053 184.21 10.1953 184.47C10.2853 184.73 10.1553 185.02 9.89532 185.11C9.26532 185.33 8.66533 185.59 8.11533 185.87C8.04533 185.91 7.96532 185.92 7.89532 185.92ZM11.6453 184.55C11.4253 184.55 11.2253 184.41 11.1653 184.19C11.0853 183.92 11.2453 183.65 11.5053 183.57C12.1553 183.38 12.7753 183.17 13.3353 182.93C13.5953 182.83 13.8853 182.95 13.9853 183.2C14.0953 183.46 13.9653 183.75 13.7153 183.85C13.1153 184.1 12.4653 184.32 11.7753 184.52C11.7253 184.53 11.6853 184.54 11.6353 184.54L11.6453 184.55ZM15.3253 183.01C15.1553 183.01 14.9953 182.92 14.8953 182.77C14.7553 182.53 14.8253 182.23 15.0653 182.08C15.6353 181.74 16.1453 181.36 16.5853 180.95C16.7853 180.76 17.1053 180.78 17.2953 180.98C17.4853 181.18 17.4653 181.5 17.2653 181.69C16.7753 182.14 16.2053 182.56 15.5853 182.94C15.5053 182.99 15.4153 183.01 15.3253 183.01ZM18.2153 180.3C18.1253 180.3 18.0253 180.27 17.9453 180.22C17.7153 180.07 17.6453 179.76 17.7953 179.53C18.1353 179.01 18.3953 178.45 18.5753 177.85C18.6553 177.58 18.9353 177.44 19.1953 177.52C19.4553 177.6 19.6053 177.88 19.5253 178.14C19.3153 178.83 19.0153 179.47 18.6253 180.07C18.5253 180.22 18.3653 180.3 18.2053 180.3H18.2153ZM19.3953 176.53H19.3753C19.0953 176.52 18.8853 176.28 18.8953 176.01C18.8953 175.87 18.8953 175.73 18.8953 175.59C18.8953 175.12 18.8553 174.62 18.7753 174.11C18.7353 173.84 18.9253 173.58 19.1953 173.54C19.4653 173.5 19.7253 173.69 19.7653 173.96C19.8453 174.52 19.8953 175.07 19.8953 175.59C19.8953 175.74 19.8953 175.9 19.8853 176.05C19.8753 176.32 19.6553 176.53 19.3853 176.53H19.3953ZM18.8153 172.59C18.6053 172.59 18.4053 172.45 18.3353 172.24C18.0853 171.47 17.8153 170.84 17.6253 170.45C17.5053 170.2 17.6053 169.9 17.8553 169.78C18.1053 169.66 18.4053 169.76 18.5253 170.01C18.7253 170.43 19.0253 171.11 19.2953 171.93C19.3753 172.19 19.2353 172.47 18.9753 172.56C18.9253 172.58 18.8753 172.58 18.8253 172.58L18.8153 172.59Z" fill="#261D2A"/>
<path d="M158.275 33.66C158.105 33.66 157.945 33.57 157.845 33.42C157.705 33.18 157.775 32.88 158.015 32.73C158.355 32.52 158.695 32.3 159.015 32.05C159.225 31.88 159.545 31.92 159.715 32.14C159.885 32.36 159.845 32.67 159.625 32.84C159.285 33.1 158.915 33.35 158.535 33.58C158.455 33.63 158.365 33.65 158.275 33.65V33.66ZM160.775 31.59C160.655 31.59 160.545 31.55 160.445 31.47C160.235 31.29 160.215 30.97 160.395 30.76C160.815 30.28 161.185 29.76 161.495 29.22C161.635 28.98 161.935 28.9 162.175 29.03C162.415 29.17 162.495 29.47 162.365 29.71C162.025 30.32 161.615 30.89 161.155 31.42C161.055 31.53 160.915 31.59 160.775 31.59ZM162.735 28.13C162.685 28.13 162.635 28.13 162.575 28.11C162.315 28.02 162.165 27.74 162.255 27.48C162.445 26.89 162.595 26.26 162.675 25.62C162.715 25.35 162.965 25.16 163.235 25.19C163.505 25.23 163.705 25.48 163.665 25.75C163.575 26.45 163.415 27.13 163.205 27.79C163.135 28 162.945 28.13 162.725 28.13H162.735ZM163.275 24.19C163.005 24.19 162.785 23.98 162.775 23.71C162.755 23.08 162.685 22.44 162.565 21.8C162.515 21.53 162.695 21.27 162.965 21.22C163.235 21.17 163.495 21.35 163.545 21.62C163.675 22.31 163.755 23 163.775 23.68C163.775 23.96 163.565 24.19 163.295 24.2C163.295 24.2 163.285 24.2 163.275 24.2V24.19ZM137.915 20.87C137.225 20.87 136.675 20.51 136.365 19.85C136.245 19.6 136.365 19.3 136.605 19.18C136.855 19.07 137.155 19.18 137.275 19.42C137.455 19.82 137.735 19.86 137.915 19.86C138.045 19.86 138.195 19.83 138.345 19.78C138.615 19.7 138.885 19.84 138.975 20.1C139.055 20.36 138.915 20.64 138.655 20.73C138.395 20.81 138.145 20.86 137.915 20.86V20.87ZM162.555 20.27C162.345 20.27 162.155 20.14 162.085 19.93C161.885 19.33 161.635 18.73 161.345 18.14C161.225 17.89 161.325 17.59 161.575 17.47C161.825 17.35 162.125 17.45 162.245 17.7C162.555 18.32 162.815 18.96 163.035 19.61C163.125 19.87 162.985 20.15 162.725 20.24C162.675 20.26 162.615 20.27 162.565 20.27H162.555ZM140.065 19.58C139.965 19.58 139.865 19.55 139.775 19.49C139.545 19.33 139.495 19.02 139.655 18.79C139.965 18.34 140.175 17.79 140.275 17.15C140.315 16.88 140.575 16.69 140.845 16.73C141.115 16.77 141.305 17.03 141.265 17.3C141.145 18.09 140.875 18.79 140.475 19.36C140.375 19.5 140.225 19.57 140.065 19.57V19.58ZM115.585 18.17C115.105 18.17 114.685 17.94 114.415 17.53C114.265 17.3 114.325 16.99 114.555 16.84C114.785 16.69 115.095 16.75 115.245 16.98C115.355 17.14 115.495 17.19 115.685 17.16C115.855 17.13 116.005 17.04 116.145 16.87C116.325 16.66 116.645 16.63 116.855 16.81C117.065 16.99 117.095 17.3 116.915 17.51C116.625 17.85 116.255 18.07 115.855 18.14C115.765 18.16 115.665 18.16 115.585 18.16V18.17ZM136.675 18.17C136.675 18.17 136.615 18.17 136.585 18.17C136.315 18.12 136.135 17.86 136.175 17.59C136.295 16.93 136.515 16.25 136.845 15.57C136.965 15.32 137.265 15.22 137.515 15.34C137.765 15.46 137.865 15.76 137.745 16.01C137.455 16.6 137.255 17.21 137.155 17.77C137.115 18.01 136.905 18.18 136.665 18.18L136.675 18.17ZM160.795 16.69C160.635 16.69 160.475 16.61 160.375 16.47C160.015 15.93 159.625 15.41 159.205 14.93C159.025 14.72 159.045 14.41 159.255 14.22C159.465 14.04 159.775 14.06 159.965 14.27C160.415 14.78 160.835 15.34 161.215 15.91C161.365 16.14 161.305 16.45 161.075 16.6C160.995 16.66 160.895 16.68 160.795 16.68V16.69ZM117.195 15.84C117.195 15.84 117.165 15.84 117.145 15.84C116.875 15.81 116.665 15.57 116.695 15.29C116.715 15.11 116.725 14.91 116.725 14.72C116.725 14.31 116.685 13.88 116.615 13.44C116.565 13.17 116.745 12.91 117.025 12.86C117.305 12.82 117.555 13 117.605 13.27C117.695 13.77 117.735 14.26 117.735 14.73C117.735 14.96 117.725 15.19 117.705 15.4C117.675 15.66 117.465 15.85 117.205 15.85L117.195 15.84ZM114.635 15.81C114.635 15.81 114.575 15.81 114.545 15.81C114.275 15.76 114.095 15.5 114.145 15.23C114.265 14.58 114.495 13.9 114.835 13.21C114.955 12.96 115.255 12.86 115.505 12.98C115.755 13.1 115.855 13.4 115.735 13.65C115.445 14.24 115.235 14.85 115.135 15.4C115.095 15.64 114.885 15.81 114.645 15.81H114.635ZM140.765 15.73C140.525 15.73 140.305 15.55 140.275 15.3C140.185 14.7 140.015 14.09 139.775 13.49C139.755 13.43 139.735 13.37 139.735 13.31C139.385 13.65 139.055 14.01 138.765 14.39C138.595 14.61 138.285 14.65 138.065 14.48C137.845 14.31 137.805 14 137.975 13.78C138.395 13.24 138.885 12.73 139.415 12.26C139.625 12.08 139.935 12.1 140.125 12.31C140.245 12.45 140.275 12.65 140.215 12.81C140.425 12.81 140.625 12.92 140.705 13.12C140.975 13.79 141.165 14.48 141.265 15.16C141.305 15.43 141.115 15.69 140.845 15.73C140.825 15.73 140.795 15.73 140.775 15.73H140.765ZM158.165 13.69C158.045 13.69 157.935 13.65 157.835 13.57C157.355 13.15 156.835 12.75 156.295 12.4C156.065 12.25 156.005 11.94 156.155 11.71C156.305 11.48 156.615 11.42 156.845 11.57C157.425 11.95 157.975 12.37 158.495 12.82C158.705 13 158.725 13.32 158.545 13.53C158.445 13.64 158.305 13.7 158.165 13.7V13.69ZM92.275 13.66C92.275 13.66 92.175 13.66 92.125 13.64C91.865 13.56 91.715 13.28 91.795 13.01C91.805 12.98 92.055 12.18 92.745 11.1C92.895 10.87 93.205 10.8 93.435 10.94C93.665 11.09 93.735 11.4 93.595 11.63C92.985 12.59 92.765 13.3 92.755 13.31C92.685 13.52 92.495 13.66 92.275 13.66ZM116.335 12.24C116.225 12.24 116.115 12.21 116.025 12.13C115.805 11.96 115.765 11.65 115.935 11.43C115.945 11.41 115.965 11.39 115.975 11.38C115.755 10.88 115.495 10.39 115.195 9.93996C115.045 9.70996 115.105 9.39996 115.335 9.24996C115.565 9.09996 115.875 9.15996 116.025 9.38996C116.275 9.75996 116.495 10.15 116.695 10.56C116.905 10.34 117.125 10.12 117.365 9.91996C117.565 9.73996 117.885 9.74996 118.075 9.95996C118.255 10.17 118.245 10.48 118.035 10.67C117.555 11.1 117.115 11.57 116.735 12.06C116.635 12.19 116.485 12.25 116.345 12.25L116.335 12.24ZM139.285 12.05C139.125 12.05 138.965 11.97 138.875 11.83C138.525 11.31 138.115 10.83 137.655 10.38C137.455 10.19 137.455 9.86996 137.655 9.66996C137.855 9.46996 138.165 9.46996 138.365 9.66996C138.865 10.16 139.325 10.7 139.715 11.27C139.875 11.5 139.815 11.81 139.585 11.96C139.495 12.02 139.405 12.05 139.305 12.05H139.285ZM141.355 11.96C141.185 11.96 141.015 11.87 140.925 11.72C140.785 11.48 140.865 11.18 141.095 11.03C141.685 10.68 142.315 10.37 142.965 10.12C143.225 10.02 143.515 10.15 143.615 10.41C143.715 10.67 143.585 10.96 143.325 11.06C142.725 11.29 142.145 11.58 141.605 11.9C141.525 11.95 141.435 11.97 141.345 11.97L141.355 11.96ZM154.835 11.5C154.765 11.5 154.695 11.48 154.625 11.45C154.045 11.18 153.445 10.94 152.835 10.76C152.575 10.68 152.425 10.4 152.505 10.14C152.585 9.87996 152.865 9.71996 153.125 9.80996C153.785 10.01 154.435 10.26 155.055 10.56C155.305 10.68 155.415 10.98 155.295 11.23C155.215 11.41 155.035 11.52 154.845 11.52L154.835 11.5ZM145.065 10.51C144.835 10.51 144.625 10.35 144.575 10.12C144.515 9.84996 144.685 9.57996 144.955 9.51996C145.605 9.36996 146.295 9.26996 146.995 9.20996C147.245 9.17996 147.515 9.38996 147.535 9.65996C147.555 9.92996 147.355 10.18 147.085 10.2C146.425 10.26 145.785 10.36 145.175 10.49C145.135 10.49 145.105 10.5 145.065 10.5V10.51ZM151.025 10.33C151.025 10.33 150.975 10.33 150.945 10.33C150.395 10.24 149.825 10.19 149.255 10.16H149.015C148.735 10.15 148.515 9.91996 148.525 9.63996C148.525 9.35996 148.745 9.17996 149.035 9.14996H149.285C149.895 9.17996 150.495 9.23996 151.085 9.33996C151.355 9.37996 151.545 9.63996 151.505 9.90996C151.465 10.16 151.255 10.33 151.015 10.33H151.025ZM94.375 10.27C94.255 10.27 94.135 10.23 94.045 10.14C93.835 9.95996 93.825 9.63996 94.005 9.42996C94.465 8.91996 94.965 8.43996 95.515 7.99996C95.735 7.82996 96.045 7.85996 96.215 8.07996C96.385 8.28996 96.355 8.60996 96.145 8.77996C95.645 9.18996 95.175 9.62996 94.755 10.1C94.655 10.21 94.515 10.27 94.385 10.27H94.375ZM119.295 9.56996C119.135 9.56996 118.965 9.48996 118.875 9.33996C118.725 9.10996 118.795 8.79996 119.025 8.64996C119.595 8.28996 120.205 7.95996 120.845 7.66996C121.095 7.55996 121.395 7.66996 121.505 7.91996C121.615 8.16996 121.505 8.46996 121.255 8.57996C120.665 8.84996 120.085 9.14996 119.565 9.48996C119.485 9.53996 119.385 9.56996 119.295 9.56996ZM136.445 9.27996C136.345 9.27996 136.255 9.24996 136.165 9.19996C135.645 8.85996 135.085 8.54996 134.485 8.28996C134.235 8.17996 134.115 7.87996 134.225 7.62996C134.335 7.37996 134.635 7.25996 134.885 7.36996C135.535 7.64996 136.145 7.98996 136.715 8.35996C136.945 8.50996 137.005 8.81996 136.855 9.04996C136.755 9.19996 136.595 9.26996 136.435 9.26996L136.445 9.27996ZM114.355 8.61996C114.225 8.61996 114.105 8.56996 114.005 8.47996C113.555 8.03996 113.065 7.64996 112.525 7.29996C112.295 7.14996 112.225 6.83996 112.375 6.60996C112.525 6.37996 112.835 6.30996 113.065 6.45996C113.655 6.83996 114.215 7.27996 114.705 7.76996C114.905 7.95996 114.905 8.27996 114.705 8.47996C114.605 8.57996 114.475 8.62996 114.345 8.62996L114.355 8.61996ZM122.925 7.92996C122.715 7.92996 122.515 7.78996 122.445 7.56996C122.365 7.30996 122.515 7.02996 122.775 6.94996C123.415 6.75996 124.085 6.59996 124.775 6.46996C125.045 6.41996 125.305 6.59996 125.355 6.86996C125.405 7.13996 125.225 7.39996 124.955 7.44996C124.305 7.56996 123.665 7.71996 123.065 7.89996C123.015 7.90996 122.965 7.91996 122.925 7.91996V7.92996ZM97.475 7.76996C97.305 7.76996 97.135 7.67996 97.045 7.51996C96.905 7.27996 96.985 6.97996 97.225 6.83996C97.815 6.49996 98.435 6.19996 99.085 5.93996C99.345 5.83996 99.635 5.95996 99.735 6.21996C99.835 6.47996 99.715 6.76996 99.455 6.86996C98.855 7.10996 98.265 7.39996 97.725 7.70996C97.645 7.75996 97.555 7.77996 97.475 7.77996V7.76996ZM132.805 7.66996C132.805 7.66996 132.725 7.66996 132.675 7.64996C132.065 7.48996 131.435 7.36996 130.775 7.27996C130.505 7.23996 130.305 6.98996 130.345 6.71996C130.385 6.44996 130.635 6.25996 130.905 6.28996C131.605 6.37996 132.285 6.50996 132.935 6.67996C133.205 6.74996 133.365 7.01996 133.295 7.28996C133.235 7.50996 133.035 7.65996 132.815 7.65996L132.805 7.66996ZM126.855 7.20996C126.595 7.20996 126.375 7.00996 126.355 6.74996C126.335 6.46996 126.535 6.22996 126.815 6.20996C127.125 6.18996 127.435 6.16996 127.755 6.14996C128.025 6.13996 128.295 6.12996 128.555 6.12996H128.855C129.135 6.12996 129.355 6.35996 129.345 6.63996C129.345 6.90996 129.115 7.12996 128.845 7.12996H128.555C128.305 7.12996 128.055 7.12996 127.795 7.13996C127.485 7.14996 127.185 7.16996 126.885 7.18996C126.875 7.18996 126.855 7.18996 126.845 7.18996L126.855 7.20996ZM111.005 6.47996C110.945 6.47996 110.885 6.46996 110.825 6.44996C110.245 6.22996 109.635 6.04996 108.995 5.91996C108.725 5.86996 108.545 5.59996 108.605 5.32996C108.655 5.05996 108.935 4.87996 109.195 4.93996C109.895 5.07996 110.565 5.26996 111.195 5.51996C111.455 5.61996 111.575 5.90996 111.475 6.16996C111.395 6.36996 111.205 6.48996 111.005 6.48996V6.47996ZM101.165 6.26996C100.945 6.26996 100.745 6.11996 100.685 5.89996C100.615 5.62996 100.775 5.35996 101.045 5.28996C101.685 5.11996 102.365 4.98996 103.055 4.87996C103.325 4.83996 103.585 5.02996 103.625 5.29996C103.665 5.56996 103.475 5.82996 103.205 5.86996C102.555 5.96996 101.915 6.08996 101.305 6.24996C101.265 6.25996 101.225 6.26996 101.175 6.26996H101.165ZM105.115 5.68996C104.845 5.68996 104.625 5.47996 104.615 5.20996C104.605 4.92996 104.815 4.69996 105.085 4.68996C105.745 4.65996 106.465 4.64996 107.135 4.68996C107.415 4.69996 107.625 4.93996 107.605 5.21996C107.595 5.49996 107.355 5.70996 107.075 5.68996C106.445 5.65996 105.755 5.66996 105.125 5.68996H105.105H105.115Z" fill="#261D2A"/>
</svg>
