<svg width="333" height="420" viewBox="0 0 333 420" fill="none" xmlns="http://www.w3.org/2000/svg">
<path d="M217.777 183.346C200.38 184.445 183.807 188.278 174.29 193.037C166.493 196.935 160.569 202.144 156.48 207.98M217.777 183.346C238.291 183.346 262.478 185.946 282.142 193.037M217.777 183.346C217.777 169.565 217.737 161.215 216.94 152.598M150.936 157.228L156.48 207.98M150.936 157.228C146.784 104.12 212.437 103.933 216.94 152.598M150.936 157.228C141.709 127.16 105.57 122.075 91.0355 144.938M270.303 264.081H234.982M190.004 327.658C191.563 300.594 206.408 264.081 234.982 264.081M234.982 264.081C209.125 264.081 162.868 271.14 151.615 240.528M156.48 207.98C149.368 218.13 147.81 230.177 151.615 240.528M151.615 240.528C137.573 258.316 106.54 251.061 98.0869 231.911C89.6342 212.762 87.2361 188.047 85.3248 172.848C83.9259 161.723 86.3658 152.284 91.0355 144.938M282.142 193.037C311.032 203.454 326.336 222.475 321.442 264.081C310.696 355.422 263.248 410 170.854 410C15.8298 410 13.8299 187.868 10 80.6317C10 34.6733 68.7913 31.0027 78.4761 65.4715C82.7398 79.723 89.0294 121.039 91.0355 144.938M282.142 193.037C295.173 134.929 301.955 83.3222 303.725 44.9859C305.494 6.64953 251.281 -7.45522 237.877 40.4181C229.316 70.9933 221.483 120.682 216.94 152.598" stroke="black" stroke-width="20"/>
</svg>
