<svg width="205" height="173" viewBox="0 0 205 173" fill="none" xmlns="http://www.w3.org/2000/svg">
<path d="M110.321 63.2113C110.321 63.2113 103.191 8.67127 154.601 0.571267C206.001 -7.52873 223.921 72.9313 180.441 88.4813L183.101 79.7712C183.101 79.7712 213.541 53.3412 186.081 16.9913C170.081 -4.18875 115.301 3.21125 115.501 61.5913L110.321 63.2113Z" fill="#A27298"/>
<path d="M124.782 52.1014C124.782 52.1014 120.182 47.2714 117.072 49.3214C113.962 51.3714 108.082 64.1514 108.652 66.0914C109.222 68.0314 115.642 71.3013 115.642 71.3013L124.782 52.0914V52.1014Z" fill="#76AEA6"/>
<path d="M167.971 92.1413C167.971 92.1413 172.511 97.0313 175.651 95.0213C178.791 93.0113 184.831 80.3113 184.291 78.3613C183.751 76.4113 177.361 73.0513 177.361 73.0513L167.971 92.1413Z" fill="#76AEA6"/>
<path d="M146.771 8.2114L147.611 12.4714C147.611 12.4714 164.921 2.70142 180.211 15.6614C195.501 28.6214 192.151 42.7814 192.151 42.7814L197.081 41.8614C197.081 41.8614 192.491 -8.2786 146.781 8.2014L146.771 8.2114Z" fill="#76AEA6"/>
<path d="M121.021 130.091C120.901 130.091 120.791 130.051 120.691 129.971C120.521 129.821 120.471 129.581 120.571 129.381C122.071 126.231 119.591 122.821 116.451 118.511C113.271 114.141 109.321 108.711 107.961 101.451C105.251 87.0512 110.491 69.4613 110.541 69.2813C110.621 69.0213 110.901 68.8712 111.161 68.9512C111.421 69.0312 111.571 69.3113 111.491 69.5713C111.441 69.7413 106.271 87.1113 108.931 101.261C110.251 108.291 114.131 113.631 117.251 117.911C120.171 121.931 122.561 125.211 121.921 128.441C125.011 126.611 133.681 121.961 142.331 121.751C152.491 121.501 158.661 118.751 171.341 94.6313C171.471 94.3813 171.771 94.2912 172.011 94.4212C172.251 94.5512 172.351 94.8512 172.221 95.0912C159.301 119.681 152.911 122.491 142.351 122.751C131.911 123.001 121.391 129.931 121.281 130.001C121.201 130.061 121.101 130.081 121.001 130.081L121.021 130.091Z" fill="#261D2A"/>
<path d="M122.021 124.931C122.021 124.931 128.351 127.931 128.021 129.261C127.691 130.591 123.021 139.261 121.691 138.931C120.361 138.601 117.021 135.261 117.021 135.261L122.021 124.931Z" fill="#212438"/>
<path d="M38.4813 172.141C36.9113 172.141 35.4114 171.851 34.0214 171.271C28.1614 168.801 25.3013 161.621 26.1913 151.551C26.3413 149.841 26.7813 146.221 27.9413 142.821C25.2813 142.531 22.4213 141.781 19.7613 140.491C14.7313 138.031 6.49134 131.651 7.85134 116.551C8.68134 107.321 10.2214 101.311 11.3414 96.9212C13.3814 88.9412 14.0013 86.5413 6.67135 79.6313C0.541346 73.8513 -1.62865 64.3313 1.27135 55.9413C4.15135 47.6013 11.3313 42.3113 20.9713 41.4413C27.3813 40.8613 31.6213 41.8413 34.4213 43.2913C34.4213 43.2413 34.4413 43.2012 34.4513 43.1512C36.1513 35.3112 41.7013 30.0612 49.2913 29.1112C53.4613 28.5912 57.1014 29.5312 60.1214 31.9012C66.8714 37.2213 68.1313 47.7713 68.1913 48.2213C68.2213 48.4913 68.0214 48.7412 67.7514 48.7712C67.4814 48.8012 67.2313 48.6012 67.2013 48.3312C67.1913 48.2212 65.9313 37.7412 59.5113 32.6812C56.7213 30.4812 53.3214 29.6113 49.4314 30.1013C39.1214 31.3913 36.2113 39.8012 35.4413 43.3612C35.4113 43.5112 35.3813 43.6613 35.3513 43.8113C37.7613 45.3213 38.8613 47.1613 39.3513 48.3213C40.3213 50.6213 40.1113 53.1813 38.8513 54.2613C38.1713 54.8513 37.2813 54.8913 36.4413 54.3713C34.4013 53.1113 33.5114 48.9113 34.2414 44.3213C31.6214 42.8713 27.5113 41.8513 21.0713 42.4413C11.8413 43.2813 4.98134 48.3212 2.23134 56.2712C-0.538657 64.3012 1.52136 73.3913 7.37136 78.9113C15.1314 86.2313 14.3713 89.2113 12.3213 97.1813C11.2013 101.541 9.68135 107.501 8.86135 116.651C7.56135 131.151 15.4213 137.251 20.2213 139.601C22.9413 140.931 25.7614 141.631 28.3114 141.871C29.5414 138.731 31.4613 135.971 34.4413 135.391C36.2213 135.041 37.9514 135.771 38.6514 137.151C39.2914 138.401 38.9314 139.831 37.7114 140.981C36.1514 142.441 32.8113 143.181 28.9413 142.931C28.1713 145.071 27.5313 147.911 27.2013 151.661C26.3513 161.261 28.9813 168.081 34.4213 170.371C40.2313 172.821 48.1813 169.521 54.6613 161.961C62.2213 153.141 69.5813 154.151 73.2913 155.531C75.1713 156.231 76.8614 157.271 78.3014 158.491C79.6214 155.521 81.5013 152.541 83.6913 150.251C87.7713 146.001 92.1214 144.911 95.9614 147.201C102.201 150.901 107.381 151.771 111.381 149.781C118.001 146.481 119.201 136.341 119.211 136.241C119.241 135.971 119.481 135.771 119.761 135.801C120.031 135.831 120.231 136.081 120.201 136.351C120.151 136.791 118.921 147.141 111.821 150.671C107.501 152.821 101.991 151.941 95.4513 148.051C91.0913 145.461 87.0413 148.191 84.4113 150.941C82.1713 153.281 80.3314 156.291 79.0914 159.201C81.7014 161.691 83.2814 164.701 83.2714 166.971C83.2714 168.501 82.5314 169.611 81.2114 170.091C78.7414 170.991 77.5313 170.131 76.9513 169.241C75.7313 167.371 76.2513 163.501 77.8813 159.461C76.4713 158.221 74.7813 157.151 72.9413 156.471C66.9513 154.241 60.7313 156.421 55.4213 162.611C50.1713 168.741 43.9314 172.161 38.5014 172.161L38.4813 172.141ZM78.6613 160.181C77.2513 163.861 76.8314 167.221 77.7714 168.671C78.3214 169.511 79.3613 169.671 80.8513 169.131C81.7813 168.791 82.2514 168.061 82.2514 166.941C82.2514 164.991 80.8813 162.401 78.6613 160.181ZM29.3014 141.931C32.8814 142.111 35.7913 141.371 37.0113 140.231C37.9113 139.391 38.1714 138.431 37.7514 137.591C37.2514 136.611 35.9614 136.101 34.6214 136.361C33.6514 136.551 31.1914 137.471 29.3114 141.931H29.3014ZM35.1613 44.8813C34.5613 49.2013 35.5413 52.6313 36.9513 53.5113C37.4213 53.8013 37.8413 53.8013 38.1913 53.5013C39.0013 52.8013 39.3113 50.8212 38.4213 48.7112C38.0013 47.7312 37.0913 46.2112 35.1613 44.8912V44.8813Z" fill="#261D2A"/>
<path d="M63.6314 36.9214L61.6914 43.2614L64.3614 52.9314L73.3614 50.2614L70.3614 40.5914L63.6314 36.9214Z" fill="#212438"/>
<path d="M64.1008 47.3412C63.8908 47.3412 63.7008 47.2112 63.6308 47.0012C63.5408 46.7412 63.6808 46.4512 63.9408 46.3612L70.6308 44.0512C70.8908 43.9612 71.1808 44.1012 71.2708 44.3612C71.3608 44.6212 71.2208 44.9112 70.9608 45.0012L64.2708 47.3112C64.2208 47.3312 64.1608 47.3412 64.1108 47.3412H64.1008Z" fill="#FCFDFF"/>
<path d="M111.512 76.1613C111.512 76.1613 123.292 45.2313 126.272 44.8813C129.252 44.5313 138.372 47.8113 139.342 50.3813C140.312 52.9513 127.232 81.3513 125.072 82.9513C122.912 84.5513 112.642 80.0613 111.512 76.1613Z" fill="#D4821F"/>
<path d="M181.551 68.2613C181.551 68.2613 169.361 99.0313 166.381 99.3513C163.401 99.6713 154.321 96.2613 153.381 93.6813C152.441 91.1013 165.901 62.8713 168.081 61.3013C170.261 59.7313 180.471 64.3613 181.551 68.2613Z" fill="#D4821F"/>
<path d="M123.691 80.0914C123.691 80.0914 123.661 80.0914 123.641 80.0914C123.371 80.0614 123.171 79.8215 123.191 79.5415C123.211 79.3415 125.361 59.5515 137.721 50.1915C137.941 50.0215 138.251 50.0715 138.421 50.2915C138.591 50.5115 138.541 50.8214 138.321 50.9914C126.301 60.0914 124.201 79.4514 124.181 79.6414C124.151 79.9014 123.941 80.0914 123.681 80.0914H123.691Z" fill="#261D2A"/>
<path d="M156.362 92.7611C156.242 92.7611 156.132 92.7211 156.032 92.6411C155.822 92.4611 155.802 92.1411 155.982 91.9311C156.122 91.7711 169.552 75.9211 170.192 64.5611C170.212 64.2811 170.432 64.0611 170.722 64.0911C171.002 64.1111 171.212 64.3411 171.192 64.6211C170.522 76.3211 157.302 91.9211 156.742 92.5811C156.642 92.7011 156.502 92.7511 156.362 92.7511V92.7611Z" fill="#261D2A"/>
<path d="M82.3105 54.6615C82.3105 54.6615 87.3905 53.0615 87.9005 53.5415C88.4105 54.0215 90.6105 63.4615 90.6105 63.4615L85.8705 65.0615L82.3105 54.6615Z" fill="#BF5A44"/>
<path d="M89.7708 78.4913C89.5608 78.4913 89.3708 78.3613 89.3008 78.1513L85.7408 67.7513C85.7008 67.6213 85.7108 67.4813 85.7708 67.3613C85.8308 67.2413 85.9408 67.1513 86.0708 67.1113C86.2308 67.0613 90.0008 65.8813 91.4008 65.8813C91.6408 65.8813 91.9408 65.9113 92.1508 66.1113C92.6608 66.5913 93.9808 71.9013 95.0008 76.2813C95.0608 76.5313 94.9208 76.7813 94.6708 76.8713L89.9308 78.4713C89.8808 78.4913 89.8208 78.5013 89.7708 78.5013V78.4913ZM86.8608 67.9213L90.0908 77.3613L93.9308 76.0714C93.1008 72.5414 91.8808 67.7513 91.4808 66.8913C91.4608 66.8913 91.4308 66.8913 91.4008 66.8913C90.5008 66.8913 88.1508 67.5413 86.8608 67.9313V67.9213Z" fill="#261D2A"/>
<path d="M94.6517 93.8712C94.4417 93.8712 94.2517 93.7412 94.1817 93.5312L90.6217 83.1312C90.5817 83.0012 90.5917 82.8612 90.6517 82.7412C90.7117 82.6212 90.8216 82.5312 90.9516 82.4912C91.1116 82.4412 94.8817 81.2612 96.2817 81.2612C96.5217 81.2612 96.8217 81.2912 97.0317 81.4912C97.5417 81.9712 98.8616 87.2912 99.8816 91.6612C99.9416 91.9112 99.8016 92.1612 99.5516 92.2512L94.8117 93.8512C94.7617 93.8712 94.7017 93.8812 94.6517 93.8812V93.8712ZM91.7417 83.2912L94.9716 92.7312L98.8117 91.4412C97.9817 87.9112 96.7616 83.1212 96.3616 82.2612C96.3416 82.2612 96.3117 82.2612 96.2817 82.2612C95.3817 82.2612 93.0317 82.9112 91.7417 83.3012V83.2912Z" fill="#261D2A"/>
<path d="M98.5618 109.001C98.3518 109.001 98.1618 108.871 98.0918 108.661L94.5318 98.2611C94.4918 98.1311 94.5018 97.9911 94.5618 97.8711C94.6218 97.7511 94.7318 97.6611 94.8618 97.6211C95.0218 97.5711 98.7918 96.3911 100.192 96.3911C100.432 96.3911 100.732 96.4211 100.952 96.6211C101.462 97.1011 102.782 102.411 103.802 106.791C103.862 107.041 103.722 107.291 103.472 107.381L98.7318 108.981C98.6818 109.001 98.6218 109.011 98.5718 109.011L98.5618 109.001ZM95.6418 98.4211L98.8718 107.861L102.712 106.571C101.882 103.041 100.672 98.2511 100.262 97.3911C100.242 97.3911 100.212 97.3911 100.182 97.3911C99.2818 97.3911 96.9318 98.0411 95.6418 98.4311V98.4211Z" fill="#261D2A"/>
<path d="M22.5215 63.4313C22.5215 63.4313 81.1315 46.1713 81.8615 48.2313C82.9915 51.4413 105.021 125.931 105.021 125.931C105.021 125.931 52.4815 144.571 47.0215 142.931C43.6915 141.931 22.5215 63.4313 22.5215 63.4313Z" fill="#76AEA6"/>
<path d="M55.0209 130.761C54.8109 130.761 54.6109 130.631 54.5409 130.411L35.2109 70.4111C35.1709 70.2811 35.1809 70.1311 35.2509 70.0111C35.3209 69.8911 35.4309 69.8011 35.5709 69.7711L76.8209 59.9311C77.0809 59.8611 77.3409 60.0211 77.4109 60.2711L94.8209 117.441C94.9009 117.701 94.7509 117.981 94.4909 118.061L55.1609 130.731C55.1109 130.751 55.0609 130.751 55.0109 130.751L55.0209 130.761ZM36.3309 70.6211L55.3409 129.631L93.7309 117.271L76.6009 61.0211L36.3309 70.6311V70.6211Z" fill="#261D2A"/>
<path d="M48.502 76.0012L71.7719 70.6812L84.2719 109.931L61.6719 117.161L48.502 76.0012Z" fill="#212438"/>
<path d="M64.7416 87.5112L68.4016 98.2512L64.0116 100.441L60.3516 88.7312L64.7416 87.5112Z" fill="#FEFFFF"/>
<path d="M45.0213 151.931C44.8113 151.931 44.6113 151.801 44.5513 151.591L18.0513 71.0914C18.0113 70.9614 18.0213 70.8214 18.0813 70.7014L22.0813 63.2014C22.2113 62.9614 22.5113 62.8714 22.7613 62.9914C23.0013 63.1214 23.1013 63.4214 22.9713 63.6714L19.0713 70.9814L45.3513 150.801L101.181 132.521L104.591 125.711C104.711 125.461 105.011 125.361 105.261 125.491C105.511 125.611 105.611 125.911 105.481 126.161L101.981 133.161C101.921 133.281 101.811 133.371 101.691 133.411L45.1913 151.911C45.1413 151.931 45.0914 151.931 45.0314 151.931H45.0213Z" fill="#261D2A"/>
<path d="M45.0209 151.931C45.0209 151.931 44.9709 151.931 44.9409 151.931C44.6709 151.891 44.4809 151.631 44.5209 151.361L46.0209 141.861C46.0609 141.591 46.321 141.401 46.591 141.441C46.861 141.481 47.0509 141.741 47.0109 142.011L45.5109 151.511C45.4709 151.761 45.2609 151.931 45.0209 151.931Z" fill="#261D2A"/>
<path d="M61.2116 84.6814C62.9292 84.6814 64.3216 83.289 64.3216 81.5714C64.3216 79.8538 62.9292 78.4614 61.2116 78.4614C59.494 78.4614 58.1016 79.8538 58.1016 81.5714C58.1016 83.289 59.494 84.6814 61.2116 84.6814Z" fill="#DBBA21"/>
<path d="M69.2916 109.141C71.0092 109.141 72.4016 107.749 72.4016 106.031C72.4016 104.314 71.0092 102.921 69.2916 102.921C67.574 102.921 66.1816 104.314 66.1816 106.031C66.1816 107.749 67.574 109.141 69.2916 109.141Z" fill="#DBBA21"/>
<path d="M71.5219 96.181C71.3019 96.181 71.1019 96.0311 71.0419 95.8111L68.0419 84.5611C67.9719 84.2911 68.1319 84.021 68.3919 83.951C68.6619 83.881 68.9319 84.041 69.0019 84.301L72.0019 95.551C72.0719 95.821 71.9119 96.0911 71.6519 96.1611C71.6119 96.1711 71.5619 96.181 71.5219 96.181Z" fill="#FCFDFF"/>
<path d="M75.2706 99.1812C75.0506 99.1812 74.8506 99.0312 74.7906 98.8112L69.7906 80.3112C69.7206 80.0412 69.8706 79.7712 70.1406 79.7012C70.4106 79.6312 70.6806 79.7812 70.7506 80.0512L75.7506 98.5512C75.8206 98.8212 75.6706 99.0912 75.4006 99.1612C75.3606 99.1712 75.3106 99.1812 75.2706 99.1812Z" fill="#FCFDFF"/>
<path d="M37.8613 107.261C37.7813 107.261 37.7113 107.241 37.6413 107.211C37.3913 107.091 37.2913 106.791 37.4213 106.541C37.6513 106.081 36.9313 104.821 36.3213 104.081C36.1413 103.871 36.1713 103.551 36.3813 103.381C36.5913 103.201 36.9113 103.231 37.0813 103.441C37.3913 103.821 38.9213 105.751 38.3113 106.981C38.2213 107.151 38.0513 107.261 37.8613 107.261Z" fill="#261D2A"/>
<path d="M35.8613 101.091C35.7813 101.091 35.7113 101.071 35.6413 101.041C35.3913 100.921 35.2913 100.621 35.4213 100.371C35.6513 99.9115 34.9313 98.6515 34.3213 97.9115C34.1413 97.7015 34.1713 97.3815 34.3813 97.2115C34.5913 97.0315 34.9113 97.0615 35.0813 97.2715C35.3913 97.6515 36.9213 99.5815 36.3113 100.811C36.2213 100.981 36.0513 101.091 35.8613 101.091Z" fill="#261D2A"/>
<path d="M39.1914 103.591C39.1114 103.591 39.0414 103.571 38.9714 103.541C38.7214 103.421 38.6214 103.121 38.7514 102.871C38.9814 102.411 38.2614 101.151 37.6514 100.411C37.4714 100.201 37.5014 99.8815 37.7114 99.7115C37.9214 99.5315 38.2414 99.5615 38.4114 99.7715C38.7214 100.151 40.2614 102.081 39.6414 103.311C39.5514 103.481 39.3814 103.591 39.1914 103.591Z" fill="#261D2A"/>
<path d="M37.6914 99.0913C37.6114 99.0913 37.5414 99.0713 37.4714 99.0413C37.2214 98.9213 37.1214 98.6213 37.2514 98.3713C37.4814 97.9113 36.7614 96.6513 36.1514 95.9113C35.9714 95.7013 36.0014 95.3812 36.2114 95.2112C36.4214 95.0412 36.7414 95.0612 36.9114 95.2712C37.2214 95.6512 38.7614 97.5813 38.1414 98.8113C38.0514 98.9813 37.8814 99.0913 37.6914 99.0913Z" fill="#261D2A"/>
<path d="M34.0215 95.4311C33.9415 95.4311 33.8715 95.4111 33.8015 95.3811C33.5515 95.2611 33.4515 94.9611 33.5815 94.7111C33.8115 94.2511 33.0915 92.9911 32.4815 92.2511C32.3015 92.0411 32.3315 91.7211 32.5415 91.5511C32.7515 91.3811 33.0715 91.4011 33.2415 91.6111C33.5515 91.9911 35.0915 93.9211 34.4715 95.1511C34.3815 95.3211 34.2115 95.4311 34.0215 95.4311Z" fill="#261D2A"/>
<path d="M35.8613 93.4313C35.7813 93.4313 35.7113 93.4113 35.6413 93.3813C35.3913 93.2613 35.2913 92.9613 35.4213 92.7113C35.6513 92.2513 34.9313 90.9913 34.3213 90.2513C34.1413 90.0413 34.1713 89.7213 34.3813 89.5513C34.5913 89.3713 34.9113 89.4013 35.0813 89.6113C35.3913 89.9913 36.9213 91.9213 36.3113 93.1513C36.2213 93.3213 36.0513 93.4313 35.8613 93.4313Z" fill="#261D2A"/>
<path d="M40.8613 109.431C40.7813 109.431 40.7113 109.411 40.6413 109.381C40.3913 109.261 40.2913 108.961 40.4213 108.711C40.6513 108.251 39.9313 106.991 39.3213 106.251C39.1413 106.041 39.1713 105.721 39.3813 105.551C39.5913 105.371 39.9113 105.401 40.0813 105.611C40.3913 105.991 41.9213 107.921 41.3113 109.151C41.2213 109.321 41.0513 109.431 40.8613 109.431Z" fill="#261D2A"/>
</svg>
