<svg width="130" height="108" viewBox="0 0 130 108" fill="none" xmlns="http://www.w3.org/2000/svg">
<path d="M6.7207 43.14L50.7207 33.14L62.7207 89.14L16.7207 102.48L6.7207 43.14Z" fill="#76AEA6"/>
<path d="M22.4702 62.64C22.4702 62.64 22.1402 54.81 31.3002 54.31C40.4602 53.81 53.6302 64.64 55.4702 64.48C57.3102 64.32 52.9702 74.15 49.1402 71.81C45.3102 69.47 39.3102 66.48 39.3102 66.48C39.3102 66.48 48.4802 79.48 48.8102 80.81C49.1402 82.14 31.6403 87.31 27.4803 88.48C23.3203 89.65 22.4803 62.65 22.4803 62.65L22.4702 62.64Z" fill="#FEFFFF"/>
<path d="M25.97 75.48C25.97 75.48 20.64 76.48 19.47 80.81C18.3 85.14 16.64 88.81 17.47 89.81C18.3 90.81 26.47 88.64 28.64 84.81C30.81 80.98 25.97 75.48 25.97 75.48Z" fill="#DBBA21"/>
<path d="M27.1406 58.14C27.1406 58.14 31.9706 46.64 33.3106 46.81C34.6506 46.98 35.4807 60.31 35.4807 60.31L27.1506 58.14H27.1406Z" fill="#FEFFFF"/>
<path d="M34.1507 72.06C34.0207 72.06 33.8907 72.06 33.7607 72.03C30.6007 71.58 29.2107 65.51 29.1507 65.25C29.0907 64.98 29.2607 64.71 29.5307 64.65C29.8007 64.59 30.0707 64.76 30.1307 65.03C30.4807 66.6 31.8407 70.74 33.9007 71.04C35.3307 71.24 37.0407 69.58 38.8707 66.23C39.0007 65.99 39.3107 65.9 39.5507 66.03C39.7907 66.16 39.8807 66.47 39.7507 66.71C37.7807 70.3 35.9507 72.05 34.1507 72.05V72.06Z" fill="#261D2A"/>
<path d="M23.3098 67.64C23.3098 67.64 17.9798 68.64 16.8098 72.97C15.6398 77.3 13.9798 80.97 14.8098 81.97C15.6398 82.97 23.8099 80.8 25.9799 76.97C28.1499 73.14 23.3098 67.64 23.3098 67.64Z" fill="#CA7A8C"/>
<path d="M28.8102 54.98C28.8102 54.98 22.8102 51.31 17.8102 55.15C12.8102 58.99 16.6402 66.15 13.6402 69.98C10.6402 73.81 20.3102 73.15 24.3102 67.48C28.3102 61.81 23.3102 56.65 28.8102 54.98Z" fill="#A27298"/>
<path d="M35.8593 63.33C35.7193 63.33 35.5493 63.3 35.3593 63.19C34.1693 62.51 33.1693 58.84 32.9793 58.11C32.9093 57.84 33.0693 57.57 33.3393 57.5C33.6093 57.43 33.8793 57.59 33.9493 57.86C34.5293 60.11 35.4293 62.2 35.8693 62.34C36.1893 62.1 36.2693 59.81 35.9693 57.56C35.9293 57.29 36.1293 57.04 36.3993 57C36.6593 56.96 36.9293 57.15 36.9593 57.43C37.2293 59.46 37.4793 62.92 36.0993 63.31C36.0293 63.33 35.9493 63.34 35.8493 63.34L35.8593 63.33Z" fill="#261D2A"/>
<path d="M52.3095 67.64C52.0995 67.64 51.9095 67.51 51.8395 67.3C51.4595 66.18 50.6195 64.56 49.9195 64.47C49.6495 64.44 49.4495 64.19 49.4895 63.91C49.5195 63.64 49.7895 63.44 50.0495 63.48C51.6195 63.68 52.6095 66.43 52.7995 66.98C52.8895 67.24 52.7495 67.52 52.4795 67.61C52.4295 67.63 52.3695 67.64 52.3195 67.64H52.3095Z" fill="#261D2A"/>
<path d="M45.9702 69.73C45.8102 69.73 45.6502 69.65 45.5502 69.51C44.7302 68.28 45.9802 66.13 46.1202 65.89C46.2602 65.65 46.5702 65.58 46.8102 65.72C47.0502 65.86 47.1202 66.17 46.9802 66.41C46.6302 67 46.0202 68.41 46.3802 68.96C46.5302 69.19 46.4702 69.5 46.2402 69.65C46.1602 69.71 46.0602 69.73 45.9602 69.73H45.9702Z" fill="#261D2A"/>
<path d="M28.7195 55.06C28.5495 55.06 28.3895 54.98 28.2995 54.83C28.1495 54.6 28.2195 54.29 28.4595 54.14C30.6195 52.79 34.9195 53.95 35.1095 54C35.3795 54.07 35.5295 54.35 35.4595 54.61C35.3895 54.88 35.1095 55.03 34.8495 54.96C33.7295 54.65 30.4795 54.06 28.9995 54.98C28.9195 55.03 28.8295 55.06 28.7395 55.06H28.7195Z" fill="#261D2A"/>
<path d="M34.5599 52.14C34.4699 52.14 34.3799 52.12 34.2999 52.07C33.8799 51.82 31.8899 51.86 30.2799 52.05C30.0099 52.08 29.7599 51.89 29.7199 51.61C29.6899 51.34 29.8799 51.09 30.1599 51.05C31.0199 50.95 33.8999 50.66 34.8099 51.2C35.0499 51.34 35.1199 51.65 34.9799 51.89C34.8899 52.05 34.7199 52.13 34.5499 52.13L34.5599 52.14Z" fill="#261D2A"/>
<path d="M34.1397 49.56C34.0497 49.56 33.9497 49.53 33.8697 49.48C33.2697 49.1 31.9397 49.34 31.5197 49.46C31.2497 49.53 30.9797 49.38 30.9097 49.11C30.8397 48.84 30.9897 48.57 31.2597 48.5C31.4697 48.44 33.3397 47.96 34.4097 48.64C34.6397 48.79 34.7097 49.1 34.5597 49.33C34.4597 49.48 34.2997 49.56 34.1397 49.56Z" fill="#261D2A"/>
<path d="M17.4712 67.81C17.3312 67.81 17.1912 67.75 17.0912 67.64C16.9112 67.43 16.9312 67.12 17.1412 66.93C17.9212 66.25 17.8612 64.95 17.7912 63.44C17.7112 61.79 17.6312 59.92 18.6212 58.3C20.5912 55.07 25.3112 55.46 25.5112 55.48C25.7912 55.5 25.9912 55.75 25.9612 56.02C25.9312 56.29 25.7012 56.5 25.4212 56.47C25.3812 56.47 21.1212 56.12 19.4712 58.82C18.6412 60.18 18.7112 61.82 18.7812 63.4C18.8612 65.09 18.9312 66.69 17.7912 67.69C17.7012 67.77 17.5812 67.81 17.4612 67.81H17.4712Z" fill="#261D2A"/>
<path d="M22.0601 64.64C21.7901 64.64 21.5701 64.43 21.5601 64.15C21.5501 63.75 21.4801 60.16 22.9201 58.78C23.3401 58.38 23.8501 58.19 24.4201 58.22C24.7001 58.24 24.9001 58.48 24.8901 58.75C24.8701 59.03 24.6401 59.23 24.3601 59.22C24.0801 59.2 23.8301 59.29 23.6201 59.5C22.6701 60.42 22.5301 63.15 22.5601 64.12C22.5601 64.4 22.3501 64.63 22.0701 64.63H22.0601V64.64Z" fill="#261D2A"/>
<path d="M18.4411 79.09C18.1611 79.09 17.9811 79.06 17.9611 79.05C17.6911 79 17.5111 78.74 17.5611 78.46C17.6111 78.19 17.8811 78.01 18.1411 78.06C18.1811 78.06 19.2311 78.24 20.3511 77.42C21.6511 76.47 22.5211 74.53 22.8911 71.82C22.9311 71.55 23.1811 71.35 23.4511 71.39C23.7211 71.43 23.9211 71.68 23.8811 71.95C23.4711 75.01 22.4711 77.13 20.9111 78.25C19.9311 78.95 18.9811 79.08 18.4311 79.08L18.4411 79.09Z" fill="#261D2A"/>
<path d="M20.89 87.48C20.69 87.48 20.51 87.36 20.43 87.17C20.32 86.92 20.45 86.62 20.7 86.52C20.89 86.44 25.47 84.48 25.47 78.9C25.47 78.62 25.69 78.4 25.97 78.4C26.25 78.4 26.47 78.62 26.47 78.9C26.47 85.16 21.13 87.42 21.08 87.45C21.02 87.48 20.95 87.49 20.89 87.49V87.48Z" fill="#261D2A"/>
<path d="M18.9701 74.89C18.9701 74.89 18.9401 74.89 18.9301 74.89C18.6501 74.87 18.4501 74.62 18.4701 74.35C18.6601 72.2 20.6301 71.01 20.7101 70.96C20.9501 70.82 21.2501 70.9 21.3901 71.14C21.5301 71.38 21.4501 71.68 21.2201 71.83C21.2001 71.83 19.6001 72.81 19.4601 74.44C19.4401 74.7 19.2201 74.9 18.9601 74.9L18.9701 74.89Z" fill="#261D2A"/>
<path d="M43.8105 52.39C43.8105 52.39 43.6405 49.64 44.0605 49.81C44.4805 49.98 45.6404 51.48 45.6404 51.48C45.6404 51.48 47.8104 51.06 47.6404 51.4C47.4704 51.74 46.8105 53.23 46.8105 53.23C46.8105 53.23 47.2305 55.23 46.7305 55.31C46.2305 55.39 44.7305 53.81 44.7305 53.81C44.7305 53.81 42.2305 54.48 42.4805 53.89C42.7305 53.3 43.8105 52.39 43.8105 52.39Z" fill="#FEFFFF"/>
<path d="M12.72 40.63L5.53 51.14L0 47.27L7.19 37.87L12.72 40.63Z" fill="#D4821F"/>
<path d="M11.9109 96.08L23.7108 100.88L21.0909 107.11L10.3809 102.07L11.9109 96.08Z" fill="#D4821F"/>
<path d="M44.53 29L56.33 33.8L53.71 40.03L43 34.99L44.53 29Z" fill="#D4821F"/>
<path d="M57.9609 92.37L61.6409 80.18L68.0909 82.2L64.071 93.34L57.9609 92.37Z" fill="#D4821F"/>
<path d="M83.4509 5.89001L77.9609 49.75L118.681 55.23L124.171 8.24002L83.4509 5.89001Z" fill="#A27298"/>
<path d="M112.289 56.49L121.459 49.62L125.049 54.51L116.199 60.44L112.289 56.49Z" fill="#CA7A8C"/>
<path d="M77.8691 6.87L87.0392 0L90.6292 4.9L81.7791 10.83L77.8691 6.87Z" fill="#CA7A8C"/>
<path d="M76.51 42.32L84.32 50.7L79.84 54.79L73 46.63L76.51 42.32Z" fill="#CA7A8C"/>
<path d="M126.01 14.74L117.83 6.73L122.13 2.44L129.33 10.28L126.01 14.74Z" fill="#CA7A8C"/>
<path d="M94.5291 12.4C94.5291 12.4 105.109 7.32002 111.029 14.09C116.949 20.86 105.319 28.26 105.319 28.26C105.319 28.26 107.439 32.7 105.739 32.7C104.039 32.7 101.929 29.32 101.929 29.32C101.929 29.32 100.339 33.44 99.2891 33.23C98.2391 33.02 98.4391 29 98.4391 29C98.4391 29 95.1591 32.49 93.8891 31.64C92.6191 30.79 95.1591 26.99 95.1591 26.99C95.1591 26.99 83.3191 19.59 94.5291 12.4Z" fill="#FEFFFF"/>
<path d="M91.1898 32.85L106.31 43.6C106.31 43.6 111.19 43.35 111.93 44.98C112.67 46.61 107.31 46.6 107.31 46.6C107.31 46.6 107.81 50.22 106.19 50.6C103.72 51.17 104.44 45.72 104.44 45.72L89.4398 34.72C89.4398 34.72 83.5598 35.6 84.1898 33.6C84.5298 32.5 88.1898 31.72 88.1898 31.72C88.1898 31.72 87.3098 29.1 89.1898 27.97C91.0698 26.84 91.1898 32.85 91.1898 32.85Z" fill="#FEFFFF"/>
<path d="M107.779 34.07L90.7291 41.4C90.7291 41.4 86.0191 40.13 84.9391 41.56C83.8591 42.99 89.1191 44.12 89.1191 44.12C89.1191 44.12 87.8691 47.56 89.3791 48.27C91.6691 49.34 92.1091 43.87 92.1091 43.87L109.089 36.27C109.089 36.27 114.649 38.36 114.459 36.27C114.349 35.12 110.939 33.6 110.939 33.6C110.939 33.6 112.349 31.22 110.749 29.72C109.149 28.22 107.769 34.07 107.769 34.07H107.779Z" fill="#FEFFFF"/>
<path d="M99.0695 24.98C99.0695 24.98 100.57 21.23 101.57 22.06C102.57 22.89 103.07 25.64 102.57 26.14C102.07 26.64 101.149 25.06 101.149 25.06C101.149 25.06 98.4795 27.31 99.0695 24.98Z" fill="#212438"/>
<path d="M94.5691 16.14C94.5691 16.14 99.4891 18.81 99.4891 19.89C99.4891 20.97 98.0691 23.72 95.2391 22.72C92.4091 21.72 92.7391 16.89 94.5691 16.14Z" fill="#212438"/>
<path d="M102.901 19.48C102.901 19.48 107.651 18.15 108.231 18.31C108.811 18.47 109.981 24.06 106.481 24.14C102.981 24.22 102.561 20.14 102.901 19.47V19.48Z" fill="#212438"/>
<path d="M109.4 15.64C109.24 15.64 109.08 15.56 108.98 15.41C106.64 11.79 102.71 12.9 102.54 12.95C102.27 13.03 102 12.88 101.92 12.61C101.84 12.35 101.99 12.07 102.25 11.99C102.3 11.98 107.06 10.6 109.81 14.86C109.96 15.09 109.89 15.4 109.66 15.55C109.58 15.6 109.48 15.63 109.39 15.63L109.4 15.64Z" fill="#261D2A"/>
<path d="M111.069 19.31C111.069 19.31 110.989 19.31 110.949 19.29C110.679 19.22 110.519 18.95 110.589 18.68C110.649 18.45 110.289 17.65 109.829 17.01C109.669 16.78 109.719 16.47 109.949 16.31C110.179 16.15 110.489 16.2 110.649 16.43C110.919 16.81 111.769 18.1 111.559 18.92C111.499 19.15 111.299 19.3 111.069 19.3V19.31Z" fill="#261D2A"/>
<path d="M98.0705 41.81C97.9605 41.81 97.8405 41.77 97.7505 41.69L95.0005 39.36C94.7905 39.18 94.7605 38.87 94.9405 38.65C95.1205 38.44 95.4405 38.42 95.6405 38.59L98.3905 40.92C98.6005 41.1 98.6305 41.41 98.4505 41.63C98.3505 41.75 98.2105 41.81 98.0705 41.81Z" fill="#261D2A"/>
<path d="M101.07 40.31C100.97 40.31 100.86 40.28 100.77 40.21L98.4399 38.46C98.2199 38.29 98.1699 37.98 98.3399 37.76C98.5099 37.54 98.8199 37.5 99.0399 37.66L101.37 39.41C101.59 39.58 101.64 39.89 101.47 40.11C101.37 40.24 101.22 40.31 101.07 40.31Z" fill="#261D2A"/>
</svg>
