<svg width="210" height="186" viewBox="0 0 210 186" fill="none" xmlns="http://www.w3.org/2000/svg">
<path d="M108.151 34.4199C108.151 34.4199 68.6709 -10.5501 30.7309 11.9499L29.3609 50.2999L4.63086 81.6099C18.4409 120.79 67.7708 160.61 112.681 185.55C112.681 185.55 210.151 117.61 209.921 55.3799L182.621 39.6799L175.881 2.18992C153.281 -5.07008 126.051 10.0699 108.141 34.4299L108.151 34.4199Z" fill="#5F809D"/>
<path d="M141.471 150.14C143.441 148.5 144.371 147.15 144.601 146.03C138.071 145.78 132.651 140.68 132.651 140.68C132.651 140.68 145.601 141.07 144.601 146.03C147.171 146.13 149.911 145.47 152.561 143.46C163.611 135.08 153.101 132.56 153.101 132.56C153.101 132.56 166.061 133.05 165.561 123.89C165.421 121.35 163.961 120.39 162.851 120.03C162.191 120.18 161.721 120.13 161.581 119.8C161.581 119.8 162.151 119.8 162.851 120.03C166.931 119.08 178.691 110.08 171.591 106.44C137.161 88.76 132.651 77.3699 132.651 77.3699C138.121 45.49 100.231 67.3799 100.231 67.3799C100.231 67.3799 48.1108 24.14 30.7308 11.95C23.8808 16.01 17.0808 22.2699 10.5708 31.3899C-0.639157 47.0999 -1.47916 64.2899 4.62084 81.5999L54.9708 104.6C34.9108 146.44 125.861 163.13 141.471 150.13V150.14Z" fill="#DD98A2"/>
<path d="M158.961 120.6C151.921 120.6 147.861 114.5 147.821 114.43C147.671 114.2 147.741 113.89 147.971 113.74C148.201 113.59 148.511 113.66 148.661 113.89C148.851 114.18 153.441 121.06 161.471 119.33C161.741 119.27 162.011 119.44 162.061 119.71C162.121 119.98 161.951 120.25 161.681 120.3C160.731 120.5 159.821 120.6 158.961 120.6Z" fill="#261D2A"/>
<path d="M149.391 133.55C140.261 133.55 137.681 124.13 137.651 124.02C137.581 123.75 137.741 123.48 138.011 123.41C138.281 123.34 138.551 123.5 138.621 123.77C138.741 124.23 141.691 134.9 152.981 132.08C153.251 132.01 153.521 132.18 153.591 132.44C153.661 132.71 153.491 132.98 153.231 133.05C151.841 133.4 150.571 133.55 149.401 133.55H149.391Z" fill="#261D2A"/>
<path d="M141.122 146.72C131.772 146.72 127.162 137.17 127.102 137.06C126.982 136.81 127.102 136.51 127.342 136.4C127.592 136.28 127.892 136.39 128.002 136.64C128.232 137.13 133.792 148.59 145.352 145.06C145.612 144.98 145.892 145.13 145.972 145.39C146.052 145.65 145.902 145.93 145.642 146.01C144.022 146.5 142.512 146.72 141.112 146.72H141.122Z" fill="#261D2A"/>
<path d="M114.91 138.92C112.93 127.02 106.13 132.68 100.86 139.37C102.86 134.99 104.18 129.56 102.7 123.89C100.76 116.43 93.9501 121.24 88.3101 126.94C92.9101 120.67 96.6901 113.23 90.8401 110.96C85.3801 108.84 80.1301 111.29 75.6901 115.19C75.9001 114.05 75.7501 110.45 75.2101 109.6C70.2901 101.97 52.4101 113.98 52.0101 124.38C51.6101 134.79 57.9901 139.18 62.3501 134.59C62.3501 134.59 62.3901 134.55 62.4401 134.5C56.3601 148.68 71.4801 147.52 78.3001 143.69C78.3001 143.69 69.7501 154.25 89.6901 153.61C89.6901 153.61 119.73 167.87 114.91 138.9V138.92Z" fill="#D37E3A"/>
<path d="M60.7113 135.8C60.4413 135.8 60.2213 135.59 60.2113 135.32C60.2013 135.04 60.4213 134.81 60.6913 134.8C64.9113 134.65 71.9213 121.37 74.2713 116.26C74.3813 116.01 74.6813 115.9 74.9313 116.01C75.1813 116.13 75.2913 116.42 75.1813 116.67C75.1613 116.72 73.0013 121.41 70.1913 126.06C66.3513 132.43 63.1713 135.7 60.7313 135.79C60.7313 135.79 60.7213 135.79 60.7113 135.79V135.8Z" fill="#261D2A"/>
<path d="M63.1008 120.93C63.1408 121.06 63.1908 121.18 63.2408 121.3C63.5008 121.8 63.9108 122.1 64.4408 122.15C66.8808 122.4 71.4308 116.87 72.3108 115.76C72.4808 115.54 72.4508 115.23 72.2308 115.06C72.0108 114.89 71.7008 114.92 71.5308 115.14C69.6108 117.55 66.0108 121.31 64.5408 121.16C64.4108 121.15 64.2608 121.1 64.1308 120.85C63.1908 118.99 66.9608 113.27 69.5708 110.12C69.7508 109.91 69.7208 109.59 69.5008 109.42C69.2908 109.24 68.9708 109.27 68.8008 109.49C68.0908 110.34 62.1508 117.66 63.0908 120.95L63.1008 120.93Z" fill="#261D2A"/>
<path d="M80.6604 124.39C80.5304 124.39 80.3904 124.38 80.2704 124.35C79.7104 124.24 79.3204 123.92 79.1204 123.43C78.2104 121.16 82.2704 115.26 83.0904 114.1C83.2504 113.88 83.5604 113.82 83.7904 113.98C84.0204 114.14 84.0704 114.45 83.9104 114.68C82.1304 117.19 79.5004 121.69 80.0504 123.06C80.1004 123.18 80.1904 123.31 80.4604 123.37C82.5104 123.77 86.9604 118.56 89.2804 115.18C89.4404 114.95 89.7504 114.89 89.9804 115.05C90.2104 115.21 90.2704 115.52 90.1104 115.75C89.4804 116.66 84.0904 124.39 80.6704 124.39H80.6604Z" fill="#261D2A"/>
<path d="M78.3007 143.71C78.1507 143.71 78.0107 143.65 77.9107 143.53C77.7407 143.32 77.7707 143 77.9807 142.83C81.2007 140.22 88.6207 128.19 88.6907 128.07C88.8307 127.83 89.1407 127.76 89.3807 127.91C89.6207 128.05 89.6907 128.36 89.5407 128.6C89.2307 129.1 81.9607 140.89 78.6007 143.61C78.5107 143.69 78.4007 143.72 78.2907 143.72L78.3007 143.71Z" fill="#261D2A"/>
<path d="M89.6917 154.13C89.4217 154.13 89.2017 153.92 89.1917 153.65C89.1817 153.37 89.4017 153.14 89.6717 153.13C93.8917 152.98 100.902 139.7 103.252 134.59C103.362 134.34 103.662 134.23 103.912 134.34C104.162 134.46 104.272 134.75 104.162 135C104.142 135.05 101.982 139.74 99.1717 144.39C95.3317 150.76 92.1517 154.03 89.7117 154.12C89.7117 154.12 89.7017 154.12 89.6917 154.12V154.13Z" fill="#261D2A"/>
<path d="M92.2307 137.15C91.9207 137.15 91.7206 137.02 91.6106 136.91C90.2706 135.63 93.2207 128.54 94.5507 125.56C94.6607 125.31 94.9606 125.19 95.2106 125.31C95.4606 125.42 95.5806 125.72 95.4606 125.97C93.2606 130.9 91.8107 135.59 92.3007 136.2C93.1907 136.23 97.6307 131.78 101.241 127.59C101.421 127.38 101.741 127.36 101.951 127.54C102.161 127.72 102.181 128.04 102.001 128.25C100.741 129.72 94.3306 137.06 92.2906 137.16C92.2706 137.16 92.2507 137.16 92.2307 137.16V137.15Z" fill="#261D2A"/>
<path d="M107.021 147.87C106.881 147.87 106.751 147.85 106.621 147.8C104.351 146.92 105.811 137.35 106.311 134.44C106.361 134.17 106.611 133.99 106.891 134.03C107.161 134.08 107.341 134.34 107.301 134.61C106.221 140.9 106.081 146.51 106.991 146.87C107.861 147.21 110.731 143.26 113.131 138.43C113.251 138.18 113.551 138.08 113.801 138.2C114.051 138.32 114.151 138.62 114.031 138.87C112.941 141.06 109.381 147.88 107.041 147.88L107.021 147.87Z" fill="#261D2A"/>
<path d="M110.531 43.1099C75.0013 59.9699 75.9513 82.0299 81.8913 82.6499C87.8313 83.2599 106.091 71.6099 106.091 71.6099C106.091 71.6099 118.191 83.0599 130.391 78.4199C135.321 85.3199 144.491 94.2299 165.511 103.7C165.511 103.7 177.781 100.69 178.171 90.8799C178.551 81.0699 175.461 77.3699 175.461 77.3699C175.461 77.3699 197.241 65.6599 209.941 55.3599C209.871 49.0799 208.791 42.3899 206.521 36.3099C199.231 16.7999 188.261 6.13992 175.911 2.16992L130.991 45.8099C126.111 43.4799 118.631 39.2599 110.551 43.0999L110.531 43.1099Z" fill="#D37E3A"/>
<path d="M132.65 140.68C132.65 140.68 138.07 145.78 144.6 146.03C145.6 141.07 132.65 140.68 132.65 140.68Z" fill="#DD98A2"/>
<path d="M162.85 120.04C162.14 119.81 161.58 119.81 161.58 119.81C161.72 120.14 162.19 120.19 162.85 120.04Z" fill="#DD98A2"/>
<path d="M124.751 80.1899C119.051 80.1899 112.691 77.4499 105.781 71.9999C105.561 71.8299 105.531 71.5099 105.701 71.2999C105.871 71.0799 106.191 71.0499 106.401 71.2199C115.071 78.0499 122.781 80.5099 129.311 78.5299C138.761 75.6599 142.531 64.3099 142.571 64.1999C142.661 63.9399 142.941 63.7999 143.201 63.8799C143.461 63.9599 143.611 64.2499 143.521 64.5099C143.361 64.9999 139.541 76.4699 129.601 79.4899C128.041 79.9599 126.421 80.1999 124.751 80.1999V80.1899Z" fill="#261D2A"/>
<path d="M82.3911 77.16C82.1811 77.16 81.9811 77.02 81.9111 76.81C81.8311 76.55 81.9711 76.27 82.2411 76.18C87.7511 74.43 90.8011 72.23 91.0511 69.84C91.4111 66.32 85.8911 63.16 85.8411 63.13C85.6011 62.99 85.5111 62.69 85.6511 62.45C85.7811 62.21 86.0911 62.12 86.3311 62.26C86.5811 62.4 92.4811 65.77 92.0511 69.94C91.7611 72.8 88.5611 75.22 82.5511 77.13C82.5011 77.15 82.4511 77.15 82.4011 77.15L82.3911 77.16Z" fill="#261D2A"/>
<path d="M36.6911 110.8C36.6911 110.8 38.6811 104.72 39.4111 105.44C40.1411 106.16 41.2711 110.05 41.4611 110.76C41.5811 111.21 46.6911 111.81 46.0811 112.87C45.4711 113.93 41.4911 114.98 41.4911 114.98C41.4911 114.98 40.1011 119.92 39.1311 119.8C38.1611 119.68 37.1311 115.19 37.1311 115.19C37.1311 115.19 32.1211 113.16 32.1211 112.59C32.1211 112.02 36.6811 110.79 36.6811 110.79L36.6911 110.8Z" fill="#FCFDFF"/>
<path d="M188.531 78.16C188.531 78.16 190.521 72.08 191.251 72.8C191.981 73.52 193.111 77.41 193.301 78.12C193.421 78.57 198.531 79.17 197.921 80.23C197.311 81.29 193.331 82.34 193.331 82.34C193.331 82.34 191.941 87.28 190.971 87.16C190.001 87.04 188.971 82.55 188.971 82.55C188.971 82.55 183.961 80.52 183.961 79.95C183.961 79.38 188.521 78.15 188.521 78.15L188.531 78.16Z" fill="#FCFDFF"/>
<path d="M77.92 29.6199C77.92 29.6199 79.19 25.7299 79.66 26.1899C80.13 26.6499 80.85 29.1399 80.97 29.5999C81.05 29.8799 84.32 30.2699 83.93 30.9499C83.54 31.6299 80.99 32.2999 80.99 32.2999C80.99 32.2999 80.1 35.4599 79.48 35.3899C78.86 35.3099 78.2 32.4399 78.2 32.4399C78.2 32.4399 75 31.1399 75 30.7799C75 30.4199 77.92 29.6299 77.92 29.6299V29.6199Z" fill="#FCFDFF"/>
<path d="M109.512 165C109.512 165 110.782 161.11 111.252 161.57C111.722 162.04 112.442 164.52 112.562 164.98C112.642 165.26 115.912 165.65 115.522 166.33C115.132 167.01 112.582 167.68 112.582 167.68C112.582 167.68 111.692 170.84 111.072 170.77C110.452 170.69 109.792 167.82 109.792 167.82C109.792 167.82 106.592 166.52 106.592 166.16C106.592 165.8 109.512 165.01 109.512 165.01V165Z" fill="#FCFDFF"/>
<path d="M142.762 18.7499C142.762 18.7499 144.032 14.8599 144.502 15.3199C144.972 15.7899 145.692 18.2699 145.812 18.7299C145.892 19.0099 149.162 19.3999 148.772 20.0799C148.382 20.7599 145.832 21.4299 145.832 21.4299C145.832 21.4299 144.942 24.5899 144.322 24.5199C143.702 24.4399 143.042 21.5699 143.042 21.5699C143.042 21.5699 139.842 20.2699 139.842 19.9099C139.842 19.5499 142.762 18.7599 142.762 18.7599V18.7499Z" fill="#FCFDFF"/>
<path d="M131.741 30.7599C131.741 31.7099 130.971 32.4799 130.021 32.4799C129.071 32.4799 128.301 31.7099 128.301 30.7599C128.301 29.8099 129.071 29.0399 130.021 29.0399C130.971 29.0399 131.741 29.8099 131.741 30.7599Z" fill="#FCFDFF"/>
<path d="M184.55 102.46C185.5 102.46 186.27 101.69 186.27 100.74C186.27 99.79 185.5 99.0199 184.55 99.0199C183.6 99.0199 182.83 99.79 182.83 100.74C182.83 101.69 183.6 102.46 184.55 102.46Z" fill="#FCFDFF"/>
<path d="M63.8716 20.5799C63.8716 21.5299 63.1016 22.2999 62.1516 22.2999C61.2016 22.2999 60.4316 21.5299 60.4316 20.5799C60.4316 19.6299 61.2016 18.8599 62.1516 18.8599C63.1016 18.8599 63.8716 19.6299 63.8716 20.5799Z" fill="#FCFDFF"/>
<path d="M25.5013 100.74C26.4512 100.74 27.2213 99.9699 27.2213 99.0199C27.2213 98.07 26.4512 97.2999 25.5013 97.2999C24.5513 97.2999 23.7812 98.07 23.7812 99.0199C23.7812 99.9699 24.5513 100.74 25.5013 100.74Z" fill="#FCFDFF"/>
</svg>
