<svg width="28" height="27" viewBox="0 0 28 27" fill="none" xmlns="http://www.w3.org/2000/svg">
<path d="M22.1961 22.548C23.9566 20.3392 22.6893 18.2987 21.1557 17.4987C23.5204 16.427 26.3976 14.1672 24.6145 11.7808C20.3538 6.07284 14.5719 14.7476 14.5719 14.7476C10.4166 19.7831 19.3589 26.1111 22.1961 22.548Z" fill="#DD98A2"/>
<path d="M21.7668 19.4515C21.6826 19.6975 21.5508 19.9589 21.3493 20.2387C20.7383 21.0971 20.0106 21.5244 19.1917 21.5082C17.4811 21.4722 16.1 19.4243 16.047 19.3322C15.8939 19.1001 15.9565 18.7939 16.1886 18.6408C16.4207 18.4877 16.727 18.5503 16.88 18.7824C17.1924 19.2593 18.2291 20.4916 19.2061 20.509C19.6805 20.5129 20.1128 20.2381 20.5223 19.6596C21.1333 18.8012 20.8082 18.3305 20.5038 18.0466C20.1585 17.7275 19.6733 17.5086 19.1811 17.3717C18.3205 17.8169 17.2808 18.1057 16.7842 17.7349C16.539 17.5558 16.4562 17.242 16.5631 16.9298C16.657 16.6555 16.9477 16.3005 17.7547 16.228C18.1155 16.193 18.5706 16.222 19.0285 16.3048C19.2955 16.1425 19.5405 15.9516 19.7415 15.735C20.3253 15.1105 20.1708 14.6665 20.1278 14.5143C20.0477 14.2543 19.9098 14.1015 19.6922 14.027C18.8785 13.7484 17.1897 14.5442 16.3185 15.1126C16.0864 15.2657 15.7802 15.2031 15.6271 14.971C15.4741 14.7389 15.5367 14.4327 15.7688 14.2796C16.0422 14.0984 18.4867 12.5466 20.0256 13.0841C20.5364 13.259 20.9001 13.6478 21.079 14.2058C21.3566 15.062 21.0365 15.9353 20.2019 16.6748C20.7974 16.9422 21.3192 17.3322 21.6091 17.8437C21.8212 18.2123 21.9811 18.7639 21.7479 19.445L21.7668 19.4515Z" fill="#261D2A"/>
<path d="M3.08522 18.7208C4.46346 23.0613 15.0794 20.3648 13.0109 14.1814C13.0109 14.1814 10.7347 4.00525 4.70783 7.80796C2.18712 9.39708 4.05893 12.5431 5.87805 14.3921C4.15922 14.5963 2.23737 16.0416 3.09143 18.7335L3.08522 18.7208Z" fill="#DD98A2"/>
<path d="M12.0967 13.7628C12.0643 13.8574 12.0035 13.9423 11.9176 14.008C11.6917 14.1738 11.3822 14.1206 11.2165 13.8948C10.6067 13.0518 9.31802 11.6909 8.45801 11.6713C8.2272 11.6662 8.04939 11.7533 7.87056 11.9669C7.77466 12.0926 7.47129 12.4538 7.79377 13.2407C7.90847 13.5231 8.07074 13.7901 8.26165 14.0352C8.72898 14.1212 9.14851 14.2543 9.48236 14.4214C10.213 14.7879 10.3551 15.2065 10.3496 15.5005C10.3405 15.8357 10.1487 16.0871 9.85388 16.1764C9.258 16.3423 8.38098 15.6932 7.74177 14.967C7.23932 14.9218 6.70149 14.949 6.27318 15.1195C5.89243 15.2745 5.41228 15.5963 5.67594 16.6167C5.85054 17.3107 6.15396 17.7211 6.60484 17.8861C7.52551 18.2225 8.93277 17.4465 9.39399 17.1182C9.61663 16.9619 9.9261 17.015 10.0919 17.2409C10.2482 17.4635 10.1951 17.773 9.96918 17.9388C9.8865 17.995 7.8541 19.4237 6.25873 18.8352C5.48942 18.5506 4.97295 17.8981 4.7093 16.8777C4.38122 15.6132 4.85175 14.9181 5.30377 14.555C5.75902 14.1824 6.38975 14.0073 7.03515 13.9746C6.51826 12.9837 6.54167 12.051 7.10706 11.3567C7.47445 10.9011 7.9538 10.6742 8.49759 10.6913C10.129 10.7425 11.8494 13.065 12.0338 13.329C12.1339 13.469 12.1515 13.6336 12.0997 13.7849L12.0967 13.7628Z" fill="#261D2A"/>
<path d="M21.4234 5.66725C21.4234 5.66725 21.404 5.72401 21.3942 5.75239C21.2595 5.99164 20.9552 6.0777 20.7159 5.94293C20.4042 5.77279 20.1072 5.74506 19.7489 5.86547C17.9761 6.47403 16.0158 10.3162 15.4096 11.747C15.3 12.0054 15.0082 12.1168 14.7592 12.0105C14.5008 11.9008 14.3926 11.5995 14.4957 11.36C14.7344 10.7864 16.9224 5.78556 19.4371 4.92373C20.0714 4.70753 20.6654 4.76296 21.2258 5.07111C21.4399 5.1867 21.5328 5.44044 21.455 5.6675L21.4234 5.66725Z" fill="#261D2A"/>
<path d="M13.7089 11.2178C13.6279 11.4543 13.3896 11.5947 13.1434 11.5421C12.875 11.4924 12.6905 11.2285 12.7528 10.9539C12.769 10.9065 13.7051 5.85753 11.0445 4.4286C10.802 4.30329 10.7065 3.99576 10.8413 3.75651C10.9666 3.51403 11.2741 3.4185 11.5134 3.55327C14.8257 5.3322 13.7715 10.9115 13.7316 11.1516C13.7251 11.1705 13.7154 11.1989 13.7089 11.2178Z" fill="#261D2A"/>
</svg>
