<svg width="67" height="58" viewBox="0 0 67 58" fill="none" xmlns="http://www.w3.org/2000/svg">
<path d="M59.0021 17.5345C58.8752 17.4544 58.7858 17.3152 58.7706 17.1518C58.7443 16.8751 58.9521 16.6396 59.2289 16.6134C59.6437 16.5559 62.5739 15.7925 64.0187 15.3211C62.9418 14.854 60.9059 14.0888 59.0306 13.425C58.7703 13.3316 58.6328 13.0437 58.7262 12.7833C58.8196 12.523 59.1075 12.3855 59.3679 12.4789C65.7938 14.7389 65.7364 14.9984 65.6101 15.4981C65.4059 16.3271 59.3865 17.5999 59.3229 17.607C59.2094 17.6182 59.1004 17.5848 59.0158 17.5314L59.0021 17.5345Z" fill="#261D2A"/>
<path d="M52.3577 13.6346C52.3577 13.6346 56.8351 7.23697 59.5587 10.5653C63.3407 15.1769 57.9855 28.9206 47.264 26.0651C36.5509 23.2149 37.8339 13.7475 37.8339 13.7475L43.3925 15.6018C43.3925 15.6018 41.8302 10.3221 43.7354 7.94164C45.6407 5.5612 46.9813 9.50639 46.9813 9.50639C46.9813 9.50639 47.4377 1.6104 50.1838 3.04883C52.9385 4.4926 52.3439 13.6377 52.3439 13.6377L52.3577 13.6346Z" fill="#A27298"/>
<path d="M56.9112 15.3394C55.998 14.7628 55.9262 12.8725 55.9257 12.2926C55.9216 12.0181 56.1463 11.7933 56.4294 11.7946C56.7039 11.7906 56.9287 12.0153 56.9274 12.2983C56.9279 13.1029 57.0962 14.0725 57.3458 14.4076C57.5701 14.0524 57.861 13.0298 58.0033 12.0553C58.0438 11.7852 58.297 11.5902 58.5755 11.636C58.8457 11.6765 59.0406 11.9297 59.0001 12.1998C58.848 13.2273 58.4762 15.0149 57.7313 15.4079C57.4986 15.5329 57.2293 15.5285 56.9988 15.4066C56.9735 15.3906 56.9481 15.3746 56.9227 15.3585L56.9112 15.3394Z" fill="#261D2A"/>
<path d="M44.9543 16.5173C44.8613 16.4586 44.7896 16.366 44.7509 16.2588C44.6223 15.8819 43.53 12.5548 44.669 11.0506C45.0423 10.5531 45.4695 10.5508 45.6867 10.5815C46.3359 10.6958 46.8696 11.5177 47.2421 12.3324C47.949 10.5199 48.6609 9.69215 49.3725 9.85763C49.6795 9.93325 50.5923 10.1548 50.7356 16.277C50.7397 16.5515 50.5234 16.7816 50.2488 16.7857C49.9743 16.7897 49.7442 16.5734 49.7402 16.2989C49.6879 14.0779 49.4211 11.485 49.1007 10.8687C48.8355 11.1388 48.1899 12.517 47.7477 13.929C47.6863 14.1386 47.4928 14.2766 47.2681 14.2766C47.0518 14.2819 46.8596 14.1369 46.7906 13.9277C46.4354 12.8046 45.8301 11.6655 45.5252 11.5676C45.5252 11.5676 45.5039 11.6014 45.458 11.6553C44.8427 12.4612 45.2701 14.7062 45.6916 15.9303C45.7784 16.1862 45.6414 16.4781 45.3855 16.5649C45.2369 16.613 45.0811 16.5974 44.9543 16.5173Z" fill="#261D2A"/>
<path d="M46.1254 23.2415C44.9078 22.4726 44.1673 21.6975 44.1019 21.6326C43.9109 21.4292 43.9198 21.1155 44.1232 20.9246C44.3265 20.7337 44.6402 20.7425 44.8311 20.9459C44.865 20.9672 47.6393 23.8781 51.1961 23.7706C53.3366 23.7148 55.3558 22.5772 57.1775 20.4042C57.3554 20.1972 57.6598 20.1647 57.8805 20.3396C58.0875 20.5175 58.1147 20.8304 57.9451 21.0426C55.9211 23.4427 53.6606 24.7 51.218 24.7661C49.172 24.8223 47.399 24.0339 46.1307 23.233L46.1254 23.2415Z" fill="#261D2A"/>
<path d="M9.45414 48.8943C9.23431 48.7555 9.15507 48.4689 9.27698 48.2384C9.40422 47.9995 9.70682 47.8949 9.95425 48.0274C10.5221 48.3269 11.1104 48.5564 11.7085 48.7331C11.971 48.8042 12.1277 49.0806 12.0512 49.3516C11.98 49.6141 11.7037 49.7708 11.4326 49.6943C10.7732 49.5025 10.1119 49.2387 9.48797 48.9157C9.47952 48.9103 9.4626 48.8997 9.45414 48.8943ZM7.77909 47.8011C7.77909 47.8011 7.74527 47.7798 7.73681 47.7744C7.19922 47.3522 6.69056 46.8654 6.21704 46.3417C6.03146 46.1299 6.04878 45.8215 6.26058 45.6359C6.47238 45.4503 6.78077 45.4677 6.96635 45.6795C7.39448 46.1627 7.86309 46.6005 8.34995 46.9907C8.56222 47.1603 8.6032 47.47 8.42833 47.6907C8.26415 47.8945 7.98514 47.9431 7.7653 47.8042L7.77909 47.8011ZM13.2736 49.9816C13.1214 49.8855 13.0311 49.7102 13.0404 49.5268C13.0586 49.2545 13.3002 49.0404 13.581 49.064C14.2009 49.1124 14.8413 49.091 15.4829 49.0113C15.7566 48.9712 16.0111 49.1674 16.0374 49.4442C16.0775 49.7179 15.8728 49.9671 15.6045 49.9987C14.8992 50.0856 14.2006 50.1056 13.5086 50.059C13.428 50.0554 13.3413 50.0243 13.2821 49.9869L13.2736 49.9816ZM5.1418 44.823C5.08261 44.7856 5.02566 44.726 4.98249 44.6633C4.61532 44.0648 4.30554 43.4316 4.05941 42.7913C3.96416 42.5301 4.09584 42.2466 4.34858 42.146C4.60979 42.0507 4.89326 42.1824 4.99385 42.4352C5.21373 43.0235 5.49413 43.5908 5.82971 44.1457C5.97702 44.3806 5.9014 44.6877 5.66646 44.835C5.49425 44.9391 5.29711 44.9329 5.13646 44.8315L5.1418 44.823ZM3.74821 41.0928C3.62983 41.018 3.54349 40.8925 3.51767 40.7461C3.41081 40.0163 3.4014 39.3008 3.48723 38.6217C3.51924 38.3463 3.78089 38.1567 4.04255 38.1918C4.318 38.2238 4.50759 38.4855 4.47245 38.7471C4.39552 39.3372 4.40536 39.9584 4.50197 40.6108C4.54205 40.8844 4.34583 41.139 4.08062 41.1844C3.9618 41.204 3.839 41.1737 3.73753 41.1097L3.74821 41.0928ZM17.2149 49.49C17.1219 49.4312 17.0418 49.3333 17.0084 49.2177C16.9269 48.9533 17.0671 48.6752 17.3367 48.5853C17.9588 48.3868 18.5578 48.15 19.1082 47.8589C19.3547 47.7307 19.6595 47.8286 19.7824 48.0836C19.9106 48.3301 19.8127 48.6349 19.5631 48.7493C18.9574 49.0528 18.3149 49.3212 17.6376 49.5322C17.489 49.5803 17.3386 49.5563 17.2202 49.4815L17.2149 49.49ZM20.7489 47.6768C20.6982 47.6447 20.6559 47.618 20.6212 47.5606C20.4494 47.3457 20.4943 47.0311 20.7092 46.8593C21.2156 46.4695 21.6734 46.0253 22.089 45.5545C22.267 45.3475 22.5798 45.3204 22.7952 45.5037C23.0022 45.6817 23.024 46.0029 22.846 46.2099C22.393 46.7399 21.8778 47.2188 21.3225 47.6487C21.1565 47.7804 20.918 47.7835 20.7489 47.6768ZM4.29832 37.2061C4.07848 37.0673 4.00772 36.7861 4.12117 36.5502C4.19503 36.3958 4.29112 36.2436 4.38189 36.0999C4.67555 35.6348 5.0422 35.204 5.46046 34.8413C5.66692 34.6642 5.98375 34.6869 6.16622 34.8849C6.3518 35.0967 6.32913 35.4135 6.12267 35.5906C5.77248 35.9017 5.47303 36.2448 5.22742 36.6338C5.15268 36.7522 5.07259 36.879 5.01476 37.008C4.88217 37.2555 4.58491 37.3516 4.34593 37.2244C4.32902 37.2137 4.32057 37.2083 4.31212 37.203L4.29832 37.2061ZM7.23729 34.5559C7.16119 34.5079 7.10111 34.4345 7.06016 34.3495C6.95112 34.0914 7.03608 33.8257 7.28571 33.7113C7.28571 33.7113 7.35158 33.6819 7.36537 33.6788C7.62346 33.5698 7.91227 33.693 8.02131 33.9511C8.13036 34.2092 8.00712 34.498 7.74903 34.6071C7.58439 34.6805 7.38948 34.652 7.24574 34.5613L7.23729 34.5559ZM23.3545 44.6742C23.1262 44.53 23.0523 44.235 23.188 44.0013C23.499 43.4526 23.7678 42.8772 23.9773 42.2645C24.0707 42.0041 24.3586 41.8666 24.619 41.96C24.8793 42.0535 25.0168 42.3414 24.9234 42.6017C24.6903 43.2705 24.3979 43.902 24.0549 44.5014C23.9139 44.7435 23.6135 44.8259 23.3714 44.6848L23.3545 44.6742ZM24.6821 40.9236C24.5129 40.8168 24.4248 40.6193 24.4586 40.4159C24.5707 39.7889 24.6214 39.1468 24.636 38.5055C24.6338 38.3031 24.7681 38.1277 24.9466 38.0512C24.8856 37.9417 24.8682 37.8006 24.9092 37.6609C24.9941 37.3952 25.2651 37.247 25.5308 37.332C26.1373 37.514 26.7621 37.6483 27.3967 37.7297C27.6721 37.7617 27.8617 38.0233 27.8351 38.2903C27.803 38.5658 27.5498 38.7607 27.2744 38.7287C26.715 38.6593 26.1686 38.5508 25.6212 38.4062C25.6306 38.4476 25.6315 38.4836 25.6324 38.5197C25.6217 39.2108 25.5613 39.9058 25.4394 40.5858C25.3989 40.8559 25.1288 41.0402 24.8641 40.9912C24.7973 40.9846 24.7328 40.9557 24.6821 40.9236ZM22.4011 36.9879C22.0883 36.7903 21.7945 36.5812 21.5369 36.3712C21.3246 36.2017 21.289 35.8835 21.4585 35.6712C21.628 35.4589 21.9377 35.4179 22.1585 35.5928C22.6169 35.9532 23.1611 36.3087 23.765 36.6073C24.0209 36.7452 24.1086 37.0371 23.9813 37.2761C23.8625 37.5204 23.5515 37.6197 23.3125 37.4924C23.0005 37.3309 22.6939 37.1609 22.4149 36.9847L22.4011 36.9879ZM20.1898 34.9647C20.1306 34.9273 20.0767 34.8815 20.042 34.8241C19.4514 33.9426 19.2974 33.1002 19.628 32.4456C19.7521 32.1928 20.0493 32.0967 20.3021 32.2208C20.5464 32.3396 20.651 32.6422 20.5269 32.895C20.3707 33.1985 20.4998 33.7057 20.8799 34.2651C21.0326 34.4915 20.9738 34.8093 20.7473 34.9619C20.5783 35.0799 20.3589 35.0715 20.1982 34.97L20.1898 34.9647ZM24.7302 36.9329C24.6118 36.8582 24.5255 36.7327 24.4997 36.5863C24.3946 35.9286 24.2406 35.311 24.0216 34.7587C23.9263 34.4975 24.0496 34.2087 24.3108 34.1135C24.572 34.0182 24.8608 34.1415 24.9561 34.4027C25.1906 35.0239 25.374 35.7074 25.4809 36.4371C25.521 36.7108 25.3385 36.9623 25.0595 37.0108C24.9322 37.025 24.8179 37.0001 24.7164 36.936L24.7302 36.9329ZM29.0606 38.7094C28.9253 38.624 28.8358 38.4847 28.826 38.3129C28.8136 38.033 29.0214 37.7976 29.3013 37.7851C29.9385 37.7499 30.5717 37.6649 31.1925 37.5246C31.4684 37.4623 31.7305 37.6278 31.7928 37.9037C31.8605 38.1712 31.6896 38.4418 31.4137 38.5041C30.7378 38.6568 30.0494 38.7543 29.3485 38.7966C29.2404 38.7993 29.1398 38.7713 29.0553 38.7179L29.0606 38.7094ZM21.5419 32.3177C21.3897 32.2216 21.294 32.0548 21.3087 31.863C21.3269 31.5906 21.5685 31.3765 21.8408 31.3948C22.2743 31.4201 22.6392 31.5914 23.0717 31.8054C23.3592 31.9869 23.6316 32.2299 23.8857 32.5204C24.0628 32.7269 24.0401 33.0437 23.8337 33.2209C23.6272 33.398 23.3104 33.3753 23.1332 33.1689C22.9392 32.9517 22.7607 32.8036 22.5431 32.6425C22.2979 32.4876 22.0461 32.3996 21.7875 32.3782C21.6985 32.3693 21.6202 32.3435 21.5526 32.3008L21.5419 32.3177ZM32.9422 37.8253C32.8577 37.7719 32.7891 37.6932 32.7451 37.5944C32.636 37.3363 32.7593 37.0475 33.0173 36.9384C33.6323 36.6763 34.1965 36.3821 34.6847 36.0398C34.9111 35.8872 35.2204 35.9406 35.3815 36.1724C35.5342 36.3989 35.4808 36.7082 35.249 36.8693C34.7034 37.2462 34.0818 37.5751 33.401 37.8667C33.2417 37.9317 33.0775 37.9107 32.9422 37.8253ZM36.1847 35.556C36.1847 35.556 36.1424 35.5293 36.1255 35.5186C35.9186 35.3407 35.8914 35.0278 36.0747 34.8124C36.2634 34.5886 36.4404 34.3456 36.6006 34.092C36.7715 33.8214 36.9254 33.5401 37.054 33.2429C37.1643 32.9932 37.4638 32.8748 37.7135 32.9852C37.9631 33.0955 38.0815 33.395 37.9712 33.6446C37.8244 33.9895 37.6437 34.313 37.4462 34.6259C37.2646 34.9134 37.0608 35.1986 36.837 35.4594C36.6697 35.6494 36.3961 35.6895 36.1931 35.5614L36.1847 35.556ZM37.7935 31.9594C37.6328 31.858 37.5309 31.6635 37.5647 31.4602C37.6554 30.867 37.6839 30.2226 37.6509 29.5632C37.6384 29.2833 37.8546 29.0532 38.1261 29.0354C38.406 29.0229 38.6361 29.2391 38.6539 29.5106C38.6886 30.2421 38.6589 30.9448 38.5562 31.6132C38.5157 31.8833 38.2625 32.0782 37.9839 32.0324C37.9172 32.0257 37.8527 31.9968 37.7935 31.9594ZM37.6169 27.9688C37.507 27.8993 37.4238 27.7877 37.3926 27.6497C37.1602 26.5568 36.8509 25.8293 36.8424 25.8239C36.7334 25.5659 36.8566 25.277 37.1063 25.1627C37.3644 25.0536 37.6585 25.1684 37.7591 25.4211C37.7738 25.4541 38.104 26.2421 38.3582 27.4316C38.4121 27.7021 38.2466 27.9642 37.9791 28.0319C37.8465 28.0546 37.7184 28.0328 37.6085 27.9634L37.6169 27.9688Z" fill="#261D2A"/>
</svg>
