<svg width="94" height="93" viewBox="0 0 94 93" fill="none" xmlns="http://www.w3.org/2000/svg">
<path d="M33.4701 37.71C24.4701 50.04 37.1102 64.43 44.9602 71.57L50.3702 65.21C50.3702 65.21 32.7502 49.1 42.0802 41.63C51.4102 34.16 66.6702 46.31 66.6702 46.31L73.7102 38.84C64.5602 32.96 44.4301 22.7 33.4701 37.71Z" fill="#D3AD29"/>
<path d="M17.9403 25.1999C45.4203 -8.28006 77.8303 14.2299 88.4303 23.2199L93.2403 18.1099C93.2403 18.1099 46.0103 -19.5301 12.7703 15.8799C-20.4697 51.2899 26.8303 92.8799 26.8303 92.8799L31.8502 86.9699C20.6702 77.1399 -3.41973 51.2099 17.9403 25.1899V25.1999Z" fill="#CA7A8C"/>
<path d="M17.9401 25.1999C-3.41987 51.2199 20.6701 77.1499 31.8501 86.9799L38.4701 79.1999C26.8101 68.8599 6.87012 45.8099 30.8101 24.8299C46.5001 11.0799 70.5601 23.6299 81.4501 30.6299L88.4301 23.2199C77.8401 14.2299 45.4201 -8.27006 17.9401 25.1999Z" fill="#A27298"/>
<path d="M30.81 24.8299C6.87005 45.8099 26.82 68.8599 38.47 79.1999L44.9601 71.5699C37.1201 64.4299 24.47 50.0399 33.47 37.7099C44.42 22.6999 64.5601 32.96 73.7101 38.84L81.4501 30.6299C70.5601 23.6299 46.5 11.0899 30.81 24.8299Z" fill="#C67E24"/>
<path d="M31.8498 87.9699C31.6098 87.9699 31.3799 87.8899 31.1899 87.7199C30.2999 86.9099 9.26983 67.76 8.96983 45.59C8.83983 35.73 12.8899 26.83 21.0099 19.13C52.7299 -10.94 87.9299 21.79 88.2799 22.13C88.6799 22.51 88.6899 23.14 88.3199 23.53C87.9499 23.92 87.3098 23.95 86.9198 23.57C86.8298 23.49 78.2598 15.4399 66.0398 11.0999C49.7898 5.32993 35.0999 8.51996 22.3899 20.57C14.6899 27.87 10.8398 36.2799 10.9698 45.5599C11.2498 66.8499 32.3199 86.0499 32.5299 86.2399C32.9399 86.6099 32.9698 87.24 32.5998 87.64C32.3998 87.86 32.1298 87.9699 31.8598 87.9699H31.8498Z" fill="#261D2A"/>
<path d="M38.4696 80.1899C38.2396 80.1899 38.0096 80.1099 37.8196 79.9499C37.1196 79.3499 20.7796 64.9999 19.6496 47.6699C19.1496 40.0699 21.6896 33.0699 27.1996 26.8599C45.8296 5.86991 81.6396 29.5599 81.9996 29.7999C82.4596 30.1099 82.5796 30.7199 82.2696 31.1799C81.9596 31.6299 81.3496 31.7599 80.8896 31.4499C80.5396 31.2199 46.1596 8.47992 28.6796 28.1799C23.5396 33.9699 21.1696 40.48 21.6296 47.53C22.7096 64.03 38.9596 78.2999 39.1196 78.4499C39.5296 78.8099 39.5796 79.4399 39.2196 79.8499C39.0196 80.0799 38.7496 80.1899 38.4696 80.1899Z" fill="#261D2A"/>
<path d="M44.9604 72.56C44.7204 72.56 44.4903 72.48 44.3003 72.31C43.7403 71.8 30.4604 59.75 29.8204 47.18C29.5904 42.63 31.0503 38.57 34.1803 35.12C39.9303 28.78 48.7404 27.3 59.6404 30.84C67.7204 33.46 74.0204 37.84 74.2804 38.02C74.7304 38.33 74.8404 38.95 74.5204 39.4C74.2104 39.85 73.5904 39.96 73.1404 39.65C72.8904 39.48 48.2804 22.53 35.6504 36.46C32.8904 39.5 31.6003 43.07 31.8003 47.08C32.4003 58.83 45.5004 70.71 45.6304 70.83C46.0404 71.2 46.0704 71.83 45.7104 72.23C45.5104 72.45 45.2403 72.56 44.9703 72.56H44.9604Z" fill="#261D2A"/>
</svg>
