<svg width="312" height="354" viewBox="0 0 312 354" fill="none" xmlns="http://www.w3.org/2000/svg">
<path d="M1.60938 2.70999C1.60938 2.70999 4.73942 341.9 5.77942 346.08C7.86942 354.44 311.159 355.98 310.799 346C310.439 336.02 307.429 17.6599 303.899 6.40994C302.199 0.989936 1.60938 2.70999 1.60938 2.70999Z" fill="white"/>
<path d="M168.25 353.97C127.94 353.97 87.6904 353.31 57.8004 352.17C5.75042 350.18 5.1204 347.67 4.7804 346.33C3.7404 342.16 0.890312 37.4499 0.570312 2.71991C0.570312 2.43991 0.680361 2.17992 0.870361 1.97992C1.07036 1.77992 1.33035 1.66992 1.61035 1.66992C2.06035 1.66992 47.6504 1.40991 102.65 1.40991C303.43 1.40991 304.39 4.45991 304.9 6.09991C307.41 14.0799 309.54 161.8 311.3 305.25C311.59 328.52 311.77 343.9 311.85 345.97C311.86 346.28 311.78 346.75 311.34 347.21C305.28 353.5 200.29 353.99 168.24 353.99L168.25 353.97ZM6.79041 345.68C11.5304 349.11 83.5304 351.88 168.24 351.89C261.02 351.89 306.44 348.77 309.76 345.83C309.68 343.08 309.5 327.91 309.22 305.27C308.16 219.38 305.71 19.32 302.99 7.01996C299.53 5.65996 268.03 3.48993 102.65 3.48993C52.2704 3.48993 9.79041 3.70993 2.67041 3.73993C3.74041 119.59 5.95041 337.19 6.79041 345.67V345.68Z" fill="#261D2A"/>
<path d="M21.7996 17.3201L129.069 17.6901C129.069 17.6901 130.849 112.12 129.469 112.03C124.529 111.69 24.3495 114.31 21.4395 113.3L21.7896 17.3201H21.7996Z" fill="#CA7A8C"/>
<path d="M233.67 160.57C233.45 160.57 233.05 160.45 232.87 160.33C230.59 158.73 219.86 143.93 218.64 142.25C218.47 142.02 218.41 141.73 218.46 141.44C218.51 141.16 218.68 140.91 218.92 140.76C220.38 139.82 227.82 135.16 230.58 135.16C231.07 135.16 231.47 135.29 231.78 135.53C233.06 136.55 235.73 141.09 237.09 143.5C243.05 136.8 258.24 120.19 262.3 120.19C262.53 120.19 262.75 120.23 262.95 120.3C266.49 121.64 271.35 126.66 271.56 126.87C271.75 127.07 271.86 127.34 271.85 127.62C271.85 127.9 271.73 128.16 271.53 128.35C263.58 135.91 237.37 160.57 233.66 160.57H233.67ZM220.99 141.92C225.35 147.92 231.99 156.75 233.84 158.43C236.95 157.32 254.08 142.04 269.32 127.58C267.86 126.17 264.59 123.15 262.22 122.26C259.99 122.28 247.97 134.33 237.69 145.98C237.46 146.23 237.12 146.37 236.79 146.33C236.45 146.29 236.15 146.09 235.99 145.8C234.26 142.66 231.41 137.9 230.49 137.17C229.14 137.24 224.41 139.82 220.99 141.93V141.92Z" fill="#261D2A"/>
<path d="M233.51 194.5C233.29 194.5 232.89 194.38 232.71 194.26C230.43 192.66 219.7 177.86 218.48 176.18C218.31 175.95 218.25 175.66 218.3 175.37C218.35 175.09 218.52 174.84 218.76 174.69C220.22 173.75 227.66 169.09 230.42 169.09C230.91 169.09 231.31 169.22 231.62 169.46C232.9 170.48 235.57 175.02 236.93 177.43C242.89 170.73 258.08 154.12 262.14 154.12C262.37 154.12 262.59 154.16 262.79 154.23C266.33 155.57 271.19 160.59 271.4 160.8C271.59 161 271.7 161.27 271.69 161.55C271.69 161.83 271.57 162.09 271.37 162.28C263.42 169.84 237.21 194.5 233.5 194.5H233.51ZM220.84 175.86C225.2 181.86 231.84 190.69 233.69 192.37C236.8 191.26 253.93 175.98 269.17 161.52C267.71 160.11 264.44 157.09 262.07 156.2C259.84 156.22 247.82 168.27 237.54 179.92C237.31 180.17 236.96 180.3 236.64 180.27C236.3 180.23 236 180.03 235.84 179.74C234.11 176.6 231.26 171.84 230.34 171.11C228.92 171.18 224.1 173.86 220.84 175.87V175.86Z" fill="#261D2A"/>
<path d="M236.391 230.76C236.171 230.76 235.771 230.64 235.591 230.52C233.311 228.92 222.581 214.12 221.361 212.44C221.191 212.21 221.131 211.92 221.181 211.63C221.231 211.35 221.401 211.1 221.641 210.95C223.101 210.01 230.541 205.35 233.301 205.35C233.791 205.35 234.191 205.48 234.501 205.72C235.781 206.74 238.451 211.28 239.821 213.69C245.781 206.99 260.971 190.38 265.031 190.38C265.261 190.38 265.481 190.42 265.681 190.49C269.221 191.83 274.081 196.85 274.291 197.06C274.481 197.26 274.591 197.53 274.581 197.81C274.581 198.09 274.461 198.35 274.261 198.54C266.311 206.1 240.101 230.76 236.391 230.76ZM223.711 212.12C228.071 218.12 234.711 226.95 236.561 228.63C239.671 227.52 256.801 212.24 272.041 197.78C270.581 196.37 267.311 193.35 264.941 192.46C262.711 192.48 250.691 204.53 240.411 216.18C240.181 216.44 239.851 216.57 239.511 216.53C239.171 216.49 238.871 216.29 238.711 216C236.981 212.86 234.131 208.1 233.211 207.37C231.861 207.44 227.131 210.02 223.711 212.13V212.12Z" fill="#261D2A"/>
<path d="M210.13 67.18H148.56C147.98 67.18 147.52 66.71 147.52 66.14C147.52 65.57 147.99 65.1 148.56 65.1H210.13C210.71 65.1 211.17 65.57 211.17 66.14C211.17 66.71 210.7 67.18 210.13 67.18Z" fill="#261D2A"/>
<path d="M210.131 84.15H210.101L147.321 82.2599C146.741 82.2399 146.291 81.7599 146.311 81.1899C146.331 80.6099 146.841 80.1899 147.381 80.1799L210.161 82.0699C210.741 82.0899 211.191 82.57 211.171 83.14C211.151 83.71 210.691 84.15 210.131 84.15Z" fill="#261D2A"/>
<path d="M180.551 100.18H180.521L147.921 99.24C147.351 99.22 146.891 98.74 146.911 98.17C146.931 97.6 147.411 97.15 147.981 97.16L180.581 98.1C181.151 98.12 181.611 98.6 181.591 99.17C181.571 99.73 181.111 100.18 180.551 100.18Z" fill="#261D2A"/>
<path d="M295.55 68.47H233.979C233.399 68.47 232.939 68 232.939 67.43C232.939 66.86 233.409 66.39 233.979 66.39H295.55C296.13 66.39 296.589 66.86 296.589 67.43C296.589 68 296.12 68.47 295.55 68.47Z" fill="#261D2A"/>
<path d="M295.551 85.4499H295.521L232.741 83.5599C232.161 83.5399 231.711 83.0599 231.731 82.4899C231.751 81.9099 232.241 81.4499 232.801 81.4799L295.581 83.3699C296.161 83.3899 296.611 83.8699 296.591 84.4399C296.571 85.0099 296.111 85.4499 295.551 85.4499Z" fill="#261D2A"/>
<path d="M265.98 101.48H265.95L233.35 100.54C232.78 100.52 232.32 100.04 232.34 99.4699C232.36 98.8999 232.821 98.47 233.411 98.46L266.011 99.4C266.581 99.42 267.041 99.8999 267.021 100.47C267.001 101.03 266.54 101.48 265.98 101.48Z" fill="#261D2A"/>
<path d="M174.693 51.9708C173.959 51.9708 173.291 51.17 172.691 49.5684C171.99 47.8334 171.473 46.0483 171.139 44.2131L170.789 42.5114C169.821 37.74 169.204 35.0206 168.937 34.3532H168.336C168.336 35.3209 168.32 36.2051 168.286 37.0059V39.7586C168.286 44.2298 168.603 47.7166 169.237 50.2191L168.687 51.5704H167.285L166.635 50.8197L166.685 47.4663C166.685 44.4633 166.535 39.9088 166.234 33.8027C165.967 27.2962 165.834 22.7416 165.834 20.139C165.834 18.5374 166.384 17.7366 167.485 17.7366C169.287 17.7366 170.755 18.2038 171.89 19.138C173.058 20.0723 173.642 21.3736 173.642 23.0419V26.5454C173.642 27.0459 173.558 27.6299 173.391 28.2972C173.225 28.9312 173.041 29.4483 172.841 29.8487L171.89 31.6505L171.089 33.152L171.339 34.3532L172.04 37.9068C172.507 40.476 172.958 42.5614 173.391 44.163C173.825 45.7646 174.359 47.2161 174.993 48.5174L175.293 49.118C175.627 49.7853 175.794 50.3192 175.794 50.7196C175.794 51.0533 175.694 51.3369 175.493 51.5704C175.293 51.8374 175.026 51.9708 174.693 51.9708ZM168.537 31.9008C169.271 31.5338 169.888 30.5328 170.388 28.8978C170.922 27.2295 171.189 25.6946 171.189 24.2932C171.189 23.2255 171.056 22.2245 170.789 21.2902C170.622 20.7563 170.338 20.3559 169.938 20.089C169.571 19.7887 169.104 19.6385 168.537 19.6385L168.436 19.8888L168.336 20.3392L168.436 26.2451C168.503 27.9802 168.537 29.8654 168.537 31.9008ZM182.997 51.7706C182.563 51.7706 182.163 51.6205 181.796 51.3202C181.462 51.0199 181.279 50.6529 181.245 50.2191V48.9178V47.9168C181.212 47.6165 181.195 47.2661 181.195 46.8657C181.195 46.165 181.145 45.0973 181.045 43.6625L180.945 40.4593C180.945 38.8244 180.995 36.3886 181.095 33.152C181.229 30.2491 181.295 27.8134 181.295 25.8447C181.295 25.3776 181.245 24.6769 181.145 23.7426C181.045 22.775 180.995 22.0743 180.995 21.6405C180.995 19.2715 181.696 18.087 183.097 18.087C184.198 18.087 185.466 18.3039 186.901 18.7376C188.369 19.1714 189.103 19.6886 189.103 20.2892C189.103 20.6229 188.953 20.9398 188.653 21.2401C188.386 21.5071 188.052 21.724 187.652 21.8908C186.25 21.3903 184.982 21.0566 183.848 20.8898C183.881 21.3903 183.898 22.1077 183.898 23.0419C183.898 24.3766 183.881 25.5778 183.848 26.6455C183.748 28.2471 183.698 29.4483 183.698 30.2491L183.848 31.0499L184.649 30.9999C184.916 30.9665 185.249 30.9498 185.65 30.9498C187.251 30.9498 188.052 31.417 188.052 32.3512C188.052 32.7183 187.902 33.0353 187.602 33.3022C187.301 33.5358 186.918 33.6525 186.45 33.6525C185.85 33.6525 185.383 33.6192 185.049 33.5524H183.798C183.865 34.42 183.898 35.6879 183.898 37.3562C183.898 39.0246 183.881 40.5261 183.848 41.8607C183.748 43.8961 183.698 45.4143 183.698 46.4153C183.698 48.2838 183.731 49.2181 183.798 49.2181L185.449 49.168C186.017 49.1347 186.701 49.118 187.502 49.118C188.769 49.118 189.403 49.5184 189.403 50.3192C189.403 50.7863 189.187 51.1367 188.753 51.3702C188.352 51.6372 187.852 51.7706 187.251 51.7706H182.997ZM195.819 51.8207C195.218 51.7206 194.701 51.5037 194.267 51.17C193.867 50.8364 193.633 50.4026 193.567 49.8687L194.117 49.0179C194.317 49.0179 194.634 49.0846 195.068 49.2181C195.569 49.3182 195.952 49.3682 196.219 49.3682C196.82 49.3682 197.354 49.1013 197.821 48.5674C198.321 48.0336 198.688 47.3329 198.922 46.4653C199.356 44.8637 199.573 43.429 199.573 42.161C199.573 39.9588 198.872 37.6399 197.47 35.2041L196.92 34.2531C196.286 33.152 195.752 32.1677 195.318 31.3002C194.885 30.4327 194.518 29.4984 194.217 28.4974C193.817 27.1961 193.617 25.8948 193.617 24.5935C193.617 23.1254 193.95 21.5905 194.618 19.9889C194.951 19.2215 195.418 18.6042 196.019 18.137C196.653 17.6365 197.354 17.3863 198.121 17.3863C198.722 17.3863 199.272 17.5865 199.773 17.9869C200.307 18.3539 200.574 18.8044 200.574 19.3382C200.574 19.6385 200.457 19.8721 200.223 20.0389C199.99 20.2058 199.706 20.2892 199.372 20.2892C199.005 20.2892 198.655 20.1891 198.321 19.9889C197.587 20.0223 197.003 20.6729 196.57 21.9408C196.203 23.1087 196.019 24.0763 196.019 24.8437C196.019 25.8114 196.169 26.7957 196.469 27.7967C196.77 28.7643 197.154 29.6485 197.621 30.4493L198.722 32.4513L200.473 35.7546C200.941 36.6889 201.308 37.7733 201.575 39.0079C201.875 40.2425 202.025 41.4937 202.025 42.7616C202.025 44.797 201.558 46.7323 200.624 48.5674C200.157 49.5017 199.489 50.2525 198.622 50.8197C197.787 51.3869 196.853 51.6705 195.819 51.6705V51.8207ZM212.639 51.8707C211.838 51.8707 211.121 51.6872 210.487 51.3202C209.853 50.9865 209.336 50.486 208.935 49.8187C208.135 48.4173 207.617 46.8324 207.384 45.0639C207.15 43.5291 207.034 41.6939 207.034 39.5584C206.933 35.9548 206.883 31.5504 206.883 26.3452L206.833 22.4914C206.8 22.2912 206.783 21.9575 206.783 21.4904C206.717 20.2225 206.683 19.455 206.683 19.1881C206.984 18.4874 207.334 18.137 207.734 18.137C208.135 18.137 208.485 18.4373 208.785 19.0379C209.119 19.6385 209.286 20.2892 209.286 20.9899V34.6035C209.286 35.9382 209.403 37.7066 209.636 39.9088C209.87 42.6449 209.987 44.4133 209.987 45.2141C209.987 47.6832 211.038 48.9178 213.14 48.9178C215.542 48.9178 216.743 39.9422 216.743 21.9909V19.1881V18.7376C216.71 18.6375 216.693 18.5041 216.693 18.3372C216.693 17.9368 216.777 17.6532 216.943 17.4864C217.144 17.2862 217.511 17.1861 218.045 17.1861C218.478 17.1861 218.812 17.3196 219.046 17.5865C219.312 17.8201 219.479 18.1037 219.546 18.4373C219.579 18.6375 219.596 19.0213 219.596 19.5885C219.596 20.1224 219.546 20.9732 219.446 22.141C219.312 23.1087 219.246 23.9428 219.246 24.6435C219.246 25.411 219.212 26.095 219.146 26.6956L219.046 28.7977V29.1981C219.079 29.3316 219.096 29.4817 219.096 29.6485C219.096 44.4633 216.943 51.8707 212.639 51.8707ZM245.538 53.7226C244.504 53.7226 243.987 52.6882 243.987 50.6195V47.4163V44.2131C243.987 42.5448 243.87 40.3592 243.637 37.6565C243.37 34.6202 243.236 32.5348 243.236 31.4003L243.336 28.2972C243.403 27.3963 243.436 26.3786 243.436 25.2441C243.303 25.6779 242.752 27.9802 241.785 32.151C240.817 36.1884 239.816 39.9255 238.782 43.3622C237.781 46.6655 236.963 48.3172 236.329 48.3172C235.695 48.3172 235.178 48.1337 234.778 47.7666C234.411 47.3662 234.227 46.8324 234.227 46.165C234.227 44.6969 233.627 41.5771 232.425 36.8057C231.257 32.0343 230.19 28.1304 229.222 25.094L228.922 30.7496C228.655 35.5211 228.471 39.4917 228.371 42.6615C228.305 45.7313 228.271 47.8334 228.271 48.9678C228.271 49.2348 228.288 49.485 228.321 49.7186V50.4193C228.321 50.9865 228.204 51.4036 227.971 51.6705C227.737 51.9708 227.304 52.121 226.67 52.121C226.336 52.121 226.019 51.9875 225.719 51.7206C225.418 51.487 225.268 51.2201 225.268 50.9198C225.268 47.5164 225.518 42.4113 226.019 35.6045C226.519 28.7977 226.77 23.6926 226.77 20.2892C226.569 19.9889 226.469 19.6719 226.469 19.3382C226.469 18.9378 226.653 18.6375 227.02 18.4373C227.42 18.2038 227.887 18.087 228.421 18.087C228.855 18.087 229.656 19.6552 230.824 22.7917C231.992 25.9282 233.159 29.4817 234.327 33.4523C235.495 37.423 236.246 40.2925 236.579 42.0609C236.846 41.16 237.063 40.3259 237.23 39.5584L237.53 38.3572C238.598 33.6859 239.666 29.465 240.734 25.6946C241.368 23.3923 241.985 21.5905 242.585 20.2892C243.186 18.8878 243.737 18.1871 244.237 18.1871C244.704 18.1871 245.121 18.3206 245.488 18.5875C245.889 18.8211 246.089 19.138 246.089 19.5384C246.089 21.9408 246.189 25.5444 246.389 30.3492C246.623 34.8204 246.74 38.2905 246.74 40.7596L246.69 43.4123L246.589 46.0649C246.589 46.4653 246.64 47.0659 246.74 47.8667L246.89 49.6185C246.923 49.9188 246.94 50.1524 246.94 50.3192C246.973 50.486 246.99 50.5861 246.99 50.6195C247.157 51.0533 247.24 51.3702 247.24 51.5704C247.24 52.1377 247.073 52.6382 246.74 53.0719C246.406 53.5057 246.006 53.7226 245.538 53.7226ZM255.726 51.7706C255.292 51.7706 254.892 51.6205 254.525 51.3202C254.191 51.0199 254.008 50.6529 253.974 50.2191V48.9178V47.9168C253.941 47.6165 253.924 47.2661 253.924 46.8657C253.924 46.165 253.874 45.0973 253.774 43.6625L253.674 40.4593C253.674 38.8244 253.724 36.3886 253.824 33.152C253.958 30.2491 254.024 27.8134 254.024 25.8447C254.024 25.3776 253.974 24.6769 253.874 23.7426C253.774 22.775 253.724 22.0743 253.724 21.6405C253.724 19.2715 254.425 18.087 255.826 18.087C256.927 18.087 258.195 18.3039 259.63 18.7376C261.098 19.1714 261.832 19.6886 261.832 20.2892C261.832 20.6229 261.682 20.9398 261.382 21.2401C261.115 21.5071 260.781 21.724 260.381 21.8908C258.979 21.3903 257.711 21.0566 256.577 20.8898C256.61 21.3903 256.627 22.1077 256.627 23.0419C256.627 24.3766 256.61 25.5778 256.577 26.6455C256.477 28.2471 256.427 29.4483 256.427 30.2491L256.577 31.0499L257.378 30.9999C257.645 30.9665 257.978 30.9498 258.379 30.9498C259.98 30.9498 260.781 31.417 260.781 32.3512C260.781 32.7183 260.631 33.0353 260.331 33.3022C260.03 33.5358 259.647 33.6525 259.179 33.6525C258.579 33.6525 258.112 33.6192 257.778 33.5524H256.527C256.593 34.42 256.627 35.6879 256.627 37.3562C256.627 39.0246 256.61 40.5261 256.577 41.8607C256.477 43.8961 256.427 45.4143 256.427 46.4153C256.427 48.2838 256.46 49.2181 256.527 49.2181L258.178 49.168C258.746 49.1347 259.43 49.118 260.23 49.118C261.498 49.118 262.132 49.5184 262.132 50.3192C262.132 50.7863 261.915 51.1367 261.482 51.3702C261.081 51.6372 260.581 51.7706 259.98 51.7706H255.726Z" fill="#261D2A"/>
<path d="M28.2686 140.85C28.2686 140.85 146.059 136.02 148.649 137.32C151.239 138.62 150.589 158.68 150.589 158.68C150.589 158.68 29.5686 161.06 28.2686 159.22C26.9786 157.38 28.2686 140.85 28.2686 140.85Z" fill="#76AEA6"/>
<path d="M57.8293 161.32C27.6793 161.32 27.5194 160.62 27.2494 159.46C26.5894 156.58 27.1593 142.42 27.2193 140.81C27.2393 140.26 27.6894 139.82 28.2394 139.81C29.3394 139.78 139.269 137.14 174.959 137.14C186.079 137.14 186.399 137.37 186.789 137.66C188.839 139.15 189.559 151.2 189.809 158.25C189.819 158.53 189.719 158.8 189.529 159C189.339 159.2 189.069 159.32 188.789 159.33C187.939 159.35 103.669 161.32 57.8293 161.32ZM29.1993 158.5C30.7093 158.81 36.6493 159.23 57.8293 159.23C100.849 159.23 177.759 157.49 187.689 157.26C187.369 149.51 186.529 140.95 185.619 139.43C184.969 139.35 182.719 139.22 174.969 139.22C141.109 139.22 40.3394 141.6 29.2794 141.87C29.1094 146.41 28.8593 155.65 29.2093 158.5H29.1993Z" fill="#261D2A"/>
<path d="M29.1292 174.47C29.1292 174.47 126.119 172.42 128.269 173.71C130.419 175 128.659 192.68 128.659 192.68C128.659 192.68 30.6092 194.92 29.5292 193.08C28.4492 191.24 29.1292 174.47 29.1292 174.47Z" fill="#DAB423"/>
<path d="M57.8593 194.97C27.6793 194.97 27.5194 194.27 27.2494 193.11C26.5894 190.23 27.1593 176.07 27.2193 174.46C27.2393 173.91 27.6894 173.47 28.2394 173.46C29.3394 173.43 139.239 170.79 174.939 170.79C186.079 170.79 186.389 171.02 186.789 171.31C188.839 172.8 189.559 184.85 189.809 191.9C189.819 192.18 189.719 192.45 189.529 192.65C189.339 192.85 189.069 192.97 188.789 192.98C187.939 193 103.699 194.97 57.8493 194.97H57.8593ZM29.1993 192.15C30.7093 192.46 36.6593 192.88 57.8493 192.88C100.879 192.88 177.759 191.14 187.679 190.91C187.359 183.16 186.519 174.6 185.609 173.08C184.959 173 182.709 172.87 174.939 172.87C141.069 172.87 40.3194 175.25 29.2694 175.52C29.0994 180.06 28.8493 189.3 29.1993 192.15Z" fill="#261D2A"/>
<path d="M29.1285 208.8C29.1285 208.8 165.989 205.28 169.009 206.58C172.029 207.87 171.549 226.61 171.549 226.61C171.549 226.61 29.8685 230.32 28.3585 228.48C26.8485 226.64 29.1285 208.8 29.1285 208.8Z" fill="#A27298"/>
<path d="M57.8593 229.12C27.6793 229.12 27.5194 228.42 27.2494 227.26C26.5894 224.38 27.1593 210.22 27.2193 208.61C27.2393 208.06 27.6894 207.62 28.2394 207.61C29.3394 207.58 139.289 204.94 174.969 204.94C186.089 204.94 186.399 205.17 186.789 205.46C188.839 206.95 189.559 219 189.809 226.05C189.819 226.33 189.719 226.6 189.529 226.8C189.339 227 189.069 227.12 188.789 227.13C187.939 227.15 103.699 229.12 57.8493 229.12H57.8593ZM29.1993 226.31C30.7093 226.62 36.6593 227.04 57.8493 227.04C100.879 227.04 177.759 225.3 187.679 225.07C187.359 217.31 186.519 208.76 185.609 207.24C184.959 207.16 182.709 207.03 174.959 207.03C141.109 207.03 40.3194 209.41 29.2594 209.68C29.0894 214.22 28.8393 223.46 29.1893 226.31H29.1993Z" fill="#261D2A"/>
<path d="M32.4203 113.67C32.4203 113.67 30.0102 98.39 49.3302 98.39C68.6502 98.39 69.5303 87.5299 60.7503 81.8699C51.9703 76.2099 43.6303 66.2899 48.9003 47.4099C54.1703 28.5299 85.3402 27.11 96.3202 40.33C107.3 53.55 95.0003 77.1499 89.3003 83.2899C83.6003 89.4199 90.6203 99.8099 106.42 97.9199C118.65 96.4599 119.06 112.45 119.06 112.45L32.4402 113.68L32.4203 113.67Z" fill="#FEFFFF"/>
<path d="M95.1804 274.03C90.6704 263.43 80.1604 255.99 67.9104 255.99C67.5704 255.99 67.2404 256.03 66.9004 256.04C67.2104 265.62 67.8503 282.02 68.6003 282.47C69.3103 282.9 85.0104 277.56 95.1804 274.03Z" fill="#A27298"/>
<path d="M68.6107 282.47C67.8607 282.02 67.2208 265.63 66.9108 256.04C51.0308 256.58 38.3008 269.59 38.3008 285.61C38.3008 301.63 51.5608 315.23 67.9208 315.23C84.2808 315.23 97.5408 301.97 97.5408 285.61C97.5408 281.5 96.7007 277.59 95.1907 274.03C85.0207 277.56 69.3207 282.89 68.6107 282.47Z" fill="#CA7A8C"/>
<path d="M68.6097 283.51C68.3997 283.51 68.1997 283.45 68.0197 283.33C67.7597 283.15 67.5897 282.86 67.5697 282.54L65.8697 256.11C65.8297 255.54 66.2697 255.04 66.8397 255C67.3797 254.96 67.9097 255.4 67.9497 255.97L69.5697 281.06L94.8797 273.03C95.4297 272.86 96.0197 273.16 96.1897 273.71C96.3697 274.26 96.0597 274.85 95.5097 275.02L68.9298 283.45C68.8298 283.48 68.7197 283.5 68.6097 283.5V283.51Z" fill="#261D2A"/>
<path d="M189.811 285.61C189.811 269.25 176.551 255.99 160.191 255.99C159.991 255.99 159.801 256.02 159.601 256.02L159.211 287.63L179.931 307.65C185.981 302.23 189.811 294.38 189.811 285.61Z" fill="#A27298"/>
<path d="M159.6 256.02C143.52 256.34 130.57 269.45 130.57 285.61C130.57 301.77 143.83 315.23 160.19 315.23C167.78 315.23 174.69 312.35 179.93 307.65L159.21 287.63L159.6 256.02Z" fill="#CA7A8C"/>
<path d="M179.93 308.69C179.67 308.69 179.41 308.59 179.2 308.4L158.48 288.38C158.27 288.18 158.16 287.91 158.16 287.62L158.55 256.01C158.55 255.43 159.09 254.89 159.61 254.98C160.19 254.98 160.65 255.46 160.64 256.04L160.26 287.2L180.65 306.91C181.06 307.31 181.08 307.97 180.67 308.39C180.47 308.6 180.19 308.71 179.92 308.71L179.93 308.69Z" fill="#261D2A"/>
<path d="M277.98 288.06C278.05 287.25 278.1 286.44 278.1 285.61C278.1 269.25 264.84 255.99 248.48 255.99C248.31 255.99 248.15 256.01 247.99 256.01V287.62L277.98 288.05V288.06Z" fill="#A27298"/>
<path d="M247.991 287.63V256.02C231.861 256.29 218.871 269.42 218.871 285.61C218.871 301.8 232.131 315.23 248.491 315.23C264.851 315.23 276.741 303.27 277.981 288.06L247.991 287.63Z" fill="#CA7A8C"/>
<path d="M277.971 289.1H277.961L247.971 288.67C247.401 288.67 246.941 288.2 246.941 287.63V256.02C246.941 255.44 247.411 254.98 247.981 254.98C248.551 254.98 249.021 255.45 249.021 256.02V286.6L277.981 287.01C278.561 287.01 279.021 287.49 279.011 288.07C279.011 288.64 278.541 289.1 277.971 289.1Z" fill="#261D2A"/>
<path d="M89.2412 325.52L40.8212 325.18C40.2512 325.18 39.7812 324.71 39.7812 324.13C39.7812 323.56 40.2512 323.09 40.8212 323.09L89.2412 323.43C89.8112 323.43 90.2812 323.9 90.2812 324.48C90.2812 325.05 89.8112 325.52 89.2412 325.52Z" fill="#261D2A"/>
<path d="M83.5809 335C83.5809 335 83.551 335 83.531 335L46.011 333.31C45.431 333.29 44.991 332.8 45.021 332.22C45.041 331.66 45.511 331.22 46.061 331.22C46.071 331.22 46.0909 331.22 46.1109 331.22L83.631 332.91C84.211 332.93 84.651 333.42 84.621 334C84.601 334.56 84.1309 335 83.5809 335Z" fill="#261D2A"/>
<path d="M182.021 325.52L133.6 325.18C133.03 325.18 132.561 324.71 132.561 324.13C132.561 323.56 133.03 323.09 133.6 323.09L182.021 323.43C182.591 323.43 183.061 323.9 183.061 324.48C183.061 325.05 182.591 325.52 182.021 325.52Z" fill="#261D2A"/>
<path d="M176.36 335C176.36 335 176.33 335 176.31 335L138.79 333.31C138.21 333.29 137.77 332.8 137.8 332.22C137.82 331.66 138.29 331.22 138.84 331.22C138.85 331.22 138.87 331.22 138.89 331.22L176.41 332.91C176.99 332.93 177.43 333.42 177.4 334C177.38 334.56 176.91 335 176.36 335Z" fill="#261D2A"/>
<path d="M271.761 325.52L223.341 325.18C222.771 325.18 222.301 324.71 222.301 324.13C222.301 323.56 222.771 323.09 223.341 323.09L271.761 323.43C272.331 323.43 272.801 323.9 272.801 324.48C272.801 325.05 272.331 325.52 271.761 325.52Z" fill="#261D2A"/>
<path d="M266.091 335C266.091 335 266.061 335 266.041 335L228.521 333.31C227.941 333.29 227.501 332.8 227.531 332.22C227.551 331.66 228.021 331.22 228.571 331.22C228.581 331.22 228.601 331.22 228.621 331.22L266.141 332.91C266.721 332.93 267.161 333.42 267.131 334C267.111 334.56 266.641 335 266.091 335Z" fill="#261D2A"/>
<path d="M29.8503 114.57C21.9403 114.57 21.4103 114.39 21.1003 114.28C20.6803 114.14 20.4004 113.74 20.4004 113.29L20.7504 17.32C20.7504 16.75 21.2204 16.28 21.7904 16.28L129.07 16.65C129.64 16.65 130.1 17.11 130.11 17.67C131.87 111.08 130.65 112.33 130.25 112.74C130.05 112.94 129.76 113.07 129.48 113.07C129.1 113.05 128.46 113.04 127.5 113.04C122.26 113.04 108.08 113.31 91.6704 113.63C68.8904 114.07 43.0703 114.57 29.8503 114.57ZM22.4904 112.38C23.4104 112.43 25.4403 112.49 29.8503 112.49C43.0503 112.49 68.8604 111.99 91.6304 111.55C109.46 111.21 124.6 110.92 128.66 110.96C129.35 104.2 128.69 53.35 128.04 18.73L22.8303 18.37L22.4904 112.38Z" fill="#261D2A"/>
<path d="M74.9894 69.2C74.4294 69.2 73.9594 68.75 73.9494 68.18C73.9394 67.6 74.3894 67.12 74.9694 67.11C76.0694 67.08 79.0194 66.92 80.4594 66.5C80.4294 65 78.2794 59.7001 76.1194 55.3401C75.8694 54.8201 76.0794 54.2 76.5894 53.94C77.0994 53.69 77.7294 53.89 77.9894 54.41C79.5794 57.63 83.1995 65.35 82.3995 67.46C82.2395 67.87 81.9494 68.18 81.5694 68.33C79.7294 69.07 75.4995 69.19 75.0195 69.21H74.9894V69.2Z" fill="#261D2A"/>
<path d="M75.0206 76.07C71.6806 76.07 69.3806 74.88 69.2206 74.8C68.7106 74.53 68.5206 73.9 68.7906 73.39C69.0606 72.88 69.7006 72.68 70.2006 72.95C70.4106 73.06 75.4206 75.6 81.2206 72.28C81.7106 72 82.3606 72.17 82.6406 72.67C82.9306 73.17 82.7506 73.81 82.2506 74.09C79.6206 75.59 77.1106 76.06 75.0206 76.06V76.07Z" fill="#261D2A"/>
<path d="M61.5504 56.44C59.3004 56.44 57.3403 55.45 57.2103 55.38C56.7003 55.12 56.5004 54.49 56.7604 53.98C57.0204 53.47 57.6504 53.2601 58.1604 53.5301C58.2004 53.5501 61.9803 55.4501 64.1903 53.4001C64.6103 53.0101 65.2704 53.0301 65.6704 53.4601C66.0704 53.8901 66.0303 54.54 65.6103 54.94C64.3703 56.08 62.9104 56.44 61.5504 56.44Z" fill="#261D2A"/>
<path d="M89.9507 56.44C87.7007 56.44 85.7407 55.45 85.6107 55.38C85.1007 55.12 84.9007 54.49 85.1607 53.98C85.4207 53.47 86.0508 53.2601 86.5608 53.5301C86.6008 53.5501 90.3807 55.4501 92.5907 53.4001C93.0107 53.0101 93.6707 53.0301 94.0707 53.4601C94.4707 53.8901 94.4307 54.54 94.0107 54.94C92.7707 56.08 91.3107 56.44 89.9507 56.44Z" fill="#261D2A"/>
</svg>
