<svg width="366" height="346" viewBox="0 0 366 346" fill="none" xmlns="http://www.w3.org/2000/svg">
<path d="M169.29 4.77712C169.755 11.8647 169.652 19.004 168.979 26.0399C168.876 26.9193 168.824 27.7988 168.669 28.6266C168.617 29.0404 168.565 29.4543 168.514 29.8682C168.462 30.489 168.669 28.8853 168.514 29.8165C168.462 30.0752 168.462 30.3855 168.41 30.6442C168.151 32.4032 167.841 34.1621 167.531 35.9211C166.858 39.439 165.979 42.957 164.944 46.3714C164.427 47.9752 163.909 49.5789 163.34 51.1827C163.03 51.9587 162.771 52.7347 162.409 53.5107C162.357 53.6659 162.15 53.9246 162.15 54.1316C162.15 53.6142 162.461 53.459 162.254 53.8212C162.047 54.235 161.891 54.6489 161.685 55.0627C160.443 57.8047 158.943 60.4431 157.287 62.9264C156.925 63.4955 156.511 64.0645 156.097 64.6336C155.89 64.944 155.632 65.2544 155.425 65.5648C155.321 65.6683 155.218 65.8235 155.166 65.9269C155.683 64.9957 155.373 65.6683 155.218 65.8752C154.287 67.0651 153.252 68.255 152.217 69.3932C151.183 70.4796 150.148 71.5142 149.01 72.5489C148.492 73.0145 147.923 73.4801 147.354 73.9457C147.096 74.1527 146.837 74.3596 146.578 74.5666C146.164 74.877 147.354 73.9457 146.733 74.4631C146.526 74.6183 146.371 74.7218 146.164 74.877C144.819 75.8599 143.422 76.7912 141.974 77.6189C140.525 78.4467 139.025 79.0674 137.525 79.8434C137.577 79.7917 138.404 79.4813 137.835 79.6883C137.628 79.7917 137.421 79.8435 137.214 79.9469C136.8 80.1021 136.387 80.2573 135.921 80.4125C135.145 80.6712 134.369 80.9299 133.541 81.1368C131.937 81.6024 130.282 81.9128 128.626 82.1198C127.747 82.2232 126.712 83.1545 126.298 83.8787C125.884 84.6547 125.729 85.4825 125.833 86.3619C126.091 88.2244 127.695 89.7247 129.661 89.7247C133.438 89.6729 137.214 89.6729 140.991 89.9316C141.87 89.9833 142.698 90.0868 143.578 90.1903C143.629 90.1903 144.561 90.3455 143.94 90.242C143.267 90.1385 144.198 90.2938 144.302 90.2938C144.767 90.3455 145.233 90.449 145.699 90.5525C147.561 90.9146 149.372 91.3802 151.131 91.9493C151.441 92.0527 151.803 92.2079 152.114 92.3114C152.269 92.3631 152.476 92.4666 152.631 92.5183C152.941 92.6218 153.252 92.9322 152.424 92.4149C153.045 92.8288 153.821 93.0357 154.494 93.3978C155.787 94.0704 157.029 94.7946 158.167 95.6224C158.477 95.8293 158.787 96.0363 159.098 96.2949C159.201 96.3984 159.357 96.5019 159.46 96.5536C159.977 96.9158 159.253 96.3984 159.201 96.3467C159.719 96.864 160.391 97.3296 160.96 97.7952C162.098 98.8299 163.185 99.8646 164.219 101.003C164.685 101.52 165.151 102.037 165.565 102.555C165.772 102.813 165.979 103.072 166.237 103.383C166.548 103.796 165.668 102.607 166.134 103.227C166.289 103.434 166.392 103.589 166.547 103.796C167.427 104.986 168.203 106.228 168.979 107.47C169.755 108.763 170.479 110.108 171.152 111.453C171.462 112.126 171.773 112.798 172.083 113.471C172.135 113.626 172.187 113.781 172.29 113.885C171.876 112.902 172.135 113.471 172.238 113.729C172.393 114.143 172.549 114.505 172.704 114.919C173.894 118.023 174.773 121.179 175.446 124.387C175.653 125.318 175.808 126.197 175.963 127.129C176.015 127.491 176.067 127.905 176.17 128.267C176.222 128.577 176.274 128.836 176.274 129.146C176.274 128.991 176.222 128.836 176.222 128.681C176.222 128.887 176.274 129.043 176.274 129.25C176.481 131.112 176.688 132.923 176.791 134.785C177.36 143.321 176.843 151.909 176.274 160.394C176.17 162.308 177.826 163.963 179.636 164.222C181.551 164.481 183.309 163.291 183.878 161.428C187.965 148.443 188.483 134.733 191.535 121.541C192.208 118.592 192.984 115.644 194.018 112.746C194.225 112.126 194.484 111.505 194.691 110.936C194.795 110.625 195.001 110.315 195.105 109.953C195.105 110.005 194.743 110.832 195.001 110.263C195.053 110.108 195.157 109.901 195.208 109.746C195.777 108.504 196.347 107.314 196.967 106.124C198.209 103.745 199.657 101.468 201.261 99.3473C201.365 99.2438 201.468 99.0886 201.52 98.9851C201.003 99.7611 201.158 99.4507 201.313 99.2438C201.52 98.9851 201.727 98.7264 201.934 98.4678C202.348 97.9504 202.813 97.4331 203.279 96.9157C204.158 95.9328 205.09 95.0016 206.021 94.1739C206.59 93.6565 207.107 93.1909 207.728 92.7253C207.831 92.6218 207.935 92.5701 208.09 92.4666C207.159 93.1909 207.831 92.6735 207.987 92.5183C208.297 92.3114 208.556 92.1045 208.866 91.8975C210.004 91.1215 211.194 90.3973 212.436 89.7764C212.746 89.6212 213.108 89.466 213.419 89.3108C213.574 89.2591 213.678 89.2073 213.833 89.1556C214.557 88.8452 213.057 89.466 213.729 89.2073C214.402 88.9486 215.074 88.69 215.799 88.4831C216.523 88.2762 217.195 88.0692 217.92 87.914C218.23 87.8622 218.592 87.7588 218.903 87.7071C219.213 87.6553 220.661 87.4484 219.316 87.6036C220.351 87.4484 221.334 87.2932 222.058 86.4654C222.628 85.8446 222.99 85.1203 223.145 84.2408C223.404 82.4819 222.265 80.3608 220.351 79.9987C218.851 79.6883 217.351 79.3261 215.85 78.8605C215.178 78.6535 214.557 78.3949 213.884 78.188C213.522 78.0328 213.16 77.8775 212.798 77.7741C213.988 78.2397 212.643 77.6706 212.332 77.5671C209.59 76.2738 206.952 74.7217 204.521 72.911C204.417 72.8076 204.262 72.7041 204.158 72.6524C203.641 72.2385 204.365 72.8076 204.417 72.8593C204.158 72.6007 203.796 72.3937 203.486 72.135C202.865 71.6177 202.296 71.1521 201.727 70.6348C200.589 69.6001 199.45 68.5137 198.416 67.3238C197.381 66.1856 196.398 65.0474 195.415 63.8576C195.312 63.7024 195.208 63.5472 195.053 63.392C195.105 63.4437 195.622 64.1162 195.208 63.5989C194.95 63.2885 194.743 62.9781 194.484 62.6677C194.018 62.0469 193.553 61.3743 193.139 60.7535C191.432 58.2185 189.931 55.5284 188.586 52.7865C188.276 52.1139 187.966 51.4931 187.655 50.8206C187.552 50.6654 187.5 50.4584 187.448 50.3032C187.19 49.7341 187.552 50.5102 187.552 50.5619C187.396 50.0963 187.189 49.6824 187.034 49.2685C186.465 47.8717 185.948 46.4231 185.43 44.9746C183.258 38.6113 181.654 32.0411 180.361 25.4191C179.636 21.7459 178.964 18.0211 178.395 14.2962C178.136 12.5373 177.877 10.83 177.619 9.07108C177.515 8.1916 177.36 7.36385 177.257 6.48437C177.205 6.17396 176.998 4.72539 177.205 6.01875C177.153 5.55314 177.101 5.13928 177.05 4.67367C176.894 3.58725 176.687 2.70775 175.911 1.93173C175.239 1.25919 174.153 0.741872 173.17 0.793606C172.187 0.845341 171.1 1.15572 170.428 1.93173C169.755 2.75948 169.134 3.79417 169.29 4.77712C171.1 18.3832 173.17 32.1445 177.36 45.2332C181.395 57.7012 187.966 69.6001 198.261 77.9293C204.107 82.6371 210.832 86.2585 218.23 87.6553C218.592 85.1203 218.903 82.5854 219.265 80.0504C216.057 80.4643 213.108 81.292 210.108 82.5854C207.469 83.7235 205.038 85.2755 202.761 87.0862C198.312 90.5524 194.639 95.0533 191.742 99.8646C188.69 104.883 186.465 110.418 184.965 116.109C183.154 122.835 182.12 129.767 181.085 136.648C179.947 144.408 178.757 152.168 176.377 159.669C178.912 160.031 181.447 160.342 183.982 160.704C184.965 145.391 185.844 129.353 180.671 114.609C176.377 102.296 167.944 90.7593 155.683 85.5859C147.458 82.1197 138.456 82.0163 129.661 82.1198C130.023 84.6547 130.334 87.1897 130.696 89.7247C143.733 87.914 154.856 79.4813 162.461 69.1345C170.893 57.6495 174.566 43.2157 176.325 29.2474C177.36 21.1252 177.567 12.9511 176.998 4.82884C176.843 2.8112 175.291 0.845303 173.118 0.948771C171.152 1.00051 169.134 2.60428 169.29 4.77712Z" fill="#231F20"/>
<path d="M25.6228 109.953C26.5023 113.833 27.2783 117.765 27.9508 121.696C28.313 123.611 28.6235 125.525 28.8822 127.439C29.0374 128.422 29.1925 129.353 29.296 130.336C29.3477 130.75 29.3993 131.215 29.4511 131.629C29.5545 132.354 29.4511 131.681 29.4511 131.578C29.5028 131.888 29.5546 132.198 29.5546 132.561C30.5893 140.372 31.21 148.184 31.5204 156.048C31.6756 159.411 31.6758 162.722 31.4689 166.084C31.4172 166.86 31.3652 167.636 31.2618 168.412C31.21 168.826 31.1584 169.24 31.1067 169.654C31.0549 170.068 31.2101 170.378 31.1067 169.551C31.1584 169.809 31.0031 170.12 31.0031 170.378C30.7444 171.982 30.434 173.534 29.9684 175.086C29.7615 175.862 29.5028 176.586 29.2442 177.362C29.1407 177.673 28.9339 178.035 28.8822 178.345C29.0891 177.569 29.089 177.931 28.9855 178.138C28.882 178.397 28.7785 178.604 28.675 178.863C27.9508 180.363 27.1231 181.76 26.1401 183.105C25.8815 183.415 25.6746 183.777 25.4159 184.088C25.4676 183.984 25.9333 183.415 25.5195 183.933C25.416 184.088 25.3124 184.243 25.1572 184.347C24.6399 185.019 24.0707 185.692 23.5016 186.364C22.4152 187.606 21.2255 188.847 20.0356 190.037C18.7422 191.331 17.397 192.521 16.0002 193.71C15.2759 194.331 14.5517 194.952 13.7757 195.521C13.6205 195.676 13.4136 195.832 13.2584 195.935C13.1549 195.987 12.5341 196.504 12.9997 196.142C13.517 195.78 12.7927 196.297 12.741 196.349C12.5341 196.504 12.2755 196.659 12.0686 196.866C8.96452 199.143 5.757 201.264 2.49774 203.281C1.10092 204.161 0.1695 206.023 0.738576 207.679C1.25592 209.231 2.75631 210.627 4.46354 210.524C7.72279 210.317 10.982 210.162 14.293 210.317C16.4659 210.421 18.6387 210.628 20.7598 210.886C21.9497 210.99 23.0878 211.093 24.2776 211.197C24.6398 211.197 25.002 211.248 25.3641 211.3C25.4676 211.3 25.5193 211.3 25.6228 211.352C26.0367 211.404 25.9331 211.404 25.3123 211.3C25.4158 211.352 25.6747 211.352 25.7781 211.352C26.6059 211.507 27.4335 211.662 28.2613 211.921C28.9856 212.128 29.7099 212.387 30.3824 212.645C30.5894 212.697 30.7446 212.8 30.9516 212.852C31.4689 213.059 30.0202 212.438 30.7962 212.8C31.2101 213.007 31.5724 213.162 31.9862 213.369C33.4348 214.094 34.7798 214.921 36.0732 215.853C36.2284 215.956 36.3835 216.111 36.5387 216.215C37.1078 216.629 36.3836 216.111 36.3319 216.06C36.4871 216.318 37.056 216.629 37.263 216.836C37.9355 217.405 38.5564 217.974 39.1772 218.543C40.3671 219.681 41.5571 220.923 42.5918 222.164C43.1091 222.785 43.6264 223.406 44.092 224.027C43.5746 223.302 44.6611 224.751 44.092 224.027C44.1955 224.182 44.299 224.285 44.4024 224.441C44.7129 224.854 45.0231 225.268 45.2818 225.682C46.2647 227.079 47.1959 228.476 48.0754 229.924C49.9895 233.08 51.7486 236.391 53.3524 239.702C54.2318 241.513 55.1113 243.375 55.9391 245.186C56.146 245.6 56.3013 246.014 56.5082 246.428C56.6117 246.635 56.7152 246.893 56.8187 247.1C57.0773 247.773 56.8186 247.152 56.7669 246.997C57.2325 248.031 57.5946 249.066 58.0084 250.101C61.3712 258.585 63.9579 267.328 65.7686 276.278C66.1307 278.192 68.2519 279.279 70.0109 279.072C72.0802 278.813 73.1667 277.209 73.3736 275.244C75.1843 259.672 71.2523 244.203 72.1836 228.579C72.2353 227.338 72.3905 226.096 72.494 224.906C72.5458 224.596 72.5976 224.285 72.5976 223.975C72.6493 223.458 72.4423 225.061 72.5458 224.285C72.5458 224.13 72.5976 224.027 72.5976 223.871C72.7011 223.199 72.8043 222.526 72.9078 221.854C73.3734 219.215 73.9942 216.577 74.7185 214.042C75.1324 212.697 75.5462 211.352 76.0118 210.007C76.2188 209.386 76.4259 208.817 76.6845 208.248C76.788 207.937 76.9431 207.627 77.0465 207.317C77.3052 206.747 76.9432 207.575 76.8914 207.627C76.9949 207.42 77.0466 207.213 77.1501 207.006C78.2365 204.575 79.4781 202.195 80.9784 199.97C81.3405 199.401 81.7545 198.832 82.1684 198.263C82.2201 198.16 82.6856 197.591 82.2199 198.16C81.8061 198.729 82.2718 198.108 82.3753 198.004C82.5822 197.746 82.7891 197.487 83.0477 197.228C83.9272 196.194 84.9102 195.211 85.9449 194.331C86.2036 194.073 86.514 193.866 86.7727 193.659C87.1348 193.348 86.0484 194.176 86.4622 193.917C86.6175 193.814 86.7726 193.71 86.9278 193.555C87.4969 193.193 88.0144 192.831 88.6352 192.469C89.2043 192.158 89.7732 191.848 90.3423 191.589C90.4458 191.538 91.0667 191.279 90.3941 191.538C89.7733 191.796 90.2907 191.589 90.4459 191.538C90.808 191.382 91.17 191.279 91.5321 191.175C93.0841 190.658 94.4809 189.158 94.3775 187.451C94.274 185.692 93.2393 184.295 91.5321 183.726C84.9101 181.501 77.9779 180.57 71.3042 178.449C70.5282 178.19 69.7522 177.931 68.9762 177.621C68.821 177.569 68.6656 177.518 68.5104 177.466C68.4069 177.414 67.7344 177.052 68.3035 177.362C68.8726 177.673 68.2001 177.311 68.0966 177.259C67.8897 177.156 67.6311 177.052 67.4242 176.949C65.9239 176.276 64.527 175.448 63.1819 174.517C62.9749 174.362 62.7679 174.207 62.561 174.103C62.0953 173.793 62.6646 174.258 62.7681 174.258C62.6129 174.31 61.9401 173.586 61.7849 173.431C61.1124 172.81 60.4399 172.189 59.8191 171.516C59.3018 170.947 58.7845 170.327 58.2671 169.706C58.0084 169.395 57.7498 169.085 57.4911 168.775C58.1636 169.551 57.7499 169.085 57.5947 168.878C57.4395 168.671 57.2843 168.412 57.0773 168.205C55.2149 165.671 53.6627 162.98 52.2659 160.187C51.9038 159.462 51.5934 158.79 51.283 158.066C51.1278 157.755 50.9727 157.445 50.8692 157.083C50.7658 156.927 50.714 156.72 50.6105 156.565C50.3001 155.841 50.921 157.29 50.6105 156.617C49.9897 155.117 49.4205 153.565 48.8514 152.064C46.5233 145.649 44.7127 139.027 42.6951 132.509C39.9014 123.714 36.6422 115.074 32.4 106.9C31.4688 105.09 28.7787 104.417 27.0715 105.504C25.2091 106.693 24.6916 108.866 25.6746 110.832C26.7092 112.798 27.6923 114.816 28.6235 116.833C29.0374 117.765 29.5029 118.696 29.8651 119.627C29.8134 119.524 29.5546 118.851 29.8133 119.524C29.9168 119.731 30.0203 119.989 30.1238 120.196C30.3307 120.713 30.5375 121.231 30.7444 121.696C32.193 125.318 33.4864 128.991 34.6763 132.716C36.8491 139.39 38.7116 146.167 40.9879 152.789C43.1608 159.1 45.7993 165.36 49.5759 170.896C51.5935 173.844 53.8697 176.845 56.6633 179.121C59.6639 181.656 62.975 183.467 66.6482 184.864C73.9944 187.709 81.9615 188.537 89.4112 191.02C89.4112 188.537 89.4112 186.054 89.4112 183.519C78.1331 187.14 71.6663 198.367 68.0966 208.92C66.2342 214.352 65.0961 220.043 64.527 225.734C63.8027 233.08 64.32 240.53 64.9408 247.876C65.6651 256.93 66.5446 265.983 65.5099 275.037C68.0449 274.674 70.58 274.364 73.1149 274.002C71.4594 265.88 69.1312 257.861 66.2341 250.101C63.2853 242.289 59.8191 234.58 55.6286 227.338C52.059 221.233 47.7651 215.284 42.2813 210.783C39.2807 208.351 36.1765 206.385 32.5551 204.988C29.3476 203.695 25.985 203.333 22.5705 203.023C20.0873 202.816 17.6559 202.505 15.1726 202.35C11.4995 202.143 7.878 202.298 4.20487 202.505C4.87741 204.937 5.49812 207.317 6.17067 209.748C12.2753 205.971 18.2248 201.833 23.5534 196.918C28.8303 192.003 33.7452 186.364 36.3836 179.587C38.9186 173.068 39.3324 165.774 39.1772 158.79C39.022 150.874 38.4011 142.959 37.4699 135.147C36.3834 125.939 34.8314 116.73 32.8138 107.676C32.3482 105.711 29.9686 104.365 28.0544 104.986C26.2437 105.866 25.1054 107.832 25.6228 109.953Z" fill="#231F20"/>
<path d="M229.146 214.145C229.87 216.991 230.439 219.836 230.853 222.785C230.801 222.423 230.749 222.112 230.698 221.75C231.474 227.493 231.577 233.391 230.801 239.133C230.853 238.771 230.905 238.46 230.956 238.098C230.336 242.754 229.146 247.307 227.335 251.601C227.49 251.291 227.594 250.98 227.749 250.67C226.869 252.739 225.887 254.757 224.697 256.671C224.128 257.654 223.455 258.637 222.782 259.568C222.472 259.982 222.162 260.396 221.851 260.81C222.679 259.723 222.006 260.603 221.8 260.861C221.593 261.12 221.386 261.379 221.179 261.586C219.73 263.345 218.075 264.948 216.367 266.449C215.954 266.811 215.488 267.173 215.074 267.535C214.815 267.742 213.936 268.415 215.022 267.587C214.764 267.742 214.557 267.949 214.298 268.156C213.315 268.88 212.28 269.553 211.246 270.225C209.28 271.415 207.314 272.45 205.193 273.329C205.503 273.174 205.814 273.071 206.124 272.915C204.624 273.536 203.123 274.157 201.623 274.83C200.589 275.295 199.606 275.709 198.83 276.485C197.071 278.141 197.381 280.986 199.192 282.383C200.123 283.107 201.365 283.314 202.451 283.624C204.313 284.194 206.176 284.866 207.986 285.642C207.676 285.487 207.366 285.383 207.055 285.228C211.97 287.349 216.73 289.988 220.972 293.195C221.075 293.299 221.179 293.35 221.282 293.454C220.403 292.781 220.765 293.092 220.972 293.195C221.23 293.402 221.437 293.557 221.696 293.764C222.162 294.126 222.627 294.54 223.041 294.903C223.817 295.627 224.593 296.351 225.317 297.179C225.679 297.541 225.99 297.955 226.352 298.369C226.507 298.576 226.662 298.783 226.818 298.989C226.973 299.196 227.232 299.559 226.507 298.627C226.611 298.783 226.714 298.886 226.818 299.041C227.438 299.869 228.059 300.748 228.577 301.68C229.922 303.801 231.008 306.077 232.043 308.405C231.888 308.095 231.784 307.784 231.629 307.474C235.354 316.372 237.061 325.943 238.716 335.41C239.13 337.945 239.596 340.48 240.062 343.015C240.217 343.895 241.096 344.93 241.821 345.343C242.597 345.757 243.424 345.912 244.304 345.809C246.218 345.55 247.615 343.947 247.667 341.981C247.822 337.687 247.977 333.393 248.132 329.047C248.287 324.908 248.287 320.718 248.856 316.579C248.805 316.941 248.753 317.252 248.701 317.614C249.219 314.044 249.995 310.474 250.926 307.008C251.391 305.301 251.909 303.594 252.426 301.887C252.892 300.49 253.306 299.041 253.875 297.644C253.72 297.955 253.616 298.265 253.461 298.576C254.185 296.92 255.116 295.368 256.203 293.92C256.358 293.713 256.513 293.506 256.668 293.247C257.03 292.781 255.996 294.075 256.565 293.351C256.927 292.885 257.289 292.471 257.651 292.005C258.324 291.178 259.048 290.402 259.772 289.626C261.324 288.022 262.98 286.47 264.687 284.97C265.101 284.607 265.515 284.297 265.929 283.935C266.136 283.78 266.343 283.624 266.55 283.417C266.653 283.314 266.756 283.211 266.912 283.159C266.756 283.262 266.136 283.78 266.601 283.366C267.429 282.745 268.309 282.124 269.136 281.503C270.844 280.365 272.602 279.279 274.517 278.503C274.206 278.658 273.896 278.761 273.586 278.917C273.741 278.865 273.896 278.813 274.051 278.71C274.982 278.348 275.862 277.83 276.379 276.951C276.793 276.175 276.948 275.347 276.845 274.468C276.586 272.553 274.982 271.105 273.016 271.105C272.137 271.105 271.257 271.053 270.43 270.95C270.792 271.001 271.102 271.053 271.464 271.105C269.757 270.846 268.05 270.38 266.446 269.708C266.756 269.863 267.067 269.967 267.377 270.122C266.394 269.708 265.463 269.242 264.584 268.673C264.118 268.415 263.704 268.104 263.239 267.846C263.032 267.69 262.773 267.535 262.566 267.38C262.463 267.328 262.359 267.225 262.256 267.173C262.204 267.121 262.152 267.069 262.1 267.069C261.738 266.759 262.618 267.483 262.566 267.432C260.807 265.983 259.151 264.431 257.599 262.724C257.237 262.258 256.824 261.844 256.461 261.379C256.306 261.172 256.099 260.913 255.944 260.706C255.53 260.189 256.358 261.224 256.203 261.017C256.099 260.861 255.996 260.758 255.892 260.603C255.116 259.62 254.444 258.585 253.719 257.55C252.271 255.378 250.978 253.101 249.788 250.773C248.391 248.083 247.098 245.289 245.908 242.496C246.063 242.806 246.166 243.117 246.321 243.427C242.855 235.201 240.165 226.613 237.94 217.922C237.423 215.904 236.958 213.938 236.492 211.921C236.026 209.955 233.647 208.61 231.732 209.231C229.766 210.058 228.628 212.024 229.146 214.145C230.232 218.853 231.422 223.561 232.819 228.217C234.423 233.649 236.285 239.081 238.406 244.358C240.683 249.894 243.218 255.378 246.425 260.447C249.27 265 252.685 269.449 256.875 272.812C258.893 274.416 261.014 275.916 263.394 276.951C266.032 278.089 268.619 278.813 271.516 279.072C272.085 279.124 272.654 279.124 273.172 279.124C272.809 276.589 272.499 274.054 272.137 271.519C267.895 273.174 264.221 275.761 260.704 278.606C257.186 281.452 253.875 284.659 251.081 288.229C249.684 289.988 248.391 291.747 247.356 293.764C246.166 296.144 245.39 298.731 244.614 301.266C242.752 307.422 241.251 313.682 240.786 320.097C240.527 323.718 240.476 327.392 240.372 331.013C240.269 334.738 240.113 338.411 240.01 342.136C242.545 341.774 245.08 341.463 247.615 341.101C245.752 330.806 244.355 320.356 241.045 310.423C239.337 305.405 237.216 300.386 234.112 296.041C232.56 293.816 230.801 291.747 228.835 289.884C226.559 287.815 224.024 285.953 221.437 284.297C218.592 282.435 215.591 280.779 212.487 279.382C210.728 278.555 208.918 277.83 207.055 277.158C205.555 276.64 204.055 276.226 202.554 275.761C202.865 275.916 203.175 276.02 203.486 276.175C203.951 276.64 204.365 277.054 204.831 277.52C204.986 277.83 205.089 278.141 205.245 278.451C205.296 278.813 205.348 279.124 205.4 279.486C205.348 279.848 205.296 280.158 205.245 280.52C205.089 280.831 204.986 281.141 204.831 281.452C204.52 281.917 204.106 282.486 203.641 282.693C203.744 282.641 203.796 282.59 203.899 282.538C204.158 282.383 204.417 282.279 204.675 282.124C205.4 281.762 206.176 281.452 206.952 281.141C206.641 281.296 206.331 281.4 206.021 281.555C208.142 280.676 210.314 279.796 212.384 278.71C214.764 277.468 216.988 276.019 219.109 274.416C223.61 270.95 227.49 266.863 230.543 262.103C236.44 253.05 239.027 242.082 239.079 231.373C239.079 224.958 238.199 218.491 236.647 212.283C236.13 210.317 233.854 208.92 231.888 209.593C229.818 210.058 228.577 212.024 229.146 214.145Z" fill="#231F20"/>
<path d="M281.553 76.8946C281.967 78.8088 282.329 80.7229 282.64 82.6371C282.795 83.5683 282.95 84.5513 283.105 85.5342C283.157 85.8446 283.415 87.2932 283.208 86.1551C283.312 86.7241 283.364 87.2932 283.416 87.8105C283.881 91.7423 284.243 95.7259 284.45 99.7094C284.864 107.728 284.812 115.799 284.243 123.766C284.088 125.732 283.933 127.698 283.778 129.715C283.674 130.595 283.622 131.526 283.519 132.405C283.467 132.819 283.416 133.233 283.364 133.699C283.364 133.906 283.312 134.113 283.312 134.268C283.26 134.578 283.312 134.423 283.364 133.802C283.364 133.957 283.312 134.113 283.312 134.268C282.846 137.579 282.122 140.838 281.243 144.046C280.777 145.649 280.26 147.253 279.691 148.805C279.38 149.581 279.121 150.357 278.811 151.133C278.759 151.34 278.656 151.495 278.604 151.702C278.915 150.719 278.759 151.288 278.656 151.547C278.449 151.961 278.294 152.427 278.087 152.84C276.69 155.893 275.086 158.79 273.172 161.584C272.655 162.36 272.086 163.136 271.517 163.86C271.362 164.067 271.051 164.325 271.672 163.653C271.517 163.86 271.31 164.067 271.154 164.274C270.844 164.636 270.585 164.998 270.275 165.36C269.085 166.757 267.843 168.05 266.498 169.344C265.826 169.964 265.153 170.585 264.429 171.206C264.067 171.516 263.653 171.775 263.343 172.086C264.015 171.413 263.757 171.775 263.498 171.982C263.291 172.137 263.084 172.292 262.825 172.448C261.325 173.534 259.721 174.569 258.066 175.448C256.617 176.224 255.789 178.242 256.307 179.846C256.514 180.467 256.824 181.087 257.29 181.553C257.859 182.174 259.152 182.795 260.032 182.691C263.498 182.277 266.964 182.07 270.43 182.174C272.137 182.225 273.793 182.329 275.5 182.484C275.914 182.536 276.38 182.588 276.793 182.639C277.104 182.691 278.656 182.898 277.311 182.691C278.19 182.846 279.07 182.95 279.949 183.105C283.312 183.674 286.675 184.502 289.934 185.536C291.589 186.054 293.245 186.623 294.849 187.295C295.211 187.451 295.521 187.554 295.883 187.709C296.09 187.813 296.297 187.864 296.504 187.968C295.418 187.554 296.142 187.813 296.401 187.916C297.228 188.278 298.005 188.64 298.832 189.003C301.988 190.503 305.04 192.158 307.938 194.021C309.386 194.952 310.783 195.883 312.128 196.918C312.49 197.177 312.852 197.435 313.214 197.694C313.369 197.849 313.576 197.953 313.732 198.108C312.904 197.487 313.266 197.746 313.473 197.901C314.249 198.522 314.973 199.091 315.698 199.712C318.284 201.884 320.767 204.264 323.044 206.747C324.234 208.041 325.372 209.386 326.51 210.783C326.717 211.093 326.976 211.352 327.183 211.662C326.355 210.679 327.338 211.869 327.493 212.128C328.01 212.852 328.528 213.576 329.045 214.301C331.218 217.456 333.184 220.767 334.839 224.182C335.253 225.061 335.667 225.941 336.029 226.769C336.34 227.493 335.667 225.889 335.977 226.665C336.081 226.924 336.184 227.234 336.288 227.493C336.443 227.907 336.598 228.321 336.753 228.735C337.478 230.597 338.099 232.511 338.616 234.425C339.185 236.391 341.41 237.788 343.375 237.115C344.307 236.805 345.238 236.236 345.704 235.356C346.221 234.374 346.273 233.442 346.117 232.356C346.117 232.304 345.962 231.321 346.066 231.942C346.169 232.563 346.014 231.632 346.014 231.58C345.962 231.218 345.91 230.856 345.859 230.493C345.755 229.666 345.652 228.838 345.6 228.01C345.496 226.717 345.393 225.424 345.341 224.13C345.29 222.113 345.341 220.043 345.29 218.025C345.29 215.491 345.134 213.007 344.876 210.472C344.669 208.558 344.41 206.644 344.152 204.73C343.996 203.592 343.841 202.454 343.686 201.264C343.634 201.057 343.634 200.85 343.582 200.643C343.427 199.66 343.686 201.264 343.582 200.643C343.531 200.074 343.427 199.556 343.375 198.987C342.91 195.314 342.496 191.589 342.393 187.865C342.341 185.95 342.341 184.088 342.496 182.174C342.548 181.294 342.599 180.363 342.755 179.484C342.548 180.57 342.858 178.966 342.858 178.759C342.962 178.242 343.013 177.776 343.117 177.259C343.427 175.655 343.893 174.103 344.41 172.603C344.617 171.93 344.876 171.258 345.134 170.585C345.238 170.275 345.341 169.964 345.497 169.706C345.548 169.499 345.652 169.344 345.704 169.137C346.066 168.309 345.548 169.551 345.704 169.188C346.945 166.447 348.342 163.808 349.997 161.325C350.463 160.652 351.136 159.928 351.549 159.204C351.498 159.255 350.98 159.928 351.394 159.411C351.549 159.204 351.705 159.049 351.86 158.842C352.119 158.531 352.377 158.221 352.636 157.91C353.722 156.669 354.861 155.479 356.102 154.341C356.723 153.772 357.395 153.203 358.068 152.634C358.585 152.22 357.913 152.789 357.861 152.789C358.068 152.685 358.223 152.478 358.43 152.375C358.792 152.116 359.154 151.858 359.465 151.599C360.862 150.616 362.31 149.788 363.862 149.012C365.311 148.288 366.139 146.167 365.621 144.615C365.052 142.907 363.655 141.873 361.896 141.769C360.086 141.666 358.275 141.511 356.464 141.304C356.05 141.252 355.636 141.2 355.223 141.148C355.016 141.148 354.809 141.045 354.602 141.045C355.636 140.993 354.964 141.097 354.653 141.045C353.722 140.89 352.791 140.786 351.912 140.631C348.394 140.01 344.928 139.234 341.565 138.251C339.858 137.734 338.202 137.217 336.546 136.596C335.77 136.286 334.994 136.027 334.167 135.716C334.063 135.665 332.977 135.251 332.977 135.251C333.132 135.303 333.287 135.406 333.442 135.458C333.287 135.406 333.132 135.303 332.977 135.251C332.77 135.147 332.511 135.044 332.304 134.94C329.045 133.492 325.941 131.836 322.94 129.922C321.44 128.939 319.94 127.956 318.543 126.87C318.388 126.766 318.284 126.663 318.129 126.559C318.284 126.715 319.009 127.18 318.129 126.559C317.819 126.301 317.457 126.042 317.146 125.783C316.422 125.214 315.749 124.594 315.077 123.973C313.783 122.783 312.49 121.541 311.3 120.248C310.059 118.903 308.972 117.454 307.782 116.109C308.506 116.937 307.627 115.902 307.472 115.644C307.213 115.281 306.955 114.971 306.696 114.609C306.127 113.833 305.61 113.057 305.092 112.281C304.057 110.729 303.126 109.125 302.195 107.521C300.384 104.314 298.781 101.003 297.28 97.5883C297.229 97.4331 297.125 97.2779 297.073 97.1227C297.022 96.9675 296.918 96.8123 296.866 96.6571C297.073 97.1744 297.125 97.2262 296.97 96.864C296.763 96.3984 296.556 95.881 296.349 95.4154C295.987 94.4842 295.625 93.5531 295.263 92.6218C294.538 90.7077 293.814 88.7417 293.142 86.8276C291.745 82.844 290.451 78.8605 289.158 74.877C288.537 72.9628 286.416 71.5143 284.398 72.1868C282.329 72.7559 280.881 74.8253 281.553 76.8946C286.209 91.4319 291.072 106.435 300.126 118.903C304.73 125.266 310.266 130.75 316.784 135.251C322.941 139.493 329.821 142.701 336.909 145.029C344.979 147.667 353.412 149.116 361.896 149.581C361.224 147.15 360.603 144.77 359.93 142.338C348.187 148.184 340.013 159.825 336.443 172.293C334.27 179.897 334.374 187.813 335.253 195.573C335.512 197.746 335.771 199.867 336.081 202.04C336.133 202.557 336.236 203.023 336.288 203.54C336.34 203.747 336.34 203.954 336.391 204.161C336.547 205.144 336.288 203.54 336.391 204.213C336.547 205.195 336.65 206.23 336.805 207.213C337.167 210.265 337.529 213.318 337.581 216.37C337.633 218.698 337.581 221.026 337.633 223.354C337.736 227.027 338.15 230.7 338.668 234.374C341.151 233.701 343.634 232.977 346.169 232.304C342.186 218.232 333.908 205.506 323.044 195.832C312.18 186.106 298.729 179.018 284.45 176.069C276.483 174.414 268.206 173.896 260.135 174.931C260.808 177.362 261.428 179.742 262.101 182.174C274.828 175.19 283.415 162.618 287.916 149.064C290.244 142.028 291.279 134.733 291.848 127.335C292.521 119.161 292.728 110.987 292.417 102.813C292.055 93.4496 291.072 84.0857 289.158 74.9287C288.744 72.9628 286.313 71.6177 284.398 72.2385C282.174 72.8076 281.139 74.7735 281.553 76.8946Z" fill="#231F20"/>
</svg>
