<svg width="287" height="283" viewBox="0 0 287 283" fill="none" xmlns="http://www.w3.org/2000/svg">
<path d="M143.36 282.77C64.6301 282.77 0.580078 219.34 0.580078 141.38C0.580078 63.4202 64.6301 -0.00976562 143.36 -0.00976562C222.09 -0.00976562 286.14 63.4202 286.14 141.38C286.14 219.34 222.09 282.77 143.36 282.77ZM143.36 6.43024C68.1901 6.43024 7.03008 66.9702 7.03008 141.38C7.03008 215.79 68.1901 276.33 143.36 276.33C218.53 276.33 279.69 215.79 279.69 141.38C279.69 66.9702 218.53 6.43024 143.36 6.43024Z" fill="#383434"/>
<path d="M111.391 120.781C114.741 95.1105 119.151 69.5705 124.621 44.2705C138.811 63.6705 150.351 84.9905 158.841 107.48C183.301 105.64 207.761 103.801 232.231 101.961C219.421 121.091 201.931 137.07 181.711 148.1C194.741 171.76 205.201 196.83 212.851 222.73C188.491 209.34 165.941 192.65 146.031 173.25C128.231 195.91 109.111 217.53 88.7908 237.96C84.7008 225.6 85.5109 212.04 88.8109 199.44C92.1109 186.85 97.7909 175.02 103.441 163.29C81.1509 160.78 59.4709 153.04 40.6309 140.87C55.9109 128.61 75.1109 121.3 111.421 120.79L111.391 120.781Z" fill="#E76A70"/>
</svg>
