<svg width="90" height="107" viewBox="0 0 90 107" fill="none" xmlns="http://www.w3.org/2000/svg">
<path d="M55.4228 11.0889C54.9785 24.4196 60.0331 34.3064 65.3654 44.0268C67.3095 47.5261 70.5866 49.0814 74.6413 48.8592C77.5852 48.6926 80.529 48.526 83.4729 48.6926C86.6945 48.9148 89.2495 51.1921 89.8605 53.9693C90.416 56.4133 88.6941 59.9125 85.8613 61.2456C83.9173 62.1899 81.6955 63.3009 79.5848 63.3009C72.3084 63.3564 68.1981 67.8554 64.5877 73.1877C60.3108 79.3532 57.978 86.3518 55.9228 93.4615C55.0896 96.2943 54.3675 99.1272 53.3677 101.904C52.4234 104.515 50.5904 106.348 47.6466 106.459C44.7582 106.57 42.7587 104.737 41.4256 102.46C40.5369 100.905 39.9814 99.0716 39.7036 97.2942C39.0371 93.295 38.7595 89.2402 38.1485 85.1854C36.5377 74.6875 26.8173 65.7448 16.4305 65.0227C13.0978 64.8005 9.76516 64.8005 6.48803 64.3562C3.26643 63.9118 0.822386 61.4122 0.433573 58.7461C-0.0107848 55.7467 2.32207 52.3585 5.82138 51.3032C9.37624 50.3034 13.0423 49.8035 16.5971 48.8036C30.8166 44.9155 38.3151 36.0283 39.7592 21.2534C40.1481 17.5875 40.037 13.866 40.3147 10.2001C40.5369 6.70077 42.0922 3.86804 45.0916 1.92398C49.313 -0.797713 54.5341 1.3129 55.2562 6.14529C55.7005 8.36708 55.4228 10.589 55.4228 11.0889Z" fill="black"/>
</svg>
