<svg width="100" height="116" viewBox="0 0 100 116" fill="none" xmlns="http://www.w3.org/2000/svg">
<path d="M3.32928 115.25C1.59928 115.25 0.169281 113.87 0.109281 112.13C0.0492807 110.35 1.44928 108.86 3.22928 108.8C6.70928 108.69 10.2193 108.29 13.6893 107.61C15.4393 107.27 17.1293 108.41 17.4693 110.16C17.8093 111.91 16.6693 113.6 14.9193 113.94C11.1193 114.68 7.25928 115.12 3.43928 115.24C3.39928 115.24 3.36928 115.24 3.32928 115.24V115.25ZM24.9393 111.05C23.6193 111.05 22.3793 110.23 21.9093 108.92C21.2993 107.25 22.1693 105.4 23.8393 104.79C27.1393 103.59 30.3793 102.13 33.4593 100.45C35.0193 99.5899 36.9793 100.17 37.8393 101.73C38.6893 103.29 38.1193 105.25 36.5593 106.11C33.1893 107.95 29.6593 109.55 26.0493 110.86C25.6893 110.99 25.3193 111.05 24.9493 111.05H24.9393ZM96.6793 110.07C96.5893 110.07 96.4893 110.07 96.3993 110.06C93.6693 109.82 90.8993 109.44 88.1793 108.92C86.4293 108.58 85.2893 106.89 85.6193 105.15C85.9593 103.4 87.6393 102.25 89.3893 102.59C91.8993 103.07 94.4393 103.43 96.9493 103.64C98.7193 103.79 100.039 105.36 99.8893 107.13C99.7493 108.81 98.3393 110.08 96.6793 110.08V110.07ZM78.1093 106.14C77.7693 106.14 77.4193 106.08 77.0693 105.97C73.4793 104.75 69.9193 103.27 66.4793 101.57C64.8793 100.78 64.2293 98.8499 65.0193 97.2499C65.8093 95.6499 67.7493 94.9999 69.3393 95.7899C72.5293 97.3699 75.8293 98.7399 79.1493 99.8699C80.8393 100.44 81.7393 102.27 81.1593 103.96C80.6993 105.3 79.4493 106.15 78.1093 106.15V106.14ZM44.2593 100.48C43.2893 100.48 42.3393 100.05 41.6993 99.2199C40.6093 97.8099 40.8793 95.7799 42.2893 94.6999C44.3693 93.0999 46.3493 91.3899 48.1993 89.5699C47.9393 89.3499 47.6893 89.1399 47.4393 88.9199C46.0893 87.7599 45.9393 85.7199 47.0993 84.3699C48.2593 83.0199 50.2993 82.8699 51.6493 84.0299C54.3293 86.3399 57.1893 88.5099 60.1293 90.4599C61.6093 91.4499 62.0193 93.4499 61.0293 94.9299C60.0493 96.4099 58.0393 96.8199 56.5593 95.8299C55.4693 95.0999 54.3793 94.3499 53.3193 93.5699C51.1093 95.7799 48.7293 97.8699 46.2193 99.7999C45.6293 100.25 44.9393 100.47 44.2593 100.47V100.48ZM59.3293 84.4399C58.7093 84.4399 58.0793 84.2599 57.5293 83.8899C56.0493 82.8899 55.6693 80.8899 56.6593 79.4099C58.6193 76.5099 60.3693 73.4299 61.8693 70.2399C62.6293 68.6299 64.5493 67.9399 66.1593 68.6899C67.7693 69.4499 68.4593 71.3699 67.7093 72.9799C66.0693 76.4699 64.1493 79.8499 62.0093 83.0199C61.3893 83.9399 60.3693 84.4399 59.3393 84.4399H59.3293ZM41.6393 81.9799C40.7593 81.9799 39.8793 81.6199 39.2493 80.9199C36.6793 78.0799 34.2893 75.0599 32.1293 71.9499C31.1093 70.4899 31.4793 68.4799 32.9393 67.4599C34.3993 66.4499 36.4093 66.8099 37.4293 68.2699C39.4393 71.1599 41.6593 73.9599 44.0393 76.5999C45.2293 77.9199 45.1293 79.9599 43.8093 81.1499C43.1893 81.7099 42.4193 81.9799 41.6493 81.9799H41.6393ZM68.7093 64.5199C68.4093 64.5199 68.0993 64.4799 67.7993 64.3899C66.0893 63.8899 65.1093 62.0899 65.6193 60.3899C66.6193 57.0099 67.3493 53.5399 67.8093 50.0799C68.0393 48.3199 69.6593 47.0699 71.4293 47.3099C73.1893 47.5399 74.4393 49.1599 74.1993 50.9299C73.6993 54.7199 72.8893 58.5199 71.7993 62.2199C71.3893 63.6199 70.0993 64.5299 68.7093 64.5299V64.5199ZM29.0893 63.8599C27.9193 63.8599 26.7893 63.2199 26.2193 62.1099C24.4593 58.6799 22.9393 55.1299 21.6993 51.5399C21.1193 49.8599 22.0093 48.0199 23.6893 47.4399C25.3693 46.8499 27.2093 47.7499 27.7893 49.4299C28.9393 52.7299 30.3393 56.0099 31.9593 59.1699C32.7693 60.7499 32.1493 62.6999 30.5593 63.5099C30.0893 63.7499 29.5893 63.8699 29.0893 63.8699V63.8599ZM21.8893 43.0399C20.3593 43.0399 19.0093 41.9499 18.7193 40.3999C18.1093 37.0499 17.7893 33.8199 17.7893 30.7899C17.7893 30.0799 17.8093 29.3699 17.8393 28.6599C17.9293 26.8799 19.4493 25.5299 21.2193 25.5999C22.9993 25.6899 24.3693 27.1999 24.2793 28.9799C24.2493 29.5799 24.2393 30.1899 24.2393 30.7899C24.2393 33.4299 24.5193 36.2699 25.0593 39.2399C25.3793 40.9899 24.2193 42.6699 22.4693 42.9899C22.2693 43.0299 22.0793 43.0399 21.8793 43.0399H21.8893ZM71.5693 42.6899C69.8293 42.6899 68.3993 41.2999 68.3493 39.5499V39.2999C68.2293 35.7599 67.7993 32.3599 67.0893 29.2199C66.6893 27.4799 67.7793 25.7599 69.5193 25.3599C71.2593 24.9599 72.9793 26.0499 73.3793 27.7899C74.1893 31.3299 74.6593 35.1399 74.7893 39.1099V39.3699C74.8493 41.1499 73.4393 42.6299 71.6593 42.6799C71.6293 42.6799 71.5993 42.6799 71.5693 42.6799V42.6899ZM66.4293 21.3899C65.2793 21.3899 64.1693 20.7799 63.5893 19.6999C62.6193 17.8999 61.4893 16.2299 60.2393 14.7399C59.4193 13.7699 58.4993 12.8499 57.5193 11.9999C56.1693 10.8399 55.9993 8.80988 57.1593 7.45988C58.3193 6.09988 60.3493 5.93988 61.6993 7.09988C62.9593 8.16988 64.1193 9.33988 65.1693 10.5899C66.7093 12.4199 68.0893 14.4499 69.2693 16.6399C70.1193 18.2099 69.5293 20.1599 67.9593 21.0099C67.4693 21.2699 66.9493 21.3999 66.4293 21.3999V21.3899ZM23.3593 21.2799C22.9493 21.2799 22.5293 21.1999 22.1293 21.0299C20.4793 20.3499 19.6993 18.4699 20.3793 16.8199C21.9993 12.8999 24.3793 9.37989 27.2793 6.61989C28.5693 5.38989 30.6093 5.43989 31.8393 6.72989C33.0693 8.01989 33.0193 10.0599 31.7293 11.2899C29.4793 13.4299 27.6193 16.1899 26.3493 19.2799C25.8393 20.5199 24.6393 21.2699 23.3693 21.2699L23.3593 21.2799ZM49.9893 7.47989C49.6793 7.47989 49.3693 7.42988 49.0593 7.33988C45.8893 6.37988 42.6893 6.21989 39.7793 6.86989C38.0393 7.25989 36.3193 6.15988 35.9293 4.42988C35.5393 2.68988 36.6393 0.969886 38.3693 0.579886C42.3593 -0.310114 46.6993 -0.110117 50.9293 1.16988C52.6293 1.68988 53.5993 3.48989 53.0793 5.18989C52.6593 6.57989 51.3793 7.47989 49.9993 7.47989H49.9893Z" fill="#F2C12E"/>
</svg>
