<svg width="512" height="512" viewBox="0 0 512 512" fill="none" xmlns="http://www.w3.org/2000/svg">
<path d="M182.543 478.292C202.381 486.277 223.903 491.015 246.502 491.804C277.085 492.873 306.169 486.549 332.169 474.538C300.991 462.288 272.754 444.374 248.654 422.102C233.033 447.113 209.928 466.87 182.543 478.292Z" fill="#FF9100"/>
<path d="M248.653 422.11C193.642 371.232 160.269 297.594 163.09 216.825C163.182 214.203 163.32 211.581 163.482 208.961C153.63 206.413 143.344 204.858 132.759 204.489C117.608 203.96 102.935 205.839 89.0827 209.739C74.3975 235.463 65.5357 264.978 64.4316 296.592C61.5825 378.18 110.957 449.47 182.541 478.3C209.927 466.877 233.031 447.145 248.653 422.11Z" fill="#FFC400"/>
<path d="M248.652 422.107C261.442 401.639 269.196 377.643 270.099 351.79C272.474 283.784 226.757 225.283 163.482 208.958C163.32 211.579 163.182 214.2 163.09 216.823C160.269 297.591 193.641 371.23 248.652 422.107Z" fill="#FF9100"/>
<path d="M263.024 17.7992C226.987 46.6695 198.53 84.7377 181.313 128.591C171.456 153.71 165.261 180.692 163.453 208.975C226.728 225.3 272.446 283.801 270.071 351.806C269.168 377.66 261.391 401.632 248.623 422.124C272.722 444.419 300.959 462.31 332.137 474.559C394.718 445.631 439.12 383.384 441.691 309.757C443.357 262.055 425.029 219.54 399.131 183.654C371.781 145.7 263.024 17.7992 263.024 17.7992Z" fill="#DD2C00"/>
</svg>
