<svg width="512" height="501" viewBox="0 0 512 501" fill="none" xmlns="http://www.w3.org/2000/svg">
<g clip-path="url(#clip0_70_554)">
<path fill-rule="evenodd" clip-rule="evenodd" d="M255.237 0C114.098 0 0 114.812 0 256.851C0 370.39 73.1063 466.499 174.524 500.515C187.204 503.072 191.849 494.988 191.849 488.188C191.849 482.233 191.431 461.823 191.431 440.556C120.43 455.868 105.644 409.938 105.644 409.938C94.2341 380.17 77.3277 372.52 77.3277 372.52C54.0891 356.785 79.0204 356.785 79.0204 356.785C104.798 358.486 118.324 383.15 118.324 383.15C141.14 422.27 177.904 411.217 192.695 404.411C194.806 387.826 201.571 376.345 208.755 369.968C152.127 364.013 92.5466 341.901 92.5466 243.241C92.5466 215.174 102.682 192.212 118.742 174.353C116.208 167.976 107.332 141.606 121.281 106.311C121.281 106.311 142.832 99.5059 191.425 132.676C212.23 127.054 233.685 124.194 255.237 124.17C276.788 124.17 298.757 127.15 319.044 132.676C367.642 99.5059 389.193 106.311 389.193 106.311C403.143 141.606 394.261 167.976 391.727 174.353C408.21 192.212 417.928 215.174 417.928 243.241C417.928 341.901 358.348 363.585 301.296 369.968C310.596 378.046 318.621 393.353 318.621 417.594C318.621 452.038 318.203 479.681 318.203 488.183C318.203 494.988 322.853 503.072 335.527 500.52C436.945 466.494 510.051 370.39 510.051 256.851C510.469 114.812 395.954 0 255.237 0Z" fill="#24292F"/>
</g>
<defs>
<clipPath id="clip0_70_554">
<rect width="512" height="501" fill="white"/>
</clipPath>
</defs>
</svg>
