<svg width="512" height="512" viewBox="0 0 512 512" fill="none" xmlns="http://www.w3.org/2000/svg">
<path d="M352.184 66.4078V439.829C352.184 481.645 381.004 504.895 411.592 504.895C439.881 504.895 470.999 485.092 470.999 439.829V69.2368C470.999 30.9576 442.71 7 411.592 7C380.473 7 352.184 33.4329 352.184 66.4078Z" fill="#F8AB00"/>
<path d="M196.596 255.947V439.829C196.596 481.644 225.416 504.895 256.004 504.895C284.293 504.895 315.412 485.092 315.412 439.829V258.776C315.412 220.497 287.122 196.54 256.004 196.54C224.885 196.54 196.596 222.973 196.596 255.947Z" fill="#E37300"/>
<path d="M159.816 445.487C159.816 478.285 133.206 504.895 100.408 504.895C67.6098 504.895 41 478.285 41 445.487C41 412.689 67.6098 386.079 100.408 386.079C133.206 386.079 159.816 412.689 159.816 445.487Z" fill="#E37300"/>
</svg>
