<svg width="512" height="512" viewBox="0 0 512 512" fill="none" xmlns="http://www.w3.org/2000/svg">
<g clip-path="url(#clip0_70_593)">
<g clip-path="url(#clip1_70_593)">
<path d="M252.731 16.0038C233.557 16.0929 215.247 17.7272 199.135 20.5764C151.673 28.9566 143.055 46.4969 143.055 78.8442V121.565H255.215V135.806H143.055H100.963C68.3661 135.806 39.8235 155.387 30.8958 192.636C20.5977 235.333 20.1409 261.977 30.8958 306.559C38.8685 339.744 57.9084 363.39 90.5051 363.39H129.068V312.177C129.068 275.178 161.099 242.543 199.135 242.543H311.164C342.349 242.543 367.244 216.881 367.244 185.581V78.8442C367.244 48.4662 341.601 25.6464 311.164 20.5764C291.897 17.371 271.905 15.9148 252.731 16.0038ZM192.076 50.3635C203.661 50.3635 213.122 59.9734 213.122 71.7894C213.122 83.5635 203.661 93.0845 192.076 93.0845C180.449 93.0845 171.03 83.5635 171.03 71.7894C171.03 59.9734 180.449 50.3635 192.076 50.3635Z" fill="url(#paint0_linear_70_593)"/>
<path d="M381.23 135.806V185.581C381.23 224.172 348.494 256.652 311.163 256.652H199.134C168.448 256.652 143.055 282.901 143.055 313.614V420.351C143.055 450.729 169.486 468.597 199.134 477.312C234.638 487.746 268.684 489.631 311.163 477.312C339.4 469.142 367.243 452.698 367.243 420.351V377.63H255.214V363.39H367.243H423.323C455.92 363.39 468.067 340.666 479.403 306.559C491.113 271.446 490.614 237.679 479.403 192.636C471.347 160.205 455.961 135.806 423.323 135.806H381.23ZM318.222 406.111C329.849 406.111 339.269 415.632 339.269 427.406C339.269 439.222 329.849 448.832 318.222 448.832C306.637 448.832 297.176 439.222 297.176 427.406C297.176 415.632 306.637 406.111 318.222 406.111Z" fill="url(#paint1_linear_70_593)"/>
</g>
</g>
<defs>
<linearGradient id="paint0_linear_70_593" x1="23" y1="16" x2="281.5" y2="236.407" gradientUnits="userSpaceOnUse">
<stop stop-color="#5A9FD4"/>
<stop offset="1" stop-color="#306998"/>
</linearGradient>
<linearGradient id="paint1_linear_70_593" x1="315.527" y1="423.814" x2="222.814" y2="293.818" gradientUnits="userSpaceOnUse">
<stop stop-color="#FFD43B"/>
<stop offset="1" stop-color="#FFE873"/>
</linearGradient>
<clipPath id="clip0_70_593">
<rect width="512" height="512" fill="white"/>
</clipPath>
<clipPath id="clip1_70_593">
<rect width="465" height="563" fill="white" transform="translate(23 16)"/>
</clipPath>
</defs>
</svg>
